%TF.GenerationSoftware,KiCad,Pcbnew,(5.1.7-0-10_14)*%
%TF.CreationDate,2020-11-03T23:52:54+09:00*%
%TF.ProjectId,contender,636f6e74-656e-4646-9572-2e6b69636164,rev?*%
%TF.SameCoordinates,Original*%
%TF.FileFunction,Legend,Bot*%
%TF.FilePolarity,Positive*%
%FSLAX46Y46*%
G04 Gerber Fmt 4.6, Leading zero omitted, Abs format (unit mm)*
G04 Created by KiCad (PCBNEW (5.1.7-0-10_14)) date 2020-11-03 23:52:54*
%MOMM*%
%LPD*%
G01*
G04 APERTURE LIST*
%ADD10C,0.125000*%
%ADD11C,0.010000*%
%ADD12C,0.150000*%
%ADD13C,0.120000*%
G04 APERTURE END LIST*
D10*
X88389285Y-69808285D02*
X88389285Y-69058285D01*
X88389285Y-69772571D02*
X88460714Y-69808285D01*
X88603571Y-69808285D01*
X88675000Y-69772571D01*
X88710714Y-69736857D01*
X88746428Y-69665428D01*
X88746428Y-69451142D01*
X88710714Y-69379714D01*
X88675000Y-69344000D01*
X88603571Y-69308285D01*
X88460714Y-69308285D01*
X88389285Y-69344000D01*
X87746428Y-69772571D02*
X87817857Y-69808285D01*
X87960714Y-69808285D01*
X88032142Y-69772571D01*
X88067857Y-69701142D01*
X88067857Y-69415428D01*
X88032142Y-69344000D01*
X87960714Y-69308285D01*
X87817857Y-69308285D01*
X87746428Y-69344000D01*
X87710714Y-69415428D01*
X87710714Y-69486857D01*
X88067857Y-69558285D01*
X87425000Y-69772571D02*
X87353571Y-69808285D01*
X87210714Y-69808285D01*
X87139285Y-69772571D01*
X87103571Y-69701142D01*
X87103571Y-69665428D01*
X87139285Y-69594000D01*
X87210714Y-69558285D01*
X87317857Y-69558285D01*
X87389285Y-69522571D01*
X87425000Y-69451142D01*
X87425000Y-69415428D01*
X87389285Y-69344000D01*
X87317857Y-69308285D01*
X87210714Y-69308285D01*
X87139285Y-69344000D01*
X86782142Y-69808285D02*
X86782142Y-69308285D01*
X86782142Y-69058285D02*
X86817857Y-69094000D01*
X86782142Y-69129714D01*
X86746428Y-69094000D01*
X86782142Y-69058285D01*
X86782142Y-69129714D01*
X86103571Y-69308285D02*
X86103571Y-69915428D01*
X86139285Y-69986857D01*
X86175000Y-70022571D01*
X86246428Y-70058285D01*
X86353571Y-70058285D01*
X86425000Y-70022571D01*
X86103571Y-69772571D02*
X86175000Y-69808285D01*
X86317857Y-69808285D01*
X86389285Y-69772571D01*
X86425000Y-69736857D01*
X86460714Y-69665428D01*
X86460714Y-69451142D01*
X86425000Y-69379714D01*
X86389285Y-69344000D01*
X86317857Y-69308285D01*
X86175000Y-69308285D01*
X86103571Y-69344000D01*
X85746428Y-69308285D02*
X85746428Y-69808285D01*
X85746428Y-69379714D02*
X85710714Y-69344000D01*
X85639285Y-69308285D01*
X85532142Y-69308285D01*
X85460714Y-69344000D01*
X85425000Y-69415428D01*
X85425000Y-69808285D01*
X84782142Y-69772571D02*
X84853571Y-69808285D01*
X84996428Y-69808285D01*
X85067857Y-69772571D01*
X85103571Y-69701142D01*
X85103571Y-69415428D01*
X85067857Y-69344000D01*
X84996428Y-69308285D01*
X84853571Y-69308285D01*
X84782142Y-69344000D01*
X84746428Y-69415428D01*
X84746428Y-69486857D01*
X85103571Y-69558285D01*
X84103571Y-69808285D02*
X84103571Y-69058285D01*
X84103571Y-69772571D02*
X84175000Y-69808285D01*
X84317857Y-69808285D01*
X84389285Y-69772571D01*
X84425000Y-69736857D01*
X84460714Y-69665428D01*
X84460714Y-69451142D01*
X84425000Y-69379714D01*
X84389285Y-69344000D01*
X84317857Y-69308285D01*
X84175000Y-69308285D01*
X84103571Y-69344000D01*
X83175000Y-69808285D02*
X83175000Y-69058285D01*
X83175000Y-69344000D02*
X83103571Y-69308285D01*
X82960714Y-69308285D01*
X82889285Y-69344000D01*
X82853571Y-69379714D01*
X82817857Y-69451142D01*
X82817857Y-69665428D01*
X82853571Y-69736857D01*
X82889285Y-69772571D01*
X82960714Y-69808285D01*
X83103571Y-69808285D01*
X83175000Y-69772571D01*
X82567857Y-69308285D02*
X82389285Y-69808285D01*
X82210714Y-69308285D02*
X82389285Y-69808285D01*
X82460714Y-69986857D01*
X82496428Y-70022571D01*
X82567857Y-70058285D01*
X81389285Y-69772571D02*
X81317857Y-69808285D01*
X81175000Y-69808285D01*
X81103571Y-69772571D01*
X81067857Y-69701142D01*
X81067857Y-69665428D01*
X81103571Y-69594000D01*
X81175000Y-69558285D01*
X81282142Y-69558285D01*
X81353571Y-69522571D01*
X81389285Y-69451142D01*
X81389285Y-69415428D01*
X81353571Y-69344000D01*
X81282142Y-69308285D01*
X81175000Y-69308285D01*
X81103571Y-69344000D01*
X80853571Y-69308285D02*
X80567857Y-69308285D01*
X80746428Y-69058285D02*
X80746428Y-69701142D01*
X80710714Y-69772571D01*
X80639285Y-69808285D01*
X80567857Y-69808285D01*
X79996428Y-69308285D02*
X79996428Y-69808285D01*
X80317857Y-69308285D02*
X80317857Y-69701142D01*
X80282142Y-69772571D01*
X80210714Y-69808285D01*
X80103571Y-69808285D01*
X80032142Y-69772571D01*
X79996428Y-69736857D01*
X79639285Y-69308285D02*
X79639285Y-70058285D01*
X79639285Y-69344000D02*
X79567857Y-69308285D01*
X79425000Y-69308285D01*
X79353571Y-69344000D01*
X79317857Y-69379714D01*
X79282142Y-69451142D01*
X79282142Y-69665428D01*
X79317857Y-69736857D01*
X79353571Y-69772571D01*
X79425000Y-69808285D01*
X79567857Y-69808285D01*
X79639285Y-69772571D01*
X78639285Y-69808285D02*
X78639285Y-69415428D01*
X78675000Y-69344000D01*
X78746428Y-69308285D01*
X78889285Y-69308285D01*
X78960714Y-69344000D01*
X78639285Y-69772571D02*
X78710714Y-69808285D01*
X78889285Y-69808285D01*
X78960714Y-69772571D01*
X78996428Y-69701142D01*
X78996428Y-69629714D01*
X78960714Y-69558285D01*
X78889285Y-69522571D01*
X78710714Y-69522571D01*
X78639285Y-69486857D01*
X78282142Y-69736857D02*
X78246428Y-69772571D01*
X78282142Y-69808285D01*
X78317857Y-69772571D01*
X78282142Y-69736857D01*
X78282142Y-69808285D01*
X77603571Y-69808285D02*
X77603571Y-69058285D01*
X77603571Y-69772571D02*
X77675000Y-69808285D01*
X77817857Y-69808285D01*
X77889285Y-69772571D01*
X77925000Y-69736857D01*
X77960714Y-69665428D01*
X77960714Y-69451142D01*
X77925000Y-69379714D01*
X77889285Y-69344000D01*
X77817857Y-69308285D01*
X77675000Y-69308285D01*
X77603571Y-69344000D01*
X76960714Y-69772571D02*
X77032142Y-69808285D01*
X77175000Y-69808285D01*
X77246428Y-69772571D01*
X77282142Y-69701142D01*
X77282142Y-69415428D01*
X77246428Y-69344000D01*
X77175000Y-69308285D01*
X77032142Y-69308285D01*
X76960714Y-69344000D01*
X76925000Y-69415428D01*
X76925000Y-69486857D01*
X77282142Y-69558285D01*
X76675000Y-69308285D02*
X76496428Y-69808285D01*
X76317857Y-69308285D01*
D11*
%TO.C,G\u002A\u002A\u002A*%
G36*
X93355979Y-66357030D02*
G01*
X93293547Y-66385425D01*
X93261141Y-66407036D01*
X93201703Y-66460622D01*
X93146307Y-66529421D01*
X93096650Y-66609977D01*
X93054431Y-66698835D01*
X93021345Y-66792540D01*
X92999089Y-66887637D01*
X92990506Y-66958083D01*
X92988346Y-67005235D01*
X92989852Y-67045463D01*
X92996271Y-67082380D01*
X93008849Y-67119602D01*
X93028835Y-67160742D01*
X93057475Y-67209416D01*
X93096015Y-67269238D01*
X93099866Y-67275071D01*
X93212758Y-67452243D01*
X93328371Y-67646043D01*
X93445751Y-67854647D01*
X93563945Y-68076230D01*
X93681998Y-68308969D01*
X93798955Y-68551039D01*
X93913864Y-68800617D01*
X93999967Y-68995882D01*
X94075753Y-69176983D01*
X94141732Y-69347978D01*
X94199524Y-69513711D01*
X94250747Y-69679024D01*
X94297020Y-69848760D01*
X94329007Y-69979969D01*
X94347440Y-70056050D01*
X94363911Y-70116191D01*
X94379501Y-70163019D01*
X94395292Y-70199161D01*
X94412366Y-70227243D01*
X94431807Y-70249893D01*
X94445243Y-70262126D01*
X94493905Y-70291393D01*
X94549441Y-70304247D01*
X94610216Y-70301055D01*
X94674596Y-70282187D01*
X94740947Y-70248011D01*
X94807636Y-70198894D01*
X94834951Y-70174280D01*
X94870771Y-70137428D01*
X94906998Y-70095605D01*
X94937247Y-70056300D01*
X94944199Y-70046123D01*
X94986473Y-69981703D01*
X95108829Y-70055859D01*
X95267907Y-70145944D01*
X95420426Y-70219224D01*
X95567460Y-70276092D01*
X95710086Y-70316939D01*
X95849379Y-70342156D01*
X95913222Y-70348660D01*
X96012720Y-70347099D01*
X96111201Y-70328075D01*
X96206812Y-70292923D01*
X96297700Y-70242976D01*
X96382010Y-70179570D01*
X96457890Y-70104036D01*
X96523486Y-70017711D01*
X96576943Y-69921926D01*
X96606137Y-69850000D01*
X96617420Y-69815454D01*
X96624867Y-69785703D01*
X96629216Y-69755132D01*
X96631205Y-69718128D01*
X96631575Y-69669076D01*
X96631519Y-69657148D01*
X96623076Y-69523688D01*
X96608697Y-69443045D01*
X95884479Y-69443045D01*
X95881252Y-69455756D01*
X95872407Y-69465724D01*
X95865857Y-69471157D01*
X95847549Y-69481123D01*
X95822947Y-69484981D01*
X95789665Y-69482435D01*
X95745318Y-69473188D01*
X95687518Y-69456942D01*
X95645468Y-69443738D01*
X95547604Y-69408557D01*
X95459136Y-69368283D01*
X95371409Y-69318788D01*
X95334667Y-69295535D01*
X95258991Y-69242214D01*
X95179475Y-69178834D01*
X95100154Y-69109119D01*
X95025065Y-69036795D01*
X94958243Y-68965585D01*
X94903725Y-68899215D01*
X94900518Y-68894905D01*
X94871355Y-68853309D01*
X94845792Y-68812896D01*
X94825524Y-68776794D01*
X94812245Y-68748127D01*
X94807650Y-68730019D01*
X94808951Y-68726066D01*
X94830532Y-68713523D01*
X94866117Y-68701286D01*
X94910910Y-68690418D01*
X94960117Y-68681984D01*
X95008941Y-68677048D01*
X95033630Y-68676210D01*
X95075994Y-68676734D01*
X95108662Y-68679755D01*
X95138974Y-68686779D01*
X95174271Y-68699312D01*
X95202963Y-68710959D01*
X95328566Y-68769728D01*
X95444654Y-68837365D01*
X95549957Y-68912595D01*
X95643207Y-68994141D01*
X95723134Y-69080727D01*
X95788470Y-69171079D01*
X95837945Y-69263919D01*
X95870291Y-69357974D01*
X95876869Y-69388405D01*
X95882785Y-69422343D01*
X95884479Y-69443045D01*
X96608697Y-69443045D01*
X96598924Y-69388242D01*
X96567743Y-69275582D01*
X96557837Y-69242776D01*
X96551393Y-69218209D01*
X96549503Y-69206152D01*
X96549876Y-69205592D01*
X96555223Y-69213618D01*
X96567017Y-69235708D01*
X96583737Y-69268881D01*
X96603863Y-69310157D01*
X96613575Y-69330474D01*
X96663575Y-69437224D01*
X96705724Y-69531048D01*
X96741304Y-69615469D01*
X96771598Y-69694010D01*
X96797888Y-69770194D01*
X96821456Y-69847544D01*
X96843584Y-69929582D01*
X96865556Y-70019832D01*
X96867417Y-70027822D01*
X96888080Y-70112921D01*
X96907128Y-70181623D01*
X96925676Y-70236146D01*
X96944839Y-70278709D01*
X96965733Y-70311531D01*
X96989473Y-70336830D01*
X97017175Y-70356824D01*
X97038665Y-70368434D01*
X97074155Y-70383519D01*
X97105090Y-70389731D01*
X97142184Y-70389189D01*
X97143288Y-70389107D01*
X97191774Y-70381721D01*
X97234835Y-70365893D01*
X97277067Y-70339192D01*
X97323065Y-70299186D01*
X97334592Y-70287915D01*
X97372456Y-70246928D01*
X97403103Y-70204893D01*
X97431783Y-70154328D01*
X97440518Y-70136926D01*
X97469304Y-70075317D01*
X97490965Y-70020367D01*
X97506452Y-69967510D01*
X97516715Y-69912180D01*
X97522707Y-69849810D01*
X97525378Y-69775835D01*
X97525778Y-69727703D01*
X97525603Y-69663616D01*
X97524601Y-69614235D01*
X97522418Y-69575458D01*
X97518703Y-69543183D01*
X97513104Y-69513308D01*
X97505268Y-69481731D01*
X97504371Y-69478407D01*
X97480862Y-69401195D01*
X97448844Y-69310561D01*
X97409452Y-69209240D01*
X97363819Y-69099964D01*
X97313081Y-68985469D01*
X97258373Y-68868488D01*
X97212134Y-68774201D01*
X97189524Y-68728394D01*
X97170606Y-68688755D01*
X97156714Y-68658184D01*
X97149179Y-68639581D01*
X97148322Y-68635282D01*
X97157141Y-68639071D01*
X97177270Y-68653981D01*
X97206509Y-68678041D01*
X97242658Y-68709280D01*
X97283516Y-68745726D01*
X97326882Y-68785407D01*
X97370555Y-68826352D01*
X97412334Y-68866589D01*
X97450019Y-68904147D01*
X97460741Y-68915160D01*
X97567273Y-69028839D01*
X97672426Y-69147926D01*
X97778657Y-69275357D01*
X97888419Y-69414072D01*
X97994247Y-69553666D01*
X98029173Y-69601218D01*
X98067949Y-69655130D01*
X98109167Y-69713336D01*
X98151419Y-69773769D01*
X98193296Y-69834362D01*
X98233392Y-69893048D01*
X98270298Y-69947761D01*
X98302606Y-69996433D01*
X98328908Y-70036997D01*
X98347796Y-70067388D01*
X98357862Y-70085537D01*
X98359148Y-70089338D01*
X98364617Y-70110061D01*
X98379119Y-70140648D01*
X98399800Y-70176379D01*
X98423805Y-70212535D01*
X98448279Y-70244396D01*
X98462204Y-70259692D01*
X98509256Y-70297022D01*
X98560823Y-70321227D01*
X98612495Y-70330609D01*
X98640945Y-70328560D01*
X98705212Y-70307700D01*
X98767165Y-70269987D01*
X98825408Y-70217359D01*
X98878542Y-70151754D01*
X98925169Y-70075110D01*
X98963893Y-69989367D01*
X98993314Y-69896463D01*
X99009316Y-69817627D01*
X99020710Y-69743198D01*
X99065136Y-69806006D01*
X99125000Y-69882449D01*
X99192584Y-69952472D01*
X99270113Y-70017780D01*
X99359807Y-70080076D01*
X99463888Y-70141066D01*
X99577407Y-70199008D01*
X99718683Y-70260583D01*
X99867544Y-70313356D01*
X100021064Y-70356827D01*
X100176316Y-70390492D01*
X100330374Y-70413850D01*
X100480311Y-70426399D01*
X100623202Y-70427638D01*
X100756120Y-70417064D01*
X100805074Y-70409550D01*
X100941197Y-70378798D01*
X101063698Y-70337329D01*
X101172094Y-70285503D01*
X101265901Y-70223678D01*
X101344633Y-70152215D01*
X101407807Y-70071472D01*
X101454938Y-69981809D01*
X101479394Y-69909204D01*
X101486830Y-69868345D01*
X101491873Y-69814771D01*
X101494359Y-69754450D01*
X101494125Y-69693348D01*
X101491007Y-69637432D01*
X101487635Y-69608520D01*
X101481543Y-69567777D01*
X101511696Y-69605407D01*
X101539175Y-69637111D01*
X101577952Y-69678290D01*
X101625089Y-69726115D01*
X101677648Y-69777758D01*
X101732692Y-69830390D01*
X101787285Y-69881182D01*
X101838488Y-69927305D01*
X101883365Y-69965931D01*
X101901037Y-69980372D01*
X101995403Y-70052810D01*
X102091530Y-70121099D01*
X102186733Y-70183591D01*
X102278325Y-70238642D01*
X102363617Y-70284603D01*
X102439924Y-70319829D01*
X102479592Y-70334893D01*
X102562009Y-70353455D01*
X102649531Y-70355793D01*
X102739948Y-70343018D01*
X102831049Y-70316240D01*
X102920626Y-70276571D01*
X103006467Y-70225122D01*
X103086362Y-70163001D01*
X103158101Y-70091322D01*
X103219474Y-70011193D01*
X103258860Y-69943279D01*
X103288170Y-69879376D01*
X103307416Y-69821890D01*
X103318746Y-69762923D01*
X103323840Y-69704164D01*
X103325381Y-69661910D01*
X103324407Y-69627053D01*
X103320128Y-69593139D01*
X103311752Y-69553711D01*
X103299638Y-69506608D01*
X103265457Y-69389482D01*
X103222607Y-69260248D01*
X103172562Y-69122647D01*
X103116795Y-68980420D01*
X103056779Y-68837306D01*
X102993988Y-68697046D01*
X102929895Y-68563380D01*
X102921393Y-68546382D01*
X102904752Y-68512860D01*
X102891941Y-68486242D01*
X102884890Y-68470580D01*
X102884111Y-68468213D01*
X102891545Y-68461717D01*
X102910701Y-68449219D01*
X102928796Y-68438445D01*
X102964077Y-68416198D01*
X103001012Y-68390081D01*
X103014397Y-68379711D01*
X103038997Y-68361287D01*
X103053776Y-68354566D01*
X103062359Y-68358090D01*
X103063642Y-68359882D01*
X103071153Y-68376350D01*
X103072115Y-68381636D01*
X103077082Y-68391925D01*
X103090785Y-68415231D01*
X103111577Y-68448880D01*
X103137809Y-68490201D01*
X103164976Y-68532154D01*
X103266063Y-68693602D01*
X103368323Y-68869855D01*
X103469735Y-69057177D01*
X103568274Y-69251831D01*
X103661920Y-69450081D01*
X103661967Y-69450185D01*
X103700994Y-69537543D01*
X103733450Y-69614547D01*
X103761049Y-69686132D01*
X103785505Y-69757233D01*
X103808531Y-69832787D01*
X103831841Y-69917729D01*
X103853038Y-70000518D01*
X103872680Y-70078387D01*
X103888821Y-70140358D01*
X103902334Y-70188836D01*
X103914092Y-70226223D01*
X103924967Y-70254920D01*
X103935833Y-70277332D01*
X103947561Y-70295861D01*
X103961024Y-70312910D01*
X103970351Y-70323485D01*
X104016012Y-70360719D01*
X104070170Y-70383219D01*
X104129011Y-70390481D01*
X104188722Y-70382002D01*
X104241919Y-70359413D01*
X104288647Y-70325081D01*
X104336813Y-70277604D01*
X104382267Y-70221802D01*
X104420857Y-70162497D01*
X104435601Y-70134456D01*
X104483782Y-70013030D01*
X104513987Y-69886515D01*
X104526164Y-69755549D01*
X104520257Y-69620770D01*
X104496215Y-69482815D01*
X104491721Y-69464547D01*
X104476115Y-69411507D01*
X104453082Y-69344661D01*
X104423838Y-69266915D01*
X104389601Y-69181175D01*
X104351589Y-69090345D01*
X104311020Y-68997331D01*
X104269111Y-68905039D01*
X104227081Y-68816374D01*
X104186147Y-68734240D01*
X104183247Y-68728604D01*
X104164502Y-68691441D01*
X104149903Y-68660935D01*
X104141084Y-68640607D01*
X104139331Y-68633977D01*
X104149338Y-68636750D01*
X104170547Y-68651829D01*
X104201413Y-68677680D01*
X104240393Y-68712770D01*
X104285943Y-68755564D01*
X104336519Y-68804528D01*
X104390579Y-68858128D01*
X104446578Y-68914830D01*
X104502972Y-68973099D01*
X104558218Y-69031402D01*
X104610772Y-69088204D01*
X104659091Y-69141971D01*
X104701630Y-69191170D01*
X104709777Y-69200888D01*
X104766684Y-69270470D01*
X104827071Y-69346593D01*
X104889668Y-69427480D01*
X104953205Y-69511357D01*
X105016413Y-69596446D01*
X105078022Y-69680974D01*
X105136763Y-69763162D01*
X105191366Y-69841237D01*
X105240561Y-69913421D01*
X105283080Y-69977939D01*
X105317652Y-70033015D01*
X105343007Y-70076874D01*
X105357611Y-70107058D01*
X105393923Y-70182016D01*
X105437344Y-70242309D01*
X105486624Y-70287216D01*
X105540511Y-70316018D01*
X105597755Y-70327995D01*
X105657107Y-70322426D01*
X105702998Y-70305947D01*
X105743159Y-70280882D01*
X105787757Y-70243405D01*
X105832639Y-70197846D01*
X105873653Y-70148533D01*
X105906648Y-70099794D01*
X105914752Y-70085185D01*
X105934746Y-70043016D01*
X105955727Y-69992814D01*
X105973521Y-69944638D01*
X105975277Y-69939370D01*
X105985901Y-69905286D01*
X105993249Y-69875661D01*
X105997936Y-69845544D01*
X106000574Y-69809985D01*
X106001777Y-69764034D01*
X106002095Y-69723000D01*
X106001856Y-69664037D01*
X106000261Y-69618908D01*
X105996822Y-69582654D01*
X105991049Y-69550313D01*
X105982457Y-69516924D01*
X105981494Y-69513580D01*
X105971643Y-69478961D01*
X105964235Y-69451735D01*
X105960534Y-69436579D01*
X105960333Y-69435142D01*
X105965443Y-69440326D01*
X105979473Y-69458284D01*
X106000475Y-69486433D01*
X106026498Y-69522189D01*
X106036061Y-69535505D01*
X106146948Y-69682824D01*
X106256570Y-69812440D01*
X106366399Y-69925264D01*
X106477906Y-70022208D01*
X106592563Y-70104183D01*
X106711841Y-70172101D01*
X106837213Y-70226873D01*
X106970148Y-70269411D01*
X107112119Y-70300627D01*
X107264597Y-70321431D01*
X107311717Y-70325706D01*
X107438402Y-70331252D01*
X107554497Y-70325774D01*
X107665075Y-70308673D01*
X107775210Y-70279349D01*
X107813592Y-70266441D01*
X107958674Y-70206077D01*
X108093387Y-70131363D01*
X108216527Y-70043219D01*
X108326890Y-69942563D01*
X108423272Y-69830313D01*
X108467453Y-69767685D01*
X108485631Y-69740737D01*
X108499601Y-69721359D01*
X108506436Y-69713603D01*
X108506515Y-69713592D01*
X108514839Y-69719149D01*
X108534271Y-69734064D01*
X108561423Y-69755700D01*
X108578091Y-69769243D01*
X108684812Y-69848620D01*
X108807634Y-69926087D01*
X108943859Y-70000498D01*
X109090788Y-70070706D01*
X109245722Y-70135563D01*
X109405963Y-70193922D01*
X109568814Y-70244636D01*
X109731574Y-70286558D01*
X109855000Y-70312098D01*
X109912783Y-70320306D01*
X109980046Y-70325995D01*
X110052354Y-70329152D01*
X110125270Y-70329768D01*
X110194361Y-70327830D01*
X110255189Y-70323328D01*
X110303320Y-70316250D01*
X110315963Y-70313266D01*
X110420386Y-70276418D01*
X110513678Y-70225123D01*
X110596099Y-70159090D01*
X110667905Y-70078027D01*
X110729355Y-69981646D01*
X110780707Y-69869653D01*
X110822016Y-69742508D01*
X110830490Y-69709784D01*
X110836744Y-69680789D01*
X110841112Y-69651718D01*
X110843927Y-69618767D01*
X110845523Y-69578129D01*
X110846233Y-69526001D01*
X110846390Y-69464296D01*
X110846267Y-69399150D01*
X110845621Y-69348837D01*
X110844062Y-69309373D01*
X110841201Y-69276776D01*
X110836649Y-69247065D01*
X110830016Y-69216256D01*
X110820914Y-69180367D01*
X110817314Y-69166776D01*
X110777283Y-69034116D01*
X110729410Y-68909702D01*
X110672167Y-68790984D01*
X110604027Y-68675413D01*
X110523465Y-68560439D01*
X110428953Y-68443514D01*
X110318963Y-68322088D01*
X110298652Y-68300852D01*
X110184053Y-68186807D01*
X110063245Y-68075727D01*
X109938180Y-67968997D01*
X109810809Y-67868007D01*
X109683085Y-67774142D01*
X109556960Y-67688791D01*
X109434386Y-67613341D01*
X109317316Y-67549179D01*
X109207702Y-67497692D01*
X109122766Y-67465237D01*
X109014728Y-67435912D01*
X108914878Y-67422937D01*
X108823549Y-67426215D01*
X108741071Y-67445647D01*
X108667774Y-67481139D01*
X108603989Y-67532591D01*
X108550046Y-67599909D01*
X108526546Y-67640099D01*
X108502883Y-67691901D01*
X108478188Y-67758006D01*
X108453824Y-67834055D01*
X108431154Y-67915688D01*
X108411542Y-67998548D01*
X108405910Y-68025736D01*
X108394371Y-68096477D01*
X108386014Y-68174216D01*
X108380994Y-68254244D01*
X108379467Y-68331854D01*
X108381589Y-68402334D01*
X108387515Y-68460978D01*
X108390888Y-68479606D01*
X108414969Y-68563532D01*
X108448218Y-68634266D01*
X108489703Y-68690786D01*
X108538488Y-68732070D01*
X108593639Y-68757097D01*
X108651653Y-68764879D01*
X108706711Y-68758297D01*
X108755811Y-68738608D01*
X108800436Y-68704538D01*
X108842068Y-68654813D01*
X108882191Y-68588158D01*
X108900964Y-68550585D01*
X108928548Y-68495156D01*
X108951994Y-68455378D01*
X108973458Y-68429166D01*
X108995096Y-68414441D01*
X109019063Y-68409120D01*
X109045654Y-68410834D01*
X109077330Y-68417692D01*
X109116881Y-68429102D01*
X109149281Y-68440246D01*
X109222400Y-68472344D01*
X109305487Y-68516773D01*
X109396104Y-68571716D01*
X109491812Y-68635360D01*
X109590173Y-68705889D01*
X109688750Y-68781487D01*
X109785105Y-68860340D01*
X109876798Y-68940632D01*
X109961393Y-69020549D01*
X110036450Y-69098276D01*
X110043312Y-69105830D01*
X110092993Y-69162928D01*
X110130129Y-69210884D01*
X110156570Y-69252668D01*
X110174169Y-69291250D01*
X110184779Y-69329599D01*
X110185619Y-69334045D01*
X110190616Y-69378919D01*
X110186197Y-69413224D01*
X110170728Y-69438189D01*
X110142574Y-69455042D01*
X110100099Y-69465012D01*
X110041670Y-69469328D01*
X110005033Y-69469748D01*
X109889094Y-69464172D01*
X109760708Y-69448486D01*
X109622842Y-69423366D01*
X109619305Y-69422536D01*
X107831547Y-69422536D01*
X107829834Y-69448270D01*
X107823831Y-69467759D01*
X107812456Y-69487230D01*
X107812064Y-69487814D01*
X107789568Y-69512533D01*
X107759423Y-69535429D01*
X107748023Y-69541907D01*
X107707134Y-69555333D01*
X107652968Y-69562486D01*
X107590004Y-69563322D01*
X107522717Y-69557799D01*
X107455585Y-69545877D01*
X107450568Y-69544697D01*
X107322998Y-69505818D01*
X107195638Y-69451278D01*
X107070946Y-69382978D01*
X106951383Y-69302818D01*
X106839405Y-69212698D01*
X106737473Y-69114518D01*
X106648044Y-69010178D01*
X106573577Y-68901580D01*
X106539996Y-68840934D01*
X106512288Y-68778185D01*
X106488037Y-68707873D01*
X106468132Y-68634227D01*
X106453462Y-68561473D01*
X106444916Y-68493840D01*
X106443384Y-68435556D01*
X106447376Y-68400504D01*
X106457190Y-68374488D01*
X106475537Y-68357032D01*
X106504748Y-68347391D01*
X106547153Y-68344821D01*
X106605079Y-68348578D01*
X106608758Y-68348953D01*
X106702854Y-68365955D01*
X106804642Y-68397435D01*
X106911896Y-68441883D01*
X107022388Y-68497789D01*
X107133891Y-68563643D01*
X107244178Y-68637936D01*
X107351022Y-68719157D01*
X107452195Y-68805797D01*
X107545471Y-68896346D01*
X107628623Y-68989294D01*
X107699422Y-69083132D01*
X107705857Y-69092686D01*
X107751409Y-69164415D01*
X107785211Y-69225879D01*
X107808636Y-69280297D01*
X107823053Y-69330889D01*
X107829835Y-69380876D01*
X107830053Y-69384333D01*
X107831547Y-69422536D01*
X109619305Y-69422536D01*
X109478465Y-69389491D01*
X109330545Y-69347535D01*
X109182050Y-69298176D01*
X109074185Y-69257539D01*
X108931795Y-69203167D01*
X108804229Y-69158910D01*
X108690632Y-69124484D01*
X108619227Y-69106145D01*
X108584464Y-69096923D01*
X108557686Y-69087830D01*
X108543474Y-69080488D01*
X108542374Y-69078976D01*
X108511401Y-68985124D01*
X108472708Y-68885220D01*
X108428295Y-68783426D01*
X108380161Y-68683903D01*
X108330306Y-68590812D01*
X108280729Y-68508313D01*
X108239306Y-68448296D01*
X108160307Y-68352040D01*
X108065899Y-68252476D01*
X107958700Y-68151687D01*
X107841326Y-68051755D01*
X107716396Y-67954763D01*
X107586525Y-67862796D01*
X107454330Y-67777935D01*
X107322430Y-67702265D01*
X107263472Y-67671567D01*
X107132050Y-67609551D01*
X107010933Y-67561377D01*
X106898104Y-67526668D01*
X106791546Y-67505047D01*
X106689242Y-67496137D01*
X106589174Y-67499563D01*
X106489325Y-67514947D01*
X106460214Y-67521569D01*
X106335065Y-67560257D01*
X106222023Y-67612626D01*
X106120894Y-67678910D01*
X106031485Y-67759345D01*
X105953604Y-67854167D01*
X105887059Y-67963612D01*
X105831655Y-68087915D01*
X105787202Y-68227312D01*
X105753505Y-68382039D01*
X105752620Y-68387148D01*
X105744150Y-68444108D01*
X105736397Y-68510034D01*
X105730438Y-68575084D01*
X105728094Y-68611105D01*
X105722191Y-68726878D01*
X105654351Y-68559365D01*
X105602696Y-68434931D01*
X105547713Y-68308168D01*
X105490827Y-68182075D01*
X105433462Y-68059653D01*
X105377043Y-67943901D01*
X105322996Y-67837821D01*
X105272744Y-67744411D01*
X105240767Y-67688470D01*
X105202593Y-67630982D01*
X105157735Y-67575055D01*
X105109995Y-67524757D01*
X105063175Y-67484157D01*
X105028142Y-67460959D01*
X104963912Y-67435806D01*
X104897435Y-67427907D01*
X104832136Y-67437431D01*
X104798796Y-67449774D01*
X104736583Y-67483826D01*
X104684145Y-67526007D01*
X104635429Y-67581285D01*
X104630341Y-67587974D01*
X104571180Y-67681626D01*
X104527947Y-67782995D01*
X104501818Y-67889020D01*
X104495911Y-67937944D01*
X104492578Y-67972256D01*
X104489046Y-67997887D01*
X104485968Y-68010329D01*
X104485374Y-68010851D01*
X104477383Y-68004647D01*
X104458361Y-67987527D01*
X104430725Y-67961736D01*
X104396892Y-67929517D01*
X104376047Y-67909413D01*
X104264664Y-67806440D01*
X104157558Y-67717291D01*
X104055455Y-67642407D01*
X103959080Y-67582225D01*
X103869156Y-67537186D01*
X103786409Y-67507727D01*
X103711563Y-67494289D01*
X103689430Y-67493444D01*
X103606872Y-67502586D01*
X103522671Y-67529435D01*
X103438198Y-67573128D01*
X103354826Y-67632800D01*
X103273927Y-67707588D01*
X103196875Y-67796628D01*
X103186675Y-67809914D01*
X103172782Y-67827035D01*
X103164720Y-67830283D01*
X103157271Y-67821011D01*
X103155525Y-67818000D01*
X103142947Y-67801193D01*
X103121894Y-67777688D01*
X103104607Y-67760143D01*
X103077394Y-67736631D01*
X103049890Y-67721212D01*
X103014151Y-67709820D01*
X102999408Y-67706300D01*
X102927623Y-67691591D01*
X102841299Y-67676601D01*
X102744690Y-67661982D01*
X102642048Y-67648385D01*
X102557550Y-67638585D01*
X102405026Y-67622057D01*
X102318158Y-67484843D01*
X102261975Y-67396374D01*
X102204191Y-67305891D01*
X102145831Y-67214964D01*
X102087922Y-67125163D01*
X102031489Y-67038058D01*
X101977560Y-66955222D01*
X101927159Y-66878223D01*
X101881314Y-66808633D01*
X101841051Y-66748021D01*
X101807395Y-66697959D01*
X101781374Y-66660017D01*
X101764013Y-66635766D01*
X101759775Y-66630313D01*
X101709205Y-66575137D01*
X101656795Y-66529958D01*
X101606669Y-66498266D01*
X101600000Y-66495073D01*
X101544042Y-66479310D01*
X101483075Y-66479058D01*
X101421373Y-66493463D01*
X101363210Y-66521672D01*
X101326247Y-66549755D01*
X101268554Y-66612867D01*
X101216501Y-66691072D01*
X101171545Y-66781118D01*
X101135144Y-66879755D01*
X101108757Y-66983731D01*
X101096559Y-67061981D01*
X101091509Y-67151697D01*
X101098704Y-67229217D01*
X101118802Y-67297172D01*
X101152462Y-67358191D01*
X101179314Y-67392420D01*
X101206052Y-67423917D01*
X101235886Y-67460570D01*
X101266654Y-67499531D01*
X101296199Y-67537956D01*
X101322360Y-67573000D01*
X101342978Y-67601816D01*
X101355894Y-67621559D01*
X101359086Y-67629297D01*
X101348892Y-67633143D01*
X101324917Y-67640210D01*
X101291647Y-67649200D01*
X101278455Y-67652607D01*
X101165741Y-67684982D01*
X101064848Y-67721314D01*
X100977144Y-67760898D01*
X100903999Y-67803030D01*
X100846782Y-67847004D01*
X100806864Y-67892116D01*
X100803736Y-67896884D01*
X100780946Y-67947196D01*
X100776586Y-67996272D01*
X100790277Y-68043326D01*
X100821639Y-68087570D01*
X100870294Y-68128215D01*
X100931628Y-68162516D01*
X100959121Y-68174496D01*
X100989262Y-68185647D01*
X101024143Y-68196457D01*
X101065856Y-68207419D01*
X101116494Y-68219023D01*
X101178148Y-68231760D01*
X101252911Y-68246121D01*
X101342874Y-68262596D01*
X101407148Y-68274078D01*
X101510376Y-68292456D01*
X101596468Y-68307938D01*
X101666837Y-68320799D01*
X101722891Y-68331313D01*
X101766043Y-68339753D01*
X101797703Y-68346395D01*
X101819282Y-68351511D01*
X101832190Y-68355378D01*
X101837027Y-68357620D01*
X101843928Y-68366773D01*
X101859494Y-68390074D01*
X101882526Y-68425648D01*
X101911828Y-68471620D01*
X101946203Y-68526113D01*
X101984455Y-68587252D01*
X102017948Y-68641148D01*
X102062312Y-68712725D01*
X102107051Y-68784858D01*
X102150301Y-68854546D01*
X102190197Y-68918785D01*
X102224875Y-68974575D01*
X102252471Y-69018912D01*
X102263288Y-69036259D01*
X102309169Y-69110796D01*
X102345653Y-69172581D01*
X102374153Y-69224264D01*
X102396081Y-69268492D01*
X102412850Y-69307913D01*
X102422469Y-69334647D01*
X102437185Y-69386565D01*
X102441684Y-69426224D01*
X102435745Y-69457303D01*
X102419150Y-69483482D01*
X102413216Y-69489786D01*
X102393565Y-69507267D01*
X102375804Y-69514582D01*
X102351274Y-69514483D01*
X102339528Y-69513210D01*
X102308763Y-69508289D01*
X102275511Y-69500115D01*
X102237658Y-69487838D01*
X102193092Y-69470603D01*
X102139699Y-69447560D01*
X102075367Y-69417855D01*
X101997983Y-69380638D01*
X101938667Y-69351511D01*
X101874844Y-69320249D01*
X101814270Y-69291070D01*
X101759653Y-69265242D01*
X101713700Y-69244029D01*
X101679120Y-69228699D01*
X101658619Y-69220517D01*
X101658467Y-69220467D01*
X101606997Y-69209263D01*
X101550568Y-69206269D01*
X101497119Y-69211467D01*
X101463393Y-69220881D01*
X101439671Y-69229413D01*
X101424617Y-69233018D01*
X101422336Y-69232640D01*
X101418527Y-69222682D01*
X101410649Y-69198862D01*
X101400057Y-69165337D01*
X101393619Y-69144444D01*
X101320834Y-68937810D01*
X101231559Y-68740189D01*
X101170854Y-68631915D01*
X100146555Y-68631915D01*
X100138440Y-68638937D01*
X100120685Y-68643817D01*
X100085999Y-68647073D01*
X100039655Y-68648746D01*
X99987581Y-68648911D01*
X99935708Y-68647640D01*
X99889965Y-68645009D01*
X99856282Y-68641091D01*
X99853037Y-68640479D01*
X99744887Y-68610499D01*
X99647994Y-68566087D01*
X99560327Y-68506128D01*
X99492041Y-68442629D01*
X99461819Y-68408596D01*
X99434008Y-68373344D01*
X99410794Y-68340144D01*
X99394359Y-68312270D01*
X99386889Y-68292991D01*
X99387882Y-68286611D01*
X99400544Y-68285018D01*
X99427857Y-68288187D01*
X99466479Y-68295368D01*
X99513072Y-68305813D01*
X99564297Y-68318773D01*
X99616813Y-68333497D01*
X99667280Y-68349237D01*
X99667834Y-68349421D01*
X99804185Y-68401834D01*
X99930617Y-68464933D01*
X99996037Y-68504571D01*
X100031813Y-68529257D01*
X100067656Y-68556364D01*
X100100280Y-68583110D01*
X100126397Y-68606714D01*
X100142717Y-68624393D01*
X100146555Y-68631915D01*
X101170854Y-68631915D01*
X101125924Y-68551778D01*
X101004062Y-68372775D01*
X100866104Y-68203376D01*
X100712182Y-68043780D01*
X100584000Y-67928654D01*
X100446564Y-67820732D01*
X100303622Y-67724034D01*
X100157051Y-67639366D01*
X100008726Y-67567532D01*
X99860523Y-67509336D01*
X99714317Y-67465583D01*
X99571984Y-67437079D01*
X99435400Y-67424628D01*
X99408074Y-67424130D01*
X99357487Y-67424309D01*
X99319462Y-67426055D01*
X99287757Y-67430301D01*
X99256131Y-67437974D01*
X99218341Y-67450008D01*
X99205815Y-67454282D01*
X99095251Y-67500396D01*
X98994328Y-67558769D01*
X98904576Y-67627895D01*
X98827529Y-67706264D01*
X98764718Y-67792370D01*
X98717675Y-67884705D01*
X98693252Y-67958735D01*
X98684725Y-68008348D01*
X98680232Y-68069995D01*
X98679772Y-68137336D01*
X98683344Y-68204028D01*
X98690946Y-68263728D01*
X98693305Y-68275996D01*
X98730315Y-68413567D01*
X98784160Y-68553681D01*
X98853542Y-68693863D01*
X98937161Y-68831641D01*
X99033719Y-68964540D01*
X99091385Y-69034102D01*
X99159727Y-69102653D01*
X99239183Y-69163090D01*
X99331028Y-69216008D01*
X99436538Y-69261999D01*
X99556990Y-69301656D01*
X99693659Y-69335571D01*
X99774963Y-69351764D01*
X99836158Y-69360433D01*
X99911071Y-69366972D01*
X99994718Y-69371293D01*
X100082114Y-69373314D01*
X100168275Y-69372948D01*
X100248215Y-69370111D01*
X100316950Y-69364717D01*
X100342772Y-69361451D01*
X100464801Y-69337331D01*
X100582248Y-69302115D01*
X100689783Y-69257524D01*
X100730954Y-69236278D01*
X100737100Y-69241817D01*
X100743833Y-69261380D01*
X100750179Y-69290244D01*
X100755162Y-69323682D01*
X100757808Y-69356971D01*
X100758002Y-69367332D01*
X100753574Y-69410188D01*
X100739211Y-69445889D01*
X100713191Y-69475829D01*
X100673794Y-69501404D01*
X100619300Y-69524011D01*
X100547987Y-69545046D01*
X100534860Y-69548369D01*
X100451417Y-69567442D01*
X100375389Y-69580734D01*
X100299861Y-69589060D01*
X100217920Y-69593235D01*
X100146555Y-69594134D01*
X100034701Y-69591168D01*
X99926174Y-69581678D01*
X99817886Y-69564972D01*
X99706745Y-69540359D01*
X99589662Y-69507144D01*
X99463546Y-69464638D01*
X99325308Y-69412146D01*
X99313901Y-69407602D01*
X99229393Y-69375314D01*
X99159214Y-69351967D01*
X99101371Y-69337142D01*
X99053871Y-69330420D01*
X99014721Y-69331381D01*
X98984922Y-69338491D01*
X98944136Y-69353157D01*
X98885874Y-69173541D01*
X98832064Y-69013769D01*
X98772943Y-68849303D01*
X98709625Y-68682748D01*
X98643225Y-68516709D01*
X98574856Y-68353789D01*
X98505634Y-68196593D01*
X98436673Y-68047725D01*
X98369087Y-67909789D01*
X98303991Y-67785390D01*
X98253499Y-67695733D01*
X98209393Y-67628618D01*
X98159923Y-67567355D01*
X98107993Y-67514865D01*
X98056510Y-67474068D01*
X98008380Y-67447887D01*
X98006009Y-67446974D01*
X97937519Y-67429723D01*
X97871134Y-67430553D01*
X97806212Y-67449648D01*
X97742112Y-67487194D01*
X97681321Y-67540192D01*
X97627878Y-67604377D01*
X97581356Y-67680176D01*
X97543845Y-67762700D01*
X97517432Y-67847063D01*
X97504207Y-67928374D01*
X97503074Y-67957360D01*
X97502176Y-67986242D01*
X97499853Y-68005664D01*
X97497440Y-68010851D01*
X97489028Y-68004699D01*
X97469542Y-67987731D01*
X97441457Y-67962186D01*
X97407252Y-67930300D01*
X97387166Y-67911287D01*
X97266111Y-67801045D01*
X97152299Y-67707556D01*
X97045828Y-67630876D01*
X96946797Y-67571067D01*
X96855302Y-67528186D01*
X96771442Y-67502293D01*
X96695315Y-67493447D01*
X96694037Y-67493444D01*
X96615918Y-67502320D01*
X96535440Y-67527884D01*
X96454679Y-67568539D01*
X96375714Y-67622688D01*
X96300620Y-67688735D01*
X96231477Y-67765084D01*
X96170360Y-67850138D01*
X96124881Y-67930888D01*
X96089462Y-68011054D01*
X96065533Y-68087383D01*
X96050558Y-68168577D01*
X96047206Y-68197360D01*
X96040222Y-68265259D01*
X95997889Y-68212046D01*
X95934087Y-68140222D01*
X95856499Y-68066499D01*
X95769397Y-67994262D01*
X95677053Y-67926897D01*
X95583739Y-67867787D01*
X95519069Y-67832602D01*
X95440654Y-67796937D01*
X95355850Y-67764784D01*
X95272492Y-67738913D01*
X95215515Y-67725274D01*
X95121514Y-67710015D01*
X95033230Y-67703921D01*
X94947454Y-67707538D01*
X94860978Y-67721409D01*
X94770596Y-67746080D01*
X94673100Y-67782095D01*
X94565281Y-67829999D01*
X94546821Y-67838821D01*
X94501928Y-67860113D01*
X94463358Y-67877754D01*
X94434101Y-67890427D01*
X94417143Y-67896819D01*
X94414159Y-67897204D01*
X94408916Y-67888061D01*
X94396247Y-67864878D01*
X94377546Y-67830234D01*
X94354204Y-67786710D01*
X94327614Y-67736886D01*
X94323218Y-67728629D01*
X94297920Y-67681387D01*
X94265248Y-67620842D01*
X94226926Y-67550161D01*
X94184677Y-67472511D01*
X94140224Y-67391060D01*
X94095289Y-67308974D01*
X94057109Y-67239444D01*
X94012527Y-67158279D01*
X93966362Y-67074040D01*
X93920447Y-66990084D01*
X93876616Y-66909771D01*
X93836701Y-66836459D01*
X93802535Y-66773505D01*
X93780069Y-66731919D01*
X93741794Y-66661053D01*
X93710906Y-66604569D01*
X93685992Y-66560217D01*
X93665636Y-66525748D01*
X93648427Y-66498913D01*
X93632950Y-66477464D01*
X93617791Y-66459152D01*
X93601536Y-66441728D01*
X93590857Y-66430952D01*
X93534069Y-66384325D01*
X93476092Y-66356470D01*
X93416778Y-66347375D01*
X93355979Y-66357030D01*
G37*
X93355979Y-66357030D02*
X93293547Y-66385425D01*
X93261141Y-66407036D01*
X93201703Y-66460622D01*
X93146307Y-66529421D01*
X93096650Y-66609977D01*
X93054431Y-66698835D01*
X93021345Y-66792540D01*
X92999089Y-66887637D01*
X92990506Y-66958083D01*
X92988346Y-67005235D01*
X92989852Y-67045463D01*
X92996271Y-67082380D01*
X93008849Y-67119602D01*
X93028835Y-67160742D01*
X93057475Y-67209416D01*
X93096015Y-67269238D01*
X93099866Y-67275071D01*
X93212758Y-67452243D01*
X93328371Y-67646043D01*
X93445751Y-67854647D01*
X93563945Y-68076230D01*
X93681998Y-68308969D01*
X93798955Y-68551039D01*
X93913864Y-68800617D01*
X93999967Y-68995882D01*
X94075753Y-69176983D01*
X94141732Y-69347978D01*
X94199524Y-69513711D01*
X94250747Y-69679024D01*
X94297020Y-69848760D01*
X94329007Y-69979969D01*
X94347440Y-70056050D01*
X94363911Y-70116191D01*
X94379501Y-70163019D01*
X94395292Y-70199161D01*
X94412366Y-70227243D01*
X94431807Y-70249893D01*
X94445243Y-70262126D01*
X94493905Y-70291393D01*
X94549441Y-70304247D01*
X94610216Y-70301055D01*
X94674596Y-70282187D01*
X94740947Y-70248011D01*
X94807636Y-70198894D01*
X94834951Y-70174280D01*
X94870771Y-70137428D01*
X94906998Y-70095605D01*
X94937247Y-70056300D01*
X94944199Y-70046123D01*
X94986473Y-69981703D01*
X95108829Y-70055859D01*
X95267907Y-70145944D01*
X95420426Y-70219224D01*
X95567460Y-70276092D01*
X95710086Y-70316939D01*
X95849379Y-70342156D01*
X95913222Y-70348660D01*
X96012720Y-70347099D01*
X96111201Y-70328075D01*
X96206812Y-70292923D01*
X96297700Y-70242976D01*
X96382010Y-70179570D01*
X96457890Y-70104036D01*
X96523486Y-70017711D01*
X96576943Y-69921926D01*
X96606137Y-69850000D01*
X96617420Y-69815454D01*
X96624867Y-69785703D01*
X96629216Y-69755132D01*
X96631205Y-69718128D01*
X96631575Y-69669076D01*
X96631519Y-69657148D01*
X96623076Y-69523688D01*
X96608697Y-69443045D01*
X95884479Y-69443045D01*
X95881252Y-69455756D01*
X95872407Y-69465724D01*
X95865857Y-69471157D01*
X95847549Y-69481123D01*
X95822947Y-69484981D01*
X95789665Y-69482435D01*
X95745318Y-69473188D01*
X95687518Y-69456942D01*
X95645468Y-69443738D01*
X95547604Y-69408557D01*
X95459136Y-69368283D01*
X95371409Y-69318788D01*
X95334667Y-69295535D01*
X95258991Y-69242214D01*
X95179475Y-69178834D01*
X95100154Y-69109119D01*
X95025065Y-69036795D01*
X94958243Y-68965585D01*
X94903725Y-68899215D01*
X94900518Y-68894905D01*
X94871355Y-68853309D01*
X94845792Y-68812896D01*
X94825524Y-68776794D01*
X94812245Y-68748127D01*
X94807650Y-68730019D01*
X94808951Y-68726066D01*
X94830532Y-68713523D01*
X94866117Y-68701286D01*
X94910910Y-68690418D01*
X94960117Y-68681984D01*
X95008941Y-68677048D01*
X95033630Y-68676210D01*
X95075994Y-68676734D01*
X95108662Y-68679755D01*
X95138974Y-68686779D01*
X95174271Y-68699312D01*
X95202963Y-68710959D01*
X95328566Y-68769728D01*
X95444654Y-68837365D01*
X95549957Y-68912595D01*
X95643207Y-68994141D01*
X95723134Y-69080727D01*
X95788470Y-69171079D01*
X95837945Y-69263919D01*
X95870291Y-69357974D01*
X95876869Y-69388405D01*
X95882785Y-69422343D01*
X95884479Y-69443045D01*
X96608697Y-69443045D01*
X96598924Y-69388242D01*
X96567743Y-69275582D01*
X96557837Y-69242776D01*
X96551393Y-69218209D01*
X96549503Y-69206152D01*
X96549876Y-69205592D01*
X96555223Y-69213618D01*
X96567017Y-69235708D01*
X96583737Y-69268881D01*
X96603863Y-69310157D01*
X96613575Y-69330474D01*
X96663575Y-69437224D01*
X96705724Y-69531048D01*
X96741304Y-69615469D01*
X96771598Y-69694010D01*
X96797888Y-69770194D01*
X96821456Y-69847544D01*
X96843584Y-69929582D01*
X96865556Y-70019832D01*
X96867417Y-70027822D01*
X96888080Y-70112921D01*
X96907128Y-70181623D01*
X96925676Y-70236146D01*
X96944839Y-70278709D01*
X96965733Y-70311531D01*
X96989473Y-70336830D01*
X97017175Y-70356824D01*
X97038665Y-70368434D01*
X97074155Y-70383519D01*
X97105090Y-70389731D01*
X97142184Y-70389189D01*
X97143288Y-70389107D01*
X97191774Y-70381721D01*
X97234835Y-70365893D01*
X97277067Y-70339192D01*
X97323065Y-70299186D01*
X97334592Y-70287915D01*
X97372456Y-70246928D01*
X97403103Y-70204893D01*
X97431783Y-70154328D01*
X97440518Y-70136926D01*
X97469304Y-70075317D01*
X97490965Y-70020367D01*
X97506452Y-69967510D01*
X97516715Y-69912180D01*
X97522707Y-69849810D01*
X97525378Y-69775835D01*
X97525778Y-69727703D01*
X97525603Y-69663616D01*
X97524601Y-69614235D01*
X97522418Y-69575458D01*
X97518703Y-69543183D01*
X97513104Y-69513308D01*
X97505268Y-69481731D01*
X97504371Y-69478407D01*
X97480862Y-69401195D01*
X97448844Y-69310561D01*
X97409452Y-69209240D01*
X97363819Y-69099964D01*
X97313081Y-68985469D01*
X97258373Y-68868488D01*
X97212134Y-68774201D01*
X97189524Y-68728394D01*
X97170606Y-68688755D01*
X97156714Y-68658184D01*
X97149179Y-68639581D01*
X97148322Y-68635282D01*
X97157141Y-68639071D01*
X97177270Y-68653981D01*
X97206509Y-68678041D01*
X97242658Y-68709280D01*
X97283516Y-68745726D01*
X97326882Y-68785407D01*
X97370555Y-68826352D01*
X97412334Y-68866589D01*
X97450019Y-68904147D01*
X97460741Y-68915160D01*
X97567273Y-69028839D01*
X97672426Y-69147926D01*
X97778657Y-69275357D01*
X97888419Y-69414072D01*
X97994247Y-69553666D01*
X98029173Y-69601218D01*
X98067949Y-69655130D01*
X98109167Y-69713336D01*
X98151419Y-69773769D01*
X98193296Y-69834362D01*
X98233392Y-69893048D01*
X98270298Y-69947761D01*
X98302606Y-69996433D01*
X98328908Y-70036997D01*
X98347796Y-70067388D01*
X98357862Y-70085537D01*
X98359148Y-70089338D01*
X98364617Y-70110061D01*
X98379119Y-70140648D01*
X98399800Y-70176379D01*
X98423805Y-70212535D01*
X98448279Y-70244396D01*
X98462204Y-70259692D01*
X98509256Y-70297022D01*
X98560823Y-70321227D01*
X98612495Y-70330609D01*
X98640945Y-70328560D01*
X98705212Y-70307700D01*
X98767165Y-70269987D01*
X98825408Y-70217359D01*
X98878542Y-70151754D01*
X98925169Y-70075110D01*
X98963893Y-69989367D01*
X98993314Y-69896463D01*
X99009316Y-69817627D01*
X99020710Y-69743198D01*
X99065136Y-69806006D01*
X99125000Y-69882449D01*
X99192584Y-69952472D01*
X99270113Y-70017780D01*
X99359807Y-70080076D01*
X99463888Y-70141066D01*
X99577407Y-70199008D01*
X99718683Y-70260583D01*
X99867544Y-70313356D01*
X100021064Y-70356827D01*
X100176316Y-70390492D01*
X100330374Y-70413850D01*
X100480311Y-70426399D01*
X100623202Y-70427638D01*
X100756120Y-70417064D01*
X100805074Y-70409550D01*
X100941197Y-70378798D01*
X101063698Y-70337329D01*
X101172094Y-70285503D01*
X101265901Y-70223678D01*
X101344633Y-70152215D01*
X101407807Y-70071472D01*
X101454938Y-69981809D01*
X101479394Y-69909204D01*
X101486830Y-69868345D01*
X101491873Y-69814771D01*
X101494359Y-69754450D01*
X101494125Y-69693348D01*
X101491007Y-69637432D01*
X101487635Y-69608520D01*
X101481543Y-69567777D01*
X101511696Y-69605407D01*
X101539175Y-69637111D01*
X101577952Y-69678290D01*
X101625089Y-69726115D01*
X101677648Y-69777758D01*
X101732692Y-69830390D01*
X101787285Y-69881182D01*
X101838488Y-69927305D01*
X101883365Y-69965931D01*
X101901037Y-69980372D01*
X101995403Y-70052810D01*
X102091530Y-70121099D01*
X102186733Y-70183591D01*
X102278325Y-70238642D01*
X102363617Y-70284603D01*
X102439924Y-70319829D01*
X102479592Y-70334893D01*
X102562009Y-70353455D01*
X102649531Y-70355793D01*
X102739948Y-70343018D01*
X102831049Y-70316240D01*
X102920626Y-70276571D01*
X103006467Y-70225122D01*
X103086362Y-70163001D01*
X103158101Y-70091322D01*
X103219474Y-70011193D01*
X103258860Y-69943279D01*
X103288170Y-69879376D01*
X103307416Y-69821890D01*
X103318746Y-69762923D01*
X103323840Y-69704164D01*
X103325381Y-69661910D01*
X103324407Y-69627053D01*
X103320128Y-69593139D01*
X103311752Y-69553711D01*
X103299638Y-69506608D01*
X103265457Y-69389482D01*
X103222607Y-69260248D01*
X103172562Y-69122647D01*
X103116795Y-68980420D01*
X103056779Y-68837306D01*
X102993988Y-68697046D01*
X102929895Y-68563380D01*
X102921393Y-68546382D01*
X102904752Y-68512860D01*
X102891941Y-68486242D01*
X102884890Y-68470580D01*
X102884111Y-68468213D01*
X102891545Y-68461717D01*
X102910701Y-68449219D01*
X102928796Y-68438445D01*
X102964077Y-68416198D01*
X103001012Y-68390081D01*
X103014397Y-68379711D01*
X103038997Y-68361287D01*
X103053776Y-68354566D01*
X103062359Y-68358090D01*
X103063642Y-68359882D01*
X103071153Y-68376350D01*
X103072115Y-68381636D01*
X103077082Y-68391925D01*
X103090785Y-68415231D01*
X103111577Y-68448880D01*
X103137809Y-68490201D01*
X103164976Y-68532154D01*
X103266063Y-68693602D01*
X103368323Y-68869855D01*
X103469735Y-69057177D01*
X103568274Y-69251831D01*
X103661920Y-69450081D01*
X103661967Y-69450185D01*
X103700994Y-69537543D01*
X103733450Y-69614547D01*
X103761049Y-69686132D01*
X103785505Y-69757233D01*
X103808531Y-69832787D01*
X103831841Y-69917729D01*
X103853038Y-70000518D01*
X103872680Y-70078387D01*
X103888821Y-70140358D01*
X103902334Y-70188836D01*
X103914092Y-70226223D01*
X103924967Y-70254920D01*
X103935833Y-70277332D01*
X103947561Y-70295861D01*
X103961024Y-70312910D01*
X103970351Y-70323485D01*
X104016012Y-70360719D01*
X104070170Y-70383219D01*
X104129011Y-70390481D01*
X104188722Y-70382002D01*
X104241919Y-70359413D01*
X104288647Y-70325081D01*
X104336813Y-70277604D01*
X104382267Y-70221802D01*
X104420857Y-70162497D01*
X104435601Y-70134456D01*
X104483782Y-70013030D01*
X104513987Y-69886515D01*
X104526164Y-69755549D01*
X104520257Y-69620770D01*
X104496215Y-69482815D01*
X104491721Y-69464547D01*
X104476115Y-69411507D01*
X104453082Y-69344661D01*
X104423838Y-69266915D01*
X104389601Y-69181175D01*
X104351589Y-69090345D01*
X104311020Y-68997331D01*
X104269111Y-68905039D01*
X104227081Y-68816374D01*
X104186147Y-68734240D01*
X104183247Y-68728604D01*
X104164502Y-68691441D01*
X104149903Y-68660935D01*
X104141084Y-68640607D01*
X104139331Y-68633977D01*
X104149338Y-68636750D01*
X104170547Y-68651829D01*
X104201413Y-68677680D01*
X104240393Y-68712770D01*
X104285943Y-68755564D01*
X104336519Y-68804528D01*
X104390579Y-68858128D01*
X104446578Y-68914830D01*
X104502972Y-68973099D01*
X104558218Y-69031402D01*
X104610772Y-69088204D01*
X104659091Y-69141971D01*
X104701630Y-69191170D01*
X104709777Y-69200888D01*
X104766684Y-69270470D01*
X104827071Y-69346593D01*
X104889668Y-69427480D01*
X104953205Y-69511357D01*
X105016413Y-69596446D01*
X105078022Y-69680974D01*
X105136763Y-69763162D01*
X105191366Y-69841237D01*
X105240561Y-69913421D01*
X105283080Y-69977939D01*
X105317652Y-70033015D01*
X105343007Y-70076874D01*
X105357611Y-70107058D01*
X105393923Y-70182016D01*
X105437344Y-70242309D01*
X105486624Y-70287216D01*
X105540511Y-70316018D01*
X105597755Y-70327995D01*
X105657107Y-70322426D01*
X105702998Y-70305947D01*
X105743159Y-70280882D01*
X105787757Y-70243405D01*
X105832639Y-70197846D01*
X105873653Y-70148533D01*
X105906648Y-70099794D01*
X105914752Y-70085185D01*
X105934746Y-70043016D01*
X105955727Y-69992814D01*
X105973521Y-69944638D01*
X105975277Y-69939370D01*
X105985901Y-69905286D01*
X105993249Y-69875661D01*
X105997936Y-69845544D01*
X106000574Y-69809985D01*
X106001777Y-69764034D01*
X106002095Y-69723000D01*
X106001856Y-69664037D01*
X106000261Y-69618908D01*
X105996822Y-69582654D01*
X105991049Y-69550313D01*
X105982457Y-69516924D01*
X105981494Y-69513580D01*
X105971643Y-69478961D01*
X105964235Y-69451735D01*
X105960534Y-69436579D01*
X105960333Y-69435142D01*
X105965443Y-69440326D01*
X105979473Y-69458284D01*
X106000475Y-69486433D01*
X106026498Y-69522189D01*
X106036061Y-69535505D01*
X106146948Y-69682824D01*
X106256570Y-69812440D01*
X106366399Y-69925264D01*
X106477906Y-70022208D01*
X106592563Y-70104183D01*
X106711841Y-70172101D01*
X106837213Y-70226873D01*
X106970148Y-70269411D01*
X107112119Y-70300627D01*
X107264597Y-70321431D01*
X107311717Y-70325706D01*
X107438402Y-70331252D01*
X107554497Y-70325774D01*
X107665075Y-70308673D01*
X107775210Y-70279349D01*
X107813592Y-70266441D01*
X107958674Y-70206077D01*
X108093387Y-70131363D01*
X108216527Y-70043219D01*
X108326890Y-69942563D01*
X108423272Y-69830313D01*
X108467453Y-69767685D01*
X108485631Y-69740737D01*
X108499601Y-69721359D01*
X108506436Y-69713603D01*
X108506515Y-69713592D01*
X108514839Y-69719149D01*
X108534271Y-69734064D01*
X108561423Y-69755700D01*
X108578091Y-69769243D01*
X108684812Y-69848620D01*
X108807634Y-69926087D01*
X108943859Y-70000498D01*
X109090788Y-70070706D01*
X109245722Y-70135563D01*
X109405963Y-70193922D01*
X109568814Y-70244636D01*
X109731574Y-70286558D01*
X109855000Y-70312098D01*
X109912783Y-70320306D01*
X109980046Y-70325995D01*
X110052354Y-70329152D01*
X110125270Y-70329768D01*
X110194361Y-70327830D01*
X110255189Y-70323328D01*
X110303320Y-70316250D01*
X110315963Y-70313266D01*
X110420386Y-70276418D01*
X110513678Y-70225123D01*
X110596099Y-70159090D01*
X110667905Y-70078027D01*
X110729355Y-69981646D01*
X110780707Y-69869653D01*
X110822016Y-69742508D01*
X110830490Y-69709784D01*
X110836744Y-69680789D01*
X110841112Y-69651718D01*
X110843927Y-69618767D01*
X110845523Y-69578129D01*
X110846233Y-69526001D01*
X110846390Y-69464296D01*
X110846267Y-69399150D01*
X110845621Y-69348837D01*
X110844062Y-69309373D01*
X110841201Y-69276776D01*
X110836649Y-69247065D01*
X110830016Y-69216256D01*
X110820914Y-69180367D01*
X110817314Y-69166776D01*
X110777283Y-69034116D01*
X110729410Y-68909702D01*
X110672167Y-68790984D01*
X110604027Y-68675413D01*
X110523465Y-68560439D01*
X110428953Y-68443514D01*
X110318963Y-68322088D01*
X110298652Y-68300852D01*
X110184053Y-68186807D01*
X110063245Y-68075727D01*
X109938180Y-67968997D01*
X109810809Y-67868007D01*
X109683085Y-67774142D01*
X109556960Y-67688791D01*
X109434386Y-67613341D01*
X109317316Y-67549179D01*
X109207702Y-67497692D01*
X109122766Y-67465237D01*
X109014728Y-67435912D01*
X108914878Y-67422937D01*
X108823549Y-67426215D01*
X108741071Y-67445647D01*
X108667774Y-67481139D01*
X108603989Y-67532591D01*
X108550046Y-67599909D01*
X108526546Y-67640099D01*
X108502883Y-67691901D01*
X108478188Y-67758006D01*
X108453824Y-67834055D01*
X108431154Y-67915688D01*
X108411542Y-67998548D01*
X108405910Y-68025736D01*
X108394371Y-68096477D01*
X108386014Y-68174216D01*
X108380994Y-68254244D01*
X108379467Y-68331854D01*
X108381589Y-68402334D01*
X108387515Y-68460978D01*
X108390888Y-68479606D01*
X108414969Y-68563532D01*
X108448218Y-68634266D01*
X108489703Y-68690786D01*
X108538488Y-68732070D01*
X108593639Y-68757097D01*
X108651653Y-68764879D01*
X108706711Y-68758297D01*
X108755811Y-68738608D01*
X108800436Y-68704538D01*
X108842068Y-68654813D01*
X108882191Y-68588158D01*
X108900964Y-68550585D01*
X108928548Y-68495156D01*
X108951994Y-68455378D01*
X108973458Y-68429166D01*
X108995096Y-68414441D01*
X109019063Y-68409120D01*
X109045654Y-68410834D01*
X109077330Y-68417692D01*
X109116881Y-68429102D01*
X109149281Y-68440246D01*
X109222400Y-68472344D01*
X109305487Y-68516773D01*
X109396104Y-68571716D01*
X109491812Y-68635360D01*
X109590173Y-68705889D01*
X109688750Y-68781487D01*
X109785105Y-68860340D01*
X109876798Y-68940632D01*
X109961393Y-69020549D01*
X110036450Y-69098276D01*
X110043312Y-69105830D01*
X110092993Y-69162928D01*
X110130129Y-69210884D01*
X110156570Y-69252668D01*
X110174169Y-69291250D01*
X110184779Y-69329599D01*
X110185619Y-69334045D01*
X110190616Y-69378919D01*
X110186197Y-69413224D01*
X110170728Y-69438189D01*
X110142574Y-69455042D01*
X110100099Y-69465012D01*
X110041670Y-69469328D01*
X110005033Y-69469748D01*
X109889094Y-69464172D01*
X109760708Y-69448486D01*
X109622842Y-69423366D01*
X109619305Y-69422536D01*
X107831547Y-69422536D01*
X107829834Y-69448270D01*
X107823831Y-69467759D01*
X107812456Y-69487230D01*
X107812064Y-69487814D01*
X107789568Y-69512533D01*
X107759423Y-69535429D01*
X107748023Y-69541907D01*
X107707134Y-69555333D01*
X107652968Y-69562486D01*
X107590004Y-69563322D01*
X107522717Y-69557799D01*
X107455585Y-69545877D01*
X107450568Y-69544697D01*
X107322998Y-69505818D01*
X107195638Y-69451278D01*
X107070946Y-69382978D01*
X106951383Y-69302818D01*
X106839405Y-69212698D01*
X106737473Y-69114518D01*
X106648044Y-69010178D01*
X106573577Y-68901580D01*
X106539996Y-68840934D01*
X106512288Y-68778185D01*
X106488037Y-68707873D01*
X106468132Y-68634227D01*
X106453462Y-68561473D01*
X106444916Y-68493840D01*
X106443384Y-68435556D01*
X106447376Y-68400504D01*
X106457190Y-68374488D01*
X106475537Y-68357032D01*
X106504748Y-68347391D01*
X106547153Y-68344821D01*
X106605079Y-68348578D01*
X106608758Y-68348953D01*
X106702854Y-68365955D01*
X106804642Y-68397435D01*
X106911896Y-68441883D01*
X107022388Y-68497789D01*
X107133891Y-68563643D01*
X107244178Y-68637936D01*
X107351022Y-68719157D01*
X107452195Y-68805797D01*
X107545471Y-68896346D01*
X107628623Y-68989294D01*
X107699422Y-69083132D01*
X107705857Y-69092686D01*
X107751409Y-69164415D01*
X107785211Y-69225879D01*
X107808636Y-69280297D01*
X107823053Y-69330889D01*
X107829835Y-69380876D01*
X107830053Y-69384333D01*
X107831547Y-69422536D01*
X109619305Y-69422536D01*
X109478465Y-69389491D01*
X109330545Y-69347535D01*
X109182050Y-69298176D01*
X109074185Y-69257539D01*
X108931795Y-69203167D01*
X108804229Y-69158910D01*
X108690632Y-69124484D01*
X108619227Y-69106145D01*
X108584464Y-69096923D01*
X108557686Y-69087830D01*
X108543474Y-69080488D01*
X108542374Y-69078976D01*
X108511401Y-68985124D01*
X108472708Y-68885220D01*
X108428295Y-68783426D01*
X108380161Y-68683903D01*
X108330306Y-68590812D01*
X108280729Y-68508313D01*
X108239306Y-68448296D01*
X108160307Y-68352040D01*
X108065899Y-68252476D01*
X107958700Y-68151687D01*
X107841326Y-68051755D01*
X107716396Y-67954763D01*
X107586525Y-67862796D01*
X107454330Y-67777935D01*
X107322430Y-67702265D01*
X107263472Y-67671567D01*
X107132050Y-67609551D01*
X107010933Y-67561377D01*
X106898104Y-67526668D01*
X106791546Y-67505047D01*
X106689242Y-67496137D01*
X106589174Y-67499563D01*
X106489325Y-67514947D01*
X106460214Y-67521569D01*
X106335065Y-67560257D01*
X106222023Y-67612626D01*
X106120894Y-67678910D01*
X106031485Y-67759345D01*
X105953604Y-67854167D01*
X105887059Y-67963612D01*
X105831655Y-68087915D01*
X105787202Y-68227312D01*
X105753505Y-68382039D01*
X105752620Y-68387148D01*
X105744150Y-68444108D01*
X105736397Y-68510034D01*
X105730438Y-68575084D01*
X105728094Y-68611105D01*
X105722191Y-68726878D01*
X105654351Y-68559365D01*
X105602696Y-68434931D01*
X105547713Y-68308168D01*
X105490827Y-68182075D01*
X105433462Y-68059653D01*
X105377043Y-67943901D01*
X105322996Y-67837821D01*
X105272744Y-67744411D01*
X105240767Y-67688470D01*
X105202593Y-67630982D01*
X105157735Y-67575055D01*
X105109995Y-67524757D01*
X105063175Y-67484157D01*
X105028142Y-67460959D01*
X104963912Y-67435806D01*
X104897435Y-67427907D01*
X104832136Y-67437431D01*
X104798796Y-67449774D01*
X104736583Y-67483826D01*
X104684145Y-67526007D01*
X104635429Y-67581285D01*
X104630341Y-67587974D01*
X104571180Y-67681626D01*
X104527947Y-67782995D01*
X104501818Y-67889020D01*
X104495911Y-67937944D01*
X104492578Y-67972256D01*
X104489046Y-67997887D01*
X104485968Y-68010329D01*
X104485374Y-68010851D01*
X104477383Y-68004647D01*
X104458361Y-67987527D01*
X104430725Y-67961736D01*
X104396892Y-67929517D01*
X104376047Y-67909413D01*
X104264664Y-67806440D01*
X104157558Y-67717291D01*
X104055455Y-67642407D01*
X103959080Y-67582225D01*
X103869156Y-67537186D01*
X103786409Y-67507727D01*
X103711563Y-67494289D01*
X103689430Y-67493444D01*
X103606872Y-67502586D01*
X103522671Y-67529435D01*
X103438198Y-67573128D01*
X103354826Y-67632800D01*
X103273927Y-67707588D01*
X103196875Y-67796628D01*
X103186675Y-67809914D01*
X103172782Y-67827035D01*
X103164720Y-67830283D01*
X103157271Y-67821011D01*
X103155525Y-67818000D01*
X103142947Y-67801193D01*
X103121894Y-67777688D01*
X103104607Y-67760143D01*
X103077394Y-67736631D01*
X103049890Y-67721212D01*
X103014151Y-67709820D01*
X102999408Y-67706300D01*
X102927623Y-67691591D01*
X102841299Y-67676601D01*
X102744690Y-67661982D01*
X102642048Y-67648385D01*
X102557550Y-67638585D01*
X102405026Y-67622057D01*
X102318158Y-67484843D01*
X102261975Y-67396374D01*
X102204191Y-67305891D01*
X102145831Y-67214964D01*
X102087922Y-67125163D01*
X102031489Y-67038058D01*
X101977560Y-66955222D01*
X101927159Y-66878223D01*
X101881314Y-66808633D01*
X101841051Y-66748021D01*
X101807395Y-66697959D01*
X101781374Y-66660017D01*
X101764013Y-66635766D01*
X101759775Y-66630313D01*
X101709205Y-66575137D01*
X101656795Y-66529958D01*
X101606669Y-66498266D01*
X101600000Y-66495073D01*
X101544042Y-66479310D01*
X101483075Y-66479058D01*
X101421373Y-66493463D01*
X101363210Y-66521672D01*
X101326247Y-66549755D01*
X101268554Y-66612867D01*
X101216501Y-66691072D01*
X101171545Y-66781118D01*
X101135144Y-66879755D01*
X101108757Y-66983731D01*
X101096559Y-67061981D01*
X101091509Y-67151697D01*
X101098704Y-67229217D01*
X101118802Y-67297172D01*
X101152462Y-67358191D01*
X101179314Y-67392420D01*
X101206052Y-67423917D01*
X101235886Y-67460570D01*
X101266654Y-67499531D01*
X101296199Y-67537956D01*
X101322360Y-67573000D01*
X101342978Y-67601816D01*
X101355894Y-67621559D01*
X101359086Y-67629297D01*
X101348892Y-67633143D01*
X101324917Y-67640210D01*
X101291647Y-67649200D01*
X101278455Y-67652607D01*
X101165741Y-67684982D01*
X101064848Y-67721314D01*
X100977144Y-67760898D01*
X100903999Y-67803030D01*
X100846782Y-67847004D01*
X100806864Y-67892116D01*
X100803736Y-67896884D01*
X100780946Y-67947196D01*
X100776586Y-67996272D01*
X100790277Y-68043326D01*
X100821639Y-68087570D01*
X100870294Y-68128215D01*
X100931628Y-68162516D01*
X100959121Y-68174496D01*
X100989262Y-68185647D01*
X101024143Y-68196457D01*
X101065856Y-68207419D01*
X101116494Y-68219023D01*
X101178148Y-68231760D01*
X101252911Y-68246121D01*
X101342874Y-68262596D01*
X101407148Y-68274078D01*
X101510376Y-68292456D01*
X101596468Y-68307938D01*
X101666837Y-68320799D01*
X101722891Y-68331313D01*
X101766043Y-68339753D01*
X101797703Y-68346395D01*
X101819282Y-68351511D01*
X101832190Y-68355378D01*
X101837027Y-68357620D01*
X101843928Y-68366773D01*
X101859494Y-68390074D01*
X101882526Y-68425648D01*
X101911828Y-68471620D01*
X101946203Y-68526113D01*
X101984455Y-68587252D01*
X102017948Y-68641148D01*
X102062312Y-68712725D01*
X102107051Y-68784858D01*
X102150301Y-68854546D01*
X102190197Y-68918785D01*
X102224875Y-68974575D01*
X102252471Y-69018912D01*
X102263288Y-69036259D01*
X102309169Y-69110796D01*
X102345653Y-69172581D01*
X102374153Y-69224264D01*
X102396081Y-69268492D01*
X102412850Y-69307913D01*
X102422469Y-69334647D01*
X102437185Y-69386565D01*
X102441684Y-69426224D01*
X102435745Y-69457303D01*
X102419150Y-69483482D01*
X102413216Y-69489786D01*
X102393565Y-69507267D01*
X102375804Y-69514582D01*
X102351274Y-69514483D01*
X102339528Y-69513210D01*
X102308763Y-69508289D01*
X102275511Y-69500115D01*
X102237658Y-69487838D01*
X102193092Y-69470603D01*
X102139699Y-69447560D01*
X102075367Y-69417855D01*
X101997983Y-69380638D01*
X101938667Y-69351511D01*
X101874844Y-69320249D01*
X101814270Y-69291070D01*
X101759653Y-69265242D01*
X101713700Y-69244029D01*
X101679120Y-69228699D01*
X101658619Y-69220517D01*
X101658467Y-69220467D01*
X101606997Y-69209263D01*
X101550568Y-69206269D01*
X101497119Y-69211467D01*
X101463393Y-69220881D01*
X101439671Y-69229413D01*
X101424617Y-69233018D01*
X101422336Y-69232640D01*
X101418527Y-69222682D01*
X101410649Y-69198862D01*
X101400057Y-69165337D01*
X101393619Y-69144444D01*
X101320834Y-68937810D01*
X101231559Y-68740189D01*
X101170854Y-68631915D01*
X100146555Y-68631915D01*
X100138440Y-68638937D01*
X100120685Y-68643817D01*
X100085999Y-68647073D01*
X100039655Y-68648746D01*
X99987581Y-68648911D01*
X99935708Y-68647640D01*
X99889965Y-68645009D01*
X99856282Y-68641091D01*
X99853037Y-68640479D01*
X99744887Y-68610499D01*
X99647994Y-68566087D01*
X99560327Y-68506128D01*
X99492041Y-68442629D01*
X99461819Y-68408596D01*
X99434008Y-68373344D01*
X99410794Y-68340144D01*
X99394359Y-68312270D01*
X99386889Y-68292991D01*
X99387882Y-68286611D01*
X99400544Y-68285018D01*
X99427857Y-68288187D01*
X99466479Y-68295368D01*
X99513072Y-68305813D01*
X99564297Y-68318773D01*
X99616813Y-68333497D01*
X99667280Y-68349237D01*
X99667834Y-68349421D01*
X99804185Y-68401834D01*
X99930617Y-68464933D01*
X99996037Y-68504571D01*
X100031813Y-68529257D01*
X100067656Y-68556364D01*
X100100280Y-68583110D01*
X100126397Y-68606714D01*
X100142717Y-68624393D01*
X100146555Y-68631915D01*
X101170854Y-68631915D01*
X101125924Y-68551778D01*
X101004062Y-68372775D01*
X100866104Y-68203376D01*
X100712182Y-68043780D01*
X100584000Y-67928654D01*
X100446564Y-67820732D01*
X100303622Y-67724034D01*
X100157051Y-67639366D01*
X100008726Y-67567532D01*
X99860523Y-67509336D01*
X99714317Y-67465583D01*
X99571984Y-67437079D01*
X99435400Y-67424628D01*
X99408074Y-67424130D01*
X99357487Y-67424309D01*
X99319462Y-67426055D01*
X99287757Y-67430301D01*
X99256131Y-67437974D01*
X99218341Y-67450008D01*
X99205815Y-67454282D01*
X99095251Y-67500396D01*
X98994328Y-67558769D01*
X98904576Y-67627895D01*
X98827529Y-67706264D01*
X98764718Y-67792370D01*
X98717675Y-67884705D01*
X98693252Y-67958735D01*
X98684725Y-68008348D01*
X98680232Y-68069995D01*
X98679772Y-68137336D01*
X98683344Y-68204028D01*
X98690946Y-68263728D01*
X98693305Y-68275996D01*
X98730315Y-68413567D01*
X98784160Y-68553681D01*
X98853542Y-68693863D01*
X98937161Y-68831641D01*
X99033719Y-68964540D01*
X99091385Y-69034102D01*
X99159727Y-69102653D01*
X99239183Y-69163090D01*
X99331028Y-69216008D01*
X99436538Y-69261999D01*
X99556990Y-69301656D01*
X99693659Y-69335571D01*
X99774963Y-69351764D01*
X99836158Y-69360433D01*
X99911071Y-69366972D01*
X99994718Y-69371293D01*
X100082114Y-69373314D01*
X100168275Y-69372948D01*
X100248215Y-69370111D01*
X100316950Y-69364717D01*
X100342772Y-69361451D01*
X100464801Y-69337331D01*
X100582248Y-69302115D01*
X100689783Y-69257524D01*
X100730954Y-69236278D01*
X100737100Y-69241817D01*
X100743833Y-69261380D01*
X100750179Y-69290244D01*
X100755162Y-69323682D01*
X100757808Y-69356971D01*
X100758002Y-69367332D01*
X100753574Y-69410188D01*
X100739211Y-69445889D01*
X100713191Y-69475829D01*
X100673794Y-69501404D01*
X100619300Y-69524011D01*
X100547987Y-69545046D01*
X100534860Y-69548369D01*
X100451417Y-69567442D01*
X100375389Y-69580734D01*
X100299861Y-69589060D01*
X100217920Y-69593235D01*
X100146555Y-69594134D01*
X100034701Y-69591168D01*
X99926174Y-69581678D01*
X99817886Y-69564972D01*
X99706745Y-69540359D01*
X99589662Y-69507144D01*
X99463546Y-69464638D01*
X99325308Y-69412146D01*
X99313901Y-69407602D01*
X99229393Y-69375314D01*
X99159214Y-69351967D01*
X99101371Y-69337142D01*
X99053871Y-69330420D01*
X99014721Y-69331381D01*
X98984922Y-69338491D01*
X98944136Y-69353157D01*
X98885874Y-69173541D01*
X98832064Y-69013769D01*
X98772943Y-68849303D01*
X98709625Y-68682748D01*
X98643225Y-68516709D01*
X98574856Y-68353789D01*
X98505634Y-68196593D01*
X98436673Y-68047725D01*
X98369087Y-67909789D01*
X98303991Y-67785390D01*
X98253499Y-67695733D01*
X98209393Y-67628618D01*
X98159923Y-67567355D01*
X98107993Y-67514865D01*
X98056510Y-67474068D01*
X98008380Y-67447887D01*
X98006009Y-67446974D01*
X97937519Y-67429723D01*
X97871134Y-67430553D01*
X97806212Y-67449648D01*
X97742112Y-67487194D01*
X97681321Y-67540192D01*
X97627878Y-67604377D01*
X97581356Y-67680176D01*
X97543845Y-67762700D01*
X97517432Y-67847063D01*
X97504207Y-67928374D01*
X97503074Y-67957360D01*
X97502176Y-67986242D01*
X97499853Y-68005664D01*
X97497440Y-68010851D01*
X97489028Y-68004699D01*
X97469542Y-67987731D01*
X97441457Y-67962186D01*
X97407252Y-67930300D01*
X97387166Y-67911287D01*
X97266111Y-67801045D01*
X97152299Y-67707556D01*
X97045828Y-67630876D01*
X96946797Y-67571067D01*
X96855302Y-67528186D01*
X96771442Y-67502293D01*
X96695315Y-67493447D01*
X96694037Y-67493444D01*
X96615918Y-67502320D01*
X96535440Y-67527884D01*
X96454679Y-67568539D01*
X96375714Y-67622688D01*
X96300620Y-67688735D01*
X96231477Y-67765084D01*
X96170360Y-67850138D01*
X96124881Y-67930888D01*
X96089462Y-68011054D01*
X96065533Y-68087383D01*
X96050558Y-68168577D01*
X96047206Y-68197360D01*
X96040222Y-68265259D01*
X95997889Y-68212046D01*
X95934087Y-68140222D01*
X95856499Y-68066499D01*
X95769397Y-67994262D01*
X95677053Y-67926897D01*
X95583739Y-67867787D01*
X95519069Y-67832602D01*
X95440654Y-67796937D01*
X95355850Y-67764784D01*
X95272492Y-67738913D01*
X95215515Y-67725274D01*
X95121514Y-67710015D01*
X95033230Y-67703921D01*
X94947454Y-67707538D01*
X94860978Y-67721409D01*
X94770596Y-67746080D01*
X94673100Y-67782095D01*
X94565281Y-67829999D01*
X94546821Y-67838821D01*
X94501928Y-67860113D01*
X94463358Y-67877754D01*
X94434101Y-67890427D01*
X94417143Y-67896819D01*
X94414159Y-67897204D01*
X94408916Y-67888061D01*
X94396247Y-67864878D01*
X94377546Y-67830234D01*
X94354204Y-67786710D01*
X94327614Y-67736886D01*
X94323218Y-67728629D01*
X94297920Y-67681387D01*
X94265248Y-67620842D01*
X94226926Y-67550161D01*
X94184677Y-67472511D01*
X94140224Y-67391060D01*
X94095289Y-67308974D01*
X94057109Y-67239444D01*
X94012527Y-67158279D01*
X93966362Y-67074040D01*
X93920447Y-66990084D01*
X93876616Y-66909771D01*
X93836701Y-66836459D01*
X93802535Y-66773505D01*
X93780069Y-66731919D01*
X93741794Y-66661053D01*
X93710906Y-66604569D01*
X93685992Y-66560217D01*
X93665636Y-66525748D01*
X93648427Y-66498913D01*
X93632950Y-66477464D01*
X93617791Y-66459152D01*
X93601536Y-66441728D01*
X93590857Y-66430952D01*
X93534069Y-66384325D01*
X93476092Y-66356470D01*
X93416778Y-66347375D01*
X93355979Y-66357030D01*
G36*
X91889417Y-67422210D02*
G01*
X91791423Y-67440620D01*
X91692119Y-67475212D01*
X91594787Y-67523919D01*
X91502709Y-67584678D01*
X91419168Y-67655423D01*
X91347444Y-67734090D01*
X91309686Y-67786971D01*
X91266369Y-67871375D01*
X91237000Y-67965774D01*
X91222113Y-68066973D01*
X91222238Y-68171778D01*
X91232489Y-68250740D01*
X91259421Y-68363183D01*
X91297943Y-68477984D01*
X91346552Y-68592809D01*
X91403745Y-68705325D01*
X91468020Y-68813199D01*
X91537875Y-68914098D01*
X91611807Y-69005687D01*
X91688314Y-69085634D01*
X91765893Y-69151606D01*
X91843042Y-69201268D01*
X91845281Y-69202453D01*
X91965702Y-69257071D01*
X92099907Y-69302021D01*
X92245204Y-69336725D01*
X92398905Y-69360603D01*
X92558318Y-69373079D01*
X92646982Y-69374870D01*
X92789379Y-69370200D01*
X92917608Y-69356017D01*
X93033979Y-69331890D01*
X93140800Y-69297389D01*
X93200909Y-69271699D01*
X93278233Y-69235464D01*
X93287592Y-69265213D01*
X93303215Y-69332469D01*
X93303723Y-69388979D01*
X93288498Y-69435924D01*
X93256921Y-69474485D01*
X93208371Y-69505845D01*
X93149318Y-69528993D01*
X93018263Y-69562805D01*
X92877977Y-69585223D01*
X92734685Y-69595576D01*
X92594613Y-69593195D01*
X92569962Y-69591340D01*
X92450996Y-69578211D01*
X92336302Y-69558919D01*
X92221735Y-69532414D01*
X92103148Y-69497644D01*
X91976394Y-69453559D01*
X91881257Y-69416863D01*
X91826407Y-69395491D01*
X91772735Y-69375483D01*
X91724707Y-69358439D01*
X91686790Y-69345961D01*
X91670088Y-69341160D01*
X91618836Y-69331947D01*
X91570840Y-69330435D01*
X91530770Y-69336369D01*
X91503294Y-69349493D01*
X91502342Y-69350326D01*
X91496899Y-69354353D01*
X91491698Y-69354637D01*
X91485923Y-69349331D01*
X91478757Y-69336585D01*
X91469386Y-69314551D01*
X91456993Y-69281381D01*
X91440762Y-69235226D01*
X91419877Y-69174236D01*
X91404078Y-69127704D01*
X91325281Y-68902542D01*
X91244699Y-68686288D01*
X91162971Y-68480424D01*
X91080738Y-68286433D01*
X90998641Y-68105796D01*
X90917320Y-67939995D01*
X90837417Y-67790512D01*
X90792107Y-67712093D01*
X90731319Y-67619251D01*
X90670594Y-67544997D01*
X90609560Y-67489107D01*
X90547847Y-67451360D01*
X90485083Y-67431533D01*
X90420899Y-67429403D01*
X90354923Y-67444748D01*
X90349681Y-67446677D01*
X90297390Y-67474475D01*
X90243444Y-67517645D01*
X90190310Y-67573202D01*
X90140459Y-67638163D01*
X90096360Y-67709541D01*
X90060481Y-67784353D01*
X90051776Y-67806782D01*
X90040634Y-67836822D01*
X90032201Y-67858840D01*
X90028395Y-67867875D01*
X90020509Y-67863983D01*
X90001297Y-67851142D01*
X89974390Y-67831817D01*
X89964302Y-67824334D01*
X89876393Y-67765561D01*
X89789304Y-67720782D01*
X89705026Y-67690734D01*
X89625550Y-67676157D01*
X89565096Y-67676292D01*
X89478062Y-67694139D01*
X89394360Y-67728751D01*
X89315732Y-67778144D01*
X89243918Y-67840335D01*
X89180660Y-67913341D01*
X89127699Y-67995179D01*
X89086775Y-68083864D01*
X89059630Y-68177416D01*
X89048383Y-68264851D01*
X89049511Y-68340643D01*
X89061829Y-68403472D01*
X89086212Y-68456111D01*
X89122690Y-68500514D01*
X89170425Y-68537298D01*
X89222674Y-68558219D01*
X89281647Y-68563675D01*
X89349551Y-68554066D01*
X89377834Y-68546641D01*
X89429724Y-68540281D01*
X89493337Y-68547607D01*
X89567712Y-68568409D01*
X89651888Y-68602475D01*
X89669805Y-68610857D01*
X89798207Y-68680917D01*
X89928878Y-68769439D01*
X90061626Y-68876235D01*
X90196265Y-69001112D01*
X90332605Y-69143881D01*
X90470456Y-69304350D01*
X90609629Y-69482330D01*
X90749937Y-69677629D01*
X90798075Y-69748254D01*
X90828605Y-69793869D01*
X90852167Y-69830418D01*
X90870654Y-69861923D01*
X90885959Y-69892408D01*
X90899975Y-69925893D01*
X90914596Y-69966403D01*
X90931715Y-70017958D01*
X90946400Y-70063402D01*
X90972852Y-70142900D01*
X90996143Y-70206437D01*
X91017480Y-70256350D01*
X91038070Y-70294979D01*
X91059116Y-70324664D01*
X91081827Y-70347744D01*
X91100218Y-70361813D01*
X91139469Y-70385586D01*
X91174101Y-70398097D01*
X91212134Y-70402017D01*
X91220891Y-70402004D01*
X91273349Y-70392190D01*
X91324984Y-70365454D01*
X91374616Y-70323689D01*
X91421064Y-70268785D01*
X91463149Y-70202632D01*
X91499690Y-70127122D01*
X91529507Y-70044145D01*
X91551420Y-69955592D01*
X91564248Y-69863354D01*
X91565247Y-69850318D01*
X91571704Y-69756562D01*
X91621245Y-69823452D01*
X91695082Y-69910889D01*
X91782976Y-69992307D01*
X91886171Y-70068657D01*
X92005912Y-70140891D01*
X92098518Y-70188680D01*
X92273382Y-70264745D01*
X92458421Y-70328439D01*
X92648350Y-70378113D01*
X92794667Y-70405781D01*
X92831350Y-70410219D01*
X92880823Y-70414354D01*
X92939300Y-70418051D01*
X93002993Y-70421178D01*
X93068116Y-70423600D01*
X93130882Y-70425184D01*
X93187505Y-70425797D01*
X93234199Y-70425305D01*
X93267175Y-70423575D01*
X93274444Y-70422703D01*
X93421366Y-70394269D01*
X93553284Y-70355917D01*
X93669974Y-70307808D01*
X93771213Y-70250102D01*
X93856777Y-70182960D01*
X93926440Y-70106542D01*
X93979979Y-70021009D01*
X94017169Y-69926522D01*
X94028132Y-69882926D01*
X94036610Y-69818440D01*
X94038394Y-69738716D01*
X94033664Y-69646030D01*
X94022599Y-69542658D01*
X94005379Y-69430877D01*
X93983738Y-69320158D01*
X93950339Y-69189619D01*
X93905230Y-69051237D01*
X93850507Y-68909951D01*
X93788265Y-68770701D01*
X93720602Y-68638427D01*
X93716829Y-68632030D01*
X92686481Y-68632030D01*
X92677697Y-68639557D01*
X92653617Y-68645068D01*
X92617653Y-68648565D01*
X92573217Y-68650049D01*
X92523719Y-68649523D01*
X92472570Y-68646990D01*
X92423181Y-68642450D01*
X92378965Y-68635908D01*
X92359600Y-68631823D01*
X92263984Y-68600522D01*
X92173311Y-68554672D01*
X92090659Y-68496541D01*
X92019108Y-68428397D01*
X91961735Y-68352510D01*
X91947530Y-68328171D01*
X91921937Y-68281148D01*
X91967894Y-68287637D01*
X92060466Y-68305575D01*
X92161798Y-68333669D01*
X92266299Y-68369909D01*
X92368378Y-68412286D01*
X92462442Y-68458790D01*
X92494798Y-68477052D01*
X92533387Y-68501352D01*
X92573324Y-68529245D01*
X92611506Y-68558220D01*
X92644826Y-68585767D01*
X92670179Y-68609374D01*
X92684461Y-68626532D01*
X92686481Y-68632030D01*
X93716829Y-68632030D01*
X93649611Y-68518069D01*
X93631931Y-68490933D01*
X93517379Y-68332685D01*
X93390305Y-68182500D01*
X93252518Y-68041816D01*
X93105827Y-67912071D01*
X92952040Y-67794701D01*
X92792965Y-67691144D01*
X92630412Y-67602837D01*
X92466189Y-67531218D01*
X92390148Y-67504128D01*
X92290672Y-67474407D01*
X92191065Y-67450535D01*
X92095007Y-67433114D01*
X92006178Y-67422744D01*
X91928260Y-67420030D01*
X91889417Y-67422210D01*
G37*
X91889417Y-67422210D02*
X91791423Y-67440620D01*
X91692119Y-67475212D01*
X91594787Y-67523919D01*
X91502709Y-67584678D01*
X91419168Y-67655423D01*
X91347444Y-67734090D01*
X91309686Y-67786971D01*
X91266369Y-67871375D01*
X91237000Y-67965774D01*
X91222113Y-68066973D01*
X91222238Y-68171778D01*
X91232489Y-68250740D01*
X91259421Y-68363183D01*
X91297943Y-68477984D01*
X91346552Y-68592809D01*
X91403745Y-68705325D01*
X91468020Y-68813199D01*
X91537875Y-68914098D01*
X91611807Y-69005687D01*
X91688314Y-69085634D01*
X91765893Y-69151606D01*
X91843042Y-69201268D01*
X91845281Y-69202453D01*
X91965702Y-69257071D01*
X92099907Y-69302021D01*
X92245204Y-69336725D01*
X92398905Y-69360603D01*
X92558318Y-69373079D01*
X92646982Y-69374870D01*
X92789379Y-69370200D01*
X92917608Y-69356017D01*
X93033979Y-69331890D01*
X93140800Y-69297389D01*
X93200909Y-69271699D01*
X93278233Y-69235464D01*
X93287592Y-69265213D01*
X93303215Y-69332469D01*
X93303723Y-69388979D01*
X93288498Y-69435924D01*
X93256921Y-69474485D01*
X93208371Y-69505845D01*
X93149318Y-69528993D01*
X93018263Y-69562805D01*
X92877977Y-69585223D01*
X92734685Y-69595576D01*
X92594613Y-69593195D01*
X92569962Y-69591340D01*
X92450996Y-69578211D01*
X92336302Y-69558919D01*
X92221735Y-69532414D01*
X92103148Y-69497644D01*
X91976394Y-69453559D01*
X91881257Y-69416863D01*
X91826407Y-69395491D01*
X91772735Y-69375483D01*
X91724707Y-69358439D01*
X91686790Y-69345961D01*
X91670088Y-69341160D01*
X91618836Y-69331947D01*
X91570840Y-69330435D01*
X91530770Y-69336369D01*
X91503294Y-69349493D01*
X91502342Y-69350326D01*
X91496899Y-69354353D01*
X91491698Y-69354637D01*
X91485923Y-69349331D01*
X91478757Y-69336585D01*
X91469386Y-69314551D01*
X91456993Y-69281381D01*
X91440762Y-69235226D01*
X91419877Y-69174236D01*
X91404078Y-69127704D01*
X91325281Y-68902542D01*
X91244699Y-68686288D01*
X91162971Y-68480424D01*
X91080738Y-68286433D01*
X90998641Y-68105796D01*
X90917320Y-67939995D01*
X90837417Y-67790512D01*
X90792107Y-67712093D01*
X90731319Y-67619251D01*
X90670594Y-67544997D01*
X90609560Y-67489107D01*
X90547847Y-67451360D01*
X90485083Y-67431533D01*
X90420899Y-67429403D01*
X90354923Y-67444748D01*
X90349681Y-67446677D01*
X90297390Y-67474475D01*
X90243444Y-67517645D01*
X90190310Y-67573202D01*
X90140459Y-67638163D01*
X90096360Y-67709541D01*
X90060481Y-67784353D01*
X90051776Y-67806782D01*
X90040634Y-67836822D01*
X90032201Y-67858840D01*
X90028395Y-67867875D01*
X90020509Y-67863983D01*
X90001297Y-67851142D01*
X89974390Y-67831817D01*
X89964302Y-67824334D01*
X89876393Y-67765561D01*
X89789304Y-67720782D01*
X89705026Y-67690734D01*
X89625550Y-67676157D01*
X89565096Y-67676292D01*
X89478062Y-67694139D01*
X89394360Y-67728751D01*
X89315732Y-67778144D01*
X89243918Y-67840335D01*
X89180660Y-67913341D01*
X89127699Y-67995179D01*
X89086775Y-68083864D01*
X89059630Y-68177416D01*
X89048383Y-68264851D01*
X89049511Y-68340643D01*
X89061829Y-68403472D01*
X89086212Y-68456111D01*
X89122690Y-68500514D01*
X89170425Y-68537298D01*
X89222674Y-68558219D01*
X89281647Y-68563675D01*
X89349551Y-68554066D01*
X89377834Y-68546641D01*
X89429724Y-68540281D01*
X89493337Y-68547607D01*
X89567712Y-68568409D01*
X89651888Y-68602475D01*
X89669805Y-68610857D01*
X89798207Y-68680917D01*
X89928878Y-68769439D01*
X90061626Y-68876235D01*
X90196265Y-69001112D01*
X90332605Y-69143881D01*
X90470456Y-69304350D01*
X90609629Y-69482330D01*
X90749937Y-69677629D01*
X90798075Y-69748254D01*
X90828605Y-69793869D01*
X90852167Y-69830418D01*
X90870654Y-69861923D01*
X90885959Y-69892408D01*
X90899975Y-69925893D01*
X90914596Y-69966403D01*
X90931715Y-70017958D01*
X90946400Y-70063402D01*
X90972852Y-70142900D01*
X90996143Y-70206437D01*
X91017480Y-70256350D01*
X91038070Y-70294979D01*
X91059116Y-70324664D01*
X91081827Y-70347744D01*
X91100218Y-70361813D01*
X91139469Y-70385586D01*
X91174101Y-70398097D01*
X91212134Y-70402017D01*
X91220891Y-70402004D01*
X91273349Y-70392190D01*
X91324984Y-70365454D01*
X91374616Y-70323689D01*
X91421064Y-70268785D01*
X91463149Y-70202632D01*
X91499690Y-70127122D01*
X91529507Y-70044145D01*
X91551420Y-69955592D01*
X91564248Y-69863354D01*
X91565247Y-69850318D01*
X91571704Y-69756562D01*
X91621245Y-69823452D01*
X91695082Y-69910889D01*
X91782976Y-69992307D01*
X91886171Y-70068657D01*
X92005912Y-70140891D01*
X92098518Y-70188680D01*
X92273382Y-70264745D01*
X92458421Y-70328439D01*
X92648350Y-70378113D01*
X92794667Y-70405781D01*
X92831350Y-70410219D01*
X92880823Y-70414354D01*
X92939300Y-70418051D01*
X93002993Y-70421178D01*
X93068116Y-70423600D01*
X93130882Y-70425184D01*
X93187505Y-70425797D01*
X93234199Y-70425305D01*
X93267175Y-70423575D01*
X93274444Y-70422703D01*
X93421366Y-70394269D01*
X93553284Y-70355917D01*
X93669974Y-70307808D01*
X93771213Y-70250102D01*
X93856777Y-70182960D01*
X93926440Y-70106542D01*
X93979979Y-70021009D01*
X94017169Y-69926522D01*
X94028132Y-69882926D01*
X94036610Y-69818440D01*
X94038394Y-69738716D01*
X94033664Y-69646030D01*
X94022599Y-69542658D01*
X94005379Y-69430877D01*
X93983738Y-69320158D01*
X93950339Y-69189619D01*
X93905230Y-69051237D01*
X93850507Y-68909951D01*
X93788265Y-68770701D01*
X93720602Y-68638427D01*
X93716829Y-68632030D01*
X92686481Y-68632030D01*
X92677697Y-68639557D01*
X92653617Y-68645068D01*
X92617653Y-68648565D01*
X92573217Y-68650049D01*
X92523719Y-68649523D01*
X92472570Y-68646990D01*
X92423181Y-68642450D01*
X92378965Y-68635908D01*
X92359600Y-68631823D01*
X92263984Y-68600522D01*
X92173311Y-68554672D01*
X92090659Y-68496541D01*
X92019108Y-68428397D01*
X91961735Y-68352510D01*
X91947530Y-68328171D01*
X91921937Y-68281148D01*
X91967894Y-68287637D01*
X92060466Y-68305575D01*
X92161798Y-68333669D01*
X92266299Y-68369909D01*
X92368378Y-68412286D01*
X92462442Y-68458790D01*
X92494798Y-68477052D01*
X92533387Y-68501352D01*
X92573324Y-68529245D01*
X92611506Y-68558220D01*
X92644826Y-68585767D01*
X92670179Y-68609374D01*
X92684461Y-68626532D01*
X92686481Y-68632030D01*
X93716829Y-68632030D01*
X93649611Y-68518069D01*
X93631931Y-68490933D01*
X93517379Y-68332685D01*
X93390305Y-68182500D01*
X93252518Y-68041816D01*
X93105827Y-67912071D01*
X92952040Y-67794701D01*
X92792965Y-67691144D01*
X92630412Y-67602837D01*
X92466189Y-67531218D01*
X92390148Y-67504128D01*
X92290672Y-67474407D01*
X92191065Y-67450535D01*
X92095007Y-67433114D01*
X92006178Y-67422744D01*
X91928260Y-67420030D01*
X91889417Y-67422210D01*
D12*
%TO.C,U1*%
X43130560Y-66391880D02*
X43130560Y-66916880D01*
X48380560Y-71641880D02*
X48380560Y-71116880D01*
X43130560Y-71641880D02*
X43130560Y-71116880D01*
X48380560Y-66391880D02*
X47855560Y-66391880D01*
X48380560Y-71641880D02*
X47855560Y-71641880D01*
X43130560Y-71641880D02*
X43655560Y-71641880D01*
X43130560Y-66391880D02*
X43655560Y-66391880D01*
D13*
%TO.C,Y1*%
X52604400Y-66493640D02*
X55904400Y-66493640D01*
X55904400Y-66493640D02*
X55904400Y-70493640D01*
D12*
%TO.C,U2*%
X37525720Y-56790760D02*
X36225720Y-56790760D01*
X37525720Y-53890760D02*
X37525720Y-56790760D01*
X36225720Y-53890760D02*
X37525720Y-53890760D01*
X36225720Y-53890760D02*
X36225720Y-56790760D01*
%TO.C,SW1*%
X34939480Y-68859400D02*
G75*
G03*
X34939480Y-68859400I-1000000J0D01*
G01*
X36539480Y-71459400D02*
X36539480Y-66259400D01*
X31339480Y-71459400D02*
X36539480Y-71459400D01*
X31339480Y-66259400D02*
X31339480Y-71459400D01*
X36539480Y-66259400D02*
X31339480Y-66259400D01*
D13*
%TO.C,R6*%
X43278056Y-79078760D02*
X43732184Y-79078760D01*
X43278056Y-77608760D02*
X43732184Y-77608760D01*
%TO.C,R5*%
X37873000Y-59008916D02*
X37873000Y-59463044D01*
X39343000Y-59008916D02*
X39343000Y-59463044D01*
%TO.C,R4*%
X35847960Y-59463044D02*
X35847960Y-59008916D01*
X34377960Y-59463044D02*
X34377960Y-59008916D01*
%TO.C,R3*%
X32351040Y-55058576D02*
X32351040Y-55512704D01*
X33821040Y-55058576D02*
X33821040Y-55512704D01*
%TO.C,R2*%
X39994780Y-55058576D02*
X39994780Y-55512704D01*
X41464780Y-55058576D02*
X41464780Y-55512704D01*
%TO.C,R1*%
X40181200Y-70026264D02*
X40181200Y-69572136D01*
X38711200Y-70026264D02*
X38711200Y-69572136D01*
D12*
%TO.C,L33*%
X108922820Y-46779180D02*
X108922820Y-47779940D01*
X111389160Y-46779180D02*
X108922820Y-46779180D01*
X108922820Y-47779940D02*
X109176820Y-47947580D01*
X109176820Y-47950120D02*
X111437420Y-47947580D01*
%TO.C,L32*%
X89872820Y-46779180D02*
X89872820Y-47779940D01*
X92339160Y-46779180D02*
X89872820Y-46779180D01*
X89872820Y-47779940D02*
X90126820Y-47947580D01*
X90126820Y-47950120D02*
X92387420Y-47947580D01*
%TO.C,L31*%
X70822820Y-46779180D02*
X70822820Y-47779940D01*
X73289160Y-46779180D02*
X70822820Y-46779180D01*
X70822820Y-47779940D02*
X71076820Y-47947580D01*
X71076820Y-47950120D02*
X73337420Y-47947580D01*
%TO.C,L30*%
X51772820Y-46779180D02*
X51772820Y-47779940D01*
X54239160Y-46779180D02*
X51772820Y-46779180D01*
X51772820Y-47779940D02*
X52026820Y-47947580D01*
X52026820Y-47950120D02*
X54287420Y-47947580D01*
%TO.C,L29*%
X32722820Y-64399500D02*
X32722820Y-65400260D01*
X35189160Y-64399500D02*
X32722820Y-64399500D01*
X32722820Y-65400260D02*
X32976820Y-65567900D01*
X32976820Y-65570440D02*
X35237420Y-65567900D01*
%TO.C,L28*%
X32722820Y-73449500D02*
X32722820Y-74450260D01*
X35189160Y-73449500D02*
X32722820Y-73449500D01*
X32722820Y-74450260D02*
X32976820Y-74617900D01*
X32976820Y-74620440D02*
X35237420Y-74617900D01*
%TO.C,L27*%
X32722820Y-83449500D02*
X32722820Y-84450260D01*
X35189160Y-83449500D02*
X32722820Y-83449500D01*
X32722820Y-84450260D02*
X32976820Y-84617900D01*
X32976820Y-84620440D02*
X35237420Y-84617900D01*
%TO.C,L26*%
X32722820Y-140599500D02*
X32722820Y-141600260D01*
X35189160Y-140599500D02*
X32722820Y-140599500D01*
X32722820Y-141600260D02*
X32976820Y-141767900D01*
X32976820Y-141770440D02*
X35237420Y-141767900D01*
%TO.C,L25*%
X32722820Y-121549500D02*
X32722820Y-122550260D01*
X35189160Y-121549500D02*
X32722820Y-121549500D01*
X32722820Y-122550260D02*
X32976820Y-122717900D01*
X32976820Y-122720440D02*
X35237420Y-122717900D01*
%TO.C,L24*%
X32722820Y-102499500D02*
X32722820Y-103500260D01*
X35189160Y-102499500D02*
X32722820Y-102499500D01*
X32722820Y-103500260D02*
X32976820Y-103667900D01*
X32976820Y-103670440D02*
X35237420Y-103667900D01*
%TO.C,L23*%
X89872820Y-140599500D02*
X89872820Y-141600260D01*
X92339160Y-140599500D02*
X89872820Y-140599500D01*
X89872820Y-141600260D02*
X90126820Y-141767900D01*
X90126820Y-141770440D02*
X92387420Y-141767900D01*
%TO.C,L22*%
X70822820Y-140599500D02*
X70822820Y-141600260D01*
X73289160Y-140599500D02*
X70822820Y-140599500D01*
X70822820Y-141600260D02*
X71076820Y-141767900D01*
X71076820Y-141770440D02*
X73337420Y-141767900D01*
%TO.C,L21*%
X51772820Y-140599500D02*
X51772820Y-141600260D01*
X54239160Y-140599500D02*
X51772820Y-140599500D01*
X51772820Y-141600260D02*
X52026820Y-141767900D01*
X52026820Y-141770440D02*
X54287420Y-141767900D01*
%TO.C,L20*%
X118889620Y-129413500D02*
X119890380Y-129413500D01*
X118889620Y-126947160D02*
X118889620Y-129413500D01*
X119890380Y-129413500D02*
X120058020Y-129159500D01*
X120060560Y-129159500D02*
X120058020Y-126898900D01*
%TO.C,L19*%
X89872820Y-121549500D02*
X89872820Y-122550260D01*
X92339160Y-121549500D02*
X89872820Y-121549500D01*
X89872820Y-122550260D02*
X90126820Y-122717900D01*
X90126820Y-122720440D02*
X92387420Y-122717900D01*
%TO.C,L18*%
X70822820Y-121549500D02*
X70822820Y-122550260D01*
X73289160Y-121549500D02*
X70822820Y-121549500D01*
X70822820Y-122550260D02*
X71076820Y-122717900D01*
X71076820Y-122720440D02*
X73337420Y-122717900D01*
%TO.C,L17*%
X51772820Y-121549500D02*
X51772820Y-122550260D01*
X54239160Y-121549500D02*
X51772820Y-121549500D01*
X51772820Y-122550260D02*
X52026820Y-122717900D01*
X52026820Y-122720440D02*
X54287420Y-122717900D01*
%TO.C,L16*%
X108922820Y-102499500D02*
X108922820Y-103500260D01*
X111389160Y-102499500D02*
X108922820Y-102499500D01*
X108922820Y-103500260D02*
X109176820Y-103667900D01*
X109176820Y-103670440D02*
X111437420Y-103667900D01*
%TO.C,L15*%
X89872820Y-102499500D02*
X89872820Y-103500260D01*
X92339160Y-102499500D02*
X89872820Y-102499500D01*
X89872820Y-103500260D02*
X90126820Y-103667900D01*
X90126820Y-103670440D02*
X92387420Y-103667900D01*
%TO.C,L14*%
X70822820Y-102499500D02*
X70822820Y-103500260D01*
X73289160Y-102499500D02*
X70822820Y-102499500D01*
X70822820Y-103500260D02*
X71076820Y-103667900D01*
X71076820Y-103670440D02*
X73337420Y-103667900D01*
%TO.C,L13*%
X51772820Y-102499500D02*
X51772820Y-103500260D01*
X54239160Y-102499500D02*
X51772820Y-102499500D01*
X51772820Y-103500260D02*
X52026820Y-103667900D01*
X52026820Y-103670440D02*
X54287420Y-103667900D01*
%TO.C,L12*%
X108922820Y-83449500D02*
X108922820Y-84450260D01*
X111389160Y-83449500D02*
X108922820Y-83449500D01*
X108922820Y-84450260D02*
X109176820Y-84617900D01*
X109176820Y-84620440D02*
X111437420Y-84617900D01*
%TO.C,L11*%
X89872820Y-83449500D02*
X89872820Y-84450260D01*
X92339160Y-83449500D02*
X89872820Y-83449500D01*
X89872820Y-84450260D02*
X90126820Y-84617900D01*
X90126820Y-84620440D02*
X92387420Y-84617900D01*
%TO.C,L10*%
X70822820Y-83449500D02*
X70822820Y-84450260D01*
X73289160Y-83449500D02*
X70822820Y-83449500D01*
X70822820Y-84450260D02*
X71076820Y-84617900D01*
X71076820Y-84620440D02*
X73337420Y-84617900D01*
%TO.C,L9*%
X51772820Y-83449500D02*
X51772820Y-84450260D01*
X54239160Y-83449500D02*
X51772820Y-83449500D01*
X51772820Y-84450260D02*
X52026820Y-84617900D01*
X52026820Y-84620440D02*
X54287420Y-84617900D01*
%TO.C,L8*%
X108922820Y-64399500D02*
X108922820Y-65400260D01*
X111389160Y-64399500D02*
X108922820Y-64399500D01*
X108922820Y-65400260D02*
X109176820Y-65567900D01*
X109176820Y-65570440D02*
X111437420Y-65567900D01*
%TO.C,L7*%
X89872820Y-64399500D02*
X89872820Y-65400260D01*
X92339160Y-64399500D02*
X89872820Y-64399500D01*
X89872820Y-65400260D02*
X90126820Y-65567900D01*
X90126820Y-65570440D02*
X92387420Y-65567900D01*
%TO.C,L6*%
X70822820Y-64399500D02*
X70822820Y-65400260D01*
X73289160Y-64399500D02*
X70822820Y-64399500D01*
X70822820Y-65400260D02*
X71076820Y-65567900D01*
X71076820Y-65570440D02*
X73337420Y-65567900D01*
%TO.C,L5*%
X51772820Y-64399500D02*
X51772820Y-65400260D01*
X54239160Y-64399500D02*
X51772820Y-64399500D01*
X51772820Y-65400260D02*
X52026820Y-65567900D01*
X52026820Y-65570440D02*
X54287420Y-65567900D01*
%TO.C,L4*%
X108922820Y-40586500D02*
X108922820Y-41587260D01*
X111389160Y-40586500D02*
X108922820Y-40586500D01*
X108922820Y-41587260D02*
X109176820Y-41754900D01*
X109176820Y-41757440D02*
X111437420Y-41754900D01*
%TO.C,L3*%
X89872820Y-40586500D02*
X89872820Y-41587260D01*
X92339160Y-40586500D02*
X89872820Y-40586500D01*
X89872820Y-41587260D02*
X90126820Y-41754900D01*
X90126820Y-41757440D02*
X92387420Y-41754900D01*
%TO.C,L2*%
X70822820Y-40586500D02*
X70822820Y-41587260D01*
X73289160Y-40586500D02*
X70822820Y-40586500D01*
X70822820Y-41587260D02*
X71076820Y-41754900D01*
X71076820Y-41757440D02*
X73337420Y-41754900D01*
%TO.C,L1*%
X51772820Y-40586500D02*
X51772820Y-41587260D01*
X54239160Y-40586500D02*
X51772820Y-40586500D01*
X51772820Y-41587260D02*
X52026820Y-41754900D01*
X52026820Y-41757440D02*
X54287420Y-41754900D01*
D13*
%TO.C,F1*%
X32431400Y-60469864D02*
X32431400Y-59265736D01*
X30611400Y-60469864D02*
X30611400Y-59265736D01*
%TO.C,D26*%
X43717720Y-141798100D02*
X41717720Y-141798100D01*
X41717720Y-141798100D02*
X41717720Y-137898100D01*
X43717720Y-141798100D02*
X43717720Y-137898100D01*
%TO.C,D25*%
X43717720Y-122748100D02*
X41717720Y-122748100D01*
X41717720Y-122748100D02*
X41717720Y-118848100D01*
X43717720Y-122748100D02*
X43717720Y-118848100D01*
%TO.C,D24*%
X43717720Y-103698100D02*
X41717720Y-103698100D01*
X41717720Y-103698100D02*
X41717720Y-99798100D01*
X43717720Y-103698100D02*
X43717720Y-99798100D01*
%TO.C,D23*%
X100867720Y-141798100D02*
X98867720Y-141798100D01*
X98867720Y-141798100D02*
X98867720Y-137898100D01*
X100867720Y-141798100D02*
X100867720Y-137898100D01*
%TO.C,D22*%
X81817720Y-141798100D02*
X79817720Y-141798100D01*
X79817720Y-141798100D02*
X79817720Y-137898100D01*
X81817720Y-141798100D02*
X81817720Y-137898100D01*
%TO.C,D21*%
X62767720Y-141798100D02*
X60767720Y-141798100D01*
X60767720Y-141798100D02*
X60767720Y-137898100D01*
X62767720Y-141798100D02*
X62767720Y-137898100D01*
%TO.C,D20*%
X119900720Y-118418600D02*
X119900720Y-120418600D01*
X119900720Y-120418600D02*
X116000720Y-120418600D01*
X119900720Y-118418600D02*
X116000720Y-118418600D01*
%TO.C,D19*%
X100867720Y-122748100D02*
X98867720Y-122748100D01*
X98867720Y-122748100D02*
X98867720Y-118848100D01*
X100867720Y-122748100D02*
X100867720Y-118848100D01*
%TO.C,D18*%
X81817720Y-122748100D02*
X79817720Y-122748100D01*
X79817720Y-122748100D02*
X79817720Y-118848100D01*
X81817720Y-122748100D02*
X81817720Y-118848100D01*
%TO.C,D17*%
X62767720Y-122748100D02*
X60767720Y-122748100D01*
X60767720Y-122748100D02*
X60767720Y-118848100D01*
X62767720Y-122748100D02*
X62767720Y-118848100D01*
%TO.C,D16*%
X119917720Y-103698100D02*
X117917720Y-103698100D01*
X117917720Y-103698100D02*
X117917720Y-99798100D01*
X119917720Y-103698100D02*
X119917720Y-99798100D01*
%TO.C,D15*%
X100867720Y-103698100D02*
X98867720Y-103698100D01*
X98867720Y-103698100D02*
X98867720Y-99798100D01*
X100867720Y-103698100D02*
X100867720Y-99798100D01*
%TO.C,D14*%
X81817720Y-103698100D02*
X79817720Y-103698100D01*
X79817720Y-103698100D02*
X79817720Y-99798100D01*
X81817720Y-103698100D02*
X81817720Y-99798100D01*
%TO.C,D13*%
X62767720Y-103698100D02*
X60767720Y-103698100D01*
X60767720Y-103698100D02*
X60767720Y-99798100D01*
X62767720Y-103698100D02*
X62767720Y-99798100D01*
%TO.C,D12*%
X119917720Y-84648100D02*
X117917720Y-84648100D01*
X117917720Y-84648100D02*
X117917720Y-80748100D01*
X119917720Y-84648100D02*
X119917720Y-80748100D01*
%TO.C,D11*%
X100867720Y-84648100D02*
X98867720Y-84648100D01*
X98867720Y-84648100D02*
X98867720Y-80748100D01*
X100867720Y-84648100D02*
X100867720Y-80748100D01*
%TO.C,D10*%
X81817720Y-84648100D02*
X79817720Y-84648100D01*
X79817720Y-84648100D02*
X79817720Y-80748100D01*
X81817720Y-84648100D02*
X81817720Y-80748100D01*
%TO.C,D9*%
X62767720Y-84648100D02*
X60767720Y-84648100D01*
X60767720Y-84648100D02*
X60767720Y-80748100D01*
X62767720Y-84648100D02*
X62767720Y-80748100D01*
%TO.C,D8*%
X119917720Y-65598100D02*
X117917720Y-65598100D01*
X117917720Y-65598100D02*
X117917720Y-61698100D01*
X119917720Y-65598100D02*
X119917720Y-61698100D01*
%TO.C,D7*%
X100867720Y-65598100D02*
X98867720Y-65598100D01*
X98867720Y-65598100D02*
X98867720Y-61698100D01*
X100867720Y-65598100D02*
X100867720Y-61698100D01*
%TO.C,D6*%
X81817720Y-65598100D02*
X79817720Y-65598100D01*
X79817720Y-65598100D02*
X79817720Y-61698100D01*
X81817720Y-65598100D02*
X81817720Y-61698100D01*
%TO.C,D5*%
X62767720Y-65598100D02*
X60767720Y-65598100D01*
X60767720Y-65598100D02*
X60767720Y-61698100D01*
X62767720Y-65598100D02*
X62767720Y-61698100D01*
%TO.C,D4*%
X119917720Y-41785100D02*
X117917720Y-41785100D01*
X117917720Y-41785100D02*
X117917720Y-37885100D01*
X119917720Y-41785100D02*
X119917720Y-37885100D01*
%TO.C,D3*%
X100867720Y-41785100D02*
X98867720Y-41785100D01*
X98867720Y-41785100D02*
X98867720Y-37885100D01*
X100867720Y-41785100D02*
X100867720Y-37885100D01*
%TO.C,D2*%
X81817720Y-41785100D02*
X79817720Y-41785100D01*
X79817720Y-41785100D02*
X79817720Y-37885100D01*
X81817720Y-41785100D02*
X81817720Y-37885100D01*
%TO.C,D1*%
X62767720Y-41785100D02*
X60767720Y-41785100D01*
X60767720Y-41785100D02*
X60767720Y-37885100D01*
X62767720Y-41785100D02*
X62767720Y-37885100D01*
%TO.C,CR33*%
X105480720Y-46549700D02*
X105480720Y-46830860D01*
X106500720Y-46549700D02*
X106500720Y-46830860D01*
%TO.C,CR32*%
X86430720Y-46549700D02*
X86430720Y-46830860D01*
X87450720Y-46549700D02*
X87450720Y-46830860D01*
%TO.C,CR31*%
X67380720Y-46549700D02*
X67380720Y-46830860D01*
X68400720Y-46549700D02*
X68400720Y-46830860D01*
%TO.C,CR30*%
X48330720Y-46549700D02*
X48330720Y-46830860D01*
X49350720Y-46549700D02*
X49350720Y-46830860D01*
%TO.C,CR29*%
X29280720Y-64170020D02*
X29280720Y-64451180D01*
X30300720Y-64170020D02*
X30300720Y-64451180D01*
%TO.C,CR28*%
X29280720Y-73220020D02*
X29280720Y-73501180D01*
X30300720Y-73220020D02*
X30300720Y-73501180D01*
%TO.C,CR27*%
X29280720Y-83194780D02*
X29280720Y-83475940D01*
X30300720Y-83194780D02*
X30300720Y-83475940D01*
%TO.C,CR26*%
X29280720Y-140344780D02*
X29280720Y-140625940D01*
X30300720Y-140344780D02*
X30300720Y-140625940D01*
%TO.C,CR25*%
X29280720Y-121294780D02*
X29280720Y-121575940D01*
X30300720Y-121294780D02*
X30300720Y-121575940D01*
%TO.C,CR24*%
X29280720Y-102244780D02*
X29280720Y-102525940D01*
X30300720Y-102244780D02*
X30300720Y-102525940D01*
%TO.C,CR23*%
X86430720Y-140344780D02*
X86430720Y-140625940D01*
X87450720Y-140344780D02*
X87450720Y-140625940D01*
%TO.C,CR22*%
X67380720Y-140344780D02*
X67380720Y-140625940D01*
X68400720Y-140344780D02*
X68400720Y-140625940D01*
%TO.C,CR21*%
X48330720Y-140344780D02*
X48330720Y-140625940D01*
X49350720Y-140344780D02*
X49350720Y-140625940D01*
%TO.C,CR20*%
X118563780Y-132076920D02*
X118844940Y-132076920D01*
X118563780Y-131056920D02*
X118844940Y-131056920D01*
%TO.C,CR19*%
X86430720Y-121294780D02*
X86430720Y-121575940D01*
X87450720Y-121294780D02*
X87450720Y-121575940D01*
%TO.C,CR18*%
X67380720Y-121294780D02*
X67380720Y-121575940D01*
X68400720Y-121294780D02*
X68400720Y-121575940D01*
%TO.C,CR17*%
X48330720Y-121294780D02*
X48330720Y-121575940D01*
X49350720Y-121294780D02*
X49350720Y-121575940D01*
%TO.C,CR16*%
X105480720Y-102244780D02*
X105480720Y-102525940D01*
X106500720Y-102244780D02*
X106500720Y-102525940D01*
%TO.C,CR15*%
X86430720Y-102244780D02*
X86430720Y-102525940D01*
X87450720Y-102244780D02*
X87450720Y-102525940D01*
%TO.C,CR14*%
X67380720Y-102244780D02*
X67380720Y-102525940D01*
X68400720Y-102244780D02*
X68400720Y-102525940D01*
%TO.C,CR13*%
X48330720Y-102244780D02*
X48330720Y-102525940D01*
X49350720Y-102244780D02*
X49350720Y-102525940D01*
%TO.C,CR12*%
X105480720Y-83194780D02*
X105480720Y-83475940D01*
X106500720Y-83194780D02*
X106500720Y-83475940D01*
%TO.C,CR11*%
X86430720Y-83194780D02*
X86430720Y-83475940D01*
X87450720Y-83194780D02*
X87450720Y-83475940D01*
%TO.C,CR10*%
X67380720Y-83194780D02*
X67380720Y-83475940D01*
X68400720Y-83194780D02*
X68400720Y-83475940D01*
%TO.C,CR9*%
X48330720Y-83194780D02*
X48330720Y-83475940D01*
X49350720Y-83194780D02*
X49350720Y-83475940D01*
%TO.C,CR8*%
X105480720Y-64144780D02*
X105480720Y-64425940D01*
X106500720Y-64144780D02*
X106500720Y-64425940D01*
%TO.C,CR7*%
X86430720Y-64144780D02*
X86430720Y-64425940D01*
X87450720Y-64144780D02*
X87450720Y-64425940D01*
%TO.C,CR6*%
X67380720Y-64144780D02*
X67380720Y-64425940D01*
X68400720Y-64144780D02*
X68400720Y-64425940D01*
%TO.C,CR5*%
X48330720Y-64144780D02*
X48330720Y-64425940D01*
X49350720Y-64144780D02*
X49350720Y-64425940D01*
%TO.C,CR4*%
X105480720Y-40331780D02*
X105480720Y-40612940D01*
X106500720Y-40331780D02*
X106500720Y-40612940D01*
%TO.C,CR3*%
X86430720Y-40331780D02*
X86430720Y-40612940D01*
X87450720Y-40331780D02*
X87450720Y-40612940D01*
%TO.C,CR2*%
X67380720Y-40331780D02*
X67380720Y-40612940D01*
X68400720Y-40331780D02*
X68400720Y-40612940D01*
%TO.C,CR1*%
X48330720Y-40331780D02*
X48330720Y-40612940D01*
X49350720Y-40331780D02*
X49350720Y-40612940D01*
%TO.C,C6*%
X46936120Y-53513300D02*
X46936120Y-53232140D01*
X45916120Y-53513300D02*
X45916120Y-53232140D01*
%TO.C,C5*%
X45743740Y-57122600D02*
X45462580Y-57122600D01*
X45743740Y-58142600D02*
X45462580Y-58142600D01*
%TO.C,C4*%
X45640380Y-61322680D02*
X45921540Y-61322680D01*
X45640380Y-60302680D02*
X45921540Y-60302680D01*
%TO.C,C3*%
X50425740Y-71543640D02*
X50706900Y-71543640D01*
X50425740Y-70523640D02*
X50706900Y-70523640D01*
%TO.C,C2*%
X59158260Y-69963760D02*
X59439420Y-69963760D01*
X59158260Y-68943760D02*
X59439420Y-68943760D01*
%TO.C,C1*%
X59163340Y-67992720D02*
X59444500Y-67992720D01*
X59163340Y-66972720D02*
X59444500Y-66972720D01*
%TO.C,MX21*%
D12*
X57687624Y-138285980D02*
X57687624Y-137285980D01*
X57354291Y-138000266D01*
X57020958Y-137285980D01*
X57020958Y-138285980D01*
X56640005Y-137285980D02*
X55973339Y-138285980D01*
X55973339Y-137285980D02*
X56640005Y-138285980D01*
X55640005Y-137381219D02*
X55592386Y-137333600D01*
X55497148Y-137285980D01*
X55259053Y-137285980D01*
X55163815Y-137333600D01*
X55116196Y-137381219D01*
X55068577Y-137476457D01*
X55068577Y-137571695D01*
X55116196Y-137714552D01*
X55687624Y-138285980D01*
X55068577Y-138285980D01*
X54116196Y-138285980D02*
X54687624Y-138285980D01*
X54401910Y-138285980D02*
X54401910Y-137285980D01*
X54497148Y-137428838D01*
X54592386Y-137524076D01*
X54687624Y-137571695D01*
%TO.C,MX20*%
X116576100Y-123498695D02*
X115576100Y-123498695D01*
X116290386Y-123832028D01*
X115576100Y-124165361D01*
X116576100Y-124165361D01*
X115576100Y-124546314D02*
X116576100Y-125212980D01*
X115576100Y-125212980D02*
X116576100Y-124546314D01*
X115671339Y-125546314D02*
X115623720Y-125593933D01*
X115576100Y-125689171D01*
X115576100Y-125927266D01*
X115623720Y-126022504D01*
X115671339Y-126070123D01*
X115766577Y-126117742D01*
X115861815Y-126117742D01*
X116004672Y-126070123D01*
X116576100Y-125498695D01*
X116576100Y-126117742D01*
X115576100Y-126736790D02*
X115576100Y-126832028D01*
X115623720Y-126927266D01*
X115671339Y-126974885D01*
X115766577Y-127022504D01*
X115957053Y-127070123D01*
X116195148Y-127070123D01*
X116385624Y-127022504D01*
X116480862Y-126974885D01*
X116528481Y-126927266D01*
X116576100Y-126832028D01*
X116576100Y-126736790D01*
X116528481Y-126641552D01*
X116480862Y-126593933D01*
X116385624Y-126546314D01*
X116195148Y-126498695D01*
X115957053Y-126498695D01*
X115766577Y-126546314D01*
X115671339Y-126593933D01*
X115623720Y-126641552D01*
X115576100Y-126736790D01*
%TO.C,U1*%
X46517464Y-72469260D02*
X46517464Y-73278784D01*
X46469845Y-73374022D01*
X46422226Y-73421641D01*
X46326988Y-73469260D01*
X46136512Y-73469260D01*
X46041274Y-73421641D01*
X45993655Y-73374022D01*
X45946036Y-73278784D01*
X45946036Y-72469260D01*
X44946036Y-73469260D02*
X45517464Y-73469260D01*
X45231750Y-73469260D02*
X45231750Y-72469260D01*
X45326988Y-72612118D01*
X45422226Y-72707356D01*
X45517464Y-72754975D01*
%TO.C,Y1*%
X51780590Y-68017449D02*
X52256780Y-68017449D01*
X51256780Y-67684116D02*
X51780590Y-68017449D01*
X51256780Y-68350782D01*
X52256780Y-69207925D02*
X52256780Y-68636497D01*
X52256780Y-68922211D02*
X51256780Y-68922211D01*
X51399638Y-68826973D01*
X51494876Y-68731735D01*
X51542495Y-68636497D01*
%TO.C,USB1*%
X38613815Y-51125460D02*
X38613815Y-51934984D01*
X38566196Y-52030222D01*
X38518577Y-52077841D01*
X38423339Y-52125460D01*
X38232862Y-52125460D01*
X38137624Y-52077841D01*
X38090005Y-52030222D01*
X38042386Y-51934984D01*
X38042386Y-51125460D01*
X37613815Y-52077841D02*
X37470958Y-52125460D01*
X37232862Y-52125460D01*
X37137624Y-52077841D01*
X37090005Y-52030222D01*
X37042386Y-51934984D01*
X37042386Y-51839746D01*
X37090005Y-51744508D01*
X37137624Y-51696889D01*
X37232862Y-51649270D01*
X37423339Y-51601651D01*
X37518577Y-51554032D01*
X37566196Y-51506413D01*
X37613815Y-51411175D01*
X37613815Y-51315937D01*
X37566196Y-51220699D01*
X37518577Y-51173080D01*
X37423339Y-51125460D01*
X37185243Y-51125460D01*
X37042386Y-51173080D01*
X36280481Y-51601651D02*
X36137624Y-51649270D01*
X36090005Y-51696889D01*
X36042386Y-51792127D01*
X36042386Y-51934984D01*
X36090005Y-52030222D01*
X36137624Y-52077841D01*
X36232862Y-52125460D01*
X36613815Y-52125460D01*
X36613815Y-51125460D01*
X36280481Y-51125460D01*
X36185243Y-51173080D01*
X36137624Y-51220699D01*
X36090005Y-51315937D01*
X36090005Y-51411175D01*
X36137624Y-51506413D01*
X36185243Y-51554032D01*
X36280481Y-51601651D01*
X36613815Y-51601651D01*
X35090005Y-52125460D02*
X35661434Y-52125460D01*
X35375720Y-52125460D02*
X35375720Y-51125460D01*
X35470958Y-51268318D01*
X35566196Y-51363556D01*
X35661434Y-51411175D01*
%TO.C,U2*%
X38680140Y-54578855D02*
X39489664Y-54578855D01*
X39584902Y-54626474D01*
X39632521Y-54674093D01*
X39680140Y-54769331D01*
X39680140Y-54959807D01*
X39632521Y-55055045D01*
X39584902Y-55102664D01*
X39489664Y-55150283D01*
X38680140Y-55150283D01*
X38775379Y-55578855D02*
X38727760Y-55626474D01*
X38680140Y-55721712D01*
X38680140Y-55959807D01*
X38727760Y-56055045D01*
X38775379Y-56102664D01*
X38870617Y-56150283D01*
X38965855Y-56150283D01*
X39108712Y-56102664D01*
X39680140Y-55531236D01*
X39680140Y-56150283D01*
%TO.C,SW1*%
X30655093Y-69254001D02*
X30512236Y-69301620D01*
X30274140Y-69301620D01*
X30178902Y-69254001D01*
X30131283Y-69206382D01*
X30083664Y-69111144D01*
X30083664Y-69015906D01*
X30131283Y-68920668D01*
X30178902Y-68873049D01*
X30274140Y-68825430D01*
X30464617Y-68777811D01*
X30559855Y-68730192D01*
X30607474Y-68682573D01*
X30655093Y-68587335D01*
X30655093Y-68492097D01*
X30607474Y-68396859D01*
X30559855Y-68349240D01*
X30464617Y-68301620D01*
X30226521Y-68301620D01*
X30083664Y-68349240D01*
X29750331Y-68301620D02*
X29512236Y-69301620D01*
X29321760Y-68587335D01*
X29131283Y-69301620D01*
X28893188Y-68301620D01*
X27988426Y-69301620D02*
X28559855Y-69301620D01*
X28274140Y-69301620D02*
X28274140Y-68301620D01*
X28369379Y-68444478D01*
X28464617Y-68539716D01*
X28559855Y-68587335D01*
%TO.C,R6*%
X43671786Y-80446140D02*
X44005120Y-79969950D01*
X44243215Y-80446140D02*
X44243215Y-79446140D01*
X43862262Y-79446140D01*
X43767024Y-79493760D01*
X43719405Y-79541379D01*
X43671786Y-79636617D01*
X43671786Y-79779474D01*
X43719405Y-79874712D01*
X43767024Y-79922331D01*
X43862262Y-79969950D01*
X44243215Y-79969950D01*
X42814643Y-79446140D02*
X43005120Y-79446140D01*
X43100358Y-79493760D01*
X43147977Y-79541379D01*
X43243215Y-79684236D01*
X43290834Y-79874712D01*
X43290834Y-80255664D01*
X43243215Y-80350902D01*
X43195596Y-80398521D01*
X43100358Y-80446140D01*
X42909881Y-80446140D01*
X42814643Y-80398521D01*
X42767024Y-80350902D01*
X42719405Y-80255664D01*
X42719405Y-80017569D01*
X42767024Y-79922331D01*
X42814643Y-79874712D01*
X42909881Y-79827093D01*
X43100358Y-79827093D01*
X43195596Y-79874712D01*
X43243215Y-79922331D01*
X43290834Y-80017569D01*
%TO.C,R5*%
X40760380Y-59069313D02*
X40284190Y-58735980D01*
X40760380Y-58497884D02*
X39760380Y-58497884D01*
X39760380Y-58878837D01*
X39808000Y-58974075D01*
X39855619Y-59021694D01*
X39950857Y-59069313D01*
X40093714Y-59069313D01*
X40188952Y-59021694D01*
X40236571Y-58974075D01*
X40284190Y-58878837D01*
X40284190Y-58497884D01*
X39760380Y-59974075D02*
X39760380Y-59497884D01*
X40236571Y-59450265D01*
X40188952Y-59497884D01*
X40141333Y-59593122D01*
X40141333Y-59831218D01*
X40188952Y-59926456D01*
X40236571Y-59974075D01*
X40331809Y-60021694D01*
X40569904Y-60021694D01*
X40665142Y-59974075D01*
X40712761Y-59926456D01*
X40760380Y-59831218D01*
X40760380Y-59593122D01*
X40712761Y-59497884D01*
X40665142Y-59450265D01*
%TO.C,R4*%
X37215340Y-59069313D02*
X36739150Y-58735980D01*
X37215340Y-58497884D02*
X36215340Y-58497884D01*
X36215340Y-58878837D01*
X36262960Y-58974075D01*
X36310579Y-59021694D01*
X36405817Y-59069313D01*
X36548674Y-59069313D01*
X36643912Y-59021694D01*
X36691531Y-58974075D01*
X36739150Y-58878837D01*
X36739150Y-58497884D01*
X36548674Y-59926456D02*
X37215340Y-59926456D01*
X36167721Y-59688360D02*
X36882007Y-59450265D01*
X36882007Y-60069313D01*
%TO.C,R3*%
X35138420Y-55118973D02*
X34662230Y-54785640D01*
X35138420Y-54547544D02*
X34138420Y-54547544D01*
X34138420Y-54928497D01*
X34186040Y-55023735D01*
X34233659Y-55071354D01*
X34328897Y-55118973D01*
X34471754Y-55118973D01*
X34566992Y-55071354D01*
X34614611Y-55023735D01*
X34662230Y-54928497D01*
X34662230Y-54547544D01*
X34138420Y-55452306D02*
X34138420Y-56071354D01*
X34519373Y-55738020D01*
X34519373Y-55880878D01*
X34566992Y-55976116D01*
X34614611Y-56023735D01*
X34709849Y-56071354D01*
X34947944Y-56071354D01*
X35043182Y-56023735D01*
X35090801Y-55976116D01*
X35138420Y-55880878D01*
X35138420Y-55595163D01*
X35090801Y-55499925D01*
X35043182Y-55452306D01*
%TO.C,R2*%
X42782160Y-55118973D02*
X42305970Y-54785640D01*
X42782160Y-54547544D02*
X41782160Y-54547544D01*
X41782160Y-54928497D01*
X41829780Y-55023735D01*
X41877399Y-55071354D01*
X41972637Y-55118973D01*
X42115494Y-55118973D01*
X42210732Y-55071354D01*
X42258351Y-55023735D01*
X42305970Y-54928497D01*
X42305970Y-54547544D01*
X41877399Y-55499925D02*
X41829780Y-55547544D01*
X41782160Y-55642782D01*
X41782160Y-55880878D01*
X41829780Y-55976116D01*
X41877399Y-56023735D01*
X41972637Y-56071354D01*
X42067875Y-56071354D01*
X42210732Y-56023735D01*
X42782160Y-55452306D01*
X42782160Y-56071354D01*
%TO.C,R1*%
X41548580Y-69632533D02*
X41072390Y-69299200D01*
X41548580Y-69061104D02*
X40548580Y-69061104D01*
X40548580Y-69442057D01*
X40596200Y-69537295D01*
X40643819Y-69584914D01*
X40739057Y-69632533D01*
X40881914Y-69632533D01*
X40977152Y-69584914D01*
X41024771Y-69537295D01*
X41072390Y-69442057D01*
X41072390Y-69061104D01*
X41548580Y-70584914D02*
X41548580Y-70013485D01*
X41548580Y-70299200D02*
X40548580Y-70299200D01*
X40691438Y-70203961D01*
X40786676Y-70108723D01*
X40834295Y-70013485D01*
%TO.C,MX26*%
X38637624Y-138285980D02*
X38637624Y-137285980D01*
X38304291Y-138000266D01*
X37970958Y-137285980D01*
X37970958Y-138285980D01*
X37590005Y-137285980D02*
X36923339Y-138285980D01*
X36923339Y-137285980D02*
X37590005Y-138285980D01*
X36590005Y-137381219D02*
X36542386Y-137333600D01*
X36447148Y-137285980D01*
X36209053Y-137285980D01*
X36113815Y-137333600D01*
X36066196Y-137381219D01*
X36018577Y-137476457D01*
X36018577Y-137571695D01*
X36066196Y-137714552D01*
X36637624Y-138285980D01*
X36018577Y-138285980D01*
X35161434Y-137285980D02*
X35351910Y-137285980D01*
X35447148Y-137333600D01*
X35494767Y-137381219D01*
X35590005Y-137524076D01*
X35637624Y-137714552D01*
X35637624Y-138095504D01*
X35590005Y-138190742D01*
X35542386Y-138238361D01*
X35447148Y-138285980D01*
X35256672Y-138285980D01*
X35161434Y-138238361D01*
X35113815Y-138190742D01*
X35066196Y-138095504D01*
X35066196Y-137857409D01*
X35113815Y-137762171D01*
X35161434Y-137714552D01*
X35256672Y-137666933D01*
X35447148Y-137666933D01*
X35542386Y-137714552D01*
X35590005Y-137762171D01*
X35637624Y-137857409D01*
%TO.C,MX25*%
X38637624Y-119235980D02*
X38637624Y-118235980D01*
X38304291Y-118950266D01*
X37970958Y-118235980D01*
X37970958Y-119235980D01*
X37590005Y-118235980D02*
X36923339Y-119235980D01*
X36923339Y-118235980D02*
X37590005Y-119235980D01*
X36590005Y-118331219D02*
X36542386Y-118283600D01*
X36447148Y-118235980D01*
X36209053Y-118235980D01*
X36113815Y-118283600D01*
X36066196Y-118331219D01*
X36018577Y-118426457D01*
X36018577Y-118521695D01*
X36066196Y-118664552D01*
X36637624Y-119235980D01*
X36018577Y-119235980D01*
X35113815Y-118235980D02*
X35590005Y-118235980D01*
X35637624Y-118712171D01*
X35590005Y-118664552D01*
X35494767Y-118616933D01*
X35256672Y-118616933D01*
X35161434Y-118664552D01*
X35113815Y-118712171D01*
X35066196Y-118807409D01*
X35066196Y-119045504D01*
X35113815Y-119140742D01*
X35161434Y-119188361D01*
X35256672Y-119235980D01*
X35494767Y-119235980D01*
X35590005Y-119188361D01*
X35637624Y-119140742D01*
%TO.C,MX24*%
X38637624Y-100185980D02*
X38637624Y-99185980D01*
X38304291Y-99900266D01*
X37970958Y-99185980D01*
X37970958Y-100185980D01*
X37590005Y-99185980D02*
X36923339Y-100185980D01*
X36923339Y-99185980D02*
X37590005Y-100185980D01*
X36590005Y-99281219D02*
X36542386Y-99233600D01*
X36447148Y-99185980D01*
X36209053Y-99185980D01*
X36113815Y-99233600D01*
X36066196Y-99281219D01*
X36018577Y-99376457D01*
X36018577Y-99471695D01*
X36066196Y-99614552D01*
X36637624Y-100185980D01*
X36018577Y-100185980D01*
X35161434Y-99519314D02*
X35161434Y-100185980D01*
X35399529Y-99138361D02*
X35637624Y-99852647D01*
X35018577Y-99852647D01*
%TO.C,MX23*%
X95787624Y-138285980D02*
X95787624Y-137285980D01*
X95454291Y-138000266D01*
X95120958Y-137285980D01*
X95120958Y-138285980D01*
X94740005Y-137285980D02*
X94073339Y-138285980D01*
X94073339Y-137285980D02*
X94740005Y-138285980D01*
X93740005Y-137381219D02*
X93692386Y-137333600D01*
X93597148Y-137285980D01*
X93359053Y-137285980D01*
X93263815Y-137333600D01*
X93216196Y-137381219D01*
X93168577Y-137476457D01*
X93168577Y-137571695D01*
X93216196Y-137714552D01*
X93787624Y-138285980D01*
X93168577Y-138285980D01*
X92835243Y-137285980D02*
X92216196Y-137285980D01*
X92549529Y-137666933D01*
X92406672Y-137666933D01*
X92311434Y-137714552D01*
X92263815Y-137762171D01*
X92216196Y-137857409D01*
X92216196Y-138095504D01*
X92263815Y-138190742D01*
X92311434Y-138238361D01*
X92406672Y-138285980D01*
X92692386Y-138285980D01*
X92787624Y-138238361D01*
X92835243Y-138190742D01*
%TO.C,MX22*%
X76737624Y-138285980D02*
X76737624Y-137285980D01*
X76404291Y-138000266D01*
X76070958Y-137285980D01*
X76070958Y-138285980D01*
X75690005Y-137285980D02*
X75023339Y-138285980D01*
X75023339Y-137285980D02*
X75690005Y-138285980D01*
X74690005Y-137381219D02*
X74642386Y-137333600D01*
X74547148Y-137285980D01*
X74309053Y-137285980D01*
X74213815Y-137333600D01*
X74166196Y-137381219D01*
X74118577Y-137476457D01*
X74118577Y-137571695D01*
X74166196Y-137714552D01*
X74737624Y-138285980D01*
X74118577Y-138285980D01*
X73737624Y-137381219D02*
X73690005Y-137333600D01*
X73594767Y-137285980D01*
X73356672Y-137285980D01*
X73261434Y-137333600D01*
X73213815Y-137381219D01*
X73166196Y-137476457D01*
X73166196Y-137571695D01*
X73213815Y-137714552D01*
X73785243Y-138285980D01*
X73166196Y-138285980D01*
%TO.C,MX19*%
X95787624Y-119235980D02*
X95787624Y-118235980D01*
X95454291Y-118950266D01*
X95120958Y-118235980D01*
X95120958Y-119235980D01*
X94740005Y-118235980D02*
X94073339Y-119235980D01*
X94073339Y-118235980D02*
X94740005Y-119235980D01*
X93168577Y-119235980D02*
X93740005Y-119235980D01*
X93454291Y-119235980D02*
X93454291Y-118235980D01*
X93549529Y-118378838D01*
X93644767Y-118474076D01*
X93740005Y-118521695D01*
X92692386Y-119235980D02*
X92501910Y-119235980D01*
X92406672Y-119188361D01*
X92359053Y-119140742D01*
X92263815Y-118997885D01*
X92216196Y-118807409D01*
X92216196Y-118426457D01*
X92263815Y-118331219D01*
X92311434Y-118283600D01*
X92406672Y-118235980D01*
X92597148Y-118235980D01*
X92692386Y-118283600D01*
X92740005Y-118331219D01*
X92787624Y-118426457D01*
X92787624Y-118664552D01*
X92740005Y-118759790D01*
X92692386Y-118807409D01*
X92597148Y-118855028D01*
X92406672Y-118855028D01*
X92311434Y-118807409D01*
X92263815Y-118759790D01*
X92216196Y-118664552D01*
%TO.C,MX18*%
X76737624Y-119235980D02*
X76737624Y-118235980D01*
X76404291Y-118950266D01*
X76070958Y-118235980D01*
X76070958Y-119235980D01*
X75690005Y-118235980D02*
X75023339Y-119235980D01*
X75023339Y-118235980D02*
X75690005Y-119235980D01*
X74118577Y-119235980D02*
X74690005Y-119235980D01*
X74404291Y-119235980D02*
X74404291Y-118235980D01*
X74499529Y-118378838D01*
X74594767Y-118474076D01*
X74690005Y-118521695D01*
X73547148Y-118664552D02*
X73642386Y-118616933D01*
X73690005Y-118569314D01*
X73737624Y-118474076D01*
X73737624Y-118426457D01*
X73690005Y-118331219D01*
X73642386Y-118283600D01*
X73547148Y-118235980D01*
X73356672Y-118235980D01*
X73261434Y-118283600D01*
X73213815Y-118331219D01*
X73166196Y-118426457D01*
X73166196Y-118474076D01*
X73213815Y-118569314D01*
X73261434Y-118616933D01*
X73356672Y-118664552D01*
X73547148Y-118664552D01*
X73642386Y-118712171D01*
X73690005Y-118759790D01*
X73737624Y-118855028D01*
X73737624Y-119045504D01*
X73690005Y-119140742D01*
X73642386Y-119188361D01*
X73547148Y-119235980D01*
X73356672Y-119235980D01*
X73261434Y-119188361D01*
X73213815Y-119140742D01*
X73166196Y-119045504D01*
X73166196Y-118855028D01*
X73213815Y-118759790D01*
X73261434Y-118712171D01*
X73356672Y-118664552D01*
%TO.C,MX17*%
X57687624Y-119235980D02*
X57687624Y-118235980D01*
X57354291Y-118950266D01*
X57020958Y-118235980D01*
X57020958Y-119235980D01*
X56640005Y-118235980D02*
X55973339Y-119235980D01*
X55973339Y-118235980D02*
X56640005Y-119235980D01*
X55068577Y-119235980D02*
X55640005Y-119235980D01*
X55354291Y-119235980D02*
X55354291Y-118235980D01*
X55449529Y-118378838D01*
X55544767Y-118474076D01*
X55640005Y-118521695D01*
X54735243Y-118235980D02*
X54068577Y-118235980D01*
X54497148Y-119235980D01*
%TO.C,MX16*%
X114837624Y-100185980D02*
X114837624Y-99185980D01*
X114504291Y-99900266D01*
X114170958Y-99185980D01*
X114170958Y-100185980D01*
X113790005Y-99185980D02*
X113123339Y-100185980D01*
X113123339Y-99185980D02*
X113790005Y-100185980D01*
X112218577Y-100185980D02*
X112790005Y-100185980D01*
X112504291Y-100185980D02*
X112504291Y-99185980D01*
X112599529Y-99328838D01*
X112694767Y-99424076D01*
X112790005Y-99471695D01*
X111361434Y-99185980D02*
X111551910Y-99185980D01*
X111647148Y-99233600D01*
X111694767Y-99281219D01*
X111790005Y-99424076D01*
X111837624Y-99614552D01*
X111837624Y-99995504D01*
X111790005Y-100090742D01*
X111742386Y-100138361D01*
X111647148Y-100185980D01*
X111456672Y-100185980D01*
X111361434Y-100138361D01*
X111313815Y-100090742D01*
X111266196Y-99995504D01*
X111266196Y-99757409D01*
X111313815Y-99662171D01*
X111361434Y-99614552D01*
X111456672Y-99566933D01*
X111647148Y-99566933D01*
X111742386Y-99614552D01*
X111790005Y-99662171D01*
X111837624Y-99757409D01*
%TO.C,MX15*%
X95787624Y-100185980D02*
X95787624Y-99185980D01*
X95454291Y-99900266D01*
X95120958Y-99185980D01*
X95120958Y-100185980D01*
X94740005Y-99185980D02*
X94073339Y-100185980D01*
X94073339Y-99185980D02*
X94740005Y-100185980D01*
X93168577Y-100185980D02*
X93740005Y-100185980D01*
X93454291Y-100185980D02*
X93454291Y-99185980D01*
X93549529Y-99328838D01*
X93644767Y-99424076D01*
X93740005Y-99471695D01*
X92263815Y-99185980D02*
X92740005Y-99185980D01*
X92787624Y-99662171D01*
X92740005Y-99614552D01*
X92644767Y-99566933D01*
X92406672Y-99566933D01*
X92311434Y-99614552D01*
X92263815Y-99662171D01*
X92216196Y-99757409D01*
X92216196Y-99995504D01*
X92263815Y-100090742D01*
X92311434Y-100138361D01*
X92406672Y-100185980D01*
X92644767Y-100185980D01*
X92740005Y-100138361D01*
X92787624Y-100090742D01*
%TO.C,MX14*%
X76737624Y-100185980D02*
X76737624Y-99185980D01*
X76404291Y-99900266D01*
X76070958Y-99185980D01*
X76070958Y-100185980D01*
X75690005Y-99185980D02*
X75023339Y-100185980D01*
X75023339Y-99185980D02*
X75690005Y-100185980D01*
X74118577Y-100185980D02*
X74690005Y-100185980D01*
X74404291Y-100185980D02*
X74404291Y-99185980D01*
X74499529Y-99328838D01*
X74594767Y-99424076D01*
X74690005Y-99471695D01*
X73261434Y-99519314D02*
X73261434Y-100185980D01*
X73499529Y-99138361D02*
X73737624Y-99852647D01*
X73118577Y-99852647D01*
%TO.C,MX13*%
X57687624Y-100185980D02*
X57687624Y-99185980D01*
X57354291Y-99900266D01*
X57020958Y-99185980D01*
X57020958Y-100185980D01*
X56640005Y-99185980D02*
X55973339Y-100185980D01*
X55973339Y-99185980D02*
X56640005Y-100185980D01*
X55068577Y-100185980D02*
X55640005Y-100185980D01*
X55354291Y-100185980D02*
X55354291Y-99185980D01*
X55449529Y-99328838D01*
X55544767Y-99424076D01*
X55640005Y-99471695D01*
X54735243Y-99185980D02*
X54116196Y-99185980D01*
X54449529Y-99566933D01*
X54306672Y-99566933D01*
X54211434Y-99614552D01*
X54163815Y-99662171D01*
X54116196Y-99757409D01*
X54116196Y-99995504D01*
X54163815Y-100090742D01*
X54211434Y-100138361D01*
X54306672Y-100185980D01*
X54592386Y-100185980D01*
X54687624Y-100138361D01*
X54735243Y-100090742D01*
%TO.C,MX12*%
X114837624Y-81135980D02*
X114837624Y-80135980D01*
X114504291Y-80850266D01*
X114170958Y-80135980D01*
X114170958Y-81135980D01*
X113790005Y-80135980D02*
X113123339Y-81135980D01*
X113123339Y-80135980D02*
X113790005Y-81135980D01*
X112218577Y-81135980D02*
X112790005Y-81135980D01*
X112504291Y-81135980D02*
X112504291Y-80135980D01*
X112599529Y-80278838D01*
X112694767Y-80374076D01*
X112790005Y-80421695D01*
X111837624Y-80231219D02*
X111790005Y-80183600D01*
X111694767Y-80135980D01*
X111456672Y-80135980D01*
X111361434Y-80183600D01*
X111313815Y-80231219D01*
X111266196Y-80326457D01*
X111266196Y-80421695D01*
X111313815Y-80564552D01*
X111885243Y-81135980D01*
X111266196Y-81135980D01*
%TO.C,MX11*%
X95787624Y-81135980D02*
X95787624Y-80135980D01*
X95454291Y-80850266D01*
X95120958Y-80135980D01*
X95120958Y-81135980D01*
X94740005Y-80135980D02*
X94073339Y-81135980D01*
X94073339Y-80135980D02*
X94740005Y-81135980D01*
X93168577Y-81135980D02*
X93740005Y-81135980D01*
X93454291Y-81135980D02*
X93454291Y-80135980D01*
X93549529Y-80278838D01*
X93644767Y-80374076D01*
X93740005Y-80421695D01*
X92216196Y-81135980D02*
X92787624Y-81135980D01*
X92501910Y-81135980D02*
X92501910Y-80135980D01*
X92597148Y-80278838D01*
X92692386Y-80374076D01*
X92787624Y-80421695D01*
%TO.C,MX10*%
X76737624Y-81135980D02*
X76737624Y-80135980D01*
X76404291Y-80850266D01*
X76070958Y-80135980D01*
X76070958Y-81135980D01*
X75690005Y-80135980D02*
X75023339Y-81135980D01*
X75023339Y-80135980D02*
X75690005Y-81135980D01*
X74118577Y-81135980D02*
X74690005Y-81135980D01*
X74404291Y-81135980D02*
X74404291Y-80135980D01*
X74499529Y-80278838D01*
X74594767Y-80374076D01*
X74690005Y-80421695D01*
X73499529Y-80135980D02*
X73404291Y-80135980D01*
X73309053Y-80183600D01*
X73261434Y-80231219D01*
X73213815Y-80326457D01*
X73166196Y-80516933D01*
X73166196Y-80755028D01*
X73213815Y-80945504D01*
X73261434Y-81040742D01*
X73309053Y-81088361D01*
X73404291Y-81135980D01*
X73499529Y-81135980D01*
X73594767Y-81088361D01*
X73642386Y-81040742D01*
X73690005Y-80945504D01*
X73737624Y-80755028D01*
X73737624Y-80516933D01*
X73690005Y-80326457D01*
X73642386Y-80231219D01*
X73594767Y-80183600D01*
X73499529Y-80135980D01*
%TO.C,MX9*%
X57211434Y-81135980D02*
X57211434Y-80135980D01*
X56878100Y-80850266D01*
X56544767Y-80135980D01*
X56544767Y-81135980D01*
X56163815Y-80135980D02*
X55497148Y-81135980D01*
X55497148Y-80135980D02*
X56163815Y-81135980D01*
X55068577Y-81135980D02*
X54878100Y-81135980D01*
X54782862Y-81088361D01*
X54735243Y-81040742D01*
X54640005Y-80897885D01*
X54592386Y-80707409D01*
X54592386Y-80326457D01*
X54640005Y-80231219D01*
X54687624Y-80183600D01*
X54782862Y-80135980D01*
X54973339Y-80135980D01*
X55068577Y-80183600D01*
X55116196Y-80231219D01*
X55163815Y-80326457D01*
X55163815Y-80564552D01*
X55116196Y-80659790D01*
X55068577Y-80707409D01*
X54973339Y-80755028D01*
X54782862Y-80755028D01*
X54687624Y-80707409D01*
X54640005Y-80659790D01*
X54592386Y-80564552D01*
%TO.C,MX8*%
X114361434Y-62085980D02*
X114361434Y-61085980D01*
X114028100Y-61800266D01*
X113694767Y-61085980D01*
X113694767Y-62085980D01*
X113313815Y-61085980D02*
X112647148Y-62085980D01*
X112647148Y-61085980D02*
X113313815Y-62085980D01*
X112123339Y-61514552D02*
X112218577Y-61466933D01*
X112266196Y-61419314D01*
X112313815Y-61324076D01*
X112313815Y-61276457D01*
X112266196Y-61181219D01*
X112218577Y-61133600D01*
X112123339Y-61085980D01*
X111932862Y-61085980D01*
X111837624Y-61133600D01*
X111790005Y-61181219D01*
X111742386Y-61276457D01*
X111742386Y-61324076D01*
X111790005Y-61419314D01*
X111837624Y-61466933D01*
X111932862Y-61514552D01*
X112123339Y-61514552D01*
X112218577Y-61562171D01*
X112266196Y-61609790D01*
X112313815Y-61705028D01*
X112313815Y-61895504D01*
X112266196Y-61990742D01*
X112218577Y-62038361D01*
X112123339Y-62085980D01*
X111932862Y-62085980D01*
X111837624Y-62038361D01*
X111790005Y-61990742D01*
X111742386Y-61895504D01*
X111742386Y-61705028D01*
X111790005Y-61609790D01*
X111837624Y-61562171D01*
X111932862Y-61514552D01*
%TO.C,MX7*%
X95311434Y-62085980D02*
X95311434Y-61085980D01*
X94978100Y-61800266D01*
X94644767Y-61085980D01*
X94644767Y-62085980D01*
X94263815Y-61085980D02*
X93597148Y-62085980D01*
X93597148Y-61085980D02*
X94263815Y-62085980D01*
X93311434Y-61085980D02*
X92644767Y-61085980D01*
X93073339Y-62085980D01*
%TO.C,MX6*%
X76261434Y-62085980D02*
X76261434Y-61085980D01*
X75928100Y-61800266D01*
X75594767Y-61085980D01*
X75594767Y-62085980D01*
X75213815Y-61085980D02*
X74547148Y-62085980D01*
X74547148Y-61085980D02*
X75213815Y-62085980D01*
X73737624Y-61085980D02*
X73928100Y-61085980D01*
X74023339Y-61133600D01*
X74070958Y-61181219D01*
X74166196Y-61324076D01*
X74213815Y-61514552D01*
X74213815Y-61895504D01*
X74166196Y-61990742D01*
X74118577Y-62038361D01*
X74023339Y-62085980D01*
X73832862Y-62085980D01*
X73737624Y-62038361D01*
X73690005Y-61990742D01*
X73642386Y-61895504D01*
X73642386Y-61657409D01*
X73690005Y-61562171D01*
X73737624Y-61514552D01*
X73832862Y-61466933D01*
X74023339Y-61466933D01*
X74118577Y-61514552D01*
X74166196Y-61562171D01*
X74213815Y-61657409D01*
%TO.C,MX5*%
X57211434Y-62085980D02*
X57211434Y-61085980D01*
X56878100Y-61800266D01*
X56544767Y-61085980D01*
X56544767Y-62085980D01*
X56163815Y-61085980D02*
X55497148Y-62085980D01*
X55497148Y-61085980D02*
X56163815Y-62085980D01*
X54640005Y-61085980D02*
X55116196Y-61085980D01*
X55163815Y-61562171D01*
X55116196Y-61514552D01*
X55020958Y-61466933D01*
X54782862Y-61466933D01*
X54687624Y-61514552D01*
X54640005Y-61562171D01*
X54592386Y-61657409D01*
X54592386Y-61895504D01*
X54640005Y-61990742D01*
X54687624Y-62038361D01*
X54782862Y-62085980D01*
X55020958Y-62085980D01*
X55116196Y-62038361D01*
X55163815Y-61990742D01*
%TO.C,MX4*%
X114361434Y-38272980D02*
X114361434Y-37272980D01*
X114028100Y-37987266D01*
X113694767Y-37272980D01*
X113694767Y-38272980D01*
X113313815Y-37272980D02*
X112647148Y-38272980D01*
X112647148Y-37272980D02*
X113313815Y-38272980D01*
X111837624Y-37606314D02*
X111837624Y-38272980D01*
X112075720Y-37225361D02*
X112313815Y-37939647D01*
X111694767Y-37939647D01*
%TO.C,MX3*%
X95311434Y-38272980D02*
X95311434Y-37272980D01*
X94978100Y-37987266D01*
X94644767Y-37272980D01*
X94644767Y-38272980D01*
X94263815Y-37272980D02*
X93597148Y-38272980D01*
X93597148Y-37272980D02*
X94263815Y-38272980D01*
X93311434Y-37272980D02*
X92692386Y-37272980D01*
X93025720Y-37653933D01*
X92882862Y-37653933D01*
X92787624Y-37701552D01*
X92740005Y-37749171D01*
X92692386Y-37844409D01*
X92692386Y-38082504D01*
X92740005Y-38177742D01*
X92787624Y-38225361D01*
X92882862Y-38272980D01*
X93168577Y-38272980D01*
X93263815Y-38225361D01*
X93311434Y-38177742D01*
%TO.C,MX2*%
X76261434Y-38272980D02*
X76261434Y-37272980D01*
X75928100Y-37987266D01*
X75594767Y-37272980D01*
X75594767Y-38272980D01*
X75213815Y-37272980D02*
X74547148Y-38272980D01*
X74547148Y-37272980D02*
X75213815Y-38272980D01*
X74213815Y-37368219D02*
X74166196Y-37320600D01*
X74070958Y-37272980D01*
X73832862Y-37272980D01*
X73737624Y-37320600D01*
X73690005Y-37368219D01*
X73642386Y-37463457D01*
X73642386Y-37558695D01*
X73690005Y-37701552D01*
X74261434Y-38272980D01*
X73642386Y-38272980D01*
%TO.C,MX1*%
X57211434Y-38272980D02*
X57211434Y-37272980D01*
X56878100Y-37987266D01*
X56544767Y-37272980D01*
X56544767Y-38272980D01*
X56163815Y-37272980D02*
X55497148Y-38272980D01*
X55497148Y-37272980D02*
X56163815Y-38272980D01*
X54592386Y-38272980D02*
X55163815Y-38272980D01*
X54878100Y-38272980D02*
X54878100Y-37272980D01*
X54973339Y-37415838D01*
X55068577Y-37511076D01*
X55163815Y-37558695D01*
%TO.C,F1*%
X33269971Y-59534466D02*
X33269971Y-59201133D01*
X33793780Y-59201133D02*
X32793780Y-59201133D01*
X32793780Y-59677323D01*
X33793780Y-60582085D02*
X33793780Y-60010657D01*
X33793780Y-60296371D02*
X32793780Y-60296371D01*
X32936638Y-60201133D01*
X33031876Y-60105895D01*
X33079495Y-60010657D01*
%TO.C,D26*%
X45170100Y-138333814D02*
X44170100Y-138333814D01*
X44170100Y-138571909D01*
X44217720Y-138714766D01*
X44312958Y-138810004D01*
X44408196Y-138857623D01*
X44598672Y-138905242D01*
X44741529Y-138905242D01*
X44932005Y-138857623D01*
X45027243Y-138810004D01*
X45122481Y-138714766D01*
X45170100Y-138571909D01*
X45170100Y-138333814D01*
X44265339Y-139286195D02*
X44217720Y-139333814D01*
X44170100Y-139429052D01*
X44170100Y-139667147D01*
X44217720Y-139762385D01*
X44265339Y-139810004D01*
X44360577Y-139857623D01*
X44455815Y-139857623D01*
X44598672Y-139810004D01*
X45170100Y-139238576D01*
X45170100Y-139857623D01*
X44170100Y-140714766D02*
X44170100Y-140524290D01*
X44217720Y-140429052D01*
X44265339Y-140381433D01*
X44408196Y-140286195D01*
X44598672Y-140238576D01*
X44979624Y-140238576D01*
X45074862Y-140286195D01*
X45122481Y-140333814D01*
X45170100Y-140429052D01*
X45170100Y-140619528D01*
X45122481Y-140714766D01*
X45074862Y-140762385D01*
X44979624Y-140810004D01*
X44741529Y-140810004D01*
X44646291Y-140762385D01*
X44598672Y-140714766D01*
X44551053Y-140619528D01*
X44551053Y-140429052D01*
X44598672Y-140333814D01*
X44646291Y-140286195D01*
X44741529Y-140238576D01*
%TO.C,D25*%
X45170100Y-119283814D02*
X44170100Y-119283814D01*
X44170100Y-119521909D01*
X44217720Y-119664766D01*
X44312958Y-119760004D01*
X44408196Y-119807623D01*
X44598672Y-119855242D01*
X44741529Y-119855242D01*
X44932005Y-119807623D01*
X45027243Y-119760004D01*
X45122481Y-119664766D01*
X45170100Y-119521909D01*
X45170100Y-119283814D01*
X44265339Y-120236195D02*
X44217720Y-120283814D01*
X44170100Y-120379052D01*
X44170100Y-120617147D01*
X44217720Y-120712385D01*
X44265339Y-120760004D01*
X44360577Y-120807623D01*
X44455815Y-120807623D01*
X44598672Y-120760004D01*
X45170100Y-120188576D01*
X45170100Y-120807623D01*
X44170100Y-121712385D02*
X44170100Y-121236195D01*
X44646291Y-121188576D01*
X44598672Y-121236195D01*
X44551053Y-121331433D01*
X44551053Y-121569528D01*
X44598672Y-121664766D01*
X44646291Y-121712385D01*
X44741529Y-121760004D01*
X44979624Y-121760004D01*
X45074862Y-121712385D01*
X45122481Y-121664766D01*
X45170100Y-121569528D01*
X45170100Y-121331433D01*
X45122481Y-121236195D01*
X45074862Y-121188576D01*
%TO.C,D24*%
X45170100Y-100233814D02*
X44170100Y-100233814D01*
X44170100Y-100471909D01*
X44217720Y-100614766D01*
X44312958Y-100710004D01*
X44408196Y-100757623D01*
X44598672Y-100805242D01*
X44741529Y-100805242D01*
X44932005Y-100757623D01*
X45027243Y-100710004D01*
X45122481Y-100614766D01*
X45170100Y-100471909D01*
X45170100Y-100233814D01*
X44265339Y-101186195D02*
X44217720Y-101233814D01*
X44170100Y-101329052D01*
X44170100Y-101567147D01*
X44217720Y-101662385D01*
X44265339Y-101710004D01*
X44360577Y-101757623D01*
X44455815Y-101757623D01*
X44598672Y-101710004D01*
X45170100Y-101138576D01*
X45170100Y-101757623D01*
X44503434Y-102614766D02*
X45170100Y-102614766D01*
X44122481Y-102376671D02*
X44836767Y-102138576D01*
X44836767Y-102757623D01*
%TO.C,D23*%
X101415339Y-140762385D02*
X102415339Y-140762385D01*
X102415339Y-140524290D01*
X102367720Y-140381433D01*
X102272481Y-140286195D01*
X102177243Y-140238576D01*
X101986767Y-140190957D01*
X101843910Y-140190957D01*
X101653434Y-140238576D01*
X101558196Y-140286195D01*
X101462958Y-140381433D01*
X101415339Y-140524290D01*
X101415339Y-140762385D01*
X102320100Y-139810004D02*
X102367720Y-139762385D01*
X102415339Y-139667147D01*
X102415339Y-139429052D01*
X102367720Y-139333814D01*
X102320100Y-139286195D01*
X102224862Y-139238576D01*
X102129624Y-139238576D01*
X101986767Y-139286195D01*
X101415339Y-139857623D01*
X101415339Y-139238576D01*
X102415339Y-138905242D02*
X102415339Y-138286195D01*
X102034386Y-138619528D01*
X102034386Y-138476671D01*
X101986767Y-138381433D01*
X101939148Y-138333814D01*
X101843910Y-138286195D01*
X101605815Y-138286195D01*
X101510577Y-138333814D01*
X101462958Y-138381433D01*
X101415339Y-138476671D01*
X101415339Y-138762385D01*
X101462958Y-138857623D01*
X101510577Y-138905242D01*
%TO.C,D22*%
X83270100Y-138333814D02*
X82270100Y-138333814D01*
X82270100Y-138571909D01*
X82317720Y-138714766D01*
X82412958Y-138810004D01*
X82508196Y-138857623D01*
X82698672Y-138905242D01*
X82841529Y-138905242D01*
X83032005Y-138857623D01*
X83127243Y-138810004D01*
X83222481Y-138714766D01*
X83270100Y-138571909D01*
X83270100Y-138333814D01*
X82365339Y-139286195D02*
X82317720Y-139333814D01*
X82270100Y-139429052D01*
X82270100Y-139667147D01*
X82317720Y-139762385D01*
X82365339Y-139810004D01*
X82460577Y-139857623D01*
X82555815Y-139857623D01*
X82698672Y-139810004D01*
X83270100Y-139238576D01*
X83270100Y-139857623D01*
X82365339Y-140238576D02*
X82317720Y-140286195D01*
X82270100Y-140381433D01*
X82270100Y-140619528D01*
X82317720Y-140714766D01*
X82365339Y-140762385D01*
X82460577Y-140810004D01*
X82555815Y-140810004D01*
X82698672Y-140762385D01*
X83270100Y-140190957D01*
X83270100Y-140810004D01*
%TO.C,D21*%
X64220100Y-138333814D02*
X63220100Y-138333814D01*
X63220100Y-138571909D01*
X63267720Y-138714766D01*
X63362958Y-138810004D01*
X63458196Y-138857623D01*
X63648672Y-138905242D01*
X63791529Y-138905242D01*
X63982005Y-138857623D01*
X64077243Y-138810004D01*
X64172481Y-138714766D01*
X64220100Y-138571909D01*
X64220100Y-138333814D01*
X63315339Y-139286195D02*
X63267720Y-139333814D01*
X63220100Y-139429052D01*
X63220100Y-139667147D01*
X63267720Y-139762385D01*
X63315339Y-139810004D01*
X63410577Y-139857623D01*
X63505815Y-139857623D01*
X63648672Y-139810004D01*
X64220100Y-139238576D01*
X64220100Y-139857623D01*
X64220100Y-140810004D02*
X64220100Y-140238576D01*
X64220100Y-140524290D02*
X63220100Y-140524290D01*
X63362958Y-140429052D01*
X63458196Y-140333814D01*
X63505815Y-140238576D01*
%TO.C,D20*%
X118865005Y-117870980D02*
X118865005Y-116870980D01*
X118626910Y-116870980D01*
X118484053Y-116918600D01*
X118388815Y-117013838D01*
X118341196Y-117109076D01*
X118293577Y-117299552D01*
X118293577Y-117442409D01*
X118341196Y-117632885D01*
X118388815Y-117728123D01*
X118484053Y-117823361D01*
X118626910Y-117870980D01*
X118865005Y-117870980D01*
X117912624Y-116966219D02*
X117865005Y-116918600D01*
X117769767Y-116870980D01*
X117531672Y-116870980D01*
X117436434Y-116918600D01*
X117388815Y-116966219D01*
X117341196Y-117061457D01*
X117341196Y-117156695D01*
X117388815Y-117299552D01*
X117960243Y-117870980D01*
X117341196Y-117870980D01*
X116722148Y-116870980D02*
X116626910Y-116870980D01*
X116531672Y-116918600D01*
X116484053Y-116966219D01*
X116436434Y-117061457D01*
X116388815Y-117251933D01*
X116388815Y-117490028D01*
X116436434Y-117680504D01*
X116484053Y-117775742D01*
X116531672Y-117823361D01*
X116626910Y-117870980D01*
X116722148Y-117870980D01*
X116817386Y-117823361D01*
X116865005Y-117775742D01*
X116912624Y-117680504D01*
X116960243Y-117490028D01*
X116960243Y-117251933D01*
X116912624Y-117061457D01*
X116865005Y-116966219D01*
X116817386Y-116918600D01*
X116722148Y-116870980D01*
%TO.C,D19*%
X102320100Y-119283814D02*
X101320100Y-119283814D01*
X101320100Y-119521909D01*
X101367720Y-119664766D01*
X101462958Y-119760004D01*
X101558196Y-119807623D01*
X101748672Y-119855242D01*
X101891529Y-119855242D01*
X102082005Y-119807623D01*
X102177243Y-119760004D01*
X102272481Y-119664766D01*
X102320100Y-119521909D01*
X102320100Y-119283814D01*
X102320100Y-120807623D02*
X102320100Y-120236195D01*
X102320100Y-120521909D02*
X101320100Y-120521909D01*
X101462958Y-120426671D01*
X101558196Y-120331433D01*
X101605815Y-120236195D01*
X102320100Y-121283814D02*
X102320100Y-121474290D01*
X102272481Y-121569528D01*
X102224862Y-121617147D01*
X102082005Y-121712385D01*
X101891529Y-121760004D01*
X101510577Y-121760004D01*
X101415339Y-121712385D01*
X101367720Y-121664766D01*
X101320100Y-121569528D01*
X101320100Y-121379052D01*
X101367720Y-121283814D01*
X101415339Y-121236195D01*
X101510577Y-121188576D01*
X101748672Y-121188576D01*
X101843910Y-121236195D01*
X101891529Y-121283814D01*
X101939148Y-121379052D01*
X101939148Y-121569528D01*
X101891529Y-121664766D01*
X101843910Y-121712385D01*
X101748672Y-121760004D01*
%TO.C,D18*%
X83270100Y-119283814D02*
X82270100Y-119283814D01*
X82270100Y-119521909D01*
X82317720Y-119664766D01*
X82412958Y-119760004D01*
X82508196Y-119807623D01*
X82698672Y-119855242D01*
X82841529Y-119855242D01*
X83032005Y-119807623D01*
X83127243Y-119760004D01*
X83222481Y-119664766D01*
X83270100Y-119521909D01*
X83270100Y-119283814D01*
X83270100Y-120807623D02*
X83270100Y-120236195D01*
X83270100Y-120521909D02*
X82270100Y-120521909D01*
X82412958Y-120426671D01*
X82508196Y-120331433D01*
X82555815Y-120236195D01*
X82698672Y-121379052D02*
X82651053Y-121283814D01*
X82603434Y-121236195D01*
X82508196Y-121188576D01*
X82460577Y-121188576D01*
X82365339Y-121236195D01*
X82317720Y-121283814D01*
X82270100Y-121379052D01*
X82270100Y-121569528D01*
X82317720Y-121664766D01*
X82365339Y-121712385D01*
X82460577Y-121760004D01*
X82508196Y-121760004D01*
X82603434Y-121712385D01*
X82651053Y-121664766D01*
X82698672Y-121569528D01*
X82698672Y-121379052D01*
X82746291Y-121283814D01*
X82793910Y-121236195D01*
X82889148Y-121188576D01*
X83079624Y-121188576D01*
X83174862Y-121236195D01*
X83222481Y-121283814D01*
X83270100Y-121379052D01*
X83270100Y-121569528D01*
X83222481Y-121664766D01*
X83174862Y-121712385D01*
X83079624Y-121760004D01*
X82889148Y-121760004D01*
X82793910Y-121712385D01*
X82746291Y-121664766D01*
X82698672Y-121569528D01*
%TO.C,D17*%
X64220100Y-119283814D02*
X63220100Y-119283814D01*
X63220100Y-119521909D01*
X63267720Y-119664766D01*
X63362958Y-119760004D01*
X63458196Y-119807623D01*
X63648672Y-119855242D01*
X63791529Y-119855242D01*
X63982005Y-119807623D01*
X64077243Y-119760004D01*
X64172481Y-119664766D01*
X64220100Y-119521909D01*
X64220100Y-119283814D01*
X64220100Y-120807623D02*
X64220100Y-120236195D01*
X64220100Y-120521909D02*
X63220100Y-120521909D01*
X63362958Y-120426671D01*
X63458196Y-120331433D01*
X63505815Y-120236195D01*
X63220100Y-121140957D02*
X63220100Y-121807623D01*
X64220100Y-121379052D01*
%TO.C,D16*%
X121370100Y-100233814D02*
X120370100Y-100233814D01*
X120370100Y-100471909D01*
X120417720Y-100614766D01*
X120512958Y-100710004D01*
X120608196Y-100757623D01*
X120798672Y-100805242D01*
X120941529Y-100805242D01*
X121132005Y-100757623D01*
X121227243Y-100710004D01*
X121322481Y-100614766D01*
X121370100Y-100471909D01*
X121370100Y-100233814D01*
X121370100Y-101757623D02*
X121370100Y-101186195D01*
X121370100Y-101471909D02*
X120370100Y-101471909D01*
X120512958Y-101376671D01*
X120608196Y-101281433D01*
X120655815Y-101186195D01*
X120370100Y-102614766D02*
X120370100Y-102424290D01*
X120417720Y-102329052D01*
X120465339Y-102281433D01*
X120608196Y-102186195D01*
X120798672Y-102138576D01*
X121179624Y-102138576D01*
X121274862Y-102186195D01*
X121322481Y-102233814D01*
X121370100Y-102329052D01*
X121370100Y-102519528D01*
X121322481Y-102614766D01*
X121274862Y-102662385D01*
X121179624Y-102710004D01*
X120941529Y-102710004D01*
X120846291Y-102662385D01*
X120798672Y-102614766D01*
X120751053Y-102519528D01*
X120751053Y-102329052D01*
X120798672Y-102233814D01*
X120846291Y-102186195D01*
X120941529Y-102138576D01*
%TO.C,D15*%
X102320100Y-100233814D02*
X101320100Y-100233814D01*
X101320100Y-100471909D01*
X101367720Y-100614766D01*
X101462958Y-100710004D01*
X101558196Y-100757623D01*
X101748672Y-100805242D01*
X101891529Y-100805242D01*
X102082005Y-100757623D01*
X102177243Y-100710004D01*
X102272481Y-100614766D01*
X102320100Y-100471909D01*
X102320100Y-100233814D01*
X102320100Y-101757623D02*
X102320100Y-101186195D01*
X102320100Y-101471909D02*
X101320100Y-101471909D01*
X101462958Y-101376671D01*
X101558196Y-101281433D01*
X101605815Y-101186195D01*
X101320100Y-102662385D02*
X101320100Y-102186195D01*
X101796291Y-102138576D01*
X101748672Y-102186195D01*
X101701053Y-102281433D01*
X101701053Y-102519528D01*
X101748672Y-102614766D01*
X101796291Y-102662385D01*
X101891529Y-102710004D01*
X102129624Y-102710004D01*
X102224862Y-102662385D01*
X102272481Y-102614766D01*
X102320100Y-102519528D01*
X102320100Y-102281433D01*
X102272481Y-102186195D01*
X102224862Y-102138576D01*
%TO.C,D14*%
X83270100Y-100233814D02*
X82270100Y-100233814D01*
X82270100Y-100471909D01*
X82317720Y-100614766D01*
X82412958Y-100710004D01*
X82508196Y-100757623D01*
X82698672Y-100805242D01*
X82841529Y-100805242D01*
X83032005Y-100757623D01*
X83127243Y-100710004D01*
X83222481Y-100614766D01*
X83270100Y-100471909D01*
X83270100Y-100233814D01*
X83270100Y-101757623D02*
X83270100Y-101186195D01*
X83270100Y-101471909D02*
X82270100Y-101471909D01*
X82412958Y-101376671D01*
X82508196Y-101281433D01*
X82555815Y-101186195D01*
X82603434Y-102614766D02*
X83270100Y-102614766D01*
X82222481Y-102376671D02*
X82936767Y-102138576D01*
X82936767Y-102757623D01*
%TO.C,D13*%
X64220100Y-100233814D02*
X63220100Y-100233814D01*
X63220100Y-100471909D01*
X63267720Y-100614766D01*
X63362958Y-100710004D01*
X63458196Y-100757623D01*
X63648672Y-100805242D01*
X63791529Y-100805242D01*
X63982005Y-100757623D01*
X64077243Y-100710004D01*
X64172481Y-100614766D01*
X64220100Y-100471909D01*
X64220100Y-100233814D01*
X64220100Y-101757623D02*
X64220100Y-101186195D01*
X64220100Y-101471909D02*
X63220100Y-101471909D01*
X63362958Y-101376671D01*
X63458196Y-101281433D01*
X63505815Y-101186195D01*
X63220100Y-102090957D02*
X63220100Y-102710004D01*
X63601053Y-102376671D01*
X63601053Y-102519528D01*
X63648672Y-102614766D01*
X63696291Y-102662385D01*
X63791529Y-102710004D01*
X64029624Y-102710004D01*
X64124862Y-102662385D01*
X64172481Y-102614766D01*
X64220100Y-102519528D01*
X64220100Y-102233814D01*
X64172481Y-102138576D01*
X64124862Y-102090957D01*
%TO.C,D12*%
X121370100Y-81183814D02*
X120370100Y-81183814D01*
X120370100Y-81421909D01*
X120417720Y-81564766D01*
X120512958Y-81660004D01*
X120608196Y-81707623D01*
X120798672Y-81755242D01*
X120941529Y-81755242D01*
X121132005Y-81707623D01*
X121227243Y-81660004D01*
X121322481Y-81564766D01*
X121370100Y-81421909D01*
X121370100Y-81183814D01*
X121370100Y-82707623D02*
X121370100Y-82136195D01*
X121370100Y-82421909D02*
X120370100Y-82421909D01*
X120512958Y-82326671D01*
X120608196Y-82231433D01*
X120655815Y-82136195D01*
X120465339Y-83088576D02*
X120417720Y-83136195D01*
X120370100Y-83231433D01*
X120370100Y-83469528D01*
X120417720Y-83564766D01*
X120465339Y-83612385D01*
X120560577Y-83660004D01*
X120655815Y-83660004D01*
X120798672Y-83612385D01*
X121370100Y-83040957D01*
X121370100Y-83660004D01*
%TO.C,D11*%
X102320100Y-81183814D02*
X101320100Y-81183814D01*
X101320100Y-81421909D01*
X101367720Y-81564766D01*
X101462958Y-81660004D01*
X101558196Y-81707623D01*
X101748672Y-81755242D01*
X101891529Y-81755242D01*
X102082005Y-81707623D01*
X102177243Y-81660004D01*
X102272481Y-81564766D01*
X102320100Y-81421909D01*
X102320100Y-81183814D01*
X102320100Y-82707623D02*
X102320100Y-82136195D01*
X102320100Y-82421909D02*
X101320100Y-82421909D01*
X101462958Y-82326671D01*
X101558196Y-82231433D01*
X101605815Y-82136195D01*
X102320100Y-83660004D02*
X102320100Y-83088576D01*
X102320100Y-83374290D02*
X101320100Y-83374290D01*
X101462958Y-83279052D01*
X101558196Y-83183814D01*
X101605815Y-83088576D01*
%TO.C,D10*%
X83270100Y-81183814D02*
X82270100Y-81183814D01*
X82270100Y-81421909D01*
X82317720Y-81564766D01*
X82412958Y-81660004D01*
X82508196Y-81707623D01*
X82698672Y-81755242D01*
X82841529Y-81755242D01*
X83032005Y-81707623D01*
X83127243Y-81660004D01*
X83222481Y-81564766D01*
X83270100Y-81421909D01*
X83270100Y-81183814D01*
X83270100Y-82707623D02*
X83270100Y-82136195D01*
X83270100Y-82421909D02*
X82270100Y-82421909D01*
X82412958Y-82326671D01*
X82508196Y-82231433D01*
X82555815Y-82136195D01*
X82270100Y-83326671D02*
X82270100Y-83421909D01*
X82317720Y-83517147D01*
X82365339Y-83564766D01*
X82460577Y-83612385D01*
X82651053Y-83660004D01*
X82889148Y-83660004D01*
X83079624Y-83612385D01*
X83174862Y-83564766D01*
X83222481Y-83517147D01*
X83270100Y-83421909D01*
X83270100Y-83326671D01*
X83222481Y-83231433D01*
X83174862Y-83183814D01*
X83079624Y-83136195D01*
X82889148Y-83088576D01*
X82651053Y-83088576D01*
X82460577Y-83136195D01*
X82365339Y-83183814D01*
X82317720Y-83231433D01*
X82270100Y-83326671D01*
%TO.C,D9*%
X64220100Y-81660004D02*
X63220100Y-81660004D01*
X63220100Y-81898100D01*
X63267720Y-82040957D01*
X63362958Y-82136195D01*
X63458196Y-82183814D01*
X63648672Y-82231433D01*
X63791529Y-82231433D01*
X63982005Y-82183814D01*
X64077243Y-82136195D01*
X64172481Y-82040957D01*
X64220100Y-81898100D01*
X64220100Y-81660004D01*
X64220100Y-82707623D02*
X64220100Y-82898100D01*
X64172481Y-82993338D01*
X64124862Y-83040957D01*
X63982005Y-83136195D01*
X63791529Y-83183814D01*
X63410577Y-83183814D01*
X63315339Y-83136195D01*
X63267720Y-83088576D01*
X63220100Y-82993338D01*
X63220100Y-82802861D01*
X63267720Y-82707623D01*
X63315339Y-82660004D01*
X63410577Y-82612385D01*
X63648672Y-82612385D01*
X63743910Y-82660004D01*
X63791529Y-82707623D01*
X63839148Y-82802861D01*
X63839148Y-82993338D01*
X63791529Y-83088576D01*
X63743910Y-83136195D01*
X63648672Y-83183814D01*
%TO.C,D8*%
X121370100Y-62610004D02*
X120370100Y-62610004D01*
X120370100Y-62848100D01*
X120417720Y-62990957D01*
X120512958Y-63086195D01*
X120608196Y-63133814D01*
X120798672Y-63181433D01*
X120941529Y-63181433D01*
X121132005Y-63133814D01*
X121227243Y-63086195D01*
X121322481Y-62990957D01*
X121370100Y-62848100D01*
X121370100Y-62610004D01*
X120798672Y-63752861D02*
X120751053Y-63657623D01*
X120703434Y-63610004D01*
X120608196Y-63562385D01*
X120560577Y-63562385D01*
X120465339Y-63610004D01*
X120417720Y-63657623D01*
X120370100Y-63752861D01*
X120370100Y-63943338D01*
X120417720Y-64038576D01*
X120465339Y-64086195D01*
X120560577Y-64133814D01*
X120608196Y-64133814D01*
X120703434Y-64086195D01*
X120751053Y-64038576D01*
X120798672Y-63943338D01*
X120798672Y-63752861D01*
X120846291Y-63657623D01*
X120893910Y-63610004D01*
X120989148Y-63562385D01*
X121179624Y-63562385D01*
X121274862Y-63610004D01*
X121322481Y-63657623D01*
X121370100Y-63752861D01*
X121370100Y-63943338D01*
X121322481Y-64038576D01*
X121274862Y-64086195D01*
X121179624Y-64133814D01*
X120989148Y-64133814D01*
X120893910Y-64086195D01*
X120846291Y-64038576D01*
X120798672Y-63943338D01*
%TO.C,D7*%
X102320100Y-62610004D02*
X101320100Y-62610004D01*
X101320100Y-62848100D01*
X101367720Y-62990957D01*
X101462958Y-63086195D01*
X101558196Y-63133814D01*
X101748672Y-63181433D01*
X101891529Y-63181433D01*
X102082005Y-63133814D01*
X102177243Y-63086195D01*
X102272481Y-62990957D01*
X102320100Y-62848100D01*
X102320100Y-62610004D01*
X101320100Y-63514766D02*
X101320100Y-64181433D01*
X102320100Y-63752861D01*
%TO.C,D6*%
X83270100Y-62610004D02*
X82270100Y-62610004D01*
X82270100Y-62848100D01*
X82317720Y-62990957D01*
X82412958Y-63086195D01*
X82508196Y-63133814D01*
X82698672Y-63181433D01*
X82841529Y-63181433D01*
X83032005Y-63133814D01*
X83127243Y-63086195D01*
X83222481Y-62990957D01*
X83270100Y-62848100D01*
X83270100Y-62610004D01*
X82270100Y-64038576D02*
X82270100Y-63848100D01*
X82317720Y-63752861D01*
X82365339Y-63705242D01*
X82508196Y-63610004D01*
X82698672Y-63562385D01*
X83079624Y-63562385D01*
X83174862Y-63610004D01*
X83222481Y-63657623D01*
X83270100Y-63752861D01*
X83270100Y-63943338D01*
X83222481Y-64038576D01*
X83174862Y-64086195D01*
X83079624Y-64133814D01*
X82841529Y-64133814D01*
X82746291Y-64086195D01*
X82698672Y-64038576D01*
X82651053Y-63943338D01*
X82651053Y-63752861D01*
X82698672Y-63657623D01*
X82746291Y-63610004D01*
X82841529Y-63562385D01*
%TO.C,D5*%
X64220100Y-62610004D02*
X63220100Y-62610004D01*
X63220100Y-62848100D01*
X63267720Y-62990957D01*
X63362958Y-63086195D01*
X63458196Y-63133814D01*
X63648672Y-63181433D01*
X63791529Y-63181433D01*
X63982005Y-63133814D01*
X64077243Y-63086195D01*
X64172481Y-62990957D01*
X64220100Y-62848100D01*
X64220100Y-62610004D01*
X63220100Y-64086195D02*
X63220100Y-63610004D01*
X63696291Y-63562385D01*
X63648672Y-63610004D01*
X63601053Y-63705242D01*
X63601053Y-63943338D01*
X63648672Y-64038576D01*
X63696291Y-64086195D01*
X63791529Y-64133814D01*
X64029624Y-64133814D01*
X64124862Y-64086195D01*
X64172481Y-64038576D01*
X64220100Y-63943338D01*
X64220100Y-63705242D01*
X64172481Y-63610004D01*
X64124862Y-63562385D01*
%TO.C,D4*%
X121370100Y-38797004D02*
X120370100Y-38797004D01*
X120370100Y-39035100D01*
X120417720Y-39177957D01*
X120512958Y-39273195D01*
X120608196Y-39320814D01*
X120798672Y-39368433D01*
X120941529Y-39368433D01*
X121132005Y-39320814D01*
X121227243Y-39273195D01*
X121322481Y-39177957D01*
X121370100Y-39035100D01*
X121370100Y-38797004D01*
X120703434Y-40225576D02*
X121370100Y-40225576D01*
X120322481Y-39987480D02*
X121036767Y-39749385D01*
X121036767Y-40368433D01*
%TO.C,D3*%
X102320100Y-38797004D02*
X101320100Y-38797004D01*
X101320100Y-39035100D01*
X101367720Y-39177957D01*
X101462958Y-39273195D01*
X101558196Y-39320814D01*
X101748672Y-39368433D01*
X101891529Y-39368433D01*
X102082005Y-39320814D01*
X102177243Y-39273195D01*
X102272481Y-39177957D01*
X102320100Y-39035100D01*
X102320100Y-38797004D01*
X101320100Y-39701766D02*
X101320100Y-40320814D01*
X101701053Y-39987480D01*
X101701053Y-40130338D01*
X101748672Y-40225576D01*
X101796291Y-40273195D01*
X101891529Y-40320814D01*
X102129624Y-40320814D01*
X102224862Y-40273195D01*
X102272481Y-40225576D01*
X102320100Y-40130338D01*
X102320100Y-39844623D01*
X102272481Y-39749385D01*
X102224862Y-39701766D01*
%TO.C,D2*%
X83270100Y-38797004D02*
X82270100Y-38797004D01*
X82270100Y-39035100D01*
X82317720Y-39177957D01*
X82412958Y-39273195D01*
X82508196Y-39320814D01*
X82698672Y-39368433D01*
X82841529Y-39368433D01*
X83032005Y-39320814D01*
X83127243Y-39273195D01*
X83222481Y-39177957D01*
X83270100Y-39035100D01*
X83270100Y-38797004D01*
X82365339Y-39749385D02*
X82317720Y-39797004D01*
X82270100Y-39892242D01*
X82270100Y-40130338D01*
X82317720Y-40225576D01*
X82365339Y-40273195D01*
X82460577Y-40320814D01*
X82555815Y-40320814D01*
X82698672Y-40273195D01*
X83270100Y-39701766D01*
X83270100Y-40320814D01*
%TO.C,D1*%
X64220100Y-38797004D02*
X63220100Y-38797004D01*
X63220100Y-39035100D01*
X63267720Y-39177957D01*
X63362958Y-39273195D01*
X63458196Y-39320814D01*
X63648672Y-39368433D01*
X63791529Y-39368433D01*
X63982005Y-39320814D01*
X64077243Y-39273195D01*
X64172481Y-39177957D01*
X64220100Y-39035100D01*
X64220100Y-38797004D01*
X64220100Y-40320814D02*
X64220100Y-39749385D01*
X64220100Y-40035100D02*
X63220100Y-40035100D01*
X63362958Y-39939861D01*
X63458196Y-39844623D01*
X63505815Y-39749385D01*
%TO.C,CR33*%
X104917862Y-45547422D02*
X104965481Y-45499803D01*
X105013100Y-45356946D01*
X105013100Y-45261708D01*
X104965481Y-45118851D01*
X104870243Y-45023613D01*
X104775005Y-44975994D01*
X104584529Y-44928375D01*
X104441672Y-44928375D01*
X104251196Y-44975994D01*
X104155958Y-45023613D01*
X104060720Y-45118851D01*
X104013100Y-45261708D01*
X104013100Y-45356946D01*
X104060720Y-45499803D01*
X104108339Y-45547422D01*
X105013100Y-46547422D02*
X104536910Y-46214089D01*
X105013100Y-45975994D02*
X104013100Y-45975994D01*
X104013100Y-46356946D01*
X104060720Y-46452184D01*
X104108339Y-46499803D01*
X104203577Y-46547422D01*
X104346434Y-46547422D01*
X104441672Y-46499803D01*
X104489291Y-46452184D01*
X104536910Y-46356946D01*
X104536910Y-45975994D01*
X104013100Y-46880756D02*
X104013100Y-47499803D01*
X104394053Y-47166470D01*
X104394053Y-47309327D01*
X104441672Y-47404565D01*
X104489291Y-47452184D01*
X104584529Y-47499803D01*
X104822624Y-47499803D01*
X104917862Y-47452184D01*
X104965481Y-47404565D01*
X105013100Y-47309327D01*
X105013100Y-47023613D01*
X104965481Y-46928375D01*
X104917862Y-46880756D01*
X104013100Y-47833137D02*
X104013100Y-48452184D01*
X104394053Y-48118851D01*
X104394053Y-48261708D01*
X104441672Y-48356946D01*
X104489291Y-48404565D01*
X104584529Y-48452184D01*
X104822624Y-48452184D01*
X104917862Y-48404565D01*
X104965481Y-48356946D01*
X105013100Y-48261708D01*
X105013100Y-47975994D01*
X104965481Y-47880756D01*
X104917862Y-47833137D01*
%TO.C,CR32*%
X85867862Y-45547422D02*
X85915481Y-45499803D01*
X85963100Y-45356946D01*
X85963100Y-45261708D01*
X85915481Y-45118851D01*
X85820243Y-45023613D01*
X85725005Y-44975994D01*
X85534529Y-44928375D01*
X85391672Y-44928375D01*
X85201196Y-44975994D01*
X85105958Y-45023613D01*
X85010720Y-45118851D01*
X84963100Y-45261708D01*
X84963100Y-45356946D01*
X85010720Y-45499803D01*
X85058339Y-45547422D01*
X85963100Y-46547422D02*
X85486910Y-46214089D01*
X85963100Y-45975994D02*
X84963100Y-45975994D01*
X84963100Y-46356946D01*
X85010720Y-46452184D01*
X85058339Y-46499803D01*
X85153577Y-46547422D01*
X85296434Y-46547422D01*
X85391672Y-46499803D01*
X85439291Y-46452184D01*
X85486910Y-46356946D01*
X85486910Y-45975994D01*
X84963100Y-46880756D02*
X84963100Y-47499803D01*
X85344053Y-47166470D01*
X85344053Y-47309327D01*
X85391672Y-47404565D01*
X85439291Y-47452184D01*
X85534529Y-47499803D01*
X85772624Y-47499803D01*
X85867862Y-47452184D01*
X85915481Y-47404565D01*
X85963100Y-47309327D01*
X85963100Y-47023613D01*
X85915481Y-46928375D01*
X85867862Y-46880756D01*
X85058339Y-47880756D02*
X85010720Y-47928375D01*
X84963100Y-48023613D01*
X84963100Y-48261708D01*
X85010720Y-48356946D01*
X85058339Y-48404565D01*
X85153577Y-48452184D01*
X85248815Y-48452184D01*
X85391672Y-48404565D01*
X85963100Y-47833137D01*
X85963100Y-48452184D01*
%TO.C,CR31*%
X66817862Y-45547422D02*
X66865481Y-45499803D01*
X66913100Y-45356946D01*
X66913100Y-45261708D01*
X66865481Y-45118851D01*
X66770243Y-45023613D01*
X66675005Y-44975994D01*
X66484529Y-44928375D01*
X66341672Y-44928375D01*
X66151196Y-44975994D01*
X66055958Y-45023613D01*
X65960720Y-45118851D01*
X65913100Y-45261708D01*
X65913100Y-45356946D01*
X65960720Y-45499803D01*
X66008339Y-45547422D01*
X66913100Y-46547422D02*
X66436910Y-46214089D01*
X66913100Y-45975994D02*
X65913100Y-45975994D01*
X65913100Y-46356946D01*
X65960720Y-46452184D01*
X66008339Y-46499803D01*
X66103577Y-46547422D01*
X66246434Y-46547422D01*
X66341672Y-46499803D01*
X66389291Y-46452184D01*
X66436910Y-46356946D01*
X66436910Y-45975994D01*
X65913100Y-46880756D02*
X65913100Y-47499803D01*
X66294053Y-47166470D01*
X66294053Y-47309327D01*
X66341672Y-47404565D01*
X66389291Y-47452184D01*
X66484529Y-47499803D01*
X66722624Y-47499803D01*
X66817862Y-47452184D01*
X66865481Y-47404565D01*
X66913100Y-47309327D01*
X66913100Y-47023613D01*
X66865481Y-46928375D01*
X66817862Y-46880756D01*
X66913100Y-48452184D02*
X66913100Y-47880756D01*
X66913100Y-48166470D02*
X65913100Y-48166470D01*
X66055958Y-48071232D01*
X66151196Y-47975994D01*
X66198815Y-47880756D01*
%TO.C,CR30*%
X47767862Y-45547422D02*
X47815481Y-45499803D01*
X47863100Y-45356946D01*
X47863100Y-45261708D01*
X47815481Y-45118851D01*
X47720243Y-45023613D01*
X47625005Y-44975994D01*
X47434529Y-44928375D01*
X47291672Y-44928375D01*
X47101196Y-44975994D01*
X47005958Y-45023613D01*
X46910720Y-45118851D01*
X46863100Y-45261708D01*
X46863100Y-45356946D01*
X46910720Y-45499803D01*
X46958339Y-45547422D01*
X47863100Y-46547422D02*
X47386910Y-46214089D01*
X47863100Y-45975994D02*
X46863100Y-45975994D01*
X46863100Y-46356946D01*
X46910720Y-46452184D01*
X46958339Y-46499803D01*
X47053577Y-46547422D01*
X47196434Y-46547422D01*
X47291672Y-46499803D01*
X47339291Y-46452184D01*
X47386910Y-46356946D01*
X47386910Y-45975994D01*
X46863100Y-46880756D02*
X46863100Y-47499803D01*
X47244053Y-47166470D01*
X47244053Y-47309327D01*
X47291672Y-47404565D01*
X47339291Y-47452184D01*
X47434529Y-47499803D01*
X47672624Y-47499803D01*
X47767862Y-47452184D01*
X47815481Y-47404565D01*
X47863100Y-47309327D01*
X47863100Y-47023613D01*
X47815481Y-46928375D01*
X47767862Y-46880756D01*
X46863100Y-48118851D02*
X46863100Y-48214089D01*
X46910720Y-48309327D01*
X46958339Y-48356946D01*
X47053577Y-48404565D01*
X47244053Y-48452184D01*
X47482148Y-48452184D01*
X47672624Y-48404565D01*
X47767862Y-48356946D01*
X47815481Y-48309327D01*
X47863100Y-48214089D01*
X47863100Y-48118851D01*
X47815481Y-48023613D01*
X47767862Y-47975994D01*
X47672624Y-47928375D01*
X47482148Y-47880756D01*
X47244053Y-47880756D01*
X47053577Y-47928375D01*
X46958339Y-47975994D01*
X46910720Y-48023613D01*
X46863100Y-48118851D01*
%TO.C,CR29*%
X28717862Y-63167742D02*
X28765481Y-63120123D01*
X28813100Y-62977266D01*
X28813100Y-62882028D01*
X28765481Y-62739171D01*
X28670243Y-62643933D01*
X28575005Y-62596314D01*
X28384529Y-62548695D01*
X28241672Y-62548695D01*
X28051196Y-62596314D01*
X27955958Y-62643933D01*
X27860720Y-62739171D01*
X27813100Y-62882028D01*
X27813100Y-62977266D01*
X27860720Y-63120123D01*
X27908339Y-63167742D01*
X28813100Y-64167742D02*
X28336910Y-63834409D01*
X28813100Y-63596314D02*
X27813100Y-63596314D01*
X27813100Y-63977266D01*
X27860720Y-64072504D01*
X27908339Y-64120123D01*
X28003577Y-64167742D01*
X28146434Y-64167742D01*
X28241672Y-64120123D01*
X28289291Y-64072504D01*
X28336910Y-63977266D01*
X28336910Y-63596314D01*
X27908339Y-64548695D02*
X27860720Y-64596314D01*
X27813100Y-64691552D01*
X27813100Y-64929647D01*
X27860720Y-65024885D01*
X27908339Y-65072504D01*
X28003577Y-65120123D01*
X28098815Y-65120123D01*
X28241672Y-65072504D01*
X28813100Y-64501076D01*
X28813100Y-65120123D01*
X28813100Y-65596314D02*
X28813100Y-65786790D01*
X28765481Y-65882028D01*
X28717862Y-65929647D01*
X28575005Y-66024885D01*
X28384529Y-66072504D01*
X28003577Y-66072504D01*
X27908339Y-66024885D01*
X27860720Y-65977266D01*
X27813100Y-65882028D01*
X27813100Y-65691552D01*
X27860720Y-65596314D01*
X27908339Y-65548695D01*
X28003577Y-65501076D01*
X28241672Y-65501076D01*
X28336910Y-65548695D01*
X28384529Y-65596314D01*
X28432148Y-65691552D01*
X28432148Y-65882028D01*
X28384529Y-65977266D01*
X28336910Y-66024885D01*
X28241672Y-66072504D01*
%TO.C,CR28*%
X28717862Y-72217742D02*
X28765481Y-72170123D01*
X28813100Y-72027266D01*
X28813100Y-71932028D01*
X28765481Y-71789171D01*
X28670243Y-71693933D01*
X28575005Y-71646314D01*
X28384529Y-71598695D01*
X28241672Y-71598695D01*
X28051196Y-71646314D01*
X27955958Y-71693933D01*
X27860720Y-71789171D01*
X27813100Y-71932028D01*
X27813100Y-72027266D01*
X27860720Y-72170123D01*
X27908339Y-72217742D01*
X28813100Y-73217742D02*
X28336910Y-72884409D01*
X28813100Y-72646314D02*
X27813100Y-72646314D01*
X27813100Y-73027266D01*
X27860720Y-73122504D01*
X27908339Y-73170123D01*
X28003577Y-73217742D01*
X28146434Y-73217742D01*
X28241672Y-73170123D01*
X28289291Y-73122504D01*
X28336910Y-73027266D01*
X28336910Y-72646314D01*
X27908339Y-73598695D02*
X27860720Y-73646314D01*
X27813100Y-73741552D01*
X27813100Y-73979647D01*
X27860720Y-74074885D01*
X27908339Y-74122504D01*
X28003577Y-74170123D01*
X28098815Y-74170123D01*
X28241672Y-74122504D01*
X28813100Y-73551076D01*
X28813100Y-74170123D01*
X28241672Y-74741552D02*
X28194053Y-74646314D01*
X28146434Y-74598695D01*
X28051196Y-74551076D01*
X28003577Y-74551076D01*
X27908339Y-74598695D01*
X27860720Y-74646314D01*
X27813100Y-74741552D01*
X27813100Y-74932028D01*
X27860720Y-75027266D01*
X27908339Y-75074885D01*
X28003577Y-75122504D01*
X28051196Y-75122504D01*
X28146434Y-75074885D01*
X28194053Y-75027266D01*
X28241672Y-74932028D01*
X28241672Y-74741552D01*
X28289291Y-74646314D01*
X28336910Y-74598695D01*
X28432148Y-74551076D01*
X28622624Y-74551076D01*
X28717862Y-74598695D01*
X28765481Y-74646314D01*
X28813100Y-74741552D01*
X28813100Y-74932028D01*
X28765481Y-75027266D01*
X28717862Y-75074885D01*
X28622624Y-75122504D01*
X28432148Y-75122504D01*
X28336910Y-75074885D01*
X28289291Y-75027266D01*
X28241672Y-74932028D01*
%TO.C,CR27*%
X28717862Y-82192502D02*
X28765481Y-82144883D01*
X28813100Y-82002026D01*
X28813100Y-81906788D01*
X28765481Y-81763931D01*
X28670243Y-81668693D01*
X28575005Y-81621074D01*
X28384529Y-81573455D01*
X28241672Y-81573455D01*
X28051196Y-81621074D01*
X27955958Y-81668693D01*
X27860720Y-81763931D01*
X27813100Y-81906788D01*
X27813100Y-82002026D01*
X27860720Y-82144883D01*
X27908339Y-82192502D01*
X28813100Y-83192502D02*
X28336910Y-82859169D01*
X28813100Y-82621074D02*
X27813100Y-82621074D01*
X27813100Y-83002026D01*
X27860720Y-83097264D01*
X27908339Y-83144883D01*
X28003577Y-83192502D01*
X28146434Y-83192502D01*
X28241672Y-83144883D01*
X28289291Y-83097264D01*
X28336910Y-83002026D01*
X28336910Y-82621074D01*
X27908339Y-83573455D02*
X27860720Y-83621074D01*
X27813100Y-83716312D01*
X27813100Y-83954407D01*
X27860720Y-84049645D01*
X27908339Y-84097264D01*
X28003577Y-84144883D01*
X28098815Y-84144883D01*
X28241672Y-84097264D01*
X28813100Y-83525836D01*
X28813100Y-84144883D01*
X27813100Y-84478217D02*
X27813100Y-85144883D01*
X28813100Y-84716312D01*
%TO.C,CR26*%
X28717862Y-139342502D02*
X28765481Y-139294883D01*
X28813100Y-139152026D01*
X28813100Y-139056788D01*
X28765481Y-138913931D01*
X28670243Y-138818693D01*
X28575005Y-138771074D01*
X28384529Y-138723455D01*
X28241672Y-138723455D01*
X28051196Y-138771074D01*
X27955958Y-138818693D01*
X27860720Y-138913931D01*
X27813100Y-139056788D01*
X27813100Y-139152026D01*
X27860720Y-139294883D01*
X27908339Y-139342502D01*
X28813100Y-140342502D02*
X28336910Y-140009169D01*
X28813100Y-139771074D02*
X27813100Y-139771074D01*
X27813100Y-140152026D01*
X27860720Y-140247264D01*
X27908339Y-140294883D01*
X28003577Y-140342502D01*
X28146434Y-140342502D01*
X28241672Y-140294883D01*
X28289291Y-140247264D01*
X28336910Y-140152026D01*
X28336910Y-139771074D01*
X27908339Y-140723455D02*
X27860720Y-140771074D01*
X27813100Y-140866312D01*
X27813100Y-141104407D01*
X27860720Y-141199645D01*
X27908339Y-141247264D01*
X28003577Y-141294883D01*
X28098815Y-141294883D01*
X28241672Y-141247264D01*
X28813100Y-140675836D01*
X28813100Y-141294883D01*
X27813100Y-142152026D02*
X27813100Y-141961550D01*
X27860720Y-141866312D01*
X27908339Y-141818693D01*
X28051196Y-141723455D01*
X28241672Y-141675836D01*
X28622624Y-141675836D01*
X28717862Y-141723455D01*
X28765481Y-141771074D01*
X28813100Y-141866312D01*
X28813100Y-142056788D01*
X28765481Y-142152026D01*
X28717862Y-142199645D01*
X28622624Y-142247264D01*
X28384529Y-142247264D01*
X28289291Y-142199645D01*
X28241672Y-142152026D01*
X28194053Y-142056788D01*
X28194053Y-141866312D01*
X28241672Y-141771074D01*
X28289291Y-141723455D01*
X28384529Y-141675836D01*
%TO.C,CR25*%
X28717862Y-120292502D02*
X28765481Y-120244883D01*
X28813100Y-120102026D01*
X28813100Y-120006788D01*
X28765481Y-119863931D01*
X28670243Y-119768693D01*
X28575005Y-119721074D01*
X28384529Y-119673455D01*
X28241672Y-119673455D01*
X28051196Y-119721074D01*
X27955958Y-119768693D01*
X27860720Y-119863931D01*
X27813100Y-120006788D01*
X27813100Y-120102026D01*
X27860720Y-120244883D01*
X27908339Y-120292502D01*
X28813100Y-121292502D02*
X28336910Y-120959169D01*
X28813100Y-120721074D02*
X27813100Y-120721074D01*
X27813100Y-121102026D01*
X27860720Y-121197264D01*
X27908339Y-121244883D01*
X28003577Y-121292502D01*
X28146434Y-121292502D01*
X28241672Y-121244883D01*
X28289291Y-121197264D01*
X28336910Y-121102026D01*
X28336910Y-120721074D01*
X27908339Y-121673455D02*
X27860720Y-121721074D01*
X27813100Y-121816312D01*
X27813100Y-122054407D01*
X27860720Y-122149645D01*
X27908339Y-122197264D01*
X28003577Y-122244883D01*
X28098815Y-122244883D01*
X28241672Y-122197264D01*
X28813100Y-121625836D01*
X28813100Y-122244883D01*
X27813100Y-123149645D02*
X27813100Y-122673455D01*
X28289291Y-122625836D01*
X28241672Y-122673455D01*
X28194053Y-122768693D01*
X28194053Y-123006788D01*
X28241672Y-123102026D01*
X28289291Y-123149645D01*
X28384529Y-123197264D01*
X28622624Y-123197264D01*
X28717862Y-123149645D01*
X28765481Y-123102026D01*
X28813100Y-123006788D01*
X28813100Y-122768693D01*
X28765481Y-122673455D01*
X28717862Y-122625836D01*
%TO.C,CR24*%
X28717862Y-101242502D02*
X28765481Y-101194883D01*
X28813100Y-101052026D01*
X28813100Y-100956788D01*
X28765481Y-100813931D01*
X28670243Y-100718693D01*
X28575005Y-100671074D01*
X28384529Y-100623455D01*
X28241672Y-100623455D01*
X28051196Y-100671074D01*
X27955958Y-100718693D01*
X27860720Y-100813931D01*
X27813100Y-100956788D01*
X27813100Y-101052026D01*
X27860720Y-101194883D01*
X27908339Y-101242502D01*
X28813100Y-102242502D02*
X28336910Y-101909169D01*
X28813100Y-101671074D02*
X27813100Y-101671074D01*
X27813100Y-102052026D01*
X27860720Y-102147264D01*
X27908339Y-102194883D01*
X28003577Y-102242502D01*
X28146434Y-102242502D01*
X28241672Y-102194883D01*
X28289291Y-102147264D01*
X28336910Y-102052026D01*
X28336910Y-101671074D01*
X27908339Y-102623455D02*
X27860720Y-102671074D01*
X27813100Y-102766312D01*
X27813100Y-103004407D01*
X27860720Y-103099645D01*
X27908339Y-103147264D01*
X28003577Y-103194883D01*
X28098815Y-103194883D01*
X28241672Y-103147264D01*
X28813100Y-102575836D01*
X28813100Y-103194883D01*
X28146434Y-104052026D02*
X28813100Y-104052026D01*
X27765481Y-103813931D02*
X28479767Y-103575836D01*
X28479767Y-104194883D01*
%TO.C,CR23*%
X85867862Y-139342502D02*
X85915481Y-139294883D01*
X85963100Y-139152026D01*
X85963100Y-139056788D01*
X85915481Y-138913931D01*
X85820243Y-138818693D01*
X85725005Y-138771074D01*
X85534529Y-138723455D01*
X85391672Y-138723455D01*
X85201196Y-138771074D01*
X85105958Y-138818693D01*
X85010720Y-138913931D01*
X84963100Y-139056788D01*
X84963100Y-139152026D01*
X85010720Y-139294883D01*
X85058339Y-139342502D01*
X85963100Y-140342502D02*
X85486910Y-140009169D01*
X85963100Y-139771074D02*
X84963100Y-139771074D01*
X84963100Y-140152026D01*
X85010720Y-140247264D01*
X85058339Y-140294883D01*
X85153577Y-140342502D01*
X85296434Y-140342502D01*
X85391672Y-140294883D01*
X85439291Y-140247264D01*
X85486910Y-140152026D01*
X85486910Y-139771074D01*
X85058339Y-140723455D02*
X85010720Y-140771074D01*
X84963100Y-140866312D01*
X84963100Y-141104407D01*
X85010720Y-141199645D01*
X85058339Y-141247264D01*
X85153577Y-141294883D01*
X85248815Y-141294883D01*
X85391672Y-141247264D01*
X85963100Y-140675836D01*
X85963100Y-141294883D01*
X84963100Y-141628217D02*
X84963100Y-142247264D01*
X85344053Y-141913931D01*
X85344053Y-142056788D01*
X85391672Y-142152026D01*
X85439291Y-142199645D01*
X85534529Y-142247264D01*
X85772624Y-142247264D01*
X85867862Y-142199645D01*
X85915481Y-142152026D01*
X85963100Y-142056788D01*
X85963100Y-141771074D01*
X85915481Y-141675836D01*
X85867862Y-141628217D01*
%TO.C,CR22*%
X66817862Y-139342502D02*
X66865481Y-139294883D01*
X66913100Y-139152026D01*
X66913100Y-139056788D01*
X66865481Y-138913931D01*
X66770243Y-138818693D01*
X66675005Y-138771074D01*
X66484529Y-138723455D01*
X66341672Y-138723455D01*
X66151196Y-138771074D01*
X66055958Y-138818693D01*
X65960720Y-138913931D01*
X65913100Y-139056788D01*
X65913100Y-139152026D01*
X65960720Y-139294883D01*
X66008339Y-139342502D01*
X66913100Y-140342502D02*
X66436910Y-140009169D01*
X66913100Y-139771074D02*
X65913100Y-139771074D01*
X65913100Y-140152026D01*
X65960720Y-140247264D01*
X66008339Y-140294883D01*
X66103577Y-140342502D01*
X66246434Y-140342502D01*
X66341672Y-140294883D01*
X66389291Y-140247264D01*
X66436910Y-140152026D01*
X66436910Y-139771074D01*
X66008339Y-140723455D02*
X65960720Y-140771074D01*
X65913100Y-140866312D01*
X65913100Y-141104407D01*
X65960720Y-141199645D01*
X66008339Y-141247264D01*
X66103577Y-141294883D01*
X66198815Y-141294883D01*
X66341672Y-141247264D01*
X66913100Y-140675836D01*
X66913100Y-141294883D01*
X66008339Y-141675836D02*
X65960720Y-141723455D01*
X65913100Y-141818693D01*
X65913100Y-142056788D01*
X65960720Y-142152026D01*
X66008339Y-142199645D01*
X66103577Y-142247264D01*
X66198815Y-142247264D01*
X66341672Y-142199645D01*
X66913100Y-141628217D01*
X66913100Y-142247264D01*
%TO.C,CR21*%
X47767862Y-139342502D02*
X47815481Y-139294883D01*
X47863100Y-139152026D01*
X47863100Y-139056788D01*
X47815481Y-138913931D01*
X47720243Y-138818693D01*
X47625005Y-138771074D01*
X47434529Y-138723455D01*
X47291672Y-138723455D01*
X47101196Y-138771074D01*
X47005958Y-138818693D01*
X46910720Y-138913931D01*
X46863100Y-139056788D01*
X46863100Y-139152026D01*
X46910720Y-139294883D01*
X46958339Y-139342502D01*
X47863100Y-140342502D02*
X47386910Y-140009169D01*
X47863100Y-139771074D02*
X46863100Y-139771074D01*
X46863100Y-140152026D01*
X46910720Y-140247264D01*
X46958339Y-140294883D01*
X47053577Y-140342502D01*
X47196434Y-140342502D01*
X47291672Y-140294883D01*
X47339291Y-140247264D01*
X47386910Y-140152026D01*
X47386910Y-139771074D01*
X46958339Y-140723455D02*
X46910720Y-140771074D01*
X46863100Y-140866312D01*
X46863100Y-141104407D01*
X46910720Y-141199645D01*
X46958339Y-141247264D01*
X47053577Y-141294883D01*
X47148815Y-141294883D01*
X47291672Y-141247264D01*
X47863100Y-140675836D01*
X47863100Y-141294883D01*
X47863100Y-142247264D02*
X47863100Y-141675836D01*
X47863100Y-141961550D02*
X46863100Y-141961550D01*
X47005958Y-141866312D01*
X47101196Y-141771074D01*
X47148815Y-141675836D01*
%TO.C,CR20*%
X119847217Y-133354062D02*
X119894836Y-133401681D01*
X120037693Y-133449300D01*
X120132931Y-133449300D01*
X120275788Y-133401681D01*
X120371026Y-133306443D01*
X120418645Y-133211205D01*
X120466264Y-133020729D01*
X120466264Y-132877872D01*
X120418645Y-132687396D01*
X120371026Y-132592158D01*
X120275788Y-132496920D01*
X120132931Y-132449300D01*
X120037693Y-132449300D01*
X119894836Y-132496920D01*
X119847217Y-132544539D01*
X118847217Y-133449300D02*
X119180550Y-132973110D01*
X119418645Y-133449300D02*
X119418645Y-132449300D01*
X119037693Y-132449300D01*
X118942455Y-132496920D01*
X118894836Y-132544539D01*
X118847217Y-132639777D01*
X118847217Y-132782634D01*
X118894836Y-132877872D01*
X118942455Y-132925491D01*
X119037693Y-132973110D01*
X119418645Y-132973110D01*
X118466264Y-132544539D02*
X118418645Y-132496920D01*
X118323407Y-132449300D01*
X118085312Y-132449300D01*
X117990074Y-132496920D01*
X117942455Y-132544539D01*
X117894836Y-132639777D01*
X117894836Y-132735015D01*
X117942455Y-132877872D01*
X118513883Y-133449300D01*
X117894836Y-133449300D01*
X117275788Y-132449300D02*
X117180550Y-132449300D01*
X117085312Y-132496920D01*
X117037693Y-132544539D01*
X116990074Y-132639777D01*
X116942455Y-132830253D01*
X116942455Y-133068348D01*
X116990074Y-133258824D01*
X117037693Y-133354062D01*
X117085312Y-133401681D01*
X117180550Y-133449300D01*
X117275788Y-133449300D01*
X117371026Y-133401681D01*
X117418645Y-133354062D01*
X117466264Y-133258824D01*
X117513883Y-133068348D01*
X117513883Y-132830253D01*
X117466264Y-132639777D01*
X117418645Y-132544539D01*
X117371026Y-132496920D01*
X117275788Y-132449300D01*
%TO.C,CR19*%
X85867862Y-120292502D02*
X85915481Y-120244883D01*
X85963100Y-120102026D01*
X85963100Y-120006788D01*
X85915481Y-119863931D01*
X85820243Y-119768693D01*
X85725005Y-119721074D01*
X85534529Y-119673455D01*
X85391672Y-119673455D01*
X85201196Y-119721074D01*
X85105958Y-119768693D01*
X85010720Y-119863931D01*
X84963100Y-120006788D01*
X84963100Y-120102026D01*
X85010720Y-120244883D01*
X85058339Y-120292502D01*
X85963100Y-121292502D02*
X85486910Y-120959169D01*
X85963100Y-120721074D02*
X84963100Y-120721074D01*
X84963100Y-121102026D01*
X85010720Y-121197264D01*
X85058339Y-121244883D01*
X85153577Y-121292502D01*
X85296434Y-121292502D01*
X85391672Y-121244883D01*
X85439291Y-121197264D01*
X85486910Y-121102026D01*
X85486910Y-120721074D01*
X85963100Y-122244883D02*
X85963100Y-121673455D01*
X85963100Y-121959169D02*
X84963100Y-121959169D01*
X85105958Y-121863931D01*
X85201196Y-121768693D01*
X85248815Y-121673455D01*
X85963100Y-122721074D02*
X85963100Y-122911550D01*
X85915481Y-123006788D01*
X85867862Y-123054407D01*
X85725005Y-123149645D01*
X85534529Y-123197264D01*
X85153577Y-123197264D01*
X85058339Y-123149645D01*
X85010720Y-123102026D01*
X84963100Y-123006788D01*
X84963100Y-122816312D01*
X85010720Y-122721074D01*
X85058339Y-122673455D01*
X85153577Y-122625836D01*
X85391672Y-122625836D01*
X85486910Y-122673455D01*
X85534529Y-122721074D01*
X85582148Y-122816312D01*
X85582148Y-123006788D01*
X85534529Y-123102026D01*
X85486910Y-123149645D01*
X85391672Y-123197264D01*
%TO.C,CR18*%
X66817862Y-120292502D02*
X66865481Y-120244883D01*
X66913100Y-120102026D01*
X66913100Y-120006788D01*
X66865481Y-119863931D01*
X66770243Y-119768693D01*
X66675005Y-119721074D01*
X66484529Y-119673455D01*
X66341672Y-119673455D01*
X66151196Y-119721074D01*
X66055958Y-119768693D01*
X65960720Y-119863931D01*
X65913100Y-120006788D01*
X65913100Y-120102026D01*
X65960720Y-120244883D01*
X66008339Y-120292502D01*
X66913100Y-121292502D02*
X66436910Y-120959169D01*
X66913100Y-120721074D02*
X65913100Y-120721074D01*
X65913100Y-121102026D01*
X65960720Y-121197264D01*
X66008339Y-121244883D01*
X66103577Y-121292502D01*
X66246434Y-121292502D01*
X66341672Y-121244883D01*
X66389291Y-121197264D01*
X66436910Y-121102026D01*
X66436910Y-120721074D01*
X66913100Y-122244883D02*
X66913100Y-121673455D01*
X66913100Y-121959169D02*
X65913100Y-121959169D01*
X66055958Y-121863931D01*
X66151196Y-121768693D01*
X66198815Y-121673455D01*
X66341672Y-122816312D02*
X66294053Y-122721074D01*
X66246434Y-122673455D01*
X66151196Y-122625836D01*
X66103577Y-122625836D01*
X66008339Y-122673455D01*
X65960720Y-122721074D01*
X65913100Y-122816312D01*
X65913100Y-123006788D01*
X65960720Y-123102026D01*
X66008339Y-123149645D01*
X66103577Y-123197264D01*
X66151196Y-123197264D01*
X66246434Y-123149645D01*
X66294053Y-123102026D01*
X66341672Y-123006788D01*
X66341672Y-122816312D01*
X66389291Y-122721074D01*
X66436910Y-122673455D01*
X66532148Y-122625836D01*
X66722624Y-122625836D01*
X66817862Y-122673455D01*
X66865481Y-122721074D01*
X66913100Y-122816312D01*
X66913100Y-123006788D01*
X66865481Y-123102026D01*
X66817862Y-123149645D01*
X66722624Y-123197264D01*
X66532148Y-123197264D01*
X66436910Y-123149645D01*
X66389291Y-123102026D01*
X66341672Y-123006788D01*
%TO.C,CR17*%
X47767862Y-120292502D02*
X47815481Y-120244883D01*
X47863100Y-120102026D01*
X47863100Y-120006788D01*
X47815481Y-119863931D01*
X47720243Y-119768693D01*
X47625005Y-119721074D01*
X47434529Y-119673455D01*
X47291672Y-119673455D01*
X47101196Y-119721074D01*
X47005958Y-119768693D01*
X46910720Y-119863931D01*
X46863100Y-120006788D01*
X46863100Y-120102026D01*
X46910720Y-120244883D01*
X46958339Y-120292502D01*
X47863100Y-121292502D02*
X47386910Y-120959169D01*
X47863100Y-120721074D02*
X46863100Y-120721074D01*
X46863100Y-121102026D01*
X46910720Y-121197264D01*
X46958339Y-121244883D01*
X47053577Y-121292502D01*
X47196434Y-121292502D01*
X47291672Y-121244883D01*
X47339291Y-121197264D01*
X47386910Y-121102026D01*
X47386910Y-120721074D01*
X47863100Y-122244883D02*
X47863100Y-121673455D01*
X47863100Y-121959169D02*
X46863100Y-121959169D01*
X47005958Y-121863931D01*
X47101196Y-121768693D01*
X47148815Y-121673455D01*
X46863100Y-122578217D02*
X46863100Y-123244883D01*
X47863100Y-122816312D01*
%TO.C,CR16*%
X104917862Y-101242502D02*
X104965481Y-101194883D01*
X105013100Y-101052026D01*
X105013100Y-100956788D01*
X104965481Y-100813931D01*
X104870243Y-100718693D01*
X104775005Y-100671074D01*
X104584529Y-100623455D01*
X104441672Y-100623455D01*
X104251196Y-100671074D01*
X104155958Y-100718693D01*
X104060720Y-100813931D01*
X104013100Y-100956788D01*
X104013100Y-101052026D01*
X104060720Y-101194883D01*
X104108339Y-101242502D01*
X105013100Y-102242502D02*
X104536910Y-101909169D01*
X105013100Y-101671074D02*
X104013100Y-101671074D01*
X104013100Y-102052026D01*
X104060720Y-102147264D01*
X104108339Y-102194883D01*
X104203577Y-102242502D01*
X104346434Y-102242502D01*
X104441672Y-102194883D01*
X104489291Y-102147264D01*
X104536910Y-102052026D01*
X104536910Y-101671074D01*
X105013100Y-103194883D02*
X105013100Y-102623455D01*
X105013100Y-102909169D02*
X104013100Y-102909169D01*
X104155958Y-102813931D01*
X104251196Y-102718693D01*
X104298815Y-102623455D01*
X104013100Y-104052026D02*
X104013100Y-103861550D01*
X104060720Y-103766312D01*
X104108339Y-103718693D01*
X104251196Y-103623455D01*
X104441672Y-103575836D01*
X104822624Y-103575836D01*
X104917862Y-103623455D01*
X104965481Y-103671074D01*
X105013100Y-103766312D01*
X105013100Y-103956788D01*
X104965481Y-104052026D01*
X104917862Y-104099645D01*
X104822624Y-104147264D01*
X104584529Y-104147264D01*
X104489291Y-104099645D01*
X104441672Y-104052026D01*
X104394053Y-103956788D01*
X104394053Y-103766312D01*
X104441672Y-103671074D01*
X104489291Y-103623455D01*
X104584529Y-103575836D01*
%TO.C,CR15*%
X85867862Y-101242502D02*
X85915481Y-101194883D01*
X85963100Y-101052026D01*
X85963100Y-100956788D01*
X85915481Y-100813931D01*
X85820243Y-100718693D01*
X85725005Y-100671074D01*
X85534529Y-100623455D01*
X85391672Y-100623455D01*
X85201196Y-100671074D01*
X85105958Y-100718693D01*
X85010720Y-100813931D01*
X84963100Y-100956788D01*
X84963100Y-101052026D01*
X85010720Y-101194883D01*
X85058339Y-101242502D01*
X85963100Y-102242502D02*
X85486910Y-101909169D01*
X85963100Y-101671074D02*
X84963100Y-101671074D01*
X84963100Y-102052026D01*
X85010720Y-102147264D01*
X85058339Y-102194883D01*
X85153577Y-102242502D01*
X85296434Y-102242502D01*
X85391672Y-102194883D01*
X85439291Y-102147264D01*
X85486910Y-102052026D01*
X85486910Y-101671074D01*
X85963100Y-103194883D02*
X85963100Y-102623455D01*
X85963100Y-102909169D02*
X84963100Y-102909169D01*
X85105958Y-102813931D01*
X85201196Y-102718693D01*
X85248815Y-102623455D01*
X84963100Y-104099645D02*
X84963100Y-103623455D01*
X85439291Y-103575836D01*
X85391672Y-103623455D01*
X85344053Y-103718693D01*
X85344053Y-103956788D01*
X85391672Y-104052026D01*
X85439291Y-104099645D01*
X85534529Y-104147264D01*
X85772624Y-104147264D01*
X85867862Y-104099645D01*
X85915481Y-104052026D01*
X85963100Y-103956788D01*
X85963100Y-103718693D01*
X85915481Y-103623455D01*
X85867862Y-103575836D01*
%TO.C,CR14*%
X66817862Y-101242502D02*
X66865481Y-101194883D01*
X66913100Y-101052026D01*
X66913100Y-100956788D01*
X66865481Y-100813931D01*
X66770243Y-100718693D01*
X66675005Y-100671074D01*
X66484529Y-100623455D01*
X66341672Y-100623455D01*
X66151196Y-100671074D01*
X66055958Y-100718693D01*
X65960720Y-100813931D01*
X65913100Y-100956788D01*
X65913100Y-101052026D01*
X65960720Y-101194883D01*
X66008339Y-101242502D01*
X66913100Y-102242502D02*
X66436910Y-101909169D01*
X66913100Y-101671074D02*
X65913100Y-101671074D01*
X65913100Y-102052026D01*
X65960720Y-102147264D01*
X66008339Y-102194883D01*
X66103577Y-102242502D01*
X66246434Y-102242502D01*
X66341672Y-102194883D01*
X66389291Y-102147264D01*
X66436910Y-102052026D01*
X66436910Y-101671074D01*
X66913100Y-103194883D02*
X66913100Y-102623455D01*
X66913100Y-102909169D02*
X65913100Y-102909169D01*
X66055958Y-102813931D01*
X66151196Y-102718693D01*
X66198815Y-102623455D01*
X66246434Y-104052026D02*
X66913100Y-104052026D01*
X65865481Y-103813931D02*
X66579767Y-103575836D01*
X66579767Y-104194883D01*
%TO.C,CR13*%
X47767862Y-101242502D02*
X47815481Y-101194883D01*
X47863100Y-101052026D01*
X47863100Y-100956788D01*
X47815481Y-100813931D01*
X47720243Y-100718693D01*
X47625005Y-100671074D01*
X47434529Y-100623455D01*
X47291672Y-100623455D01*
X47101196Y-100671074D01*
X47005958Y-100718693D01*
X46910720Y-100813931D01*
X46863100Y-100956788D01*
X46863100Y-101052026D01*
X46910720Y-101194883D01*
X46958339Y-101242502D01*
X47863100Y-102242502D02*
X47386910Y-101909169D01*
X47863100Y-101671074D02*
X46863100Y-101671074D01*
X46863100Y-102052026D01*
X46910720Y-102147264D01*
X46958339Y-102194883D01*
X47053577Y-102242502D01*
X47196434Y-102242502D01*
X47291672Y-102194883D01*
X47339291Y-102147264D01*
X47386910Y-102052026D01*
X47386910Y-101671074D01*
X47863100Y-103194883D02*
X47863100Y-102623455D01*
X47863100Y-102909169D02*
X46863100Y-102909169D01*
X47005958Y-102813931D01*
X47101196Y-102718693D01*
X47148815Y-102623455D01*
X46863100Y-103528217D02*
X46863100Y-104147264D01*
X47244053Y-103813931D01*
X47244053Y-103956788D01*
X47291672Y-104052026D01*
X47339291Y-104099645D01*
X47434529Y-104147264D01*
X47672624Y-104147264D01*
X47767862Y-104099645D01*
X47815481Y-104052026D01*
X47863100Y-103956788D01*
X47863100Y-103671074D01*
X47815481Y-103575836D01*
X47767862Y-103528217D01*
%TO.C,CR12*%
X104917862Y-82192502D02*
X104965481Y-82144883D01*
X105013100Y-82002026D01*
X105013100Y-81906788D01*
X104965481Y-81763931D01*
X104870243Y-81668693D01*
X104775005Y-81621074D01*
X104584529Y-81573455D01*
X104441672Y-81573455D01*
X104251196Y-81621074D01*
X104155958Y-81668693D01*
X104060720Y-81763931D01*
X104013100Y-81906788D01*
X104013100Y-82002026D01*
X104060720Y-82144883D01*
X104108339Y-82192502D01*
X105013100Y-83192502D02*
X104536910Y-82859169D01*
X105013100Y-82621074D02*
X104013100Y-82621074D01*
X104013100Y-83002026D01*
X104060720Y-83097264D01*
X104108339Y-83144883D01*
X104203577Y-83192502D01*
X104346434Y-83192502D01*
X104441672Y-83144883D01*
X104489291Y-83097264D01*
X104536910Y-83002026D01*
X104536910Y-82621074D01*
X105013100Y-84144883D02*
X105013100Y-83573455D01*
X105013100Y-83859169D02*
X104013100Y-83859169D01*
X104155958Y-83763931D01*
X104251196Y-83668693D01*
X104298815Y-83573455D01*
X104108339Y-84525836D02*
X104060720Y-84573455D01*
X104013100Y-84668693D01*
X104013100Y-84906788D01*
X104060720Y-85002026D01*
X104108339Y-85049645D01*
X104203577Y-85097264D01*
X104298815Y-85097264D01*
X104441672Y-85049645D01*
X105013100Y-84478217D01*
X105013100Y-85097264D01*
%TO.C,CR11*%
X85867862Y-82192502D02*
X85915481Y-82144883D01*
X85963100Y-82002026D01*
X85963100Y-81906788D01*
X85915481Y-81763931D01*
X85820243Y-81668693D01*
X85725005Y-81621074D01*
X85534529Y-81573455D01*
X85391672Y-81573455D01*
X85201196Y-81621074D01*
X85105958Y-81668693D01*
X85010720Y-81763931D01*
X84963100Y-81906788D01*
X84963100Y-82002026D01*
X85010720Y-82144883D01*
X85058339Y-82192502D01*
X85963100Y-83192502D02*
X85486910Y-82859169D01*
X85963100Y-82621074D02*
X84963100Y-82621074D01*
X84963100Y-83002026D01*
X85010720Y-83097264D01*
X85058339Y-83144883D01*
X85153577Y-83192502D01*
X85296434Y-83192502D01*
X85391672Y-83144883D01*
X85439291Y-83097264D01*
X85486910Y-83002026D01*
X85486910Y-82621074D01*
X85963100Y-84144883D02*
X85963100Y-83573455D01*
X85963100Y-83859169D02*
X84963100Y-83859169D01*
X85105958Y-83763931D01*
X85201196Y-83668693D01*
X85248815Y-83573455D01*
X85963100Y-85097264D02*
X85963100Y-84525836D01*
X85963100Y-84811550D02*
X84963100Y-84811550D01*
X85105958Y-84716312D01*
X85201196Y-84621074D01*
X85248815Y-84525836D01*
%TO.C,CR10*%
X66817862Y-82192502D02*
X66865481Y-82144883D01*
X66913100Y-82002026D01*
X66913100Y-81906788D01*
X66865481Y-81763931D01*
X66770243Y-81668693D01*
X66675005Y-81621074D01*
X66484529Y-81573455D01*
X66341672Y-81573455D01*
X66151196Y-81621074D01*
X66055958Y-81668693D01*
X65960720Y-81763931D01*
X65913100Y-81906788D01*
X65913100Y-82002026D01*
X65960720Y-82144883D01*
X66008339Y-82192502D01*
X66913100Y-83192502D02*
X66436910Y-82859169D01*
X66913100Y-82621074D02*
X65913100Y-82621074D01*
X65913100Y-83002026D01*
X65960720Y-83097264D01*
X66008339Y-83144883D01*
X66103577Y-83192502D01*
X66246434Y-83192502D01*
X66341672Y-83144883D01*
X66389291Y-83097264D01*
X66436910Y-83002026D01*
X66436910Y-82621074D01*
X66913100Y-84144883D02*
X66913100Y-83573455D01*
X66913100Y-83859169D02*
X65913100Y-83859169D01*
X66055958Y-83763931D01*
X66151196Y-83668693D01*
X66198815Y-83573455D01*
X65913100Y-84763931D02*
X65913100Y-84859169D01*
X65960720Y-84954407D01*
X66008339Y-85002026D01*
X66103577Y-85049645D01*
X66294053Y-85097264D01*
X66532148Y-85097264D01*
X66722624Y-85049645D01*
X66817862Y-85002026D01*
X66865481Y-84954407D01*
X66913100Y-84859169D01*
X66913100Y-84763931D01*
X66865481Y-84668693D01*
X66817862Y-84621074D01*
X66722624Y-84573455D01*
X66532148Y-84525836D01*
X66294053Y-84525836D01*
X66103577Y-84573455D01*
X66008339Y-84621074D01*
X65960720Y-84668693D01*
X65913100Y-84763931D01*
%TO.C,CR9*%
X47767862Y-82668693D02*
X47815481Y-82621074D01*
X47863100Y-82478217D01*
X47863100Y-82382979D01*
X47815481Y-82240121D01*
X47720243Y-82144883D01*
X47625005Y-82097264D01*
X47434529Y-82049645D01*
X47291672Y-82049645D01*
X47101196Y-82097264D01*
X47005958Y-82144883D01*
X46910720Y-82240121D01*
X46863100Y-82382979D01*
X46863100Y-82478217D01*
X46910720Y-82621074D01*
X46958339Y-82668693D01*
X47863100Y-83668693D02*
X47386910Y-83335360D01*
X47863100Y-83097264D02*
X46863100Y-83097264D01*
X46863100Y-83478217D01*
X46910720Y-83573455D01*
X46958339Y-83621074D01*
X47053577Y-83668693D01*
X47196434Y-83668693D01*
X47291672Y-83621074D01*
X47339291Y-83573455D01*
X47386910Y-83478217D01*
X47386910Y-83097264D01*
X47863100Y-84144883D02*
X47863100Y-84335360D01*
X47815481Y-84430598D01*
X47767862Y-84478217D01*
X47625005Y-84573455D01*
X47434529Y-84621074D01*
X47053577Y-84621074D01*
X46958339Y-84573455D01*
X46910720Y-84525836D01*
X46863100Y-84430598D01*
X46863100Y-84240121D01*
X46910720Y-84144883D01*
X46958339Y-84097264D01*
X47053577Y-84049645D01*
X47291672Y-84049645D01*
X47386910Y-84097264D01*
X47434529Y-84144883D01*
X47482148Y-84240121D01*
X47482148Y-84430598D01*
X47434529Y-84525836D01*
X47386910Y-84573455D01*
X47291672Y-84621074D01*
%TO.C,CR8*%
X104917862Y-63618693D02*
X104965481Y-63571074D01*
X105013100Y-63428217D01*
X105013100Y-63332979D01*
X104965481Y-63190121D01*
X104870243Y-63094883D01*
X104775005Y-63047264D01*
X104584529Y-62999645D01*
X104441672Y-62999645D01*
X104251196Y-63047264D01*
X104155958Y-63094883D01*
X104060720Y-63190121D01*
X104013100Y-63332979D01*
X104013100Y-63428217D01*
X104060720Y-63571074D01*
X104108339Y-63618693D01*
X105013100Y-64618693D02*
X104536910Y-64285360D01*
X105013100Y-64047264D02*
X104013100Y-64047264D01*
X104013100Y-64428217D01*
X104060720Y-64523455D01*
X104108339Y-64571074D01*
X104203577Y-64618693D01*
X104346434Y-64618693D01*
X104441672Y-64571074D01*
X104489291Y-64523455D01*
X104536910Y-64428217D01*
X104536910Y-64047264D01*
X104441672Y-65190121D02*
X104394053Y-65094883D01*
X104346434Y-65047264D01*
X104251196Y-64999645D01*
X104203577Y-64999645D01*
X104108339Y-65047264D01*
X104060720Y-65094883D01*
X104013100Y-65190121D01*
X104013100Y-65380598D01*
X104060720Y-65475836D01*
X104108339Y-65523455D01*
X104203577Y-65571074D01*
X104251196Y-65571074D01*
X104346434Y-65523455D01*
X104394053Y-65475836D01*
X104441672Y-65380598D01*
X104441672Y-65190121D01*
X104489291Y-65094883D01*
X104536910Y-65047264D01*
X104632148Y-64999645D01*
X104822624Y-64999645D01*
X104917862Y-65047264D01*
X104965481Y-65094883D01*
X105013100Y-65190121D01*
X105013100Y-65380598D01*
X104965481Y-65475836D01*
X104917862Y-65523455D01*
X104822624Y-65571074D01*
X104632148Y-65571074D01*
X104536910Y-65523455D01*
X104489291Y-65475836D01*
X104441672Y-65380598D01*
%TO.C,CR7*%
X85867862Y-63618693D02*
X85915481Y-63571074D01*
X85963100Y-63428217D01*
X85963100Y-63332979D01*
X85915481Y-63190121D01*
X85820243Y-63094883D01*
X85725005Y-63047264D01*
X85534529Y-62999645D01*
X85391672Y-62999645D01*
X85201196Y-63047264D01*
X85105958Y-63094883D01*
X85010720Y-63190121D01*
X84963100Y-63332979D01*
X84963100Y-63428217D01*
X85010720Y-63571074D01*
X85058339Y-63618693D01*
X85963100Y-64618693D02*
X85486910Y-64285360D01*
X85963100Y-64047264D02*
X84963100Y-64047264D01*
X84963100Y-64428217D01*
X85010720Y-64523455D01*
X85058339Y-64571074D01*
X85153577Y-64618693D01*
X85296434Y-64618693D01*
X85391672Y-64571074D01*
X85439291Y-64523455D01*
X85486910Y-64428217D01*
X85486910Y-64047264D01*
X84963100Y-64952026D02*
X84963100Y-65618693D01*
X85963100Y-65190121D01*
%TO.C,CR6*%
X66817862Y-63618693D02*
X66865481Y-63571074D01*
X66913100Y-63428217D01*
X66913100Y-63332979D01*
X66865481Y-63190121D01*
X66770243Y-63094883D01*
X66675005Y-63047264D01*
X66484529Y-62999645D01*
X66341672Y-62999645D01*
X66151196Y-63047264D01*
X66055958Y-63094883D01*
X65960720Y-63190121D01*
X65913100Y-63332979D01*
X65913100Y-63428217D01*
X65960720Y-63571074D01*
X66008339Y-63618693D01*
X66913100Y-64618693D02*
X66436910Y-64285360D01*
X66913100Y-64047264D02*
X65913100Y-64047264D01*
X65913100Y-64428217D01*
X65960720Y-64523455D01*
X66008339Y-64571074D01*
X66103577Y-64618693D01*
X66246434Y-64618693D01*
X66341672Y-64571074D01*
X66389291Y-64523455D01*
X66436910Y-64428217D01*
X66436910Y-64047264D01*
X65913100Y-65475836D02*
X65913100Y-65285360D01*
X65960720Y-65190121D01*
X66008339Y-65142502D01*
X66151196Y-65047264D01*
X66341672Y-64999645D01*
X66722624Y-64999645D01*
X66817862Y-65047264D01*
X66865481Y-65094883D01*
X66913100Y-65190121D01*
X66913100Y-65380598D01*
X66865481Y-65475836D01*
X66817862Y-65523455D01*
X66722624Y-65571074D01*
X66484529Y-65571074D01*
X66389291Y-65523455D01*
X66341672Y-65475836D01*
X66294053Y-65380598D01*
X66294053Y-65190121D01*
X66341672Y-65094883D01*
X66389291Y-65047264D01*
X66484529Y-64999645D01*
%TO.C,CR5*%
X47767862Y-63618693D02*
X47815481Y-63571074D01*
X47863100Y-63428217D01*
X47863100Y-63332979D01*
X47815481Y-63190121D01*
X47720243Y-63094883D01*
X47625005Y-63047264D01*
X47434529Y-62999645D01*
X47291672Y-62999645D01*
X47101196Y-63047264D01*
X47005958Y-63094883D01*
X46910720Y-63190121D01*
X46863100Y-63332979D01*
X46863100Y-63428217D01*
X46910720Y-63571074D01*
X46958339Y-63618693D01*
X47863100Y-64618693D02*
X47386910Y-64285360D01*
X47863100Y-64047264D02*
X46863100Y-64047264D01*
X46863100Y-64428217D01*
X46910720Y-64523455D01*
X46958339Y-64571074D01*
X47053577Y-64618693D01*
X47196434Y-64618693D01*
X47291672Y-64571074D01*
X47339291Y-64523455D01*
X47386910Y-64428217D01*
X47386910Y-64047264D01*
X46863100Y-65523455D02*
X46863100Y-65047264D01*
X47339291Y-64999645D01*
X47291672Y-65047264D01*
X47244053Y-65142502D01*
X47244053Y-65380598D01*
X47291672Y-65475836D01*
X47339291Y-65523455D01*
X47434529Y-65571074D01*
X47672624Y-65571074D01*
X47767862Y-65523455D01*
X47815481Y-65475836D01*
X47863100Y-65380598D01*
X47863100Y-65142502D01*
X47815481Y-65047264D01*
X47767862Y-64999645D01*
%TO.C,CR4*%
X104917862Y-39805693D02*
X104965481Y-39758074D01*
X105013100Y-39615217D01*
X105013100Y-39519979D01*
X104965481Y-39377121D01*
X104870243Y-39281883D01*
X104775005Y-39234264D01*
X104584529Y-39186645D01*
X104441672Y-39186645D01*
X104251196Y-39234264D01*
X104155958Y-39281883D01*
X104060720Y-39377121D01*
X104013100Y-39519979D01*
X104013100Y-39615217D01*
X104060720Y-39758074D01*
X104108339Y-39805693D01*
X105013100Y-40805693D02*
X104536910Y-40472360D01*
X105013100Y-40234264D02*
X104013100Y-40234264D01*
X104013100Y-40615217D01*
X104060720Y-40710455D01*
X104108339Y-40758074D01*
X104203577Y-40805693D01*
X104346434Y-40805693D01*
X104441672Y-40758074D01*
X104489291Y-40710455D01*
X104536910Y-40615217D01*
X104536910Y-40234264D01*
X104346434Y-41662836D02*
X105013100Y-41662836D01*
X103965481Y-41424740D02*
X104679767Y-41186645D01*
X104679767Y-41805693D01*
%TO.C,CR3*%
X85867862Y-39805693D02*
X85915481Y-39758074D01*
X85963100Y-39615217D01*
X85963100Y-39519979D01*
X85915481Y-39377121D01*
X85820243Y-39281883D01*
X85725005Y-39234264D01*
X85534529Y-39186645D01*
X85391672Y-39186645D01*
X85201196Y-39234264D01*
X85105958Y-39281883D01*
X85010720Y-39377121D01*
X84963100Y-39519979D01*
X84963100Y-39615217D01*
X85010720Y-39758074D01*
X85058339Y-39805693D01*
X85963100Y-40805693D02*
X85486910Y-40472360D01*
X85963100Y-40234264D02*
X84963100Y-40234264D01*
X84963100Y-40615217D01*
X85010720Y-40710455D01*
X85058339Y-40758074D01*
X85153577Y-40805693D01*
X85296434Y-40805693D01*
X85391672Y-40758074D01*
X85439291Y-40710455D01*
X85486910Y-40615217D01*
X85486910Y-40234264D01*
X84963100Y-41139026D02*
X84963100Y-41758074D01*
X85344053Y-41424740D01*
X85344053Y-41567598D01*
X85391672Y-41662836D01*
X85439291Y-41710455D01*
X85534529Y-41758074D01*
X85772624Y-41758074D01*
X85867862Y-41710455D01*
X85915481Y-41662836D01*
X85963100Y-41567598D01*
X85963100Y-41281883D01*
X85915481Y-41186645D01*
X85867862Y-41139026D01*
%TO.C,CR2*%
X66817862Y-39805693D02*
X66865481Y-39758074D01*
X66913100Y-39615217D01*
X66913100Y-39519979D01*
X66865481Y-39377121D01*
X66770243Y-39281883D01*
X66675005Y-39234264D01*
X66484529Y-39186645D01*
X66341672Y-39186645D01*
X66151196Y-39234264D01*
X66055958Y-39281883D01*
X65960720Y-39377121D01*
X65913100Y-39519979D01*
X65913100Y-39615217D01*
X65960720Y-39758074D01*
X66008339Y-39805693D01*
X66913100Y-40805693D02*
X66436910Y-40472360D01*
X66913100Y-40234264D02*
X65913100Y-40234264D01*
X65913100Y-40615217D01*
X65960720Y-40710455D01*
X66008339Y-40758074D01*
X66103577Y-40805693D01*
X66246434Y-40805693D01*
X66341672Y-40758074D01*
X66389291Y-40710455D01*
X66436910Y-40615217D01*
X66436910Y-40234264D01*
X66008339Y-41186645D02*
X65960720Y-41234264D01*
X65913100Y-41329502D01*
X65913100Y-41567598D01*
X65960720Y-41662836D01*
X66008339Y-41710455D01*
X66103577Y-41758074D01*
X66198815Y-41758074D01*
X66341672Y-41710455D01*
X66913100Y-41139026D01*
X66913100Y-41758074D01*
%TO.C,CR1*%
X47767862Y-39805693D02*
X47815481Y-39758074D01*
X47863100Y-39615217D01*
X47863100Y-39519979D01*
X47815481Y-39377121D01*
X47720243Y-39281883D01*
X47625005Y-39234264D01*
X47434529Y-39186645D01*
X47291672Y-39186645D01*
X47101196Y-39234264D01*
X47005958Y-39281883D01*
X46910720Y-39377121D01*
X46863100Y-39519979D01*
X46863100Y-39615217D01*
X46910720Y-39758074D01*
X46958339Y-39805693D01*
X47863100Y-40805693D02*
X47386910Y-40472360D01*
X47863100Y-40234264D02*
X46863100Y-40234264D01*
X46863100Y-40615217D01*
X46910720Y-40710455D01*
X46958339Y-40758074D01*
X47053577Y-40805693D01*
X47196434Y-40805693D01*
X47291672Y-40758074D01*
X47339291Y-40710455D01*
X47386910Y-40615217D01*
X47386910Y-40234264D01*
X47863100Y-41758074D02*
X47863100Y-41186645D01*
X47863100Y-41472360D02*
X46863100Y-41472360D01*
X47005958Y-41377121D01*
X47101196Y-41281883D01*
X47148815Y-41186645D01*
%TO.C,C6*%
X48213262Y-53206053D02*
X48260881Y-53158434D01*
X48308500Y-53015577D01*
X48308500Y-52920339D01*
X48260881Y-52777481D01*
X48165643Y-52682243D01*
X48070405Y-52634624D01*
X47879929Y-52587005D01*
X47737072Y-52587005D01*
X47546596Y-52634624D01*
X47451358Y-52682243D01*
X47356120Y-52777481D01*
X47308500Y-52920339D01*
X47308500Y-53015577D01*
X47356120Y-53158434D01*
X47403739Y-53206053D01*
X47308500Y-54063196D02*
X47308500Y-53872720D01*
X47356120Y-53777481D01*
X47403739Y-53729862D01*
X47546596Y-53634624D01*
X47737072Y-53587005D01*
X48118024Y-53587005D01*
X48213262Y-53634624D01*
X48260881Y-53682243D01*
X48308500Y-53777481D01*
X48308500Y-53967958D01*
X48260881Y-54063196D01*
X48213262Y-54110815D01*
X48118024Y-54158434D01*
X47879929Y-54158434D01*
X47784691Y-54110815D01*
X47737072Y-54063196D01*
X47689453Y-53967958D01*
X47689453Y-53777481D01*
X47737072Y-53682243D01*
X47784691Y-53634624D01*
X47879929Y-53587005D01*
%TO.C,C5*%
X45769826Y-56559742D02*
X45817445Y-56607361D01*
X45960302Y-56654980D01*
X46055540Y-56654980D01*
X46198398Y-56607361D01*
X46293636Y-56512123D01*
X46341255Y-56416885D01*
X46388874Y-56226409D01*
X46388874Y-56083552D01*
X46341255Y-55893076D01*
X46293636Y-55797838D01*
X46198398Y-55702600D01*
X46055540Y-55654980D01*
X45960302Y-55654980D01*
X45817445Y-55702600D01*
X45769826Y-55750219D01*
X44865064Y-55654980D02*
X45341255Y-55654980D01*
X45388874Y-56131171D01*
X45341255Y-56083552D01*
X45246017Y-56035933D01*
X45007921Y-56035933D01*
X44912683Y-56083552D01*
X44865064Y-56131171D01*
X44817445Y-56226409D01*
X44817445Y-56464504D01*
X44865064Y-56559742D01*
X44912683Y-56607361D01*
X45007921Y-56654980D01*
X45246017Y-56654980D01*
X45341255Y-56607361D01*
X45388874Y-56559742D01*
%TO.C,C4*%
X45947626Y-62599822D02*
X45995245Y-62647441D01*
X46138102Y-62695060D01*
X46233340Y-62695060D01*
X46376198Y-62647441D01*
X46471436Y-62552203D01*
X46519055Y-62456965D01*
X46566674Y-62266489D01*
X46566674Y-62123632D01*
X46519055Y-61933156D01*
X46471436Y-61837918D01*
X46376198Y-61742680D01*
X46233340Y-61695060D01*
X46138102Y-61695060D01*
X45995245Y-61742680D01*
X45947626Y-61790299D01*
X45090483Y-62028394D02*
X45090483Y-62695060D01*
X45328579Y-61647441D02*
X45566674Y-62361727D01*
X44947626Y-62361727D01*
%TO.C,C3*%
X50732986Y-72820782D02*
X50780605Y-72868401D01*
X50923462Y-72916020D01*
X51018700Y-72916020D01*
X51161558Y-72868401D01*
X51256796Y-72773163D01*
X51304415Y-72677925D01*
X51352034Y-72487449D01*
X51352034Y-72344592D01*
X51304415Y-72154116D01*
X51256796Y-72058878D01*
X51161558Y-71963640D01*
X51018700Y-71916020D01*
X50923462Y-71916020D01*
X50780605Y-71963640D01*
X50732986Y-72011259D01*
X50399653Y-71916020D02*
X49780605Y-71916020D01*
X50113939Y-72296973D01*
X49971081Y-72296973D01*
X49875843Y-72344592D01*
X49828224Y-72392211D01*
X49780605Y-72487449D01*
X49780605Y-72725544D01*
X49828224Y-72820782D01*
X49875843Y-72868401D01*
X49971081Y-72916020D01*
X50256796Y-72916020D01*
X50352034Y-72868401D01*
X50399653Y-72820782D01*
%TO.C,C2*%
X61924226Y-69826142D02*
X61971845Y-69873761D01*
X62114702Y-69921380D01*
X62209940Y-69921380D01*
X62352798Y-69873761D01*
X62448036Y-69778523D01*
X62495655Y-69683285D01*
X62543274Y-69492809D01*
X62543274Y-69349952D01*
X62495655Y-69159476D01*
X62448036Y-69064238D01*
X62352798Y-68969000D01*
X62209940Y-68921380D01*
X62114702Y-68921380D01*
X61971845Y-68969000D01*
X61924226Y-69016619D01*
X61543274Y-69016619D02*
X61495655Y-68969000D01*
X61400417Y-68921380D01*
X61162321Y-68921380D01*
X61067083Y-68969000D01*
X61019464Y-69016619D01*
X60971845Y-69111857D01*
X60971845Y-69207095D01*
X61019464Y-69349952D01*
X61590893Y-69921380D01*
X60971845Y-69921380D01*
%TO.C,C1*%
X61914066Y-67789062D02*
X61961685Y-67836681D01*
X62104542Y-67884300D01*
X62199780Y-67884300D01*
X62342638Y-67836681D01*
X62437876Y-67741443D01*
X62485495Y-67646205D01*
X62533114Y-67455729D01*
X62533114Y-67312872D01*
X62485495Y-67122396D01*
X62437876Y-67027158D01*
X62342638Y-66931920D01*
X62199780Y-66884300D01*
X62104542Y-66884300D01*
X61961685Y-66931920D01*
X61914066Y-66979539D01*
X60961685Y-67884300D02*
X61533114Y-67884300D01*
X61247400Y-67884300D02*
X61247400Y-66884300D01*
X61342638Y-67027158D01*
X61437876Y-67122396D01*
X61533114Y-67170015D01*
%TD*%
M02*
