M48
; DRILL file {KiCad (5.1.7-0-10_14)} date 
; FORMAT={-:-/ absolute / metric / decimal}
; #@! TF.CreationDate,2020-11-09T22:57:56+09:00
; #@! TF.GenerationSoftware,Kicad,Pcbnew,(5.1.7-0-10_14)
; #@! TF.FileFunction,NonPlated,1,2,NPTH
FMAT,2
METRIC
T1C0.650
T2C1.750
T3C3.000
T4C3.048
T5C3.988
%
G90
G05
T1
X33.986Y-48.673
X39.766Y-48.673
T2
X69.896Y-96.686
X80.056Y-96.686
X69.896Y-58.586
X80.056Y-58.586
X50.846Y-96.686
X61.006Y-96.686
X88.946Y-115.736
X99.106Y-115.736
X50.846Y-134.786
X61.006Y-134.786
X88.946Y-58.586
X99.106Y-58.586
X88.946Y-96.686
X99.106Y-96.686
X31.796Y-115.736
X41.956Y-115.736
X113.076Y-120.181
X113.076Y-130.341
X69.896Y-77.636
X80.056Y-77.636
X107.996Y-77.636
X118.156Y-77.636
X69.896Y-115.736
X80.056Y-115.736
X50.846Y-34.773
X61.006Y-34.773
X31.796Y-134.786
X41.956Y-134.786
X107.996Y-34.773
X118.156Y-34.773
X50.846Y-58.586
X61.006Y-58.586
X88.946Y-34.773
X99.106Y-34.773
X31.796Y-96.686
X41.956Y-96.686
X69.896Y-34.773
X80.056Y-34.773
X88.946Y-77.636
X99.106Y-77.636
X50.846Y-115.736
X61.006Y-115.736
X50.846Y-77.636
X61.006Y-77.636
X69.896Y-134.786
X80.056Y-134.786
X88.946Y-134.786
X99.106Y-134.786
X107.996Y-58.586
X118.156Y-58.586
X107.996Y-96.686
X118.156Y-96.686
T3
X71.166Y-56.046
X77.516Y-53.506
X52.116Y-94.146
X58.466Y-91.606
X90.216Y-113.196
X96.566Y-110.656
X52.116Y-132.246
X58.466Y-129.706
X90.216Y-56.046
X96.566Y-53.506
X90.216Y-94.146
X96.566Y-91.606
X33.066Y-113.196
X39.416Y-110.656
X107.996Y-122.721
X110.536Y-129.071
X71.166Y-75.096
X77.516Y-72.556
X109.266Y-75.096
X115.616Y-72.556
X71.166Y-113.196
X77.516Y-110.656
X52.116Y-32.233
X58.466Y-29.693
X33.066Y-132.246
X39.416Y-129.706
X109.266Y-32.233
X115.616Y-29.693
X52.116Y-56.046
X58.466Y-53.506
X90.216Y-32.233
X96.566Y-29.693
X33.066Y-94.146
X39.416Y-91.606
X71.166Y-32.233
X77.516Y-29.693
X90.216Y-75.096
X96.566Y-72.556
X52.116Y-113.196
X58.466Y-110.656
X52.116Y-75.096
X58.466Y-72.556
X71.166Y-132.246
X77.516Y-129.706
X90.216Y-132.246
X96.566Y-129.706
X109.266Y-56.046
X115.616Y-53.506
X109.266Y-94.146
X115.616Y-91.606
X71.166Y-94.146
X77.516Y-91.606
T4
X120.061Y-113.323
X120.061Y-137.199
T5
X104.821Y-113.323
X104.821Y-137.199
X113.076Y-125.261
X74.976Y-77.636
X113.076Y-77.636
X74.976Y-115.736
X55.926Y-34.773
X36.876Y-134.786
X113.076Y-34.773
X55.926Y-58.586
X94.026Y-34.773
X36.876Y-96.686
X74.976Y-34.773
X94.026Y-77.636
X55.926Y-115.736
X55.926Y-77.636
X74.976Y-134.786
X94.026Y-134.786
X113.076Y-58.586
X113.076Y-96.686
X74.976Y-96.686
X74.976Y-58.586
X55.926Y-96.686
X94.026Y-115.736
X55.926Y-134.786
X94.026Y-58.586
X94.026Y-96.686
X36.876Y-115.736
T0
M30
