M48
; DRILL file {KiCad (5.1.7-0-10_14)} date Monday, November 02, 2020 at 11:02:49 PM
; FORMAT={-:-/ absolute / metric / decimal}
; #@! TF.CreationDate,2020-11-02T23:02:49+09:00
; #@! TF.GenerationSoftware,Kicad,Pcbnew,(5.1.7-0-10_14)
FMAT,2
METRIC
T1C0.400
T2C0.600
T3C4.800
T4C0.650
T5C1.750
T6C3.000
T7C3.048
T8C3.988
%
G90
G05
T1
X27.777Y-74.031
X28.433Y-92.121
X28.443Y-81.031
X28.834Y-107.483
X29.281Y-75.636
X30.14Y-100.025
X30.196Y-119.106
X30.206Y-138.146
X30.465Y-80.914
X31.526Y-54.976
X31.561Y-72.726
X31.582Y-62.702
X32.014Y-82.682
X32.344Y-65.791
X32.344Y-72.888
X32.451Y-81.671
X33.142Y-51.74
X34.326Y-61.367
X35.001Y-106.208
X35.021Y-53.766
X35.265Y-87.213
X35.357Y-51.725
X35.362Y-125.192
X35.753Y-143.622
X35.855Y-52.959
X35.862Y-54.879
X38.085Y-75.958
X38.201Y-52.933
X38.313Y-51.73
X38.71Y-53.823
X38.887Y-80.914
X39.182Y-62.057
X39.284Y-99.995
X39.34Y-119.075
X39.35Y-138.115
X40.32Y-66.06
X40.493Y-81.605
X40.594Y-51.699
X40.684Y-77.622
X40.869Y-69.245
X40.916Y-70.044
X40.94Y-70.963
X41.051Y-76.103
X41.346Y-68.514
X41.427Y-74.265
X41.848Y-55.347
X41.948Y-53.188
X42.022Y-67.909
X42.282Y-74.546
X42.347Y-47.737
X42.575Y-60.554
X43.094Y-104.846
X43.256Y-123.977
X43.302Y-55.347
X43.378Y-87.213
X43.531Y-77.038
X43.83Y-142.789
X43.845Y-61.097
X43.896Y-59.146
X43.978Y-65.181
X44.054Y-49.266
X44.313Y-74.564
X44.425Y-80.015
X44.547Y-89.7
X44.602Y-75.844
X44.872Y-86.126
X44.912Y-65.141
X45.258Y-77.094
X45.349Y-55.56
X45.822Y-50.226
X46.594Y-62.144
X46.787Y-134.564
X47.007Y-76.86
X47.015Y-73.33
X47.031Y-96.83
X47.102Y-86.081
X47.234Y-116.032
X47.522Y-49.241
X47.671Y-39.726
X48.133Y-59.111
X48.448Y-50.226
X48.654Y-71.369
X48.661Y-88.163
X48.844Y-66.248
X49.159Y-119.136
X49.164Y-44.318
X49.2Y-38.247
X49.235Y-138.115
X49.246Y-100.04
X49.261Y-72.812
X49.261Y-78.044
X49.261Y-80.975
X49.266Y-61.966
X50.023Y-50.246
X51.389Y-72.471
X51.537Y-39.756
X51.542Y-45.898
X51.862Y-67.371
X53.335Y-143.749
X53.812Y-61.245
X53.818Y-125.192
X53.955Y-80.254
X54.0Y-87.213
X54.021Y-106.208
X54.199Y-43.497
X54.229Y-49.337
X56.586Y-68.931
X58.303Y-119.106
X58.308Y-44.287
X58.344Y-38.217
X58.379Y-138.085
X58.39Y-100.01
X58.405Y-80.945
X58.41Y-61.935
X59.009Y-66.041
X59.009Y-85.091
X59.009Y-104.141
X59.009Y-123.191
X59.009Y-142.241
X59.025Y-42.332
X59.06Y-48.485
X60.549Y-64.206
X61.493Y-70.211
X61.752Y-142.905
X62.078Y-85.801
X62.118Y-123.861
X62.133Y-104.846
X62.362Y-66.668
X64.018Y-123.818
X64.364Y-89.073
X64.47Y-86.436
X64.704Y-37.516
X65.512Y-83.18
X66.34Y-64.044
X68.219Y-44.318
X68.229Y-80.975
X68.24Y-100.046
X68.245Y-38.232
X68.255Y-119.08
X68.311Y-61.976
X68.341Y-138.12
X71.667Y-43.497
X71.836Y-87.213
X71.846Y-106.208
X71.968Y-49.337
X72.151Y-62.602
X72.151Y-81.652
X72.151Y-100.702
X72.151Y-119.752
X72.151Y-138.802
X72.166Y-38.892
X72.202Y-45.045
X72.38Y-143.774
X72.807Y-125.192
X73.01Y-67.395
X77.363Y-44.287
X77.373Y-80.945
X77.384Y-100.015
X77.389Y-38.202
X77.399Y-119.05
X77.455Y-61.946
X77.485Y-138.09
X78.025Y-42.332
X78.059Y-66.041
X78.059Y-85.091
X78.059Y-104.141
X78.059Y-123.191
X78.059Y-142.241
X78.11Y-48.485
X80.818Y-142.905
X81.158Y-104.846
X81.224Y-123.861
X81.233Y-66.668
X81.464Y-85.751
X82.55Y-87.904
X83.749Y-37.216
X83.749Y-50.597
X83.764Y-107.492
X83.764Y-125.197
X84.536Y-99.07
X84.734Y-143.693
X87.3Y-100.076
X87.3Y-138.12
X87.325Y-38.156
X87.325Y-80.996
X87.34Y-61.93
X87.351Y-44.338
X87.366Y-119.146
X91.166Y-38.892
X91.201Y-62.602
X91.201Y-81.652
X91.201Y-100.702
X91.201Y-119.752
X91.201Y-138.802
X91.252Y-45.045
X91.349Y-143.723
X91.496Y-124.628
X91.624Y-67.395
X91.804Y-43.497
X91.872Y-49.337
X92.075Y-87.213
X92.1Y-106.208
X96.444Y-100.046
X96.444Y-138.09
X96.469Y-38.125
X96.469Y-80.965
X96.484Y-61.9
X96.495Y-44.308
X96.51Y-119.116
X97.025Y-42.332
X97.109Y-66.041
X97.109Y-85.091
X97.109Y-104.141
X97.16Y-48.485
X97.49Y-142.241
X99.03Y-142.88
X99.35Y-123.861
X100.267Y-66.668
X100.282Y-85.743
X100.355Y-104.846
X100.932Y-125.956
X102.587Y-121.992
X102.697Y-106.233
X102.748Y-43.517
X102.758Y-87.249
X102.763Y-49.322
X102.819Y-37.216
X103.561Y-68.158
X106.324Y-38.166
X106.355Y-44.338
X106.37Y-80.996
X106.375Y-100.051
X106.38Y-61.946
X108.814Y-142.22
X109.174Y-67.396
X110.166Y-38.892
X110.195Y-42.941
X110.251Y-62.602
X110.251Y-81.652
X110.251Y-100.702
X110.261Y-48.748
X110.302Y-45.045
X110.424Y-105.44
X110.47Y-86.487
X113.177Y-134.686
X113.665Y-89.809
X114.91Y-109.413
X115.468Y-38.136
X115.499Y-44.308
X115.514Y-80.965
X115.519Y-100.02
X115.524Y-61.915
X116.454Y-130.388
X116.667Y-115.757
X117.246Y-79.431
X117.744Y-106.7
X117.897Y-60.18
X118.039Y-129.946
X118.044Y-120.294
X118.364Y-104.46
X118.379Y-116.484
X118.41Y-85.73
X118.435Y-66.716
X118.532Y-117.516
X119.092Y-105.107
X119.38Y-133.04
X121.361Y-108.219
X121.874Y-37.658
X121.879Y-89.347
X121.91Y-60.477
X121.986Y-79.659
T3
X28.956Y-46.863
X31.115Y-126.111
X48.133Y-27.051
X104.14Y-27.051
X117.475Y-141.732
T4
X33.986Y-48.673
X39.766Y-48.673
T5
X69.896Y-77.636
X80.056Y-77.636
X31.796Y-96.686
X41.956Y-96.686
X69.896Y-96.686
X80.056Y-96.686
X50.846Y-58.586
X61.006Y-58.586
X50.846Y-115.736
X61.006Y-115.736
X69.896Y-115.736
X80.056Y-115.736
X50.846Y-77.636
X61.006Y-77.636
X88.946Y-134.786
X99.106Y-134.786
X107.996Y-34.773
X118.156Y-34.773
X31.796Y-134.786
X41.956Y-134.786
X50.846Y-96.686
X61.006Y-96.686
X107.996Y-96.686
X118.156Y-96.686
X107.996Y-58.586
X118.156Y-58.586
X69.896Y-134.786
X80.056Y-134.786
X107.996Y-77.636
X118.156Y-77.636
X88.946Y-34.773
X99.106Y-34.773
X88.946Y-77.636
X99.106Y-77.636
X31.796Y-115.736
X41.956Y-115.736
X88.946Y-96.686
X99.106Y-96.686
X69.896Y-58.586
X80.056Y-58.586
X88.946Y-58.586
X99.106Y-58.586
X88.946Y-115.736
X99.106Y-115.736
X50.846Y-134.786
X61.006Y-134.786
X50.846Y-34.773
X61.006Y-34.773
X113.076Y-120.181
X113.076Y-130.341
X69.896Y-34.773
X80.056Y-34.773
T6
X109.266Y-32.233
X115.616Y-29.693
X33.066Y-132.246
X39.416Y-129.706
X52.116Y-94.146
X58.466Y-91.606
X109.266Y-94.146
X115.616Y-91.606
X109.266Y-56.046
X115.616Y-53.506
X71.166Y-132.246
X77.516Y-129.706
X109.266Y-75.096
X115.616Y-72.556
X90.216Y-32.233
X96.566Y-29.693
X90.216Y-75.096
X96.566Y-72.556
X33.066Y-113.196
X39.416Y-110.656
X90.216Y-94.146
X96.566Y-91.606
X71.166Y-56.046
X77.516Y-53.506
X90.216Y-56.046
X96.566Y-53.506
X90.216Y-113.196
X96.566Y-110.656
X52.116Y-132.246
X58.466Y-129.706
X52.116Y-32.233
X58.466Y-29.693
X107.996Y-122.721
X110.536Y-129.071
X71.166Y-32.233
X77.516Y-29.693
X71.166Y-75.096
X77.516Y-72.556
X33.066Y-94.146
X39.416Y-91.606
X71.166Y-94.146
X77.516Y-91.606
X52.116Y-56.046
X58.466Y-53.506
X52.116Y-113.196
X58.466Y-110.656
X71.166Y-113.196
X77.516Y-110.656
X52.116Y-75.096
X58.466Y-72.556
X90.216Y-132.246
X96.566Y-129.706
T7
X120.061Y-113.323
X120.061Y-137.199
T8
X74.976Y-77.636
X36.876Y-96.686
X74.976Y-96.686
X55.926Y-58.586
X55.926Y-115.736
X74.976Y-115.736
X55.926Y-77.636
X94.026Y-134.786
X113.076Y-34.773
X36.876Y-134.786
X55.926Y-96.686
X113.076Y-96.686
X113.076Y-58.586
X74.976Y-134.786
X113.076Y-77.636
X94.026Y-34.773
X94.026Y-77.636
X36.876Y-115.736
X94.026Y-96.686
X74.976Y-58.586
X94.026Y-58.586
X94.026Y-115.736
X55.926Y-134.786
X55.926Y-34.773
X104.821Y-113.323
X104.821Y-137.199
X113.076Y-125.261
X74.976Y-34.773
T2
G00X32.556Y-44.723
M15
G01X32.556Y-45.323
M16
G05
G00X32.556Y-48.653
M15
G01X32.556Y-49.753
M16
G05
G00X41.196Y-44.723
M15
G01X41.196Y-45.323
M16
G05
G00X41.196Y-48.653
M15
G01X41.196Y-49.753
M16
G05
T0
M30
