M48
; DRILL file {KiCad (5.1.8-0-10_14)} date Saturday, January 02, 2021 at 12:21:07 AM
; FORMAT={-:-/ absolute / metric / decimal}
; #@! TF.CreationDate,2021-01-02T00:21:07+09:00
; #@! TF.GenerationSoftware,Kicad,Pcbnew,(5.1.8-0-10_14)
; #@! TF.FileFunction,Plated,1,2,PTH
FMAT,2
METRIC
T1C0.400
T2C0.600
T3C4.800
%
G90
G05
T1
X25.654Y-124.714
X26.035Y-136.906
X26.162Y-105.537
X26.162Y-118.237
X26.797Y-90.678
X27.178Y-143.764
X27.777Y-74.031
X28.433Y-92.121
X28.443Y-81.031
X29.281Y-75.636
X29.314Y-68.135
X30.14Y-100.025
X30.196Y-119.106
X30.206Y-138.146
X30.226Y-106.208
X30.353Y-87.213
X30.465Y-80.914
X30.48Y-125.192
X30.607Y-143.815
X30.851Y-84.107
X31.526Y-54.976
X32.451Y-81.671
X32.512Y-73.914
X32.948Y-65.839
X32.948Y-71.664
X33.142Y-51.74
X33.528Y-124.079
X33.528Y-144.78
X33.701Y-99.995
X33.721Y-138.115
X33.731Y-119.075
X33.782Y-105.517
X33.894Y-80.914
X34.798Y-67.89
X35.021Y-53.766
X35.357Y-51.725
X35.855Y-52.959
X35.862Y-54.879
X38.201Y-52.933
X38.313Y-51.73
X38.71Y-53.823
X39.243Y-66.929
X39.37Y-118.237
X39.37Y-137.459
X39.461Y-87.213
X39.467Y-125.192
X39.497Y-62.103
X39.533Y-106.208
X39.548Y-143.815
X40.493Y-81.605
X40.594Y-51.699
X40.684Y-77.622
X40.869Y-69.245
X40.894Y-89.654
X40.916Y-70.044
X40.94Y-70.963
X41.346Y-68.514
X41.402Y-74.93
X41.402Y-106.934
X41.783Y-64.516
X41.848Y-55.347
X41.848Y-59.436
X42.022Y-67.909
X42.282Y-74.546
X42.575Y-60.554
X43.302Y-55.347
X43.378Y-87.213
X43.531Y-77.038
X43.83Y-142.789
X43.845Y-61.097
X43.856Y-104.846
X43.896Y-59.146
X43.978Y-65.181
X44.018Y-123.952
X44.054Y-49.266
X44.313Y-74.564
X44.425Y-80.015
X44.547Y-89.7
X44.602Y-75.844
X44.912Y-65.141
X44.958Y-127.508
X45.085Y-107.696
X45.258Y-77.094
X45.349Y-55.56
X45.822Y-50.226
X46.594Y-62.144
X47.007Y-76.86
X47.015Y-73.33
X47.102Y-86.081
X47.522Y-49.241
X48.133Y-37.465
X48.133Y-59.111
X48.654Y-71.369
X48.661Y-88.163
X48.844Y-66.248
X49.073Y-143.815
X49.159Y-119.136
X49.164Y-44.318
X49.185Y-106.208
X49.2Y-38.247
X49.235Y-138.115
X49.24Y-87.213
X49.246Y-100.04
X49.246Y-125.192
X49.261Y-72.812
X49.261Y-78.044
X49.261Y-80.975
X49.266Y-61.966
X49.337Y-49.337
X49.657Y-51.562
X50.038Y-43.497
X51.389Y-72.471
X51.562Y-61.214
X51.862Y-67.371
X52.629Y-38.217
X52.751Y-80.945
X52.766Y-100.01
X52.796Y-44.287
X52.923Y-138.085
X52.939Y-119.106
X52.959Y-61.976
X53.467Y-144.653
X53.594Y-50.935
X53.594Y-105.473
X53.594Y-126.111
X53.721Y-42.672
X53.721Y-89.781
X56.586Y-68.931
X58.329Y-87.213
X58.45Y-125.192
X58.481Y-49.337
X58.511Y-106.208
X58.724Y-37.465
X58.725Y-143.815
X59.309Y-60.46
X59.372Y-43.497
X59.436Y-118.237
X59.69Y-80.01
X60.198Y-50.165
X60.706Y-107.442
X60.833Y-146.177
X61.468Y-67.395
X61.493Y-70.211
X62.611Y-66.675
X62.713Y-85.801
X62.753Y-123.861
X62.768Y-104.846
X62.865Y-142.875
X64.018Y-123.818
X64.364Y-89.073
X64.47Y-86.436
X64.704Y-26.67
X65.512Y-83.18
X66.083Y-60.452
X66.802Y-69.723
X67.119Y-43.497
X67.606Y-67.395
X68.163Y-106.208
X68.219Y-44.318
X68.229Y-80.975
X68.235Y-87.213
X68.24Y-100.046
X68.245Y-38.232
X68.25Y-143.815
X68.255Y-119.08
X68.311Y-61.976
X68.341Y-138.12
X68.356Y-125.192
X68.387Y-49.337
X68.834Y-42.291
X69.469Y-37.465
X71.78Y-38.202
X71.796Y-61.89
X71.918Y-44.287
X71.928Y-80.945
X71.958Y-119.05
X71.968Y-138.09
X72.024Y-99.964
X72.517Y-126.738
X72.517Y-86.382
X72.644Y-50.173
X72.644Y-68.834
X72.644Y-107.188
X72.771Y-42.545
X72.898Y-145.288
X77.216Y-37.465
X77.313Y-125.192
X77.385Y-67.395
X77.409Y-49.337
X77.506Y-87.213
X77.648Y-143.815
X77.688Y-106.208
X77.851Y-61.087
X78.296Y-43.497
X78.74Y-126.111
X78.74Y-144.653
X78.867Y-50.927
X78.994Y-105.473
X79.375Y-89.154
X81.915Y-142.875
X81.92Y-104.846
X81.986Y-123.861
X81.995Y-66.668
X82.226Y-85.751
X82.55Y-87.904
X83.281Y-51.562
X83.82Y-109.093
X83.82Y-117.729
X83.82Y-128.016
X84.074Y-137.16
X84.201Y-26.162
X84.536Y-99.07
X86.318Y-67.395
X86.677Y-43.497
X87.152Y-125.192
X87.188Y-49.337
X87.285Y-87.213
X87.285Y-106.208
X87.3Y-100.076
X87.3Y-138.12
X87.3Y-143.815
X87.325Y-38.156
X87.325Y-80.996
X87.34Y-61.93
X87.351Y-44.338
X87.366Y-119.146
X88.011Y-42.164
X88.392Y-37.532
X88.519Y-137.16
X90.17Y-118.335
X90.856Y-61.9
X90.907Y-119.024
X90.917Y-44.308
X90.957Y-99.974
X91.018Y-138.09
X91.069Y-80.909
X91.084Y-38.125
X91.567Y-42.545
X91.694Y-50.8
X91.694Y-69.723
X91.694Y-88.392
X91.694Y-105.517
X95.97Y-67.395
X96.266Y-37.211
X96.357Y-87.213
X96.393Y-125.192
X96.444Y-143.815
X96.586Y-49.337
X96.81Y-106.208
X97.346Y-43.497
X97.409Y-126.746
X97.663Y-68.834
X97.79Y-145.288
X97.917Y-107.188
X98.044Y-50.165
X98.044Y-86.371
X99.792Y-142.88
X100.112Y-123.861
X101.029Y-66.668
X101.044Y-85.743
X101.117Y-104.846
X101.481Y-70.35
X101.727Y-107.95
X102.76Y-80.305
X102.87Y-71.12
X102.934Y-50.165
X102.934Y-89.408
X103.378Y-26.162
X103.561Y-68.158
X105.22Y-43.497
X105.622Y-67.395
X106.324Y-38.166
X106.335Y-106.208
X106.355Y-44.338
X106.36Y-49.337
X106.37Y-80.996
X106.375Y-100.051
X106.38Y-61.946
X106.39Y-87.213
X107.188Y-42.164
X107.442Y-37.535
X108.331Y-50.165
X109.093Y-89.154
X109.22Y-70.35
X109.728Y-108.585
X109.928Y-100.022
X109.982Y-118.745
X109.987Y-61.844
X110.007Y-80.874
X110.018Y-38.136
X110.124Y-44.308
X114.427Y-118.745
X115.189Y-87.213
X115.316Y-37.211
X115.316Y-106.208
X115.443Y-49.337
X115.57Y-67.395
X115.951Y-42.926
X116.078Y-132.842
X116.713Y-88.265
X116.967Y-69.723
X116.967Y-105.517
X117.221Y-50.8
X117.602Y-116.586
X117.856Y-132.842
X118.364Y-115.697
X118.999Y-117.516
X119.15Y-66.668
X119.162Y-104.811
X119.172Y-85.73
X119.38Y-132.842
X120.396Y-133.604
X121.285Y-132.842
X121.874Y-26.543
X122.047Y-42.164
X122.047Y-43.942
X122.047Y-61.468
X122.047Y-80.391
X122.047Y-99.441
X122.047Y-116.205
X122.146Y-118.59
X123.19Y-43.18
X123.19Y-49.657
X123.19Y-66.929
X123.19Y-86.614
X123.19Y-105.537
T3
X25.781Y-46.863
X25.654Y-147.447
X48.006Y-22.479
X124.714Y-22.733
X124.714Y-147.447
T2
G00X32.556Y-44.723
M15
G01X32.556Y-45.323
M16
G05
G00X32.556Y-48.653
M15
G01X32.556Y-49.753
M16
G05
G00X41.196Y-44.723
M15
G01X41.196Y-45.323
M16
G05
G00X41.196Y-48.653
M15
G01X41.196Y-49.753
M16
G05
T0
M30
