%TF.GenerationSoftware,KiCad,Pcbnew,(5.1.7-0-10_14)*%
%TF.CreationDate,2020-12-01T22:45:17+09:00*%
%TF.ProjectId,contender_plate,636f6e74-656e-4646-9572-5f706c617465,rev?*%
%TF.SameCoordinates,Original*%
%TF.FileFunction,Copper,L1,Top*%
%TF.FilePolarity,Positive*%
%FSLAX46Y46*%
G04 Gerber Fmt 4.6, Leading zero omitted, Abs format (unit mm)*
G04 Created by KiCad (PCBNEW (5.1.7-0-10_14)) date 2020-12-01 22:45:17*
%MOMM*%
%LPD*%
G01*
G04 APERTURE LIST*
%TA.AperFunction,ComponentPad*%
%ADD10C,3.500000*%
%TD*%
%TA.AperFunction,NonConductor*%
%ADD11C,0.254000*%
%TD*%
%TA.AperFunction,NonConductor*%
%ADD12C,0.100000*%
%TD*%
G04 APERTURE END LIST*
D10*
%TO.P,HOLE_M3,*%
%TO.N,*%
X67310000Y-34988500D03*
%TD*%
%TO.P,HOLE_M3,*%
%TO.N,*%
X144018000Y-35242500D03*
%TD*%
%TO.P,HOLE_M3,*%
%TO.N,*%
X45085000Y-59372500D03*
%TD*%
%TO.P,HOLE_M3,*%
%TO.N,*%
X144018000Y-159956500D03*
%TD*%
%TO.P,HOLE_M3,*%
%TO.N,*%
X44958000Y-159956500D03*
%TD*%
D11*
X146040869Y-32742222D02*
X146154246Y-32776453D01*
X146258819Y-32832055D01*
X146350596Y-32906907D01*
X146426091Y-32998164D01*
X146482419Y-33102344D01*
X146517440Y-33215476D01*
X146533001Y-33363531D01*
X146533000Y-161702221D01*
X146518278Y-161852369D01*
X146484047Y-161965746D01*
X146428446Y-162070317D01*
X146353594Y-162162095D01*
X146262335Y-162237591D01*
X146158160Y-162293919D01*
X146045024Y-162328940D01*
X145896979Y-162344500D01*
X43212279Y-162344500D01*
X43062131Y-162329778D01*
X42948754Y-162295547D01*
X42844183Y-162239946D01*
X42752405Y-162165094D01*
X42676909Y-162073835D01*
X42620581Y-161969660D01*
X42585560Y-161856524D01*
X42570000Y-161708479D01*
X42570000Y-159721598D01*
X42573000Y-159721598D01*
X42573000Y-160191402D01*
X42664654Y-160652179D01*
X42844440Y-161086221D01*
X43105450Y-161476849D01*
X43437651Y-161809050D01*
X43828279Y-162070060D01*
X44262321Y-162249846D01*
X44723098Y-162341500D01*
X45192902Y-162341500D01*
X45653679Y-162249846D01*
X46087721Y-162070060D01*
X46478349Y-161809050D01*
X46810550Y-161476849D01*
X47071560Y-161086221D01*
X47251346Y-160652179D01*
X47343000Y-160191402D01*
X47343000Y-159721598D01*
X141633000Y-159721598D01*
X141633000Y-160191402D01*
X141724654Y-160652179D01*
X141904440Y-161086221D01*
X142165450Y-161476849D01*
X142497651Y-161809050D01*
X142888279Y-162070060D01*
X143322321Y-162249846D01*
X143783098Y-162341500D01*
X144252902Y-162341500D01*
X144713679Y-162249846D01*
X145147721Y-162070060D01*
X145538349Y-161809050D01*
X145870550Y-161476849D01*
X146131560Y-161086221D01*
X146311346Y-160652179D01*
X146403000Y-160191402D01*
X146403000Y-159721598D01*
X146311346Y-159260821D01*
X146131560Y-158826779D01*
X145870550Y-158436151D01*
X145538349Y-158103950D01*
X145147721Y-157842940D01*
X144713679Y-157663154D01*
X144252902Y-157571500D01*
X143783098Y-157571500D01*
X143322321Y-157663154D01*
X142888279Y-157842940D01*
X142497651Y-158103950D01*
X142165450Y-158436151D01*
X141904440Y-158826779D01*
X141724654Y-159260821D01*
X141633000Y-159721598D01*
X47343000Y-159721598D01*
X47251346Y-159260821D01*
X47071560Y-158826779D01*
X46810550Y-158436151D01*
X46478349Y-158103950D01*
X46087721Y-157842940D01*
X45653679Y-157663154D01*
X45192902Y-157571500D01*
X44723098Y-157571500D01*
X44262321Y-157663154D01*
X43828279Y-157842940D01*
X43437651Y-158103950D01*
X43105450Y-158436151D01*
X42844440Y-158826779D01*
X42664654Y-159260821D01*
X42573000Y-159721598D01*
X42570000Y-159721598D01*
X42570000Y-140289500D01*
X48485638Y-140289500D01*
X48489000Y-140323635D01*
X48489001Y-154255355D01*
X48485638Y-154289500D01*
X48499057Y-154425744D01*
X48538798Y-154556752D01*
X48603333Y-154677489D01*
X48690183Y-154783317D01*
X48796011Y-154870167D01*
X48916748Y-154934702D01*
X49047756Y-154974443D01*
X49149865Y-154984500D01*
X49149866Y-154984500D01*
X49184000Y-154987862D01*
X49218135Y-154984500D01*
X63149866Y-154984500D01*
X63184000Y-154987862D01*
X63320244Y-154974443D01*
X63451252Y-154934702D01*
X63571989Y-154870167D01*
X63677817Y-154783317D01*
X63764667Y-154677489D01*
X63829202Y-154556752D01*
X63868943Y-154425744D01*
X63879000Y-154323635D01*
X63882362Y-154289500D01*
X63879000Y-154255365D01*
X63879000Y-140323635D01*
X63882362Y-140289500D01*
X67535638Y-140289500D01*
X67539000Y-140323635D01*
X67539001Y-154255355D01*
X67535638Y-154289500D01*
X67549057Y-154425744D01*
X67588798Y-154556752D01*
X67653333Y-154677489D01*
X67740183Y-154783317D01*
X67846011Y-154870167D01*
X67966748Y-154934702D01*
X68097756Y-154974443D01*
X68199865Y-154984500D01*
X68199866Y-154984500D01*
X68234000Y-154987862D01*
X68268135Y-154984500D01*
X82199866Y-154984500D01*
X82234000Y-154987862D01*
X82370244Y-154974443D01*
X82501252Y-154934702D01*
X82621989Y-154870167D01*
X82727817Y-154783317D01*
X82814667Y-154677489D01*
X82879202Y-154556752D01*
X82918943Y-154425744D01*
X82929000Y-154323635D01*
X82932362Y-154289500D01*
X82929000Y-154255365D01*
X82929000Y-140323635D01*
X82932362Y-140289500D01*
X86585638Y-140289500D01*
X86589000Y-140323635D01*
X86589001Y-154255355D01*
X86585638Y-154289500D01*
X86599057Y-154425744D01*
X86638798Y-154556752D01*
X86703333Y-154677489D01*
X86790183Y-154783317D01*
X86896011Y-154870167D01*
X87016748Y-154934702D01*
X87147756Y-154974443D01*
X87249865Y-154984500D01*
X87249866Y-154984500D01*
X87284000Y-154987862D01*
X87318135Y-154984500D01*
X101249866Y-154984500D01*
X101284000Y-154987862D01*
X101420244Y-154974443D01*
X101551252Y-154934702D01*
X101671989Y-154870167D01*
X101777817Y-154783317D01*
X101864667Y-154677489D01*
X101929202Y-154556752D01*
X101968943Y-154425744D01*
X101979000Y-154323635D01*
X101982362Y-154289500D01*
X101979000Y-154255365D01*
X101979000Y-140323635D01*
X101982362Y-140289500D01*
X105635638Y-140289500D01*
X105639000Y-140323635D01*
X105639001Y-154255355D01*
X105635638Y-154289500D01*
X105649057Y-154425744D01*
X105688798Y-154556752D01*
X105753333Y-154677489D01*
X105840183Y-154783317D01*
X105946011Y-154870167D01*
X106066748Y-154934702D01*
X106197756Y-154974443D01*
X106299865Y-154984500D01*
X106299866Y-154984500D01*
X106334000Y-154987862D01*
X106368135Y-154984500D01*
X120299866Y-154984500D01*
X120334000Y-154987862D01*
X120470244Y-154974443D01*
X120601252Y-154934702D01*
X120721989Y-154870167D01*
X120827817Y-154783317D01*
X120914667Y-154677489D01*
X120979202Y-154556752D01*
X121018943Y-154425744D01*
X121029000Y-154323635D01*
X121032362Y-154289500D01*
X121029000Y-154255365D01*
X121029000Y-140323635D01*
X121032362Y-140289500D01*
X121018943Y-140153256D01*
X120979202Y-140022248D01*
X120914667Y-139901511D01*
X120827817Y-139795683D01*
X120721989Y-139708833D01*
X120601252Y-139644298D01*
X120470244Y-139604557D01*
X120368135Y-139594500D01*
X120368134Y-139594500D01*
X120334000Y-139591138D01*
X120299865Y-139594500D01*
X106368134Y-139594500D01*
X106334000Y-139591138D01*
X106299865Y-139594500D01*
X106197756Y-139604557D01*
X106066748Y-139644298D01*
X105946011Y-139708833D01*
X105840183Y-139795683D01*
X105753333Y-139901511D01*
X105688798Y-140022248D01*
X105649057Y-140153256D01*
X105635638Y-140289500D01*
X101982362Y-140289500D01*
X101968943Y-140153256D01*
X101929202Y-140022248D01*
X101864667Y-139901511D01*
X101777817Y-139795683D01*
X101671989Y-139708833D01*
X101551252Y-139644298D01*
X101420244Y-139604557D01*
X101318135Y-139594500D01*
X101318134Y-139594500D01*
X101284000Y-139591138D01*
X101249865Y-139594500D01*
X87318134Y-139594500D01*
X87284000Y-139591138D01*
X87249865Y-139594500D01*
X87147756Y-139604557D01*
X87016748Y-139644298D01*
X86896011Y-139708833D01*
X86790183Y-139795683D01*
X86703333Y-139901511D01*
X86638798Y-140022248D01*
X86599057Y-140153256D01*
X86585638Y-140289500D01*
X82932362Y-140289500D01*
X82918943Y-140153256D01*
X82879202Y-140022248D01*
X82814667Y-139901511D01*
X82727817Y-139795683D01*
X82621989Y-139708833D01*
X82501252Y-139644298D01*
X82370244Y-139604557D01*
X82268135Y-139594500D01*
X82268134Y-139594500D01*
X82234000Y-139591138D01*
X82199865Y-139594500D01*
X68268134Y-139594500D01*
X68234000Y-139591138D01*
X68199865Y-139594500D01*
X68097756Y-139604557D01*
X67966748Y-139644298D01*
X67846011Y-139708833D01*
X67740183Y-139795683D01*
X67653333Y-139901511D01*
X67588798Y-140022248D01*
X67549057Y-140153256D01*
X67535638Y-140289500D01*
X63882362Y-140289500D01*
X63868943Y-140153256D01*
X63829202Y-140022248D01*
X63764667Y-139901511D01*
X63677817Y-139795683D01*
X63571989Y-139708833D01*
X63451252Y-139644298D01*
X63320244Y-139604557D01*
X63218135Y-139594500D01*
X63218134Y-139594500D01*
X63184000Y-139591138D01*
X63149865Y-139594500D01*
X49218134Y-139594500D01*
X49184000Y-139591138D01*
X49149865Y-139594500D01*
X49047756Y-139604557D01*
X48916748Y-139644298D01*
X48796011Y-139708833D01*
X48690183Y-139795683D01*
X48603333Y-139901511D01*
X48538798Y-140022248D01*
X48499057Y-140153256D01*
X48485638Y-140289500D01*
X42570000Y-140289500D01*
X42570000Y-121239500D01*
X48485638Y-121239500D01*
X48489000Y-121273635D01*
X48489001Y-135205355D01*
X48485638Y-135239500D01*
X48499057Y-135375744D01*
X48538798Y-135506752D01*
X48603333Y-135627489D01*
X48690183Y-135733317D01*
X48796011Y-135820167D01*
X48916748Y-135884702D01*
X49047756Y-135924443D01*
X49149865Y-135934500D01*
X49149866Y-135934500D01*
X49184000Y-135937862D01*
X49218135Y-135934500D01*
X63149866Y-135934500D01*
X63184000Y-135937862D01*
X63320244Y-135924443D01*
X63451252Y-135884702D01*
X63571989Y-135820167D01*
X63677817Y-135733317D01*
X63764667Y-135627489D01*
X63829202Y-135506752D01*
X63868943Y-135375744D01*
X63879000Y-135273635D01*
X63882362Y-135239500D01*
X63879000Y-135205365D01*
X63879000Y-121273635D01*
X63882362Y-121239500D01*
X67535638Y-121239500D01*
X67539000Y-121273635D01*
X67539001Y-135205355D01*
X67535638Y-135239500D01*
X67549057Y-135375744D01*
X67588798Y-135506752D01*
X67653333Y-135627489D01*
X67740183Y-135733317D01*
X67846011Y-135820167D01*
X67966748Y-135884702D01*
X68097756Y-135924443D01*
X68199865Y-135934500D01*
X68199866Y-135934500D01*
X68234000Y-135937862D01*
X68268135Y-135934500D01*
X82199866Y-135934500D01*
X82234000Y-135937862D01*
X82370244Y-135924443D01*
X82501252Y-135884702D01*
X82621989Y-135820167D01*
X82727817Y-135733317D01*
X82814667Y-135627489D01*
X82879202Y-135506752D01*
X82918943Y-135375744D01*
X82929000Y-135273635D01*
X82932362Y-135239500D01*
X82929000Y-135205365D01*
X82929000Y-121273635D01*
X82932362Y-121239500D01*
X86585638Y-121239500D01*
X86589000Y-121273635D01*
X86589001Y-135205355D01*
X86585638Y-135239500D01*
X86599057Y-135375744D01*
X86638798Y-135506752D01*
X86703333Y-135627489D01*
X86790183Y-135733317D01*
X86896011Y-135820167D01*
X87016748Y-135884702D01*
X87147756Y-135924443D01*
X87249865Y-135934500D01*
X87249866Y-135934500D01*
X87284000Y-135937862D01*
X87318135Y-135934500D01*
X101249866Y-135934500D01*
X101284000Y-135937862D01*
X101420244Y-135924443D01*
X101551252Y-135884702D01*
X101671989Y-135820167D01*
X101777817Y-135733317D01*
X101864667Y-135627489D01*
X101929202Y-135506752D01*
X101968943Y-135375744D01*
X101979000Y-135273635D01*
X101982362Y-135239500D01*
X101979000Y-135205365D01*
X101979000Y-121273635D01*
X101982362Y-121239500D01*
X105635638Y-121239500D01*
X105639000Y-121273635D01*
X105639001Y-135205355D01*
X105635638Y-135239500D01*
X105649057Y-135375744D01*
X105688798Y-135506752D01*
X105753333Y-135627489D01*
X105840183Y-135733317D01*
X105946011Y-135820167D01*
X106066748Y-135884702D01*
X106197756Y-135924443D01*
X106299865Y-135934500D01*
X106299866Y-135934500D01*
X106334000Y-135937862D01*
X106368135Y-135934500D01*
X120299866Y-135934500D01*
X120334000Y-135937862D01*
X120470244Y-135924443D01*
X120601252Y-135884702D01*
X120721989Y-135820167D01*
X120827817Y-135733317D01*
X120914667Y-135627489D01*
X120979202Y-135506752D01*
X121018943Y-135375744D01*
X121029000Y-135273635D01*
X121032362Y-135239500D01*
X121029000Y-135205365D01*
X121029000Y-124206000D01*
X123848444Y-124206000D01*
X123852000Y-124242104D01*
X123852001Y-127468885D01*
X123848444Y-127505000D01*
X123862635Y-127649085D01*
X123904663Y-127787633D01*
X123972913Y-127915320D01*
X124064762Y-128027238D01*
X124176680Y-128119087D01*
X124304367Y-128187337D01*
X124442915Y-128229365D01*
X124550895Y-128240000D01*
X124587000Y-128243556D01*
X124623105Y-128240000D01*
X124831600Y-128240000D01*
X124831601Y-129194185D01*
X124828044Y-129230300D01*
X124842235Y-129374385D01*
X124884263Y-129512933D01*
X124952513Y-129640620D01*
X125044362Y-129752538D01*
X125156280Y-129844387D01*
X125283967Y-129912637D01*
X125422515Y-129954665D01*
X125530495Y-129965300D01*
X125566600Y-129968856D01*
X125602705Y-129965300D01*
X129302000Y-129965300D01*
X129302001Y-130020800D01*
X125372705Y-130020800D01*
X125336600Y-130017244D01*
X125300495Y-130020800D01*
X125192515Y-130031435D01*
X125053967Y-130073463D01*
X124926280Y-130141713D01*
X124814362Y-130233562D01*
X124722513Y-130345480D01*
X124654263Y-130473167D01*
X124612235Y-130611715D01*
X124598044Y-130755800D01*
X124601600Y-130791904D01*
X124601601Y-144719185D01*
X124598044Y-144755300D01*
X124612235Y-144899385D01*
X124654263Y-145037933D01*
X124722513Y-145165620D01*
X124814362Y-145277538D01*
X124926280Y-145369387D01*
X125053967Y-145437637D01*
X125192515Y-145479665D01*
X125300495Y-145490300D01*
X125336600Y-145493856D01*
X125372705Y-145490300D01*
X129302000Y-145490300D01*
X129302001Y-145545800D01*
X125602705Y-145545800D01*
X125566600Y-145542244D01*
X125530495Y-145545800D01*
X125422515Y-145556435D01*
X125283967Y-145598463D01*
X125156280Y-145666713D01*
X125044362Y-145758562D01*
X124952513Y-145870480D01*
X124884263Y-145998167D01*
X124842235Y-146136715D01*
X124828044Y-146280800D01*
X124831600Y-146316904D01*
X124831601Y-147271050D01*
X124623105Y-147271050D01*
X124587000Y-147267494D01*
X124550895Y-147271050D01*
X124442915Y-147281685D01*
X124304367Y-147323713D01*
X124176680Y-147391963D01*
X124064762Y-147483812D01*
X123972913Y-147595730D01*
X123904663Y-147723417D01*
X123862635Y-147861965D01*
X123848444Y-148006050D01*
X123852000Y-148042154D01*
X123852001Y-151268975D01*
X123848444Y-151305090D01*
X123862635Y-151449175D01*
X123904663Y-151587723D01*
X123972913Y-151715410D01*
X124064762Y-151827328D01*
X124176680Y-151919177D01*
X124304367Y-151987427D01*
X124442915Y-152029455D01*
X124550895Y-152040090D01*
X124587000Y-152043646D01*
X124623105Y-152040090D01*
X124831600Y-152040090D01*
X124831601Y-152994265D01*
X124828044Y-153030380D01*
X124842235Y-153174465D01*
X124884263Y-153313013D01*
X124952513Y-153440700D01*
X125044362Y-153552618D01*
X125156280Y-153644467D01*
X125283967Y-153712717D01*
X125422515Y-153754745D01*
X125530495Y-153765380D01*
X125566600Y-153768936D01*
X125602705Y-153765380D01*
X131101899Y-153765380D01*
X131101899Y-153819725D01*
X131098343Y-153855830D01*
X131112534Y-153999915D01*
X131154562Y-154138463D01*
X131222812Y-154266150D01*
X131314661Y-154378068D01*
X131426579Y-154469917D01*
X131554266Y-154538167D01*
X131692814Y-154580195D01*
X131800794Y-154590830D01*
X131836899Y-154594386D01*
X131873004Y-154590830D01*
X134600795Y-154590830D01*
X134636900Y-154594386D01*
X134673005Y-154590830D01*
X134780985Y-154580195D01*
X134919533Y-154538167D01*
X135047220Y-154469917D01*
X135159138Y-154378068D01*
X135250987Y-154266150D01*
X135319237Y-154138463D01*
X135361265Y-153999915D01*
X135375456Y-153855830D01*
X135371900Y-153819725D01*
X135371900Y-153765380D01*
X137830795Y-153765380D01*
X137866900Y-153768936D01*
X137903005Y-153765380D01*
X138010985Y-153754745D01*
X138149533Y-153712717D01*
X138277220Y-153644467D01*
X138389138Y-153552618D01*
X138480987Y-153440700D01*
X138549237Y-153313013D01*
X138591265Y-153174465D01*
X138605456Y-153030380D01*
X138601900Y-152994275D01*
X138601900Y-152040090D01*
X138750195Y-152040090D01*
X138786300Y-152043646D01*
X138822405Y-152040090D01*
X138930385Y-152029455D01*
X139068933Y-151987427D01*
X139196620Y-151919177D01*
X139308538Y-151827328D01*
X139400387Y-151715410D01*
X139468637Y-151587723D01*
X139510665Y-151449175D01*
X139524856Y-151305090D01*
X139521300Y-151268985D01*
X139521300Y-148042154D01*
X139524856Y-148006050D01*
X139510665Y-147861965D01*
X139468637Y-147723417D01*
X139400387Y-147595730D01*
X139308538Y-147483812D01*
X139196620Y-147391963D01*
X139068933Y-147323713D01*
X138930385Y-147281685D01*
X138822405Y-147271050D01*
X138786300Y-147267494D01*
X138750195Y-147271050D01*
X138601900Y-147271050D01*
X138601900Y-146316904D01*
X138605456Y-146280800D01*
X138591265Y-146136715D01*
X138549237Y-145998167D01*
X138480987Y-145870480D01*
X138389138Y-145758562D01*
X138277220Y-145666713D01*
X138149533Y-145598463D01*
X138010985Y-145556435D01*
X137903005Y-145545800D01*
X137866900Y-145542244D01*
X137830795Y-145545800D01*
X135371900Y-145545800D01*
X135371900Y-145490300D01*
X139299795Y-145490300D01*
X139335900Y-145493856D01*
X139372005Y-145490300D01*
X139479985Y-145479665D01*
X139618533Y-145437637D01*
X139746220Y-145369387D01*
X139858138Y-145277538D01*
X139949987Y-145165620D01*
X140018237Y-145037933D01*
X140060265Y-144899385D01*
X140074456Y-144755300D01*
X140070900Y-144719195D01*
X140070900Y-130791904D01*
X140074456Y-130755800D01*
X140060265Y-130611715D01*
X140018237Y-130473167D01*
X139949987Y-130345480D01*
X139858138Y-130233562D01*
X139746220Y-130141713D01*
X139618533Y-130073463D01*
X139479985Y-130031435D01*
X139372005Y-130020800D01*
X139335900Y-130017244D01*
X139299795Y-130020800D01*
X135371900Y-130020800D01*
X135371900Y-129965300D01*
X137830795Y-129965300D01*
X137866900Y-129968856D01*
X137903005Y-129965300D01*
X138010985Y-129954665D01*
X138149533Y-129912637D01*
X138277220Y-129844387D01*
X138389138Y-129752538D01*
X138480987Y-129640620D01*
X138549237Y-129512933D01*
X138591265Y-129374385D01*
X138605456Y-129230300D01*
X138601900Y-129194195D01*
X138601900Y-128240000D01*
X138750195Y-128240000D01*
X138786300Y-128243556D01*
X138822405Y-128240000D01*
X138930385Y-128229365D01*
X139068933Y-128187337D01*
X139196620Y-128119087D01*
X139308538Y-128027238D01*
X139400387Y-127915320D01*
X139468637Y-127787633D01*
X139510665Y-127649085D01*
X139524856Y-127505000D01*
X139521300Y-127468895D01*
X139521300Y-124242104D01*
X139524856Y-124206000D01*
X139510665Y-124061915D01*
X139468637Y-123923367D01*
X139400387Y-123795680D01*
X139308538Y-123683762D01*
X139196620Y-123591913D01*
X139068933Y-123523663D01*
X138930385Y-123481635D01*
X138822405Y-123471000D01*
X138786300Y-123467444D01*
X138750195Y-123471000D01*
X138601900Y-123471000D01*
X138601900Y-122516704D01*
X138605456Y-122480600D01*
X138591265Y-122336515D01*
X138549237Y-122197967D01*
X138480987Y-122070280D01*
X138389138Y-121958362D01*
X138277220Y-121866513D01*
X138149533Y-121798263D01*
X138010985Y-121756235D01*
X137903005Y-121745600D01*
X137866900Y-121742044D01*
X137830795Y-121745600D01*
X135371900Y-121745600D01*
X135371900Y-121691305D01*
X135375456Y-121655200D01*
X135361265Y-121511115D01*
X135319237Y-121372567D01*
X135250987Y-121244880D01*
X135159138Y-121132962D01*
X135047220Y-121041113D01*
X134919533Y-120972863D01*
X134780985Y-120930835D01*
X134673005Y-120920200D01*
X134636900Y-120916644D01*
X134600795Y-120920200D01*
X131873004Y-120920200D01*
X131836899Y-120916644D01*
X131800794Y-120920200D01*
X131692814Y-120930835D01*
X131554266Y-120972863D01*
X131426579Y-121041113D01*
X131314661Y-121132962D01*
X131222812Y-121244880D01*
X131154562Y-121372567D01*
X131112534Y-121511115D01*
X131098343Y-121655200D01*
X131101899Y-121691305D01*
X131101899Y-121745600D01*
X125602705Y-121745600D01*
X125566600Y-121742044D01*
X125530495Y-121745600D01*
X125422515Y-121756235D01*
X125283967Y-121798263D01*
X125156280Y-121866513D01*
X125044362Y-121958362D01*
X124952513Y-122070280D01*
X124884263Y-122197967D01*
X124842235Y-122336515D01*
X124828044Y-122480600D01*
X124831600Y-122516704D01*
X124831601Y-123471000D01*
X124623105Y-123471000D01*
X124587000Y-123467444D01*
X124550895Y-123471000D01*
X124442915Y-123481635D01*
X124304367Y-123523663D01*
X124176680Y-123591913D01*
X124064762Y-123683762D01*
X123972913Y-123795680D01*
X123904663Y-123923367D01*
X123862635Y-124061915D01*
X123848444Y-124206000D01*
X121029000Y-124206000D01*
X121029000Y-121273635D01*
X121032362Y-121239500D01*
X121018943Y-121103256D01*
X120979202Y-120972248D01*
X120914667Y-120851511D01*
X120827817Y-120745683D01*
X120721989Y-120658833D01*
X120601252Y-120594298D01*
X120470244Y-120554557D01*
X120368135Y-120544500D01*
X120368134Y-120544500D01*
X120334000Y-120541138D01*
X120299865Y-120544500D01*
X106368134Y-120544500D01*
X106334000Y-120541138D01*
X106299865Y-120544500D01*
X106197756Y-120554557D01*
X106066748Y-120594298D01*
X105946011Y-120658833D01*
X105840183Y-120745683D01*
X105753333Y-120851511D01*
X105688798Y-120972248D01*
X105649057Y-121103256D01*
X105635638Y-121239500D01*
X101982362Y-121239500D01*
X101968943Y-121103256D01*
X101929202Y-120972248D01*
X101864667Y-120851511D01*
X101777817Y-120745683D01*
X101671989Y-120658833D01*
X101551252Y-120594298D01*
X101420244Y-120554557D01*
X101318135Y-120544500D01*
X101318134Y-120544500D01*
X101284000Y-120541138D01*
X101249865Y-120544500D01*
X87318134Y-120544500D01*
X87284000Y-120541138D01*
X87249865Y-120544500D01*
X87147756Y-120554557D01*
X87016748Y-120594298D01*
X86896011Y-120658833D01*
X86790183Y-120745683D01*
X86703333Y-120851511D01*
X86638798Y-120972248D01*
X86599057Y-121103256D01*
X86585638Y-121239500D01*
X82932362Y-121239500D01*
X82918943Y-121103256D01*
X82879202Y-120972248D01*
X82814667Y-120851511D01*
X82727817Y-120745683D01*
X82621989Y-120658833D01*
X82501252Y-120594298D01*
X82370244Y-120554557D01*
X82268135Y-120544500D01*
X82268134Y-120544500D01*
X82234000Y-120541138D01*
X82199865Y-120544500D01*
X68268134Y-120544500D01*
X68234000Y-120541138D01*
X68199865Y-120544500D01*
X68097756Y-120554557D01*
X67966748Y-120594298D01*
X67846011Y-120658833D01*
X67740183Y-120745683D01*
X67653333Y-120851511D01*
X67588798Y-120972248D01*
X67549057Y-121103256D01*
X67535638Y-121239500D01*
X63882362Y-121239500D01*
X63868943Y-121103256D01*
X63829202Y-120972248D01*
X63764667Y-120851511D01*
X63677817Y-120745683D01*
X63571989Y-120658833D01*
X63451252Y-120594298D01*
X63320244Y-120554557D01*
X63218135Y-120544500D01*
X63218134Y-120544500D01*
X63184000Y-120541138D01*
X63149865Y-120544500D01*
X49218134Y-120544500D01*
X49184000Y-120541138D01*
X49149865Y-120544500D01*
X49047756Y-120554557D01*
X48916748Y-120594298D01*
X48796011Y-120658833D01*
X48690183Y-120745683D01*
X48603333Y-120851511D01*
X48538798Y-120972248D01*
X48499057Y-121103256D01*
X48485638Y-121239500D01*
X42570000Y-121239500D01*
X42570000Y-102189500D01*
X48485638Y-102189500D01*
X48489000Y-102223635D01*
X48489001Y-116155355D01*
X48485638Y-116189500D01*
X48499057Y-116325744D01*
X48538798Y-116456752D01*
X48603333Y-116577489D01*
X48690183Y-116683317D01*
X48796011Y-116770167D01*
X48916748Y-116834702D01*
X49047756Y-116874443D01*
X49149865Y-116884500D01*
X49149866Y-116884500D01*
X49184000Y-116887862D01*
X49218135Y-116884500D01*
X63149866Y-116884500D01*
X63184000Y-116887862D01*
X63320244Y-116874443D01*
X63451252Y-116834702D01*
X63571989Y-116770167D01*
X63677817Y-116683317D01*
X63764667Y-116577489D01*
X63829202Y-116456752D01*
X63868943Y-116325744D01*
X63879000Y-116223635D01*
X63882362Y-116189500D01*
X63879000Y-116155365D01*
X63879000Y-102223635D01*
X63882362Y-102189500D01*
X67535638Y-102189500D01*
X67539000Y-102223635D01*
X67539001Y-116155355D01*
X67535638Y-116189500D01*
X67549057Y-116325744D01*
X67588798Y-116456752D01*
X67653333Y-116577489D01*
X67740183Y-116683317D01*
X67846011Y-116770167D01*
X67966748Y-116834702D01*
X68097756Y-116874443D01*
X68199865Y-116884500D01*
X68199866Y-116884500D01*
X68234000Y-116887862D01*
X68268135Y-116884500D01*
X82199866Y-116884500D01*
X82234000Y-116887862D01*
X82370244Y-116874443D01*
X82501252Y-116834702D01*
X82621989Y-116770167D01*
X82727817Y-116683317D01*
X82814667Y-116577489D01*
X82879202Y-116456752D01*
X82918943Y-116325744D01*
X82929000Y-116223635D01*
X82932362Y-116189500D01*
X82929000Y-116155365D01*
X82929000Y-102223635D01*
X82932362Y-102189500D01*
X86585638Y-102189500D01*
X86589000Y-102223635D01*
X86589001Y-116155355D01*
X86585638Y-116189500D01*
X86599057Y-116325744D01*
X86638798Y-116456752D01*
X86703333Y-116577489D01*
X86790183Y-116683317D01*
X86896011Y-116770167D01*
X87016748Y-116834702D01*
X87147756Y-116874443D01*
X87249865Y-116884500D01*
X87249866Y-116884500D01*
X87284000Y-116887862D01*
X87318135Y-116884500D01*
X101249866Y-116884500D01*
X101284000Y-116887862D01*
X101420244Y-116874443D01*
X101551252Y-116834702D01*
X101671989Y-116770167D01*
X101777817Y-116683317D01*
X101864667Y-116577489D01*
X101929202Y-116456752D01*
X101968943Y-116325744D01*
X101979000Y-116223635D01*
X101982362Y-116189500D01*
X101979000Y-116155365D01*
X101979000Y-102223635D01*
X101982362Y-102189500D01*
X105635638Y-102189500D01*
X105639000Y-102223635D01*
X105639001Y-116155355D01*
X105635638Y-116189500D01*
X105649057Y-116325744D01*
X105688798Y-116456752D01*
X105753333Y-116577489D01*
X105840183Y-116683317D01*
X105946011Y-116770167D01*
X106066748Y-116834702D01*
X106197756Y-116874443D01*
X106299865Y-116884500D01*
X106299866Y-116884500D01*
X106334000Y-116887862D01*
X106368135Y-116884500D01*
X120299866Y-116884500D01*
X120334000Y-116887862D01*
X120470244Y-116874443D01*
X120601252Y-116834702D01*
X120721989Y-116770167D01*
X120827817Y-116683317D01*
X120914667Y-116577489D01*
X120979202Y-116456752D01*
X121018943Y-116325744D01*
X121029000Y-116223635D01*
X121032362Y-116189500D01*
X121029000Y-116155365D01*
X121029000Y-102223635D01*
X121032362Y-102189500D01*
X124685638Y-102189500D01*
X124689000Y-102223635D01*
X124689001Y-116155355D01*
X124685638Y-116189500D01*
X124699057Y-116325744D01*
X124738798Y-116456752D01*
X124803333Y-116577489D01*
X124890183Y-116683317D01*
X124996011Y-116770167D01*
X125116748Y-116834702D01*
X125247756Y-116874443D01*
X125349865Y-116884500D01*
X125349866Y-116884500D01*
X125384000Y-116887862D01*
X125418135Y-116884500D01*
X139349866Y-116884500D01*
X139384000Y-116887862D01*
X139520244Y-116874443D01*
X139651252Y-116834702D01*
X139771989Y-116770167D01*
X139877817Y-116683317D01*
X139964667Y-116577489D01*
X140029202Y-116456752D01*
X140068943Y-116325744D01*
X140079000Y-116223635D01*
X140082362Y-116189500D01*
X140079000Y-116155365D01*
X140079000Y-102223635D01*
X140082362Y-102189500D01*
X140068943Y-102053256D01*
X140029202Y-101922248D01*
X139964667Y-101801511D01*
X139877817Y-101695683D01*
X139771989Y-101608833D01*
X139651252Y-101544298D01*
X139520244Y-101504557D01*
X139418135Y-101494500D01*
X139418134Y-101494500D01*
X139384000Y-101491138D01*
X139349865Y-101494500D01*
X125418134Y-101494500D01*
X125384000Y-101491138D01*
X125349865Y-101494500D01*
X125247756Y-101504557D01*
X125116748Y-101544298D01*
X124996011Y-101608833D01*
X124890183Y-101695683D01*
X124803333Y-101801511D01*
X124738798Y-101922248D01*
X124699057Y-102053256D01*
X124685638Y-102189500D01*
X121032362Y-102189500D01*
X121018943Y-102053256D01*
X120979202Y-101922248D01*
X120914667Y-101801511D01*
X120827817Y-101695683D01*
X120721989Y-101608833D01*
X120601252Y-101544298D01*
X120470244Y-101504557D01*
X120368135Y-101494500D01*
X120368134Y-101494500D01*
X120334000Y-101491138D01*
X120299865Y-101494500D01*
X106368134Y-101494500D01*
X106334000Y-101491138D01*
X106299865Y-101494500D01*
X106197756Y-101504557D01*
X106066748Y-101544298D01*
X105946011Y-101608833D01*
X105840183Y-101695683D01*
X105753333Y-101801511D01*
X105688798Y-101922248D01*
X105649057Y-102053256D01*
X105635638Y-102189500D01*
X101982362Y-102189500D01*
X101968943Y-102053256D01*
X101929202Y-101922248D01*
X101864667Y-101801511D01*
X101777817Y-101695683D01*
X101671989Y-101608833D01*
X101551252Y-101544298D01*
X101420244Y-101504557D01*
X101318135Y-101494500D01*
X101318134Y-101494500D01*
X101284000Y-101491138D01*
X101249865Y-101494500D01*
X87318134Y-101494500D01*
X87284000Y-101491138D01*
X87249865Y-101494500D01*
X87147756Y-101504557D01*
X87016748Y-101544298D01*
X86896011Y-101608833D01*
X86790183Y-101695683D01*
X86703333Y-101801511D01*
X86638798Y-101922248D01*
X86599057Y-102053256D01*
X86585638Y-102189500D01*
X82932362Y-102189500D01*
X82918943Y-102053256D01*
X82879202Y-101922248D01*
X82814667Y-101801511D01*
X82727817Y-101695683D01*
X82621989Y-101608833D01*
X82501252Y-101544298D01*
X82370244Y-101504557D01*
X82268135Y-101494500D01*
X82268134Y-101494500D01*
X82234000Y-101491138D01*
X82199865Y-101494500D01*
X68268134Y-101494500D01*
X68234000Y-101491138D01*
X68199865Y-101494500D01*
X68097756Y-101504557D01*
X67966748Y-101544298D01*
X67846011Y-101608833D01*
X67740183Y-101695683D01*
X67653333Y-101801511D01*
X67588798Y-101922248D01*
X67549057Y-102053256D01*
X67535638Y-102189500D01*
X63882362Y-102189500D01*
X63868943Y-102053256D01*
X63829202Y-101922248D01*
X63764667Y-101801511D01*
X63677817Y-101695683D01*
X63571989Y-101608833D01*
X63451252Y-101544298D01*
X63320244Y-101504557D01*
X63218135Y-101494500D01*
X63218134Y-101494500D01*
X63184000Y-101491138D01*
X63149865Y-101494500D01*
X49218134Y-101494500D01*
X49184000Y-101491138D01*
X49149865Y-101494500D01*
X49047756Y-101504557D01*
X48916748Y-101544298D01*
X48796011Y-101608833D01*
X48690183Y-101695683D01*
X48603333Y-101801511D01*
X48538798Y-101922248D01*
X48499057Y-102053256D01*
X48485638Y-102189500D01*
X42570000Y-102189500D01*
X42570000Y-98078134D01*
X49597000Y-98078134D01*
X49600379Y-98112441D01*
X49600379Y-98120684D01*
X49601393Y-98130335D01*
X49615207Y-98253492D01*
X49628308Y-98315127D01*
X49640540Y-98376902D01*
X49643409Y-98386172D01*
X49680882Y-98504301D01*
X49705707Y-98562222D01*
X49729701Y-98620436D01*
X49734314Y-98628968D01*
X49734316Y-98628973D01*
X49734319Y-98628977D01*
X49794020Y-98737573D01*
X49829596Y-98789531D01*
X49864467Y-98842015D01*
X49870647Y-98849485D01*
X49870652Y-98849492D01*
X49870658Y-98849497D01*
X49950314Y-98944428D01*
X49995272Y-98988454D01*
X50039703Y-99033196D01*
X50047223Y-99039329D01*
X50143807Y-99116984D01*
X50196501Y-99151466D01*
X50248737Y-99186700D01*
X50257305Y-99191256D01*
X50367133Y-99248673D01*
X50425548Y-99272274D01*
X50483611Y-99296681D01*
X50492891Y-99299483D01*
X50492896Y-99299485D01*
X50492901Y-99299486D01*
X50611789Y-99334476D01*
X50673653Y-99346277D01*
X50735360Y-99358944D01*
X50745018Y-99359891D01*
X50745025Y-99359892D01*
X50745029Y-99359892D01*
X50868438Y-99371124D01*
X50931399Y-99370685D01*
X50994427Y-99371124D01*
X51004085Y-99370177D01*
X51127336Y-99357222D01*
X51189047Y-99344554D01*
X51250910Y-99332753D01*
X51260200Y-99329949D01*
X51378588Y-99293302D01*
X51436672Y-99268886D01*
X51495062Y-99245295D01*
X51503621Y-99240744D01*
X51503630Y-99240740D01*
X51503637Y-99240735D01*
X51612645Y-99181795D01*
X51664864Y-99146573D01*
X51717576Y-99112079D01*
X51725096Y-99105946D01*
X51820586Y-99026950D01*
X51864965Y-98982261D01*
X51909976Y-98938182D01*
X51916162Y-98930705D01*
X51994490Y-98834666D01*
X52026998Y-98785737D01*
X52029596Y-98789531D01*
X52064467Y-98842015D01*
X52070647Y-98849485D01*
X52070652Y-98849492D01*
X52070658Y-98849497D01*
X52150314Y-98944428D01*
X52195272Y-98988454D01*
X52239703Y-99033196D01*
X52247223Y-99039329D01*
X52343807Y-99116984D01*
X52396501Y-99151466D01*
X52448737Y-99186700D01*
X52457305Y-99191256D01*
X52567133Y-99248673D01*
X52625548Y-99272274D01*
X52683611Y-99296681D01*
X52692891Y-99299483D01*
X52692896Y-99299485D01*
X52692901Y-99299486D01*
X52811789Y-99334476D01*
X52873653Y-99346277D01*
X52935360Y-99358944D01*
X52945018Y-99359891D01*
X52945025Y-99359892D01*
X52945029Y-99359892D01*
X53068438Y-99371124D01*
X53131399Y-99370685D01*
X53194427Y-99371124D01*
X53204085Y-99370177D01*
X53327336Y-99357222D01*
X53389047Y-99344554D01*
X53450910Y-99332753D01*
X53460200Y-99329949D01*
X53578588Y-99293302D01*
X53636672Y-99268886D01*
X53695062Y-99245295D01*
X53703621Y-99240744D01*
X53703630Y-99240740D01*
X53703637Y-99240735D01*
X53812645Y-99181795D01*
X53864864Y-99146573D01*
X53917576Y-99112079D01*
X53925096Y-99105946D01*
X54020586Y-99026950D01*
X54064965Y-98982261D01*
X54109976Y-98938182D01*
X54116162Y-98930705D01*
X54194490Y-98834666D01*
X54226998Y-98785737D01*
X54229596Y-98789531D01*
X54264467Y-98842015D01*
X54270647Y-98849485D01*
X54270652Y-98849492D01*
X54270658Y-98849497D01*
X54350314Y-98944428D01*
X54395272Y-98988454D01*
X54439703Y-99033196D01*
X54447223Y-99039329D01*
X54543807Y-99116984D01*
X54596501Y-99151466D01*
X54648737Y-99186700D01*
X54657305Y-99191256D01*
X54767133Y-99248673D01*
X54825548Y-99272274D01*
X54883611Y-99296681D01*
X54892891Y-99299483D01*
X54892896Y-99299485D01*
X54892901Y-99299486D01*
X55011789Y-99334476D01*
X55073653Y-99346277D01*
X55135360Y-99358944D01*
X55145018Y-99359891D01*
X55145025Y-99359892D01*
X55145029Y-99359892D01*
X55268438Y-99371124D01*
X55331399Y-99370685D01*
X55394427Y-99371124D01*
X55404085Y-99370177D01*
X55527336Y-99357222D01*
X55589047Y-99344554D01*
X55650910Y-99332753D01*
X55660200Y-99329949D01*
X55778588Y-99293302D01*
X55836672Y-99268886D01*
X55895062Y-99245295D01*
X55903621Y-99240744D01*
X55903630Y-99240740D01*
X55903637Y-99240735D01*
X56012645Y-99181795D01*
X56064864Y-99146573D01*
X56117576Y-99112079D01*
X56125096Y-99105946D01*
X56220586Y-99026950D01*
X56264965Y-98982261D01*
X56309976Y-98938182D01*
X56316162Y-98930705D01*
X56394490Y-98834666D01*
X56426998Y-98785737D01*
X56429596Y-98789531D01*
X56464467Y-98842015D01*
X56470647Y-98849485D01*
X56470652Y-98849492D01*
X56470658Y-98849497D01*
X56550314Y-98944428D01*
X56595272Y-98988454D01*
X56639703Y-99033196D01*
X56647223Y-99039329D01*
X56743807Y-99116984D01*
X56796501Y-99151466D01*
X56848737Y-99186700D01*
X56857305Y-99191256D01*
X56967133Y-99248673D01*
X57025548Y-99272274D01*
X57083611Y-99296681D01*
X57092891Y-99299483D01*
X57092896Y-99299485D01*
X57092901Y-99299486D01*
X57211789Y-99334476D01*
X57273653Y-99346277D01*
X57335360Y-99358944D01*
X57345018Y-99359891D01*
X57345025Y-99359892D01*
X57345029Y-99359892D01*
X57468438Y-99371124D01*
X57531399Y-99370685D01*
X57594427Y-99371124D01*
X57604085Y-99370177D01*
X57727336Y-99357222D01*
X57789047Y-99344554D01*
X57850910Y-99332753D01*
X57860200Y-99329949D01*
X57978588Y-99293302D01*
X58036672Y-99268886D01*
X58095062Y-99245295D01*
X58103621Y-99240744D01*
X58103630Y-99240740D01*
X58103637Y-99240735D01*
X58212645Y-99181795D01*
X58264864Y-99146573D01*
X58317576Y-99112079D01*
X58325096Y-99105946D01*
X58420586Y-99026950D01*
X58464965Y-98982261D01*
X58509976Y-98938182D01*
X58516162Y-98930705D01*
X58594490Y-98834666D01*
X58626998Y-98785737D01*
X58629596Y-98789531D01*
X58664467Y-98842015D01*
X58670647Y-98849485D01*
X58670652Y-98849492D01*
X58670658Y-98849497D01*
X58750314Y-98944428D01*
X58795272Y-98988454D01*
X58839703Y-99033196D01*
X58847223Y-99039329D01*
X58943807Y-99116984D01*
X58996501Y-99151466D01*
X59048737Y-99186700D01*
X59057305Y-99191256D01*
X59167133Y-99248673D01*
X59225548Y-99272274D01*
X59283611Y-99296681D01*
X59292891Y-99299483D01*
X59292896Y-99299485D01*
X59292901Y-99299486D01*
X59411789Y-99334476D01*
X59473653Y-99346277D01*
X59535360Y-99358944D01*
X59545018Y-99359891D01*
X59545025Y-99359892D01*
X59545029Y-99359892D01*
X59668438Y-99371124D01*
X59731399Y-99370685D01*
X59794427Y-99371124D01*
X59804085Y-99370177D01*
X59927336Y-99357222D01*
X59989047Y-99344554D01*
X60050910Y-99332753D01*
X60060200Y-99329949D01*
X60178588Y-99293302D01*
X60236672Y-99268886D01*
X60295062Y-99245295D01*
X60303621Y-99240744D01*
X60303630Y-99240740D01*
X60303637Y-99240735D01*
X60412645Y-99181795D01*
X60464864Y-99146573D01*
X60517576Y-99112079D01*
X60525096Y-99105946D01*
X60620586Y-99026950D01*
X60664965Y-98982261D01*
X60709976Y-98938182D01*
X60716162Y-98930705D01*
X60794490Y-98834666D01*
X60826998Y-98785737D01*
X60829596Y-98789531D01*
X60864467Y-98842015D01*
X60870647Y-98849485D01*
X60870652Y-98849492D01*
X60870658Y-98849497D01*
X60950314Y-98944428D01*
X60995272Y-98988454D01*
X61039703Y-99033196D01*
X61047223Y-99039329D01*
X61143807Y-99116984D01*
X61196501Y-99151466D01*
X61248737Y-99186700D01*
X61257305Y-99191256D01*
X61367133Y-99248673D01*
X61425548Y-99272274D01*
X61483611Y-99296681D01*
X61492891Y-99299483D01*
X61492896Y-99299485D01*
X61492901Y-99299486D01*
X61611789Y-99334476D01*
X61673653Y-99346277D01*
X61735360Y-99358944D01*
X61745018Y-99359891D01*
X61745025Y-99359892D01*
X61745029Y-99359892D01*
X61868438Y-99371124D01*
X61931399Y-99370685D01*
X61994427Y-99371124D01*
X62004085Y-99370177D01*
X62127336Y-99357222D01*
X62189047Y-99344554D01*
X62250910Y-99332753D01*
X62260200Y-99329949D01*
X62378588Y-99293302D01*
X62436672Y-99268886D01*
X62495062Y-99245295D01*
X62503621Y-99240744D01*
X62503630Y-99240740D01*
X62503637Y-99240735D01*
X62612645Y-99181795D01*
X62664864Y-99146573D01*
X62717576Y-99112079D01*
X62725096Y-99105946D01*
X62820586Y-99026950D01*
X62864965Y-98982261D01*
X62909976Y-98938182D01*
X62916162Y-98930705D01*
X62994490Y-98834666D01*
X63029345Y-98782205D01*
X63064937Y-98730224D01*
X63069553Y-98721688D01*
X63127735Y-98612264D01*
X63151745Y-98554012D01*
X63176554Y-98496128D01*
X63179424Y-98486858D01*
X63215244Y-98368217D01*
X63227477Y-98306437D01*
X63240576Y-98244807D01*
X63241589Y-98235165D01*
X63241590Y-98235160D01*
X63241590Y-98235156D01*
X63253683Y-98111818D01*
X63253683Y-98111813D01*
X63257000Y-98078135D01*
X63257000Y-83139500D01*
X67535638Y-83139500D01*
X67539000Y-83173635D01*
X67539001Y-97105355D01*
X67535638Y-97139500D01*
X67549057Y-97275744D01*
X67588798Y-97406752D01*
X67653333Y-97527489D01*
X67740183Y-97633317D01*
X67846011Y-97720167D01*
X67966748Y-97784702D01*
X68097756Y-97824443D01*
X68199865Y-97834500D01*
X68199866Y-97834500D01*
X68234000Y-97837862D01*
X68268135Y-97834500D01*
X82199866Y-97834500D01*
X82234000Y-97837862D01*
X82274674Y-97833856D01*
X82370244Y-97824443D01*
X82501252Y-97784702D01*
X82621989Y-97720167D01*
X82727817Y-97633317D01*
X82814667Y-97527489D01*
X82879202Y-97406752D01*
X82918943Y-97275744D01*
X82932362Y-97139500D01*
X82929000Y-97105365D01*
X82929000Y-83173635D01*
X82932362Y-83139500D01*
X86585638Y-83139500D01*
X86589000Y-83173635D01*
X86589001Y-97105355D01*
X86585638Y-97139500D01*
X86599057Y-97275744D01*
X86638798Y-97406752D01*
X86703333Y-97527489D01*
X86790183Y-97633317D01*
X86896011Y-97720167D01*
X87016748Y-97784702D01*
X87147756Y-97824443D01*
X87249865Y-97834500D01*
X87249866Y-97834500D01*
X87284000Y-97837862D01*
X87318135Y-97834500D01*
X101249866Y-97834500D01*
X101284000Y-97837862D01*
X101324674Y-97833856D01*
X101420244Y-97824443D01*
X101551252Y-97784702D01*
X101671989Y-97720167D01*
X101777817Y-97633317D01*
X101864667Y-97527489D01*
X101929202Y-97406752D01*
X101968943Y-97275744D01*
X101982362Y-97139500D01*
X101979000Y-97105365D01*
X101979000Y-83173635D01*
X101982362Y-83139500D01*
X105635638Y-83139500D01*
X105639000Y-83173635D01*
X105639001Y-97105355D01*
X105635638Y-97139500D01*
X105649057Y-97275744D01*
X105688798Y-97406752D01*
X105753333Y-97527489D01*
X105840183Y-97633317D01*
X105946011Y-97720167D01*
X106066748Y-97784702D01*
X106197756Y-97824443D01*
X106299865Y-97834500D01*
X106299866Y-97834500D01*
X106334000Y-97837862D01*
X106368135Y-97834500D01*
X120299866Y-97834500D01*
X120334000Y-97837862D01*
X120374674Y-97833856D01*
X120470244Y-97824443D01*
X120601252Y-97784702D01*
X120721989Y-97720167D01*
X120827817Y-97633317D01*
X120914667Y-97527489D01*
X120979202Y-97406752D01*
X121018943Y-97275744D01*
X121032362Y-97139500D01*
X121029000Y-97105365D01*
X121029000Y-83173635D01*
X121032362Y-83139500D01*
X124685638Y-83139500D01*
X124689000Y-83173635D01*
X124689001Y-97105355D01*
X124685638Y-97139500D01*
X124699057Y-97275744D01*
X124738798Y-97406752D01*
X124803333Y-97527489D01*
X124890183Y-97633317D01*
X124996011Y-97720167D01*
X125116748Y-97784702D01*
X125247756Y-97824443D01*
X125349865Y-97834500D01*
X125349866Y-97834500D01*
X125384000Y-97837862D01*
X125418135Y-97834500D01*
X139349866Y-97834500D01*
X139384000Y-97837862D01*
X139424674Y-97833856D01*
X139520244Y-97824443D01*
X139651252Y-97784702D01*
X139771989Y-97720167D01*
X139877817Y-97633317D01*
X139964667Y-97527489D01*
X140029202Y-97406752D01*
X140068943Y-97275744D01*
X140082362Y-97139500D01*
X140079000Y-97105365D01*
X140079000Y-83173635D01*
X140082362Y-83139500D01*
X140068943Y-83003256D01*
X140029202Y-82872248D01*
X139964667Y-82751511D01*
X139877817Y-82645683D01*
X139771989Y-82558833D01*
X139651252Y-82494298D01*
X139520244Y-82454557D01*
X139418135Y-82444500D01*
X139418134Y-82444500D01*
X139384000Y-82441138D01*
X139349865Y-82444500D01*
X125418134Y-82444500D01*
X125384000Y-82441138D01*
X125349865Y-82444500D01*
X125247756Y-82454557D01*
X125116748Y-82494298D01*
X124996011Y-82558833D01*
X124890183Y-82645683D01*
X124803333Y-82751511D01*
X124738798Y-82872248D01*
X124699057Y-83003256D01*
X124685638Y-83139500D01*
X121032362Y-83139500D01*
X121018943Y-83003256D01*
X120979202Y-82872248D01*
X120914667Y-82751511D01*
X120827817Y-82645683D01*
X120721989Y-82558833D01*
X120601252Y-82494298D01*
X120470244Y-82454557D01*
X120368135Y-82444500D01*
X120368134Y-82444500D01*
X120334000Y-82441138D01*
X120299865Y-82444500D01*
X106368134Y-82444500D01*
X106334000Y-82441138D01*
X106299865Y-82444500D01*
X106197756Y-82454557D01*
X106066748Y-82494298D01*
X105946011Y-82558833D01*
X105840183Y-82645683D01*
X105753333Y-82751511D01*
X105688798Y-82872248D01*
X105649057Y-83003256D01*
X105635638Y-83139500D01*
X101982362Y-83139500D01*
X101968943Y-83003256D01*
X101929202Y-82872248D01*
X101864667Y-82751511D01*
X101777817Y-82645683D01*
X101671989Y-82558833D01*
X101551252Y-82494298D01*
X101420244Y-82454557D01*
X101318135Y-82444500D01*
X101318134Y-82444500D01*
X101284000Y-82441138D01*
X101249865Y-82444500D01*
X87318134Y-82444500D01*
X87284000Y-82441138D01*
X87249865Y-82444500D01*
X87147756Y-82454557D01*
X87016748Y-82494298D01*
X86896011Y-82558833D01*
X86790183Y-82645683D01*
X86703333Y-82751511D01*
X86638798Y-82872248D01*
X86599057Y-83003256D01*
X86585638Y-83139500D01*
X82932362Y-83139500D01*
X82918943Y-83003256D01*
X82879202Y-82872248D01*
X82814667Y-82751511D01*
X82727817Y-82645683D01*
X82621989Y-82558833D01*
X82501252Y-82494298D01*
X82370244Y-82454557D01*
X82268135Y-82444500D01*
X82268134Y-82444500D01*
X82234000Y-82441138D01*
X82199865Y-82444500D01*
X68268134Y-82444500D01*
X68234000Y-82441138D01*
X68199865Y-82444500D01*
X68097756Y-82454557D01*
X67966748Y-82494298D01*
X67846011Y-82558833D01*
X67740183Y-82645683D01*
X67653333Y-82751511D01*
X67588798Y-82872248D01*
X67549057Y-83003256D01*
X67535638Y-83139500D01*
X63257000Y-83139500D01*
X63257000Y-71784365D01*
X63253621Y-71750058D01*
X63253621Y-71741816D01*
X63252607Y-71732165D01*
X63238793Y-71609007D01*
X63225692Y-71547371D01*
X63213460Y-71485598D01*
X63210591Y-71476327D01*
X63173118Y-71358199D01*
X63148298Y-71300290D01*
X63124299Y-71242064D01*
X63119684Y-71233527D01*
X63059980Y-71124927D01*
X63024388Y-71072946D01*
X62989533Y-71020485D01*
X62983353Y-71013015D01*
X62983348Y-71013008D01*
X62983342Y-71013003D01*
X62903686Y-70918072D01*
X62858675Y-70873994D01*
X62814297Y-70829305D01*
X62806777Y-70823171D01*
X62710194Y-70745516D01*
X62657482Y-70711022D01*
X62605263Y-70675800D01*
X62596695Y-70671244D01*
X62486867Y-70613827D01*
X62428452Y-70590226D01*
X62370389Y-70565819D01*
X62361109Y-70563017D01*
X62361104Y-70563015D01*
X62361099Y-70563014D01*
X62242211Y-70528024D01*
X62180339Y-70516222D01*
X62118639Y-70503556D01*
X62108982Y-70502609D01*
X62108975Y-70502608D01*
X62108971Y-70502608D01*
X61985562Y-70491376D01*
X61922601Y-70491815D01*
X61859573Y-70491376D01*
X61849915Y-70492323D01*
X61726664Y-70505278D01*
X61664966Y-70517943D01*
X61603090Y-70529747D01*
X61593800Y-70532551D01*
X61475412Y-70569198D01*
X61417356Y-70593602D01*
X61358938Y-70617205D01*
X61350370Y-70621761D01*
X61241355Y-70680705D01*
X61189136Y-70715927D01*
X61136424Y-70750421D01*
X61128904Y-70756554D01*
X61033414Y-70835550D01*
X60989018Y-70880256D01*
X60944024Y-70924318D01*
X60937838Y-70931795D01*
X60859510Y-71027834D01*
X60827001Y-71076763D01*
X60824388Y-71072946D01*
X60789533Y-71020485D01*
X60783353Y-71013015D01*
X60783348Y-71013008D01*
X60783342Y-71013003D01*
X60703686Y-70918072D01*
X60658675Y-70873994D01*
X60614297Y-70829305D01*
X60606777Y-70823171D01*
X60510194Y-70745516D01*
X60457482Y-70711022D01*
X60405263Y-70675800D01*
X60396695Y-70671244D01*
X60286867Y-70613827D01*
X60228452Y-70590226D01*
X60170389Y-70565819D01*
X60161109Y-70563017D01*
X60161104Y-70563015D01*
X60161099Y-70563014D01*
X60042211Y-70528024D01*
X59980339Y-70516222D01*
X59918639Y-70503556D01*
X59908982Y-70502609D01*
X59908975Y-70502608D01*
X59908971Y-70502608D01*
X59785562Y-70491376D01*
X59722601Y-70491815D01*
X59659573Y-70491376D01*
X59649915Y-70492323D01*
X59526664Y-70505278D01*
X59464966Y-70517943D01*
X59403090Y-70529747D01*
X59393800Y-70532551D01*
X59275412Y-70569198D01*
X59217356Y-70593602D01*
X59158938Y-70617205D01*
X59150370Y-70621761D01*
X59041355Y-70680705D01*
X58989136Y-70715927D01*
X58936424Y-70750421D01*
X58928904Y-70756554D01*
X58833414Y-70835550D01*
X58789018Y-70880256D01*
X58744024Y-70924318D01*
X58737838Y-70931795D01*
X58659510Y-71027834D01*
X58627001Y-71076763D01*
X58624388Y-71072946D01*
X58589533Y-71020485D01*
X58583353Y-71013015D01*
X58583348Y-71013008D01*
X58583342Y-71013003D01*
X58503686Y-70918072D01*
X58458675Y-70873994D01*
X58414297Y-70829305D01*
X58406777Y-70823171D01*
X58310194Y-70745516D01*
X58257482Y-70711022D01*
X58205263Y-70675800D01*
X58196695Y-70671244D01*
X58086867Y-70613827D01*
X58028452Y-70590226D01*
X57970389Y-70565819D01*
X57961109Y-70563017D01*
X57961104Y-70563015D01*
X57961099Y-70563014D01*
X57842211Y-70528024D01*
X57780339Y-70516222D01*
X57718639Y-70503556D01*
X57708982Y-70502609D01*
X57708975Y-70502608D01*
X57708971Y-70502608D01*
X57585562Y-70491376D01*
X57522601Y-70491815D01*
X57459573Y-70491376D01*
X57449915Y-70492323D01*
X57326664Y-70505278D01*
X57264966Y-70517943D01*
X57203090Y-70529747D01*
X57193800Y-70532551D01*
X57075412Y-70569198D01*
X57017356Y-70593602D01*
X56958938Y-70617205D01*
X56950370Y-70621761D01*
X56841355Y-70680705D01*
X56789136Y-70715927D01*
X56736424Y-70750421D01*
X56728904Y-70756554D01*
X56633414Y-70835550D01*
X56589018Y-70880256D01*
X56544024Y-70924318D01*
X56537838Y-70931795D01*
X56459510Y-71027834D01*
X56427001Y-71076763D01*
X56424388Y-71072946D01*
X56389533Y-71020485D01*
X56383353Y-71013015D01*
X56383348Y-71013008D01*
X56383342Y-71013003D01*
X56303686Y-70918072D01*
X56258675Y-70873994D01*
X56214297Y-70829305D01*
X56206777Y-70823171D01*
X56110194Y-70745516D01*
X56057482Y-70711022D01*
X56005263Y-70675800D01*
X55996695Y-70671244D01*
X55886867Y-70613827D01*
X55828452Y-70590226D01*
X55770389Y-70565819D01*
X55761109Y-70563017D01*
X55761104Y-70563015D01*
X55761099Y-70563014D01*
X55642211Y-70528024D01*
X55580339Y-70516222D01*
X55518639Y-70503556D01*
X55508982Y-70502609D01*
X55508975Y-70502608D01*
X55508971Y-70502608D01*
X55385562Y-70491376D01*
X55322601Y-70491815D01*
X55259573Y-70491376D01*
X55249915Y-70492323D01*
X55126664Y-70505278D01*
X55064966Y-70517943D01*
X55003090Y-70529747D01*
X54993800Y-70532551D01*
X54875412Y-70569198D01*
X54817356Y-70593602D01*
X54758938Y-70617205D01*
X54750370Y-70621761D01*
X54641355Y-70680705D01*
X54589136Y-70715927D01*
X54536424Y-70750421D01*
X54528904Y-70756554D01*
X54433414Y-70835550D01*
X54389018Y-70880256D01*
X54344024Y-70924318D01*
X54337838Y-70931795D01*
X54259510Y-71027834D01*
X54227001Y-71076763D01*
X54224388Y-71072946D01*
X54189533Y-71020485D01*
X54183353Y-71013015D01*
X54183348Y-71013008D01*
X54183342Y-71013003D01*
X54103686Y-70918072D01*
X54058675Y-70873994D01*
X54014297Y-70829305D01*
X54006777Y-70823171D01*
X53910194Y-70745516D01*
X53857482Y-70711022D01*
X53805263Y-70675800D01*
X53796695Y-70671244D01*
X53686867Y-70613827D01*
X53628452Y-70590226D01*
X53570389Y-70565819D01*
X53561109Y-70563017D01*
X53561104Y-70563015D01*
X53561099Y-70563014D01*
X53442211Y-70528024D01*
X53380339Y-70516222D01*
X53318639Y-70503556D01*
X53308982Y-70502609D01*
X53308975Y-70502608D01*
X53308971Y-70502608D01*
X53185562Y-70491376D01*
X53122601Y-70491815D01*
X53059573Y-70491376D01*
X53049915Y-70492323D01*
X52926664Y-70505278D01*
X52864966Y-70517943D01*
X52803090Y-70529747D01*
X52793800Y-70532551D01*
X52675412Y-70569198D01*
X52617356Y-70593602D01*
X52558938Y-70617205D01*
X52550370Y-70621761D01*
X52441355Y-70680705D01*
X52389136Y-70715927D01*
X52336424Y-70750421D01*
X52328904Y-70756554D01*
X52233414Y-70835550D01*
X52189018Y-70880256D01*
X52144024Y-70924318D01*
X52137838Y-70931795D01*
X52059510Y-71027834D01*
X52027001Y-71076763D01*
X52024388Y-71072946D01*
X51989533Y-71020485D01*
X51983353Y-71013015D01*
X51983348Y-71013008D01*
X51983342Y-71013003D01*
X51903686Y-70918072D01*
X51858675Y-70873994D01*
X51814297Y-70829305D01*
X51806777Y-70823171D01*
X51710194Y-70745516D01*
X51657482Y-70711022D01*
X51605263Y-70675800D01*
X51596695Y-70671244D01*
X51486867Y-70613827D01*
X51428452Y-70590226D01*
X51370389Y-70565819D01*
X51361109Y-70563017D01*
X51361104Y-70563015D01*
X51361099Y-70563014D01*
X51242211Y-70528024D01*
X51180339Y-70516222D01*
X51118639Y-70503556D01*
X51108982Y-70502609D01*
X51108975Y-70502608D01*
X51108971Y-70502608D01*
X50985562Y-70491376D01*
X50922601Y-70491815D01*
X50859573Y-70491376D01*
X50849915Y-70492323D01*
X50726664Y-70505278D01*
X50664966Y-70517943D01*
X50603090Y-70529747D01*
X50593800Y-70532551D01*
X50475412Y-70569198D01*
X50417356Y-70593602D01*
X50358938Y-70617205D01*
X50350370Y-70621761D01*
X50241355Y-70680705D01*
X50189136Y-70715927D01*
X50136424Y-70750421D01*
X50128904Y-70756554D01*
X50033414Y-70835550D01*
X49989018Y-70880256D01*
X49944024Y-70924318D01*
X49937838Y-70931795D01*
X49859510Y-71027834D01*
X49824644Y-71080311D01*
X49789063Y-71132276D01*
X49784453Y-71140802D01*
X49784447Y-71140811D01*
X49784443Y-71140820D01*
X49726265Y-71250236D01*
X49702260Y-71308476D01*
X49677446Y-71366372D01*
X49674576Y-71375642D01*
X49638756Y-71494283D01*
X49626532Y-71556020D01*
X49613424Y-71617693D01*
X49612411Y-71627335D01*
X49612411Y-71627338D01*
X49612410Y-71627344D01*
X49600317Y-71750683D01*
X49600317Y-71750698D01*
X49597001Y-71784365D01*
X49597000Y-98078134D01*
X42570000Y-98078134D01*
X42570000Y-64089500D01*
X67535638Y-64089500D01*
X67539000Y-64123635D01*
X67539001Y-78055355D01*
X67535638Y-78089500D01*
X67549057Y-78225744D01*
X67588798Y-78356752D01*
X67653333Y-78477489D01*
X67740183Y-78583317D01*
X67846011Y-78670167D01*
X67966748Y-78734702D01*
X68097756Y-78774443D01*
X68199865Y-78784500D01*
X68199866Y-78784500D01*
X68234000Y-78787862D01*
X68268135Y-78784500D01*
X82199866Y-78784500D01*
X82234000Y-78787862D01*
X82370244Y-78774443D01*
X82501252Y-78734702D01*
X82621989Y-78670167D01*
X82727817Y-78583317D01*
X82814667Y-78477489D01*
X82879202Y-78356752D01*
X82918943Y-78225744D01*
X82929000Y-78123635D01*
X82932362Y-78089500D01*
X82929000Y-78055365D01*
X82929000Y-64123635D01*
X82932362Y-64089500D01*
X86585638Y-64089500D01*
X86589000Y-64123635D01*
X86589001Y-78055355D01*
X86585638Y-78089500D01*
X86599057Y-78225744D01*
X86638798Y-78356752D01*
X86703333Y-78477489D01*
X86790183Y-78583317D01*
X86896011Y-78670167D01*
X87016748Y-78734702D01*
X87147756Y-78774443D01*
X87249865Y-78784500D01*
X87249866Y-78784500D01*
X87284000Y-78787862D01*
X87318135Y-78784500D01*
X101249866Y-78784500D01*
X101284000Y-78787862D01*
X101420244Y-78774443D01*
X101551252Y-78734702D01*
X101671989Y-78670167D01*
X101777817Y-78583317D01*
X101864667Y-78477489D01*
X101929202Y-78356752D01*
X101968943Y-78225744D01*
X101979000Y-78123635D01*
X101982362Y-78089500D01*
X101979000Y-78055365D01*
X101979000Y-64123635D01*
X101982362Y-64089500D01*
X105635638Y-64089500D01*
X105639000Y-64123635D01*
X105639001Y-78055355D01*
X105635638Y-78089500D01*
X105649057Y-78225744D01*
X105688798Y-78356752D01*
X105753333Y-78477489D01*
X105840183Y-78583317D01*
X105946011Y-78670167D01*
X106066748Y-78734702D01*
X106197756Y-78774443D01*
X106299865Y-78784500D01*
X106299866Y-78784500D01*
X106334000Y-78787862D01*
X106368135Y-78784500D01*
X120299866Y-78784500D01*
X120334000Y-78787862D01*
X120470244Y-78774443D01*
X120601252Y-78734702D01*
X120721989Y-78670167D01*
X120827817Y-78583317D01*
X120914667Y-78477489D01*
X120979202Y-78356752D01*
X121018943Y-78225744D01*
X121029000Y-78123635D01*
X121032362Y-78089500D01*
X121029000Y-78055365D01*
X121029000Y-64123635D01*
X121032362Y-64089500D01*
X124685638Y-64089500D01*
X124689000Y-64123635D01*
X124689001Y-78055355D01*
X124685638Y-78089500D01*
X124699057Y-78225744D01*
X124738798Y-78356752D01*
X124803333Y-78477489D01*
X124890183Y-78583317D01*
X124996011Y-78670167D01*
X125116748Y-78734702D01*
X125247756Y-78774443D01*
X125349865Y-78784500D01*
X125349866Y-78784500D01*
X125384000Y-78787862D01*
X125418135Y-78784500D01*
X139349866Y-78784500D01*
X139384000Y-78787862D01*
X139520244Y-78774443D01*
X139651252Y-78734702D01*
X139771989Y-78670167D01*
X139877817Y-78583317D01*
X139964667Y-78477489D01*
X140029202Y-78356752D01*
X140068943Y-78225744D01*
X140079000Y-78123635D01*
X140082362Y-78089500D01*
X140079000Y-78055365D01*
X140079000Y-64123635D01*
X140082362Y-64089500D01*
X140068943Y-63953256D01*
X140029202Y-63822248D01*
X139964667Y-63701511D01*
X139877817Y-63595683D01*
X139771989Y-63508833D01*
X139651252Y-63444298D01*
X139520244Y-63404557D01*
X139418135Y-63394500D01*
X139418134Y-63394500D01*
X139384000Y-63391138D01*
X139349865Y-63394500D01*
X125418134Y-63394500D01*
X125384000Y-63391138D01*
X125349865Y-63394500D01*
X125247756Y-63404557D01*
X125116748Y-63444298D01*
X124996011Y-63508833D01*
X124890183Y-63595683D01*
X124803333Y-63701511D01*
X124738798Y-63822248D01*
X124699057Y-63953256D01*
X124685638Y-64089500D01*
X121032362Y-64089500D01*
X121018943Y-63953256D01*
X120979202Y-63822248D01*
X120914667Y-63701511D01*
X120827817Y-63595683D01*
X120721989Y-63508833D01*
X120601252Y-63444298D01*
X120470244Y-63404557D01*
X120368135Y-63394500D01*
X120368134Y-63394500D01*
X120334000Y-63391138D01*
X120299865Y-63394500D01*
X106368134Y-63394500D01*
X106334000Y-63391138D01*
X106299865Y-63394500D01*
X106197756Y-63404557D01*
X106066748Y-63444298D01*
X105946011Y-63508833D01*
X105840183Y-63595683D01*
X105753333Y-63701511D01*
X105688798Y-63822248D01*
X105649057Y-63953256D01*
X105635638Y-64089500D01*
X101982362Y-64089500D01*
X101968943Y-63953256D01*
X101929202Y-63822248D01*
X101864667Y-63701511D01*
X101777817Y-63595683D01*
X101671989Y-63508833D01*
X101551252Y-63444298D01*
X101420244Y-63404557D01*
X101318135Y-63394500D01*
X101318134Y-63394500D01*
X101284000Y-63391138D01*
X101249865Y-63394500D01*
X87318134Y-63394500D01*
X87284000Y-63391138D01*
X87249865Y-63394500D01*
X87147756Y-63404557D01*
X87016748Y-63444298D01*
X86896011Y-63508833D01*
X86790183Y-63595683D01*
X86703333Y-63701511D01*
X86638798Y-63822248D01*
X86599057Y-63953256D01*
X86585638Y-64089500D01*
X82932362Y-64089500D01*
X82918943Y-63953256D01*
X82879202Y-63822248D01*
X82814667Y-63701511D01*
X82727817Y-63595683D01*
X82621989Y-63508833D01*
X82501252Y-63444298D01*
X82370244Y-63404557D01*
X82268135Y-63394500D01*
X82268134Y-63394500D01*
X82234000Y-63391138D01*
X82199865Y-63394500D01*
X68268134Y-63394500D01*
X68234000Y-63391138D01*
X68199865Y-63394500D01*
X68097756Y-63404557D01*
X67966748Y-63444298D01*
X67846011Y-63508833D01*
X67740183Y-63595683D01*
X67653333Y-63701511D01*
X67588798Y-63822248D01*
X67549057Y-63953256D01*
X67535638Y-64089500D01*
X42570000Y-64089500D01*
X42570000Y-59137598D01*
X42700000Y-59137598D01*
X42700000Y-59607402D01*
X42791654Y-60068179D01*
X42971440Y-60502221D01*
X43232450Y-60892849D01*
X43564651Y-61225050D01*
X43955279Y-61486060D01*
X44389321Y-61665846D01*
X44850098Y-61757500D01*
X45319902Y-61757500D01*
X45780679Y-61665846D01*
X46214721Y-61486060D01*
X46605349Y-61225050D01*
X46937550Y-60892849D01*
X47198560Y-60502221D01*
X47378346Y-60068179D01*
X47470000Y-59607402D01*
X47470000Y-59137598D01*
X47455260Y-59063490D01*
X66490888Y-59063490D01*
X66491328Y-59126479D01*
X66490888Y-59189468D01*
X66491835Y-59199125D01*
X66515152Y-59420978D01*
X66527820Y-59482692D01*
X66539622Y-59544559D01*
X66542427Y-59553850D01*
X66608392Y-59766947D01*
X66632803Y-59825020D01*
X66656399Y-59883421D01*
X66660955Y-59891990D01*
X66767055Y-60088217D01*
X66802287Y-60140451D01*
X66836770Y-60193146D01*
X66842901Y-60200664D01*
X66842904Y-60200668D01*
X66842908Y-60200672D01*
X66985096Y-60372549D01*
X67029821Y-60416963D01*
X67073864Y-60461938D01*
X67081341Y-60468124D01*
X67254211Y-60609114D01*
X67306682Y-60643976D01*
X67358656Y-60679563D01*
X67367179Y-60684171D01*
X67367188Y-60684177D01*
X67367197Y-60684181D01*
X67564156Y-60788905D01*
X67622364Y-60812897D01*
X67680288Y-60837723D01*
X67689558Y-60840593D01*
X67903111Y-60905069D01*
X67964908Y-60917305D01*
X68026520Y-60930401D01*
X68036165Y-60931414D01*
X68036168Y-60931415D01*
X68036171Y-60931415D01*
X68258181Y-60953183D01*
X68258188Y-60953183D01*
X68291866Y-60956500D01*
X139226135Y-60956498D01*
X139260928Y-60953071D01*
X139275779Y-60953071D01*
X139285430Y-60952057D01*
X139507114Y-60927191D01*
X139568742Y-60914092D01*
X139630519Y-60901859D01*
X139639790Y-60898990D01*
X139852423Y-60831539D01*
X139910340Y-60806716D01*
X139968559Y-60782719D01*
X139977096Y-60778104D01*
X140172577Y-60670637D01*
X140224545Y-60635054D01*
X140277018Y-60600190D01*
X140284490Y-60594008D01*
X140284496Y-60594004D01*
X140284501Y-60593999D01*
X140455380Y-60450614D01*
X140499423Y-60405639D01*
X140544147Y-60361226D01*
X140550280Y-60353706D01*
X140550283Y-60353703D01*
X140550286Y-60353699D01*
X140690061Y-60179855D01*
X140724584Y-60127100D01*
X140759778Y-60074921D01*
X140764335Y-60066353D01*
X140867684Y-59868662D01*
X140891286Y-59810244D01*
X140915689Y-59752191D01*
X140918494Y-59742901D01*
X140981477Y-59528903D01*
X140993280Y-59467033D01*
X141005946Y-59405324D01*
X141006894Y-59395666D01*
X141027112Y-59173509D01*
X141026672Y-59110520D01*
X141027112Y-59047532D01*
X141026165Y-59037874D01*
X141002848Y-58816022D01*
X140990174Y-58754276D01*
X140978378Y-58692439D01*
X140975573Y-58683149D01*
X140909608Y-58470051D01*
X140885203Y-58411994D01*
X140861601Y-58353578D01*
X140857045Y-58345009D01*
X140750945Y-58148782D01*
X140715713Y-58096548D01*
X140681230Y-58043853D01*
X140675097Y-58036333D01*
X140675096Y-58036331D01*
X140675092Y-58036327D01*
X140532904Y-57864451D01*
X140488214Y-57820071D01*
X140444135Y-57775060D01*
X140436658Y-57768874D01*
X140263789Y-57627885D01*
X140211317Y-57593023D01*
X140159344Y-57557436D01*
X140150816Y-57552825D01*
X140150811Y-57552822D01*
X140150806Y-57552820D01*
X139953844Y-57448094D01*
X139895647Y-57424107D01*
X139837712Y-57399276D01*
X139828442Y-57396406D01*
X139614889Y-57331930D01*
X139553063Y-57319688D01*
X139491481Y-57306599D01*
X139481834Y-57305584D01*
X139481830Y-57305584D01*
X139259819Y-57283816D01*
X139259812Y-57283816D01*
X139226134Y-57280499D01*
X68291865Y-57280501D01*
X68257072Y-57283928D01*
X68242220Y-57283928D01*
X68232569Y-57284942D01*
X68010886Y-57309808D01*
X67949252Y-57322909D01*
X67887481Y-57335140D01*
X67878212Y-57338008D01*
X67878206Y-57338010D01*
X67665577Y-57405460D01*
X67607660Y-57430283D01*
X67549441Y-57454280D01*
X67540904Y-57458895D01*
X67345423Y-57566362D01*
X67293471Y-57601935D01*
X67240982Y-57636809D01*
X67233505Y-57642995D01*
X67062620Y-57786385D01*
X67018561Y-57831376D01*
X66973853Y-57875773D01*
X66967720Y-57883293D01*
X66967717Y-57883296D01*
X66967714Y-57883300D01*
X66827940Y-58057143D01*
X66793433Y-58109875D01*
X66758222Y-58162078D01*
X66753673Y-58170633D01*
X66753667Y-58170642D01*
X66753663Y-58170651D01*
X66650316Y-58368336D01*
X66626708Y-58426768D01*
X66602311Y-58484808D01*
X66599506Y-58494098D01*
X66536523Y-58708096D01*
X66524720Y-58769966D01*
X66512054Y-58831675D01*
X66511106Y-58841333D01*
X66490888Y-59063490D01*
X47455260Y-59063490D01*
X47378346Y-58676821D01*
X47198560Y-58242779D01*
X46937550Y-57852151D01*
X46605349Y-57519950D01*
X46214721Y-57258940D01*
X45780679Y-57079154D01*
X45319902Y-56987500D01*
X44850098Y-56987500D01*
X44389321Y-57079154D01*
X43955279Y-57258940D01*
X43564651Y-57519950D01*
X43232450Y-57852151D01*
X42971440Y-58242779D01*
X42791654Y-58676821D01*
X42700000Y-59137598D01*
X42570000Y-59137598D01*
X42570000Y-57499779D01*
X42584722Y-57349631D01*
X42618953Y-57236254D01*
X42674555Y-57131681D01*
X42749407Y-57039904D01*
X42840664Y-56964409D01*
X42944844Y-56908081D01*
X43057976Y-56873060D01*
X43206022Y-56857500D01*
X63151419Y-56857500D01*
X63179865Y-56854698D01*
X63187682Y-56854753D01*
X63196853Y-56853854D01*
X63443357Y-56827946D01*
X63501986Y-56815911D01*
X63560716Y-56804708D01*
X63569532Y-56802046D01*
X63569536Y-56802045D01*
X63569539Y-56802044D01*
X63806314Y-56728749D01*
X63861457Y-56705569D01*
X63916920Y-56683161D01*
X63925054Y-56678835D01*
X63925059Y-56678833D01*
X63925064Y-56678830D01*
X64143086Y-56560947D01*
X64192654Y-56527512D01*
X64242735Y-56494741D01*
X64249876Y-56488916D01*
X64440856Y-56330923D01*
X64482995Y-56288488D01*
X64525745Y-56246625D01*
X64531618Y-56239524D01*
X64688273Y-56047447D01*
X64721374Y-55997625D01*
X64755173Y-55948263D01*
X64759556Y-55940157D01*
X64875919Y-55721309D01*
X64898707Y-55666021D01*
X64922279Y-55611025D01*
X64925003Y-55602222D01*
X64996643Y-55364941D01*
X65008264Y-55306254D01*
X65020700Y-55247748D01*
X65021663Y-55238583D01*
X65045850Y-54991905D01*
X65045850Y-54991902D01*
X65049000Y-54959919D01*
X65049000Y-40279500D01*
X67535638Y-40279500D01*
X67539000Y-40313635D01*
X67539001Y-54245355D01*
X67535638Y-54279500D01*
X67549057Y-54415744D01*
X67588798Y-54546752D01*
X67653333Y-54667489D01*
X67740183Y-54773317D01*
X67846011Y-54860167D01*
X67966748Y-54924702D01*
X68097756Y-54964443D01*
X68199865Y-54974500D01*
X68199866Y-54974500D01*
X68234000Y-54977862D01*
X68268135Y-54974500D01*
X82199866Y-54974500D01*
X82234000Y-54977862D01*
X82370244Y-54964443D01*
X82501252Y-54924702D01*
X82621989Y-54860167D01*
X82727817Y-54773317D01*
X82814667Y-54667489D01*
X82879202Y-54546752D01*
X82918943Y-54415744D01*
X82929000Y-54313635D01*
X82932362Y-54279500D01*
X82929000Y-54245365D01*
X82929000Y-40313635D01*
X82932362Y-40279500D01*
X86585638Y-40279500D01*
X86589000Y-40313635D01*
X86589001Y-54245355D01*
X86585638Y-54279500D01*
X86599057Y-54415744D01*
X86638798Y-54546752D01*
X86703333Y-54667489D01*
X86790183Y-54773317D01*
X86896011Y-54860167D01*
X87016748Y-54924702D01*
X87147756Y-54964443D01*
X87249865Y-54974500D01*
X87249866Y-54974500D01*
X87284000Y-54977862D01*
X87318135Y-54974500D01*
X101249866Y-54974500D01*
X101284000Y-54977862D01*
X101420244Y-54964443D01*
X101551252Y-54924702D01*
X101671989Y-54860167D01*
X101777817Y-54773317D01*
X101864667Y-54667489D01*
X101929202Y-54546752D01*
X101968943Y-54415744D01*
X101979000Y-54313635D01*
X101982362Y-54279500D01*
X101979000Y-54245365D01*
X101979000Y-40313635D01*
X101982362Y-40279500D01*
X105635638Y-40279500D01*
X105639000Y-40313635D01*
X105639001Y-54245355D01*
X105635638Y-54279500D01*
X105649057Y-54415744D01*
X105688798Y-54546752D01*
X105753333Y-54667489D01*
X105840183Y-54773317D01*
X105946011Y-54860167D01*
X106066748Y-54924702D01*
X106197756Y-54964443D01*
X106299865Y-54974500D01*
X106299866Y-54974500D01*
X106334000Y-54977862D01*
X106368135Y-54974500D01*
X120299866Y-54974500D01*
X120334000Y-54977862D01*
X120470244Y-54964443D01*
X120601252Y-54924702D01*
X120721989Y-54860167D01*
X120827817Y-54773317D01*
X120914667Y-54667489D01*
X120979202Y-54546752D01*
X121018943Y-54415744D01*
X121029000Y-54313635D01*
X121032362Y-54279500D01*
X121029000Y-54245365D01*
X121029000Y-40313635D01*
X121032362Y-40279500D01*
X124685638Y-40279500D01*
X124689000Y-40313635D01*
X124689001Y-54245355D01*
X124685638Y-54279500D01*
X124699057Y-54415744D01*
X124738798Y-54546752D01*
X124803333Y-54667489D01*
X124890183Y-54773317D01*
X124996011Y-54860167D01*
X125116748Y-54924702D01*
X125247756Y-54964443D01*
X125349865Y-54974500D01*
X125349866Y-54974500D01*
X125384000Y-54977862D01*
X125418135Y-54974500D01*
X139349866Y-54974500D01*
X139384000Y-54977862D01*
X139520244Y-54964443D01*
X139651252Y-54924702D01*
X139771989Y-54860167D01*
X139877817Y-54773317D01*
X139964667Y-54667489D01*
X140029202Y-54546752D01*
X140068943Y-54415744D01*
X140079000Y-54313635D01*
X140082362Y-54279500D01*
X140079000Y-54245365D01*
X140079000Y-40313635D01*
X140082362Y-40279500D01*
X140068943Y-40143256D01*
X140029202Y-40012248D01*
X139964667Y-39891511D01*
X139877817Y-39785683D01*
X139771989Y-39698833D01*
X139651252Y-39634298D01*
X139520244Y-39594557D01*
X139418135Y-39584500D01*
X139418134Y-39584500D01*
X139384000Y-39581138D01*
X139349865Y-39584500D01*
X125418134Y-39584500D01*
X125384000Y-39581138D01*
X125349865Y-39584500D01*
X125247756Y-39594557D01*
X125116748Y-39634298D01*
X124996011Y-39698833D01*
X124890183Y-39785683D01*
X124803333Y-39891511D01*
X124738798Y-40012248D01*
X124699057Y-40143256D01*
X124685638Y-40279500D01*
X121032362Y-40279500D01*
X121018943Y-40143256D01*
X120979202Y-40012248D01*
X120914667Y-39891511D01*
X120827817Y-39785683D01*
X120721989Y-39698833D01*
X120601252Y-39634298D01*
X120470244Y-39594557D01*
X120368135Y-39584500D01*
X120368134Y-39584500D01*
X120334000Y-39581138D01*
X120299865Y-39584500D01*
X106368134Y-39584500D01*
X106334000Y-39581138D01*
X106299865Y-39584500D01*
X106197756Y-39594557D01*
X106066748Y-39634298D01*
X105946011Y-39698833D01*
X105840183Y-39785683D01*
X105753333Y-39891511D01*
X105688798Y-40012248D01*
X105649057Y-40143256D01*
X105635638Y-40279500D01*
X101982362Y-40279500D01*
X101968943Y-40143256D01*
X101929202Y-40012248D01*
X101864667Y-39891511D01*
X101777817Y-39785683D01*
X101671989Y-39698833D01*
X101551252Y-39634298D01*
X101420244Y-39594557D01*
X101318135Y-39584500D01*
X101318134Y-39584500D01*
X101284000Y-39581138D01*
X101249865Y-39584500D01*
X87318134Y-39584500D01*
X87284000Y-39581138D01*
X87249865Y-39584500D01*
X87147756Y-39594557D01*
X87016748Y-39634298D01*
X86896011Y-39698833D01*
X86790183Y-39785683D01*
X86703333Y-39891511D01*
X86638798Y-40012248D01*
X86599057Y-40143256D01*
X86585638Y-40279500D01*
X82932362Y-40279500D01*
X82918943Y-40143256D01*
X82879202Y-40012248D01*
X82814667Y-39891511D01*
X82727817Y-39785683D01*
X82621989Y-39698833D01*
X82501252Y-39634298D01*
X82370244Y-39594557D01*
X82268135Y-39584500D01*
X82268134Y-39584500D01*
X82234000Y-39581138D01*
X82199865Y-39584500D01*
X68268134Y-39584500D01*
X68234000Y-39581138D01*
X68199865Y-39584500D01*
X68097756Y-39594557D01*
X67966748Y-39634298D01*
X67846011Y-39698833D01*
X67740183Y-39785683D01*
X67653333Y-39891511D01*
X67588798Y-40012248D01*
X67549057Y-40143256D01*
X67535638Y-40279500D01*
X65049000Y-40279500D01*
X65049000Y-35762269D01*
X65196440Y-36118221D01*
X65457450Y-36508849D01*
X65789651Y-36841050D01*
X66180279Y-37102060D01*
X66614321Y-37281846D01*
X67075098Y-37373500D01*
X67544902Y-37373500D01*
X68005679Y-37281846D01*
X68439721Y-37102060D01*
X68830349Y-36841050D01*
X69162550Y-36508849D01*
X69423560Y-36118221D01*
X69603346Y-35684179D01*
X69695000Y-35223402D01*
X69695000Y-35007598D01*
X141633000Y-35007598D01*
X141633000Y-35477402D01*
X141724654Y-35938179D01*
X141904440Y-36372221D01*
X142165450Y-36762849D01*
X142497651Y-37095050D01*
X142888279Y-37356060D01*
X143322321Y-37535846D01*
X143783098Y-37627500D01*
X144252902Y-37627500D01*
X144713679Y-37535846D01*
X145147721Y-37356060D01*
X145538349Y-37095050D01*
X145870550Y-36762849D01*
X146131560Y-36372221D01*
X146311346Y-35938179D01*
X146403000Y-35477402D01*
X146403000Y-35007598D01*
X146311346Y-34546821D01*
X146131560Y-34112779D01*
X145870550Y-33722151D01*
X145538349Y-33389950D01*
X145147721Y-33128940D01*
X144713679Y-32949154D01*
X144252902Y-32857500D01*
X143783098Y-32857500D01*
X143322321Y-32949154D01*
X142888279Y-33128940D01*
X142497651Y-33389950D01*
X142165450Y-33722151D01*
X141904440Y-34112779D01*
X141724654Y-34546821D01*
X141633000Y-35007598D01*
X69695000Y-35007598D01*
X69695000Y-34753598D01*
X69603346Y-34292821D01*
X69423560Y-33858779D01*
X69162550Y-33468151D01*
X68830349Y-33135950D01*
X68439721Y-32874940D01*
X68083769Y-32727500D01*
X145890721Y-32727500D01*
X146040869Y-32742222D01*
%TA.AperFunction,NonConductor*%
D12*
G36*
X146040869Y-32742222D02*
G01*
X146154246Y-32776453D01*
X146258819Y-32832055D01*
X146350596Y-32906907D01*
X146426091Y-32998164D01*
X146482419Y-33102344D01*
X146517440Y-33215476D01*
X146533001Y-33363531D01*
X146533000Y-161702221D01*
X146518278Y-161852369D01*
X146484047Y-161965746D01*
X146428446Y-162070317D01*
X146353594Y-162162095D01*
X146262335Y-162237591D01*
X146158160Y-162293919D01*
X146045024Y-162328940D01*
X145896979Y-162344500D01*
X43212279Y-162344500D01*
X43062131Y-162329778D01*
X42948754Y-162295547D01*
X42844183Y-162239946D01*
X42752405Y-162165094D01*
X42676909Y-162073835D01*
X42620581Y-161969660D01*
X42585560Y-161856524D01*
X42570000Y-161708479D01*
X42570000Y-159721598D01*
X42573000Y-159721598D01*
X42573000Y-160191402D01*
X42664654Y-160652179D01*
X42844440Y-161086221D01*
X43105450Y-161476849D01*
X43437651Y-161809050D01*
X43828279Y-162070060D01*
X44262321Y-162249846D01*
X44723098Y-162341500D01*
X45192902Y-162341500D01*
X45653679Y-162249846D01*
X46087721Y-162070060D01*
X46478349Y-161809050D01*
X46810550Y-161476849D01*
X47071560Y-161086221D01*
X47251346Y-160652179D01*
X47343000Y-160191402D01*
X47343000Y-159721598D01*
X141633000Y-159721598D01*
X141633000Y-160191402D01*
X141724654Y-160652179D01*
X141904440Y-161086221D01*
X142165450Y-161476849D01*
X142497651Y-161809050D01*
X142888279Y-162070060D01*
X143322321Y-162249846D01*
X143783098Y-162341500D01*
X144252902Y-162341500D01*
X144713679Y-162249846D01*
X145147721Y-162070060D01*
X145538349Y-161809050D01*
X145870550Y-161476849D01*
X146131560Y-161086221D01*
X146311346Y-160652179D01*
X146403000Y-160191402D01*
X146403000Y-159721598D01*
X146311346Y-159260821D01*
X146131560Y-158826779D01*
X145870550Y-158436151D01*
X145538349Y-158103950D01*
X145147721Y-157842940D01*
X144713679Y-157663154D01*
X144252902Y-157571500D01*
X143783098Y-157571500D01*
X143322321Y-157663154D01*
X142888279Y-157842940D01*
X142497651Y-158103950D01*
X142165450Y-158436151D01*
X141904440Y-158826779D01*
X141724654Y-159260821D01*
X141633000Y-159721598D01*
X47343000Y-159721598D01*
X47251346Y-159260821D01*
X47071560Y-158826779D01*
X46810550Y-158436151D01*
X46478349Y-158103950D01*
X46087721Y-157842940D01*
X45653679Y-157663154D01*
X45192902Y-157571500D01*
X44723098Y-157571500D01*
X44262321Y-157663154D01*
X43828279Y-157842940D01*
X43437651Y-158103950D01*
X43105450Y-158436151D01*
X42844440Y-158826779D01*
X42664654Y-159260821D01*
X42573000Y-159721598D01*
X42570000Y-159721598D01*
X42570000Y-140289500D01*
X48485638Y-140289500D01*
X48489000Y-140323635D01*
X48489001Y-154255355D01*
X48485638Y-154289500D01*
X48499057Y-154425744D01*
X48538798Y-154556752D01*
X48603333Y-154677489D01*
X48690183Y-154783317D01*
X48796011Y-154870167D01*
X48916748Y-154934702D01*
X49047756Y-154974443D01*
X49149865Y-154984500D01*
X49149866Y-154984500D01*
X49184000Y-154987862D01*
X49218135Y-154984500D01*
X63149866Y-154984500D01*
X63184000Y-154987862D01*
X63320244Y-154974443D01*
X63451252Y-154934702D01*
X63571989Y-154870167D01*
X63677817Y-154783317D01*
X63764667Y-154677489D01*
X63829202Y-154556752D01*
X63868943Y-154425744D01*
X63879000Y-154323635D01*
X63882362Y-154289500D01*
X63879000Y-154255365D01*
X63879000Y-140323635D01*
X63882362Y-140289500D01*
X67535638Y-140289500D01*
X67539000Y-140323635D01*
X67539001Y-154255355D01*
X67535638Y-154289500D01*
X67549057Y-154425744D01*
X67588798Y-154556752D01*
X67653333Y-154677489D01*
X67740183Y-154783317D01*
X67846011Y-154870167D01*
X67966748Y-154934702D01*
X68097756Y-154974443D01*
X68199865Y-154984500D01*
X68199866Y-154984500D01*
X68234000Y-154987862D01*
X68268135Y-154984500D01*
X82199866Y-154984500D01*
X82234000Y-154987862D01*
X82370244Y-154974443D01*
X82501252Y-154934702D01*
X82621989Y-154870167D01*
X82727817Y-154783317D01*
X82814667Y-154677489D01*
X82879202Y-154556752D01*
X82918943Y-154425744D01*
X82929000Y-154323635D01*
X82932362Y-154289500D01*
X82929000Y-154255365D01*
X82929000Y-140323635D01*
X82932362Y-140289500D01*
X86585638Y-140289500D01*
X86589000Y-140323635D01*
X86589001Y-154255355D01*
X86585638Y-154289500D01*
X86599057Y-154425744D01*
X86638798Y-154556752D01*
X86703333Y-154677489D01*
X86790183Y-154783317D01*
X86896011Y-154870167D01*
X87016748Y-154934702D01*
X87147756Y-154974443D01*
X87249865Y-154984500D01*
X87249866Y-154984500D01*
X87284000Y-154987862D01*
X87318135Y-154984500D01*
X101249866Y-154984500D01*
X101284000Y-154987862D01*
X101420244Y-154974443D01*
X101551252Y-154934702D01*
X101671989Y-154870167D01*
X101777817Y-154783317D01*
X101864667Y-154677489D01*
X101929202Y-154556752D01*
X101968943Y-154425744D01*
X101979000Y-154323635D01*
X101982362Y-154289500D01*
X101979000Y-154255365D01*
X101979000Y-140323635D01*
X101982362Y-140289500D01*
X105635638Y-140289500D01*
X105639000Y-140323635D01*
X105639001Y-154255355D01*
X105635638Y-154289500D01*
X105649057Y-154425744D01*
X105688798Y-154556752D01*
X105753333Y-154677489D01*
X105840183Y-154783317D01*
X105946011Y-154870167D01*
X106066748Y-154934702D01*
X106197756Y-154974443D01*
X106299865Y-154984500D01*
X106299866Y-154984500D01*
X106334000Y-154987862D01*
X106368135Y-154984500D01*
X120299866Y-154984500D01*
X120334000Y-154987862D01*
X120470244Y-154974443D01*
X120601252Y-154934702D01*
X120721989Y-154870167D01*
X120827817Y-154783317D01*
X120914667Y-154677489D01*
X120979202Y-154556752D01*
X121018943Y-154425744D01*
X121029000Y-154323635D01*
X121032362Y-154289500D01*
X121029000Y-154255365D01*
X121029000Y-140323635D01*
X121032362Y-140289500D01*
X121018943Y-140153256D01*
X120979202Y-140022248D01*
X120914667Y-139901511D01*
X120827817Y-139795683D01*
X120721989Y-139708833D01*
X120601252Y-139644298D01*
X120470244Y-139604557D01*
X120368135Y-139594500D01*
X120368134Y-139594500D01*
X120334000Y-139591138D01*
X120299865Y-139594500D01*
X106368134Y-139594500D01*
X106334000Y-139591138D01*
X106299865Y-139594500D01*
X106197756Y-139604557D01*
X106066748Y-139644298D01*
X105946011Y-139708833D01*
X105840183Y-139795683D01*
X105753333Y-139901511D01*
X105688798Y-140022248D01*
X105649057Y-140153256D01*
X105635638Y-140289500D01*
X101982362Y-140289500D01*
X101968943Y-140153256D01*
X101929202Y-140022248D01*
X101864667Y-139901511D01*
X101777817Y-139795683D01*
X101671989Y-139708833D01*
X101551252Y-139644298D01*
X101420244Y-139604557D01*
X101318135Y-139594500D01*
X101318134Y-139594500D01*
X101284000Y-139591138D01*
X101249865Y-139594500D01*
X87318134Y-139594500D01*
X87284000Y-139591138D01*
X87249865Y-139594500D01*
X87147756Y-139604557D01*
X87016748Y-139644298D01*
X86896011Y-139708833D01*
X86790183Y-139795683D01*
X86703333Y-139901511D01*
X86638798Y-140022248D01*
X86599057Y-140153256D01*
X86585638Y-140289500D01*
X82932362Y-140289500D01*
X82918943Y-140153256D01*
X82879202Y-140022248D01*
X82814667Y-139901511D01*
X82727817Y-139795683D01*
X82621989Y-139708833D01*
X82501252Y-139644298D01*
X82370244Y-139604557D01*
X82268135Y-139594500D01*
X82268134Y-139594500D01*
X82234000Y-139591138D01*
X82199865Y-139594500D01*
X68268134Y-139594500D01*
X68234000Y-139591138D01*
X68199865Y-139594500D01*
X68097756Y-139604557D01*
X67966748Y-139644298D01*
X67846011Y-139708833D01*
X67740183Y-139795683D01*
X67653333Y-139901511D01*
X67588798Y-140022248D01*
X67549057Y-140153256D01*
X67535638Y-140289500D01*
X63882362Y-140289500D01*
X63868943Y-140153256D01*
X63829202Y-140022248D01*
X63764667Y-139901511D01*
X63677817Y-139795683D01*
X63571989Y-139708833D01*
X63451252Y-139644298D01*
X63320244Y-139604557D01*
X63218135Y-139594500D01*
X63218134Y-139594500D01*
X63184000Y-139591138D01*
X63149865Y-139594500D01*
X49218134Y-139594500D01*
X49184000Y-139591138D01*
X49149865Y-139594500D01*
X49047756Y-139604557D01*
X48916748Y-139644298D01*
X48796011Y-139708833D01*
X48690183Y-139795683D01*
X48603333Y-139901511D01*
X48538798Y-140022248D01*
X48499057Y-140153256D01*
X48485638Y-140289500D01*
X42570000Y-140289500D01*
X42570000Y-121239500D01*
X48485638Y-121239500D01*
X48489000Y-121273635D01*
X48489001Y-135205355D01*
X48485638Y-135239500D01*
X48499057Y-135375744D01*
X48538798Y-135506752D01*
X48603333Y-135627489D01*
X48690183Y-135733317D01*
X48796011Y-135820167D01*
X48916748Y-135884702D01*
X49047756Y-135924443D01*
X49149865Y-135934500D01*
X49149866Y-135934500D01*
X49184000Y-135937862D01*
X49218135Y-135934500D01*
X63149866Y-135934500D01*
X63184000Y-135937862D01*
X63320244Y-135924443D01*
X63451252Y-135884702D01*
X63571989Y-135820167D01*
X63677817Y-135733317D01*
X63764667Y-135627489D01*
X63829202Y-135506752D01*
X63868943Y-135375744D01*
X63879000Y-135273635D01*
X63882362Y-135239500D01*
X63879000Y-135205365D01*
X63879000Y-121273635D01*
X63882362Y-121239500D01*
X67535638Y-121239500D01*
X67539000Y-121273635D01*
X67539001Y-135205355D01*
X67535638Y-135239500D01*
X67549057Y-135375744D01*
X67588798Y-135506752D01*
X67653333Y-135627489D01*
X67740183Y-135733317D01*
X67846011Y-135820167D01*
X67966748Y-135884702D01*
X68097756Y-135924443D01*
X68199865Y-135934500D01*
X68199866Y-135934500D01*
X68234000Y-135937862D01*
X68268135Y-135934500D01*
X82199866Y-135934500D01*
X82234000Y-135937862D01*
X82370244Y-135924443D01*
X82501252Y-135884702D01*
X82621989Y-135820167D01*
X82727817Y-135733317D01*
X82814667Y-135627489D01*
X82879202Y-135506752D01*
X82918943Y-135375744D01*
X82929000Y-135273635D01*
X82932362Y-135239500D01*
X82929000Y-135205365D01*
X82929000Y-121273635D01*
X82932362Y-121239500D01*
X86585638Y-121239500D01*
X86589000Y-121273635D01*
X86589001Y-135205355D01*
X86585638Y-135239500D01*
X86599057Y-135375744D01*
X86638798Y-135506752D01*
X86703333Y-135627489D01*
X86790183Y-135733317D01*
X86896011Y-135820167D01*
X87016748Y-135884702D01*
X87147756Y-135924443D01*
X87249865Y-135934500D01*
X87249866Y-135934500D01*
X87284000Y-135937862D01*
X87318135Y-135934500D01*
X101249866Y-135934500D01*
X101284000Y-135937862D01*
X101420244Y-135924443D01*
X101551252Y-135884702D01*
X101671989Y-135820167D01*
X101777817Y-135733317D01*
X101864667Y-135627489D01*
X101929202Y-135506752D01*
X101968943Y-135375744D01*
X101979000Y-135273635D01*
X101982362Y-135239500D01*
X101979000Y-135205365D01*
X101979000Y-121273635D01*
X101982362Y-121239500D01*
X105635638Y-121239500D01*
X105639000Y-121273635D01*
X105639001Y-135205355D01*
X105635638Y-135239500D01*
X105649057Y-135375744D01*
X105688798Y-135506752D01*
X105753333Y-135627489D01*
X105840183Y-135733317D01*
X105946011Y-135820167D01*
X106066748Y-135884702D01*
X106197756Y-135924443D01*
X106299865Y-135934500D01*
X106299866Y-135934500D01*
X106334000Y-135937862D01*
X106368135Y-135934500D01*
X120299866Y-135934500D01*
X120334000Y-135937862D01*
X120470244Y-135924443D01*
X120601252Y-135884702D01*
X120721989Y-135820167D01*
X120827817Y-135733317D01*
X120914667Y-135627489D01*
X120979202Y-135506752D01*
X121018943Y-135375744D01*
X121029000Y-135273635D01*
X121032362Y-135239500D01*
X121029000Y-135205365D01*
X121029000Y-124206000D01*
X123848444Y-124206000D01*
X123852000Y-124242104D01*
X123852001Y-127468885D01*
X123848444Y-127505000D01*
X123862635Y-127649085D01*
X123904663Y-127787633D01*
X123972913Y-127915320D01*
X124064762Y-128027238D01*
X124176680Y-128119087D01*
X124304367Y-128187337D01*
X124442915Y-128229365D01*
X124550895Y-128240000D01*
X124587000Y-128243556D01*
X124623105Y-128240000D01*
X124831600Y-128240000D01*
X124831601Y-129194185D01*
X124828044Y-129230300D01*
X124842235Y-129374385D01*
X124884263Y-129512933D01*
X124952513Y-129640620D01*
X125044362Y-129752538D01*
X125156280Y-129844387D01*
X125283967Y-129912637D01*
X125422515Y-129954665D01*
X125530495Y-129965300D01*
X125566600Y-129968856D01*
X125602705Y-129965300D01*
X129302000Y-129965300D01*
X129302001Y-130020800D01*
X125372705Y-130020800D01*
X125336600Y-130017244D01*
X125300495Y-130020800D01*
X125192515Y-130031435D01*
X125053967Y-130073463D01*
X124926280Y-130141713D01*
X124814362Y-130233562D01*
X124722513Y-130345480D01*
X124654263Y-130473167D01*
X124612235Y-130611715D01*
X124598044Y-130755800D01*
X124601600Y-130791904D01*
X124601601Y-144719185D01*
X124598044Y-144755300D01*
X124612235Y-144899385D01*
X124654263Y-145037933D01*
X124722513Y-145165620D01*
X124814362Y-145277538D01*
X124926280Y-145369387D01*
X125053967Y-145437637D01*
X125192515Y-145479665D01*
X125300495Y-145490300D01*
X125336600Y-145493856D01*
X125372705Y-145490300D01*
X129302000Y-145490300D01*
X129302001Y-145545800D01*
X125602705Y-145545800D01*
X125566600Y-145542244D01*
X125530495Y-145545800D01*
X125422515Y-145556435D01*
X125283967Y-145598463D01*
X125156280Y-145666713D01*
X125044362Y-145758562D01*
X124952513Y-145870480D01*
X124884263Y-145998167D01*
X124842235Y-146136715D01*
X124828044Y-146280800D01*
X124831600Y-146316904D01*
X124831601Y-147271050D01*
X124623105Y-147271050D01*
X124587000Y-147267494D01*
X124550895Y-147271050D01*
X124442915Y-147281685D01*
X124304367Y-147323713D01*
X124176680Y-147391963D01*
X124064762Y-147483812D01*
X123972913Y-147595730D01*
X123904663Y-147723417D01*
X123862635Y-147861965D01*
X123848444Y-148006050D01*
X123852000Y-148042154D01*
X123852001Y-151268975D01*
X123848444Y-151305090D01*
X123862635Y-151449175D01*
X123904663Y-151587723D01*
X123972913Y-151715410D01*
X124064762Y-151827328D01*
X124176680Y-151919177D01*
X124304367Y-151987427D01*
X124442915Y-152029455D01*
X124550895Y-152040090D01*
X124587000Y-152043646D01*
X124623105Y-152040090D01*
X124831600Y-152040090D01*
X124831601Y-152994265D01*
X124828044Y-153030380D01*
X124842235Y-153174465D01*
X124884263Y-153313013D01*
X124952513Y-153440700D01*
X125044362Y-153552618D01*
X125156280Y-153644467D01*
X125283967Y-153712717D01*
X125422515Y-153754745D01*
X125530495Y-153765380D01*
X125566600Y-153768936D01*
X125602705Y-153765380D01*
X131101899Y-153765380D01*
X131101899Y-153819725D01*
X131098343Y-153855830D01*
X131112534Y-153999915D01*
X131154562Y-154138463D01*
X131222812Y-154266150D01*
X131314661Y-154378068D01*
X131426579Y-154469917D01*
X131554266Y-154538167D01*
X131692814Y-154580195D01*
X131800794Y-154590830D01*
X131836899Y-154594386D01*
X131873004Y-154590830D01*
X134600795Y-154590830D01*
X134636900Y-154594386D01*
X134673005Y-154590830D01*
X134780985Y-154580195D01*
X134919533Y-154538167D01*
X135047220Y-154469917D01*
X135159138Y-154378068D01*
X135250987Y-154266150D01*
X135319237Y-154138463D01*
X135361265Y-153999915D01*
X135375456Y-153855830D01*
X135371900Y-153819725D01*
X135371900Y-153765380D01*
X137830795Y-153765380D01*
X137866900Y-153768936D01*
X137903005Y-153765380D01*
X138010985Y-153754745D01*
X138149533Y-153712717D01*
X138277220Y-153644467D01*
X138389138Y-153552618D01*
X138480987Y-153440700D01*
X138549237Y-153313013D01*
X138591265Y-153174465D01*
X138605456Y-153030380D01*
X138601900Y-152994275D01*
X138601900Y-152040090D01*
X138750195Y-152040090D01*
X138786300Y-152043646D01*
X138822405Y-152040090D01*
X138930385Y-152029455D01*
X139068933Y-151987427D01*
X139196620Y-151919177D01*
X139308538Y-151827328D01*
X139400387Y-151715410D01*
X139468637Y-151587723D01*
X139510665Y-151449175D01*
X139524856Y-151305090D01*
X139521300Y-151268985D01*
X139521300Y-148042154D01*
X139524856Y-148006050D01*
X139510665Y-147861965D01*
X139468637Y-147723417D01*
X139400387Y-147595730D01*
X139308538Y-147483812D01*
X139196620Y-147391963D01*
X139068933Y-147323713D01*
X138930385Y-147281685D01*
X138822405Y-147271050D01*
X138786300Y-147267494D01*
X138750195Y-147271050D01*
X138601900Y-147271050D01*
X138601900Y-146316904D01*
X138605456Y-146280800D01*
X138591265Y-146136715D01*
X138549237Y-145998167D01*
X138480987Y-145870480D01*
X138389138Y-145758562D01*
X138277220Y-145666713D01*
X138149533Y-145598463D01*
X138010985Y-145556435D01*
X137903005Y-145545800D01*
X137866900Y-145542244D01*
X137830795Y-145545800D01*
X135371900Y-145545800D01*
X135371900Y-145490300D01*
X139299795Y-145490300D01*
X139335900Y-145493856D01*
X139372005Y-145490300D01*
X139479985Y-145479665D01*
X139618533Y-145437637D01*
X139746220Y-145369387D01*
X139858138Y-145277538D01*
X139949987Y-145165620D01*
X140018237Y-145037933D01*
X140060265Y-144899385D01*
X140074456Y-144755300D01*
X140070900Y-144719195D01*
X140070900Y-130791904D01*
X140074456Y-130755800D01*
X140060265Y-130611715D01*
X140018237Y-130473167D01*
X139949987Y-130345480D01*
X139858138Y-130233562D01*
X139746220Y-130141713D01*
X139618533Y-130073463D01*
X139479985Y-130031435D01*
X139372005Y-130020800D01*
X139335900Y-130017244D01*
X139299795Y-130020800D01*
X135371900Y-130020800D01*
X135371900Y-129965300D01*
X137830795Y-129965300D01*
X137866900Y-129968856D01*
X137903005Y-129965300D01*
X138010985Y-129954665D01*
X138149533Y-129912637D01*
X138277220Y-129844387D01*
X138389138Y-129752538D01*
X138480987Y-129640620D01*
X138549237Y-129512933D01*
X138591265Y-129374385D01*
X138605456Y-129230300D01*
X138601900Y-129194195D01*
X138601900Y-128240000D01*
X138750195Y-128240000D01*
X138786300Y-128243556D01*
X138822405Y-128240000D01*
X138930385Y-128229365D01*
X139068933Y-128187337D01*
X139196620Y-128119087D01*
X139308538Y-128027238D01*
X139400387Y-127915320D01*
X139468637Y-127787633D01*
X139510665Y-127649085D01*
X139524856Y-127505000D01*
X139521300Y-127468895D01*
X139521300Y-124242104D01*
X139524856Y-124206000D01*
X139510665Y-124061915D01*
X139468637Y-123923367D01*
X139400387Y-123795680D01*
X139308538Y-123683762D01*
X139196620Y-123591913D01*
X139068933Y-123523663D01*
X138930385Y-123481635D01*
X138822405Y-123471000D01*
X138786300Y-123467444D01*
X138750195Y-123471000D01*
X138601900Y-123471000D01*
X138601900Y-122516704D01*
X138605456Y-122480600D01*
X138591265Y-122336515D01*
X138549237Y-122197967D01*
X138480987Y-122070280D01*
X138389138Y-121958362D01*
X138277220Y-121866513D01*
X138149533Y-121798263D01*
X138010985Y-121756235D01*
X137903005Y-121745600D01*
X137866900Y-121742044D01*
X137830795Y-121745600D01*
X135371900Y-121745600D01*
X135371900Y-121691305D01*
X135375456Y-121655200D01*
X135361265Y-121511115D01*
X135319237Y-121372567D01*
X135250987Y-121244880D01*
X135159138Y-121132962D01*
X135047220Y-121041113D01*
X134919533Y-120972863D01*
X134780985Y-120930835D01*
X134673005Y-120920200D01*
X134636900Y-120916644D01*
X134600795Y-120920200D01*
X131873004Y-120920200D01*
X131836899Y-120916644D01*
X131800794Y-120920200D01*
X131692814Y-120930835D01*
X131554266Y-120972863D01*
X131426579Y-121041113D01*
X131314661Y-121132962D01*
X131222812Y-121244880D01*
X131154562Y-121372567D01*
X131112534Y-121511115D01*
X131098343Y-121655200D01*
X131101899Y-121691305D01*
X131101899Y-121745600D01*
X125602705Y-121745600D01*
X125566600Y-121742044D01*
X125530495Y-121745600D01*
X125422515Y-121756235D01*
X125283967Y-121798263D01*
X125156280Y-121866513D01*
X125044362Y-121958362D01*
X124952513Y-122070280D01*
X124884263Y-122197967D01*
X124842235Y-122336515D01*
X124828044Y-122480600D01*
X124831600Y-122516704D01*
X124831601Y-123471000D01*
X124623105Y-123471000D01*
X124587000Y-123467444D01*
X124550895Y-123471000D01*
X124442915Y-123481635D01*
X124304367Y-123523663D01*
X124176680Y-123591913D01*
X124064762Y-123683762D01*
X123972913Y-123795680D01*
X123904663Y-123923367D01*
X123862635Y-124061915D01*
X123848444Y-124206000D01*
X121029000Y-124206000D01*
X121029000Y-121273635D01*
X121032362Y-121239500D01*
X121018943Y-121103256D01*
X120979202Y-120972248D01*
X120914667Y-120851511D01*
X120827817Y-120745683D01*
X120721989Y-120658833D01*
X120601252Y-120594298D01*
X120470244Y-120554557D01*
X120368135Y-120544500D01*
X120368134Y-120544500D01*
X120334000Y-120541138D01*
X120299865Y-120544500D01*
X106368134Y-120544500D01*
X106334000Y-120541138D01*
X106299865Y-120544500D01*
X106197756Y-120554557D01*
X106066748Y-120594298D01*
X105946011Y-120658833D01*
X105840183Y-120745683D01*
X105753333Y-120851511D01*
X105688798Y-120972248D01*
X105649057Y-121103256D01*
X105635638Y-121239500D01*
X101982362Y-121239500D01*
X101968943Y-121103256D01*
X101929202Y-120972248D01*
X101864667Y-120851511D01*
X101777817Y-120745683D01*
X101671989Y-120658833D01*
X101551252Y-120594298D01*
X101420244Y-120554557D01*
X101318135Y-120544500D01*
X101318134Y-120544500D01*
X101284000Y-120541138D01*
X101249865Y-120544500D01*
X87318134Y-120544500D01*
X87284000Y-120541138D01*
X87249865Y-120544500D01*
X87147756Y-120554557D01*
X87016748Y-120594298D01*
X86896011Y-120658833D01*
X86790183Y-120745683D01*
X86703333Y-120851511D01*
X86638798Y-120972248D01*
X86599057Y-121103256D01*
X86585638Y-121239500D01*
X82932362Y-121239500D01*
X82918943Y-121103256D01*
X82879202Y-120972248D01*
X82814667Y-120851511D01*
X82727817Y-120745683D01*
X82621989Y-120658833D01*
X82501252Y-120594298D01*
X82370244Y-120554557D01*
X82268135Y-120544500D01*
X82268134Y-120544500D01*
X82234000Y-120541138D01*
X82199865Y-120544500D01*
X68268134Y-120544500D01*
X68234000Y-120541138D01*
X68199865Y-120544500D01*
X68097756Y-120554557D01*
X67966748Y-120594298D01*
X67846011Y-120658833D01*
X67740183Y-120745683D01*
X67653333Y-120851511D01*
X67588798Y-120972248D01*
X67549057Y-121103256D01*
X67535638Y-121239500D01*
X63882362Y-121239500D01*
X63868943Y-121103256D01*
X63829202Y-120972248D01*
X63764667Y-120851511D01*
X63677817Y-120745683D01*
X63571989Y-120658833D01*
X63451252Y-120594298D01*
X63320244Y-120554557D01*
X63218135Y-120544500D01*
X63218134Y-120544500D01*
X63184000Y-120541138D01*
X63149865Y-120544500D01*
X49218134Y-120544500D01*
X49184000Y-120541138D01*
X49149865Y-120544500D01*
X49047756Y-120554557D01*
X48916748Y-120594298D01*
X48796011Y-120658833D01*
X48690183Y-120745683D01*
X48603333Y-120851511D01*
X48538798Y-120972248D01*
X48499057Y-121103256D01*
X48485638Y-121239500D01*
X42570000Y-121239500D01*
X42570000Y-102189500D01*
X48485638Y-102189500D01*
X48489000Y-102223635D01*
X48489001Y-116155355D01*
X48485638Y-116189500D01*
X48499057Y-116325744D01*
X48538798Y-116456752D01*
X48603333Y-116577489D01*
X48690183Y-116683317D01*
X48796011Y-116770167D01*
X48916748Y-116834702D01*
X49047756Y-116874443D01*
X49149865Y-116884500D01*
X49149866Y-116884500D01*
X49184000Y-116887862D01*
X49218135Y-116884500D01*
X63149866Y-116884500D01*
X63184000Y-116887862D01*
X63320244Y-116874443D01*
X63451252Y-116834702D01*
X63571989Y-116770167D01*
X63677817Y-116683317D01*
X63764667Y-116577489D01*
X63829202Y-116456752D01*
X63868943Y-116325744D01*
X63879000Y-116223635D01*
X63882362Y-116189500D01*
X63879000Y-116155365D01*
X63879000Y-102223635D01*
X63882362Y-102189500D01*
X67535638Y-102189500D01*
X67539000Y-102223635D01*
X67539001Y-116155355D01*
X67535638Y-116189500D01*
X67549057Y-116325744D01*
X67588798Y-116456752D01*
X67653333Y-116577489D01*
X67740183Y-116683317D01*
X67846011Y-116770167D01*
X67966748Y-116834702D01*
X68097756Y-116874443D01*
X68199865Y-116884500D01*
X68199866Y-116884500D01*
X68234000Y-116887862D01*
X68268135Y-116884500D01*
X82199866Y-116884500D01*
X82234000Y-116887862D01*
X82370244Y-116874443D01*
X82501252Y-116834702D01*
X82621989Y-116770167D01*
X82727817Y-116683317D01*
X82814667Y-116577489D01*
X82879202Y-116456752D01*
X82918943Y-116325744D01*
X82929000Y-116223635D01*
X82932362Y-116189500D01*
X82929000Y-116155365D01*
X82929000Y-102223635D01*
X82932362Y-102189500D01*
X86585638Y-102189500D01*
X86589000Y-102223635D01*
X86589001Y-116155355D01*
X86585638Y-116189500D01*
X86599057Y-116325744D01*
X86638798Y-116456752D01*
X86703333Y-116577489D01*
X86790183Y-116683317D01*
X86896011Y-116770167D01*
X87016748Y-116834702D01*
X87147756Y-116874443D01*
X87249865Y-116884500D01*
X87249866Y-116884500D01*
X87284000Y-116887862D01*
X87318135Y-116884500D01*
X101249866Y-116884500D01*
X101284000Y-116887862D01*
X101420244Y-116874443D01*
X101551252Y-116834702D01*
X101671989Y-116770167D01*
X101777817Y-116683317D01*
X101864667Y-116577489D01*
X101929202Y-116456752D01*
X101968943Y-116325744D01*
X101979000Y-116223635D01*
X101982362Y-116189500D01*
X101979000Y-116155365D01*
X101979000Y-102223635D01*
X101982362Y-102189500D01*
X105635638Y-102189500D01*
X105639000Y-102223635D01*
X105639001Y-116155355D01*
X105635638Y-116189500D01*
X105649057Y-116325744D01*
X105688798Y-116456752D01*
X105753333Y-116577489D01*
X105840183Y-116683317D01*
X105946011Y-116770167D01*
X106066748Y-116834702D01*
X106197756Y-116874443D01*
X106299865Y-116884500D01*
X106299866Y-116884500D01*
X106334000Y-116887862D01*
X106368135Y-116884500D01*
X120299866Y-116884500D01*
X120334000Y-116887862D01*
X120470244Y-116874443D01*
X120601252Y-116834702D01*
X120721989Y-116770167D01*
X120827817Y-116683317D01*
X120914667Y-116577489D01*
X120979202Y-116456752D01*
X121018943Y-116325744D01*
X121029000Y-116223635D01*
X121032362Y-116189500D01*
X121029000Y-116155365D01*
X121029000Y-102223635D01*
X121032362Y-102189500D01*
X124685638Y-102189500D01*
X124689000Y-102223635D01*
X124689001Y-116155355D01*
X124685638Y-116189500D01*
X124699057Y-116325744D01*
X124738798Y-116456752D01*
X124803333Y-116577489D01*
X124890183Y-116683317D01*
X124996011Y-116770167D01*
X125116748Y-116834702D01*
X125247756Y-116874443D01*
X125349865Y-116884500D01*
X125349866Y-116884500D01*
X125384000Y-116887862D01*
X125418135Y-116884500D01*
X139349866Y-116884500D01*
X139384000Y-116887862D01*
X139520244Y-116874443D01*
X139651252Y-116834702D01*
X139771989Y-116770167D01*
X139877817Y-116683317D01*
X139964667Y-116577489D01*
X140029202Y-116456752D01*
X140068943Y-116325744D01*
X140079000Y-116223635D01*
X140082362Y-116189500D01*
X140079000Y-116155365D01*
X140079000Y-102223635D01*
X140082362Y-102189500D01*
X140068943Y-102053256D01*
X140029202Y-101922248D01*
X139964667Y-101801511D01*
X139877817Y-101695683D01*
X139771989Y-101608833D01*
X139651252Y-101544298D01*
X139520244Y-101504557D01*
X139418135Y-101494500D01*
X139418134Y-101494500D01*
X139384000Y-101491138D01*
X139349865Y-101494500D01*
X125418134Y-101494500D01*
X125384000Y-101491138D01*
X125349865Y-101494500D01*
X125247756Y-101504557D01*
X125116748Y-101544298D01*
X124996011Y-101608833D01*
X124890183Y-101695683D01*
X124803333Y-101801511D01*
X124738798Y-101922248D01*
X124699057Y-102053256D01*
X124685638Y-102189500D01*
X121032362Y-102189500D01*
X121018943Y-102053256D01*
X120979202Y-101922248D01*
X120914667Y-101801511D01*
X120827817Y-101695683D01*
X120721989Y-101608833D01*
X120601252Y-101544298D01*
X120470244Y-101504557D01*
X120368135Y-101494500D01*
X120368134Y-101494500D01*
X120334000Y-101491138D01*
X120299865Y-101494500D01*
X106368134Y-101494500D01*
X106334000Y-101491138D01*
X106299865Y-101494500D01*
X106197756Y-101504557D01*
X106066748Y-101544298D01*
X105946011Y-101608833D01*
X105840183Y-101695683D01*
X105753333Y-101801511D01*
X105688798Y-101922248D01*
X105649057Y-102053256D01*
X105635638Y-102189500D01*
X101982362Y-102189500D01*
X101968943Y-102053256D01*
X101929202Y-101922248D01*
X101864667Y-101801511D01*
X101777817Y-101695683D01*
X101671989Y-101608833D01*
X101551252Y-101544298D01*
X101420244Y-101504557D01*
X101318135Y-101494500D01*
X101318134Y-101494500D01*
X101284000Y-101491138D01*
X101249865Y-101494500D01*
X87318134Y-101494500D01*
X87284000Y-101491138D01*
X87249865Y-101494500D01*
X87147756Y-101504557D01*
X87016748Y-101544298D01*
X86896011Y-101608833D01*
X86790183Y-101695683D01*
X86703333Y-101801511D01*
X86638798Y-101922248D01*
X86599057Y-102053256D01*
X86585638Y-102189500D01*
X82932362Y-102189500D01*
X82918943Y-102053256D01*
X82879202Y-101922248D01*
X82814667Y-101801511D01*
X82727817Y-101695683D01*
X82621989Y-101608833D01*
X82501252Y-101544298D01*
X82370244Y-101504557D01*
X82268135Y-101494500D01*
X82268134Y-101494500D01*
X82234000Y-101491138D01*
X82199865Y-101494500D01*
X68268134Y-101494500D01*
X68234000Y-101491138D01*
X68199865Y-101494500D01*
X68097756Y-101504557D01*
X67966748Y-101544298D01*
X67846011Y-101608833D01*
X67740183Y-101695683D01*
X67653333Y-101801511D01*
X67588798Y-101922248D01*
X67549057Y-102053256D01*
X67535638Y-102189500D01*
X63882362Y-102189500D01*
X63868943Y-102053256D01*
X63829202Y-101922248D01*
X63764667Y-101801511D01*
X63677817Y-101695683D01*
X63571989Y-101608833D01*
X63451252Y-101544298D01*
X63320244Y-101504557D01*
X63218135Y-101494500D01*
X63218134Y-101494500D01*
X63184000Y-101491138D01*
X63149865Y-101494500D01*
X49218134Y-101494500D01*
X49184000Y-101491138D01*
X49149865Y-101494500D01*
X49047756Y-101504557D01*
X48916748Y-101544298D01*
X48796011Y-101608833D01*
X48690183Y-101695683D01*
X48603333Y-101801511D01*
X48538798Y-101922248D01*
X48499057Y-102053256D01*
X48485638Y-102189500D01*
X42570000Y-102189500D01*
X42570000Y-98078134D01*
X49597000Y-98078134D01*
X49600379Y-98112441D01*
X49600379Y-98120684D01*
X49601393Y-98130335D01*
X49615207Y-98253492D01*
X49628308Y-98315127D01*
X49640540Y-98376902D01*
X49643409Y-98386172D01*
X49680882Y-98504301D01*
X49705707Y-98562222D01*
X49729701Y-98620436D01*
X49734314Y-98628968D01*
X49734316Y-98628973D01*
X49734319Y-98628977D01*
X49794020Y-98737573D01*
X49829596Y-98789531D01*
X49864467Y-98842015D01*
X49870647Y-98849485D01*
X49870652Y-98849492D01*
X49870658Y-98849497D01*
X49950314Y-98944428D01*
X49995272Y-98988454D01*
X50039703Y-99033196D01*
X50047223Y-99039329D01*
X50143807Y-99116984D01*
X50196501Y-99151466D01*
X50248737Y-99186700D01*
X50257305Y-99191256D01*
X50367133Y-99248673D01*
X50425548Y-99272274D01*
X50483611Y-99296681D01*
X50492891Y-99299483D01*
X50492896Y-99299485D01*
X50492901Y-99299486D01*
X50611789Y-99334476D01*
X50673653Y-99346277D01*
X50735360Y-99358944D01*
X50745018Y-99359891D01*
X50745025Y-99359892D01*
X50745029Y-99359892D01*
X50868438Y-99371124D01*
X50931399Y-99370685D01*
X50994427Y-99371124D01*
X51004085Y-99370177D01*
X51127336Y-99357222D01*
X51189047Y-99344554D01*
X51250910Y-99332753D01*
X51260200Y-99329949D01*
X51378588Y-99293302D01*
X51436672Y-99268886D01*
X51495062Y-99245295D01*
X51503621Y-99240744D01*
X51503630Y-99240740D01*
X51503637Y-99240735D01*
X51612645Y-99181795D01*
X51664864Y-99146573D01*
X51717576Y-99112079D01*
X51725096Y-99105946D01*
X51820586Y-99026950D01*
X51864965Y-98982261D01*
X51909976Y-98938182D01*
X51916162Y-98930705D01*
X51994490Y-98834666D01*
X52026998Y-98785737D01*
X52029596Y-98789531D01*
X52064467Y-98842015D01*
X52070647Y-98849485D01*
X52070652Y-98849492D01*
X52070658Y-98849497D01*
X52150314Y-98944428D01*
X52195272Y-98988454D01*
X52239703Y-99033196D01*
X52247223Y-99039329D01*
X52343807Y-99116984D01*
X52396501Y-99151466D01*
X52448737Y-99186700D01*
X52457305Y-99191256D01*
X52567133Y-99248673D01*
X52625548Y-99272274D01*
X52683611Y-99296681D01*
X52692891Y-99299483D01*
X52692896Y-99299485D01*
X52692901Y-99299486D01*
X52811789Y-99334476D01*
X52873653Y-99346277D01*
X52935360Y-99358944D01*
X52945018Y-99359891D01*
X52945025Y-99359892D01*
X52945029Y-99359892D01*
X53068438Y-99371124D01*
X53131399Y-99370685D01*
X53194427Y-99371124D01*
X53204085Y-99370177D01*
X53327336Y-99357222D01*
X53389047Y-99344554D01*
X53450910Y-99332753D01*
X53460200Y-99329949D01*
X53578588Y-99293302D01*
X53636672Y-99268886D01*
X53695062Y-99245295D01*
X53703621Y-99240744D01*
X53703630Y-99240740D01*
X53703637Y-99240735D01*
X53812645Y-99181795D01*
X53864864Y-99146573D01*
X53917576Y-99112079D01*
X53925096Y-99105946D01*
X54020586Y-99026950D01*
X54064965Y-98982261D01*
X54109976Y-98938182D01*
X54116162Y-98930705D01*
X54194490Y-98834666D01*
X54226998Y-98785737D01*
X54229596Y-98789531D01*
X54264467Y-98842015D01*
X54270647Y-98849485D01*
X54270652Y-98849492D01*
X54270658Y-98849497D01*
X54350314Y-98944428D01*
X54395272Y-98988454D01*
X54439703Y-99033196D01*
X54447223Y-99039329D01*
X54543807Y-99116984D01*
X54596501Y-99151466D01*
X54648737Y-99186700D01*
X54657305Y-99191256D01*
X54767133Y-99248673D01*
X54825548Y-99272274D01*
X54883611Y-99296681D01*
X54892891Y-99299483D01*
X54892896Y-99299485D01*
X54892901Y-99299486D01*
X55011789Y-99334476D01*
X55073653Y-99346277D01*
X55135360Y-99358944D01*
X55145018Y-99359891D01*
X55145025Y-99359892D01*
X55145029Y-99359892D01*
X55268438Y-99371124D01*
X55331399Y-99370685D01*
X55394427Y-99371124D01*
X55404085Y-99370177D01*
X55527336Y-99357222D01*
X55589047Y-99344554D01*
X55650910Y-99332753D01*
X55660200Y-99329949D01*
X55778588Y-99293302D01*
X55836672Y-99268886D01*
X55895062Y-99245295D01*
X55903621Y-99240744D01*
X55903630Y-99240740D01*
X55903637Y-99240735D01*
X56012645Y-99181795D01*
X56064864Y-99146573D01*
X56117576Y-99112079D01*
X56125096Y-99105946D01*
X56220586Y-99026950D01*
X56264965Y-98982261D01*
X56309976Y-98938182D01*
X56316162Y-98930705D01*
X56394490Y-98834666D01*
X56426998Y-98785737D01*
X56429596Y-98789531D01*
X56464467Y-98842015D01*
X56470647Y-98849485D01*
X56470652Y-98849492D01*
X56470658Y-98849497D01*
X56550314Y-98944428D01*
X56595272Y-98988454D01*
X56639703Y-99033196D01*
X56647223Y-99039329D01*
X56743807Y-99116984D01*
X56796501Y-99151466D01*
X56848737Y-99186700D01*
X56857305Y-99191256D01*
X56967133Y-99248673D01*
X57025548Y-99272274D01*
X57083611Y-99296681D01*
X57092891Y-99299483D01*
X57092896Y-99299485D01*
X57092901Y-99299486D01*
X57211789Y-99334476D01*
X57273653Y-99346277D01*
X57335360Y-99358944D01*
X57345018Y-99359891D01*
X57345025Y-99359892D01*
X57345029Y-99359892D01*
X57468438Y-99371124D01*
X57531399Y-99370685D01*
X57594427Y-99371124D01*
X57604085Y-99370177D01*
X57727336Y-99357222D01*
X57789047Y-99344554D01*
X57850910Y-99332753D01*
X57860200Y-99329949D01*
X57978588Y-99293302D01*
X58036672Y-99268886D01*
X58095062Y-99245295D01*
X58103621Y-99240744D01*
X58103630Y-99240740D01*
X58103637Y-99240735D01*
X58212645Y-99181795D01*
X58264864Y-99146573D01*
X58317576Y-99112079D01*
X58325096Y-99105946D01*
X58420586Y-99026950D01*
X58464965Y-98982261D01*
X58509976Y-98938182D01*
X58516162Y-98930705D01*
X58594490Y-98834666D01*
X58626998Y-98785737D01*
X58629596Y-98789531D01*
X58664467Y-98842015D01*
X58670647Y-98849485D01*
X58670652Y-98849492D01*
X58670658Y-98849497D01*
X58750314Y-98944428D01*
X58795272Y-98988454D01*
X58839703Y-99033196D01*
X58847223Y-99039329D01*
X58943807Y-99116984D01*
X58996501Y-99151466D01*
X59048737Y-99186700D01*
X59057305Y-99191256D01*
X59167133Y-99248673D01*
X59225548Y-99272274D01*
X59283611Y-99296681D01*
X59292891Y-99299483D01*
X59292896Y-99299485D01*
X59292901Y-99299486D01*
X59411789Y-99334476D01*
X59473653Y-99346277D01*
X59535360Y-99358944D01*
X59545018Y-99359891D01*
X59545025Y-99359892D01*
X59545029Y-99359892D01*
X59668438Y-99371124D01*
X59731399Y-99370685D01*
X59794427Y-99371124D01*
X59804085Y-99370177D01*
X59927336Y-99357222D01*
X59989047Y-99344554D01*
X60050910Y-99332753D01*
X60060200Y-99329949D01*
X60178588Y-99293302D01*
X60236672Y-99268886D01*
X60295062Y-99245295D01*
X60303621Y-99240744D01*
X60303630Y-99240740D01*
X60303637Y-99240735D01*
X60412645Y-99181795D01*
X60464864Y-99146573D01*
X60517576Y-99112079D01*
X60525096Y-99105946D01*
X60620586Y-99026950D01*
X60664965Y-98982261D01*
X60709976Y-98938182D01*
X60716162Y-98930705D01*
X60794490Y-98834666D01*
X60826998Y-98785737D01*
X60829596Y-98789531D01*
X60864467Y-98842015D01*
X60870647Y-98849485D01*
X60870652Y-98849492D01*
X60870658Y-98849497D01*
X60950314Y-98944428D01*
X60995272Y-98988454D01*
X61039703Y-99033196D01*
X61047223Y-99039329D01*
X61143807Y-99116984D01*
X61196501Y-99151466D01*
X61248737Y-99186700D01*
X61257305Y-99191256D01*
X61367133Y-99248673D01*
X61425548Y-99272274D01*
X61483611Y-99296681D01*
X61492891Y-99299483D01*
X61492896Y-99299485D01*
X61492901Y-99299486D01*
X61611789Y-99334476D01*
X61673653Y-99346277D01*
X61735360Y-99358944D01*
X61745018Y-99359891D01*
X61745025Y-99359892D01*
X61745029Y-99359892D01*
X61868438Y-99371124D01*
X61931399Y-99370685D01*
X61994427Y-99371124D01*
X62004085Y-99370177D01*
X62127336Y-99357222D01*
X62189047Y-99344554D01*
X62250910Y-99332753D01*
X62260200Y-99329949D01*
X62378588Y-99293302D01*
X62436672Y-99268886D01*
X62495062Y-99245295D01*
X62503621Y-99240744D01*
X62503630Y-99240740D01*
X62503637Y-99240735D01*
X62612645Y-99181795D01*
X62664864Y-99146573D01*
X62717576Y-99112079D01*
X62725096Y-99105946D01*
X62820586Y-99026950D01*
X62864965Y-98982261D01*
X62909976Y-98938182D01*
X62916162Y-98930705D01*
X62994490Y-98834666D01*
X63029345Y-98782205D01*
X63064937Y-98730224D01*
X63069553Y-98721688D01*
X63127735Y-98612264D01*
X63151745Y-98554012D01*
X63176554Y-98496128D01*
X63179424Y-98486858D01*
X63215244Y-98368217D01*
X63227477Y-98306437D01*
X63240576Y-98244807D01*
X63241589Y-98235165D01*
X63241590Y-98235160D01*
X63241590Y-98235156D01*
X63253683Y-98111818D01*
X63253683Y-98111813D01*
X63257000Y-98078135D01*
X63257000Y-83139500D01*
X67535638Y-83139500D01*
X67539000Y-83173635D01*
X67539001Y-97105355D01*
X67535638Y-97139500D01*
X67549057Y-97275744D01*
X67588798Y-97406752D01*
X67653333Y-97527489D01*
X67740183Y-97633317D01*
X67846011Y-97720167D01*
X67966748Y-97784702D01*
X68097756Y-97824443D01*
X68199865Y-97834500D01*
X68199866Y-97834500D01*
X68234000Y-97837862D01*
X68268135Y-97834500D01*
X82199866Y-97834500D01*
X82234000Y-97837862D01*
X82274674Y-97833856D01*
X82370244Y-97824443D01*
X82501252Y-97784702D01*
X82621989Y-97720167D01*
X82727817Y-97633317D01*
X82814667Y-97527489D01*
X82879202Y-97406752D01*
X82918943Y-97275744D01*
X82932362Y-97139500D01*
X82929000Y-97105365D01*
X82929000Y-83173635D01*
X82932362Y-83139500D01*
X86585638Y-83139500D01*
X86589000Y-83173635D01*
X86589001Y-97105355D01*
X86585638Y-97139500D01*
X86599057Y-97275744D01*
X86638798Y-97406752D01*
X86703333Y-97527489D01*
X86790183Y-97633317D01*
X86896011Y-97720167D01*
X87016748Y-97784702D01*
X87147756Y-97824443D01*
X87249865Y-97834500D01*
X87249866Y-97834500D01*
X87284000Y-97837862D01*
X87318135Y-97834500D01*
X101249866Y-97834500D01*
X101284000Y-97837862D01*
X101324674Y-97833856D01*
X101420244Y-97824443D01*
X101551252Y-97784702D01*
X101671989Y-97720167D01*
X101777817Y-97633317D01*
X101864667Y-97527489D01*
X101929202Y-97406752D01*
X101968943Y-97275744D01*
X101982362Y-97139500D01*
X101979000Y-97105365D01*
X101979000Y-83173635D01*
X101982362Y-83139500D01*
X105635638Y-83139500D01*
X105639000Y-83173635D01*
X105639001Y-97105355D01*
X105635638Y-97139500D01*
X105649057Y-97275744D01*
X105688798Y-97406752D01*
X105753333Y-97527489D01*
X105840183Y-97633317D01*
X105946011Y-97720167D01*
X106066748Y-97784702D01*
X106197756Y-97824443D01*
X106299865Y-97834500D01*
X106299866Y-97834500D01*
X106334000Y-97837862D01*
X106368135Y-97834500D01*
X120299866Y-97834500D01*
X120334000Y-97837862D01*
X120374674Y-97833856D01*
X120470244Y-97824443D01*
X120601252Y-97784702D01*
X120721989Y-97720167D01*
X120827817Y-97633317D01*
X120914667Y-97527489D01*
X120979202Y-97406752D01*
X121018943Y-97275744D01*
X121032362Y-97139500D01*
X121029000Y-97105365D01*
X121029000Y-83173635D01*
X121032362Y-83139500D01*
X124685638Y-83139500D01*
X124689000Y-83173635D01*
X124689001Y-97105355D01*
X124685638Y-97139500D01*
X124699057Y-97275744D01*
X124738798Y-97406752D01*
X124803333Y-97527489D01*
X124890183Y-97633317D01*
X124996011Y-97720167D01*
X125116748Y-97784702D01*
X125247756Y-97824443D01*
X125349865Y-97834500D01*
X125349866Y-97834500D01*
X125384000Y-97837862D01*
X125418135Y-97834500D01*
X139349866Y-97834500D01*
X139384000Y-97837862D01*
X139424674Y-97833856D01*
X139520244Y-97824443D01*
X139651252Y-97784702D01*
X139771989Y-97720167D01*
X139877817Y-97633317D01*
X139964667Y-97527489D01*
X140029202Y-97406752D01*
X140068943Y-97275744D01*
X140082362Y-97139500D01*
X140079000Y-97105365D01*
X140079000Y-83173635D01*
X140082362Y-83139500D01*
X140068943Y-83003256D01*
X140029202Y-82872248D01*
X139964667Y-82751511D01*
X139877817Y-82645683D01*
X139771989Y-82558833D01*
X139651252Y-82494298D01*
X139520244Y-82454557D01*
X139418135Y-82444500D01*
X139418134Y-82444500D01*
X139384000Y-82441138D01*
X139349865Y-82444500D01*
X125418134Y-82444500D01*
X125384000Y-82441138D01*
X125349865Y-82444500D01*
X125247756Y-82454557D01*
X125116748Y-82494298D01*
X124996011Y-82558833D01*
X124890183Y-82645683D01*
X124803333Y-82751511D01*
X124738798Y-82872248D01*
X124699057Y-83003256D01*
X124685638Y-83139500D01*
X121032362Y-83139500D01*
X121018943Y-83003256D01*
X120979202Y-82872248D01*
X120914667Y-82751511D01*
X120827817Y-82645683D01*
X120721989Y-82558833D01*
X120601252Y-82494298D01*
X120470244Y-82454557D01*
X120368135Y-82444500D01*
X120368134Y-82444500D01*
X120334000Y-82441138D01*
X120299865Y-82444500D01*
X106368134Y-82444500D01*
X106334000Y-82441138D01*
X106299865Y-82444500D01*
X106197756Y-82454557D01*
X106066748Y-82494298D01*
X105946011Y-82558833D01*
X105840183Y-82645683D01*
X105753333Y-82751511D01*
X105688798Y-82872248D01*
X105649057Y-83003256D01*
X105635638Y-83139500D01*
X101982362Y-83139500D01*
X101968943Y-83003256D01*
X101929202Y-82872248D01*
X101864667Y-82751511D01*
X101777817Y-82645683D01*
X101671989Y-82558833D01*
X101551252Y-82494298D01*
X101420244Y-82454557D01*
X101318135Y-82444500D01*
X101318134Y-82444500D01*
X101284000Y-82441138D01*
X101249865Y-82444500D01*
X87318134Y-82444500D01*
X87284000Y-82441138D01*
X87249865Y-82444500D01*
X87147756Y-82454557D01*
X87016748Y-82494298D01*
X86896011Y-82558833D01*
X86790183Y-82645683D01*
X86703333Y-82751511D01*
X86638798Y-82872248D01*
X86599057Y-83003256D01*
X86585638Y-83139500D01*
X82932362Y-83139500D01*
X82918943Y-83003256D01*
X82879202Y-82872248D01*
X82814667Y-82751511D01*
X82727817Y-82645683D01*
X82621989Y-82558833D01*
X82501252Y-82494298D01*
X82370244Y-82454557D01*
X82268135Y-82444500D01*
X82268134Y-82444500D01*
X82234000Y-82441138D01*
X82199865Y-82444500D01*
X68268134Y-82444500D01*
X68234000Y-82441138D01*
X68199865Y-82444500D01*
X68097756Y-82454557D01*
X67966748Y-82494298D01*
X67846011Y-82558833D01*
X67740183Y-82645683D01*
X67653333Y-82751511D01*
X67588798Y-82872248D01*
X67549057Y-83003256D01*
X67535638Y-83139500D01*
X63257000Y-83139500D01*
X63257000Y-71784365D01*
X63253621Y-71750058D01*
X63253621Y-71741816D01*
X63252607Y-71732165D01*
X63238793Y-71609007D01*
X63225692Y-71547371D01*
X63213460Y-71485598D01*
X63210591Y-71476327D01*
X63173118Y-71358199D01*
X63148298Y-71300290D01*
X63124299Y-71242064D01*
X63119684Y-71233527D01*
X63059980Y-71124927D01*
X63024388Y-71072946D01*
X62989533Y-71020485D01*
X62983353Y-71013015D01*
X62983348Y-71013008D01*
X62983342Y-71013003D01*
X62903686Y-70918072D01*
X62858675Y-70873994D01*
X62814297Y-70829305D01*
X62806777Y-70823171D01*
X62710194Y-70745516D01*
X62657482Y-70711022D01*
X62605263Y-70675800D01*
X62596695Y-70671244D01*
X62486867Y-70613827D01*
X62428452Y-70590226D01*
X62370389Y-70565819D01*
X62361109Y-70563017D01*
X62361104Y-70563015D01*
X62361099Y-70563014D01*
X62242211Y-70528024D01*
X62180339Y-70516222D01*
X62118639Y-70503556D01*
X62108982Y-70502609D01*
X62108975Y-70502608D01*
X62108971Y-70502608D01*
X61985562Y-70491376D01*
X61922601Y-70491815D01*
X61859573Y-70491376D01*
X61849915Y-70492323D01*
X61726664Y-70505278D01*
X61664966Y-70517943D01*
X61603090Y-70529747D01*
X61593800Y-70532551D01*
X61475412Y-70569198D01*
X61417356Y-70593602D01*
X61358938Y-70617205D01*
X61350370Y-70621761D01*
X61241355Y-70680705D01*
X61189136Y-70715927D01*
X61136424Y-70750421D01*
X61128904Y-70756554D01*
X61033414Y-70835550D01*
X60989018Y-70880256D01*
X60944024Y-70924318D01*
X60937838Y-70931795D01*
X60859510Y-71027834D01*
X60827001Y-71076763D01*
X60824388Y-71072946D01*
X60789533Y-71020485D01*
X60783353Y-71013015D01*
X60783348Y-71013008D01*
X60783342Y-71013003D01*
X60703686Y-70918072D01*
X60658675Y-70873994D01*
X60614297Y-70829305D01*
X60606777Y-70823171D01*
X60510194Y-70745516D01*
X60457482Y-70711022D01*
X60405263Y-70675800D01*
X60396695Y-70671244D01*
X60286867Y-70613827D01*
X60228452Y-70590226D01*
X60170389Y-70565819D01*
X60161109Y-70563017D01*
X60161104Y-70563015D01*
X60161099Y-70563014D01*
X60042211Y-70528024D01*
X59980339Y-70516222D01*
X59918639Y-70503556D01*
X59908982Y-70502609D01*
X59908975Y-70502608D01*
X59908971Y-70502608D01*
X59785562Y-70491376D01*
X59722601Y-70491815D01*
X59659573Y-70491376D01*
X59649915Y-70492323D01*
X59526664Y-70505278D01*
X59464966Y-70517943D01*
X59403090Y-70529747D01*
X59393800Y-70532551D01*
X59275412Y-70569198D01*
X59217356Y-70593602D01*
X59158938Y-70617205D01*
X59150370Y-70621761D01*
X59041355Y-70680705D01*
X58989136Y-70715927D01*
X58936424Y-70750421D01*
X58928904Y-70756554D01*
X58833414Y-70835550D01*
X58789018Y-70880256D01*
X58744024Y-70924318D01*
X58737838Y-70931795D01*
X58659510Y-71027834D01*
X58627001Y-71076763D01*
X58624388Y-71072946D01*
X58589533Y-71020485D01*
X58583353Y-71013015D01*
X58583348Y-71013008D01*
X58583342Y-71013003D01*
X58503686Y-70918072D01*
X58458675Y-70873994D01*
X58414297Y-70829305D01*
X58406777Y-70823171D01*
X58310194Y-70745516D01*
X58257482Y-70711022D01*
X58205263Y-70675800D01*
X58196695Y-70671244D01*
X58086867Y-70613827D01*
X58028452Y-70590226D01*
X57970389Y-70565819D01*
X57961109Y-70563017D01*
X57961104Y-70563015D01*
X57961099Y-70563014D01*
X57842211Y-70528024D01*
X57780339Y-70516222D01*
X57718639Y-70503556D01*
X57708982Y-70502609D01*
X57708975Y-70502608D01*
X57708971Y-70502608D01*
X57585562Y-70491376D01*
X57522601Y-70491815D01*
X57459573Y-70491376D01*
X57449915Y-70492323D01*
X57326664Y-70505278D01*
X57264966Y-70517943D01*
X57203090Y-70529747D01*
X57193800Y-70532551D01*
X57075412Y-70569198D01*
X57017356Y-70593602D01*
X56958938Y-70617205D01*
X56950370Y-70621761D01*
X56841355Y-70680705D01*
X56789136Y-70715927D01*
X56736424Y-70750421D01*
X56728904Y-70756554D01*
X56633414Y-70835550D01*
X56589018Y-70880256D01*
X56544024Y-70924318D01*
X56537838Y-70931795D01*
X56459510Y-71027834D01*
X56427001Y-71076763D01*
X56424388Y-71072946D01*
X56389533Y-71020485D01*
X56383353Y-71013015D01*
X56383348Y-71013008D01*
X56383342Y-71013003D01*
X56303686Y-70918072D01*
X56258675Y-70873994D01*
X56214297Y-70829305D01*
X56206777Y-70823171D01*
X56110194Y-70745516D01*
X56057482Y-70711022D01*
X56005263Y-70675800D01*
X55996695Y-70671244D01*
X55886867Y-70613827D01*
X55828452Y-70590226D01*
X55770389Y-70565819D01*
X55761109Y-70563017D01*
X55761104Y-70563015D01*
X55761099Y-70563014D01*
X55642211Y-70528024D01*
X55580339Y-70516222D01*
X55518639Y-70503556D01*
X55508982Y-70502609D01*
X55508975Y-70502608D01*
X55508971Y-70502608D01*
X55385562Y-70491376D01*
X55322601Y-70491815D01*
X55259573Y-70491376D01*
X55249915Y-70492323D01*
X55126664Y-70505278D01*
X55064966Y-70517943D01*
X55003090Y-70529747D01*
X54993800Y-70532551D01*
X54875412Y-70569198D01*
X54817356Y-70593602D01*
X54758938Y-70617205D01*
X54750370Y-70621761D01*
X54641355Y-70680705D01*
X54589136Y-70715927D01*
X54536424Y-70750421D01*
X54528904Y-70756554D01*
X54433414Y-70835550D01*
X54389018Y-70880256D01*
X54344024Y-70924318D01*
X54337838Y-70931795D01*
X54259510Y-71027834D01*
X54227001Y-71076763D01*
X54224388Y-71072946D01*
X54189533Y-71020485D01*
X54183353Y-71013015D01*
X54183348Y-71013008D01*
X54183342Y-71013003D01*
X54103686Y-70918072D01*
X54058675Y-70873994D01*
X54014297Y-70829305D01*
X54006777Y-70823171D01*
X53910194Y-70745516D01*
X53857482Y-70711022D01*
X53805263Y-70675800D01*
X53796695Y-70671244D01*
X53686867Y-70613827D01*
X53628452Y-70590226D01*
X53570389Y-70565819D01*
X53561109Y-70563017D01*
X53561104Y-70563015D01*
X53561099Y-70563014D01*
X53442211Y-70528024D01*
X53380339Y-70516222D01*
X53318639Y-70503556D01*
X53308982Y-70502609D01*
X53308975Y-70502608D01*
X53308971Y-70502608D01*
X53185562Y-70491376D01*
X53122601Y-70491815D01*
X53059573Y-70491376D01*
X53049915Y-70492323D01*
X52926664Y-70505278D01*
X52864966Y-70517943D01*
X52803090Y-70529747D01*
X52793800Y-70532551D01*
X52675412Y-70569198D01*
X52617356Y-70593602D01*
X52558938Y-70617205D01*
X52550370Y-70621761D01*
X52441355Y-70680705D01*
X52389136Y-70715927D01*
X52336424Y-70750421D01*
X52328904Y-70756554D01*
X52233414Y-70835550D01*
X52189018Y-70880256D01*
X52144024Y-70924318D01*
X52137838Y-70931795D01*
X52059510Y-71027834D01*
X52027001Y-71076763D01*
X52024388Y-71072946D01*
X51989533Y-71020485D01*
X51983353Y-71013015D01*
X51983348Y-71013008D01*
X51983342Y-71013003D01*
X51903686Y-70918072D01*
X51858675Y-70873994D01*
X51814297Y-70829305D01*
X51806777Y-70823171D01*
X51710194Y-70745516D01*
X51657482Y-70711022D01*
X51605263Y-70675800D01*
X51596695Y-70671244D01*
X51486867Y-70613827D01*
X51428452Y-70590226D01*
X51370389Y-70565819D01*
X51361109Y-70563017D01*
X51361104Y-70563015D01*
X51361099Y-70563014D01*
X51242211Y-70528024D01*
X51180339Y-70516222D01*
X51118639Y-70503556D01*
X51108982Y-70502609D01*
X51108975Y-70502608D01*
X51108971Y-70502608D01*
X50985562Y-70491376D01*
X50922601Y-70491815D01*
X50859573Y-70491376D01*
X50849915Y-70492323D01*
X50726664Y-70505278D01*
X50664966Y-70517943D01*
X50603090Y-70529747D01*
X50593800Y-70532551D01*
X50475412Y-70569198D01*
X50417356Y-70593602D01*
X50358938Y-70617205D01*
X50350370Y-70621761D01*
X50241355Y-70680705D01*
X50189136Y-70715927D01*
X50136424Y-70750421D01*
X50128904Y-70756554D01*
X50033414Y-70835550D01*
X49989018Y-70880256D01*
X49944024Y-70924318D01*
X49937838Y-70931795D01*
X49859510Y-71027834D01*
X49824644Y-71080311D01*
X49789063Y-71132276D01*
X49784453Y-71140802D01*
X49784447Y-71140811D01*
X49784443Y-71140820D01*
X49726265Y-71250236D01*
X49702260Y-71308476D01*
X49677446Y-71366372D01*
X49674576Y-71375642D01*
X49638756Y-71494283D01*
X49626532Y-71556020D01*
X49613424Y-71617693D01*
X49612411Y-71627335D01*
X49612411Y-71627338D01*
X49612410Y-71627344D01*
X49600317Y-71750683D01*
X49600317Y-71750698D01*
X49597001Y-71784365D01*
X49597000Y-98078134D01*
X42570000Y-98078134D01*
X42570000Y-64089500D01*
X67535638Y-64089500D01*
X67539000Y-64123635D01*
X67539001Y-78055355D01*
X67535638Y-78089500D01*
X67549057Y-78225744D01*
X67588798Y-78356752D01*
X67653333Y-78477489D01*
X67740183Y-78583317D01*
X67846011Y-78670167D01*
X67966748Y-78734702D01*
X68097756Y-78774443D01*
X68199865Y-78784500D01*
X68199866Y-78784500D01*
X68234000Y-78787862D01*
X68268135Y-78784500D01*
X82199866Y-78784500D01*
X82234000Y-78787862D01*
X82370244Y-78774443D01*
X82501252Y-78734702D01*
X82621989Y-78670167D01*
X82727817Y-78583317D01*
X82814667Y-78477489D01*
X82879202Y-78356752D01*
X82918943Y-78225744D01*
X82929000Y-78123635D01*
X82932362Y-78089500D01*
X82929000Y-78055365D01*
X82929000Y-64123635D01*
X82932362Y-64089500D01*
X86585638Y-64089500D01*
X86589000Y-64123635D01*
X86589001Y-78055355D01*
X86585638Y-78089500D01*
X86599057Y-78225744D01*
X86638798Y-78356752D01*
X86703333Y-78477489D01*
X86790183Y-78583317D01*
X86896011Y-78670167D01*
X87016748Y-78734702D01*
X87147756Y-78774443D01*
X87249865Y-78784500D01*
X87249866Y-78784500D01*
X87284000Y-78787862D01*
X87318135Y-78784500D01*
X101249866Y-78784500D01*
X101284000Y-78787862D01*
X101420244Y-78774443D01*
X101551252Y-78734702D01*
X101671989Y-78670167D01*
X101777817Y-78583317D01*
X101864667Y-78477489D01*
X101929202Y-78356752D01*
X101968943Y-78225744D01*
X101979000Y-78123635D01*
X101982362Y-78089500D01*
X101979000Y-78055365D01*
X101979000Y-64123635D01*
X101982362Y-64089500D01*
X105635638Y-64089500D01*
X105639000Y-64123635D01*
X105639001Y-78055355D01*
X105635638Y-78089500D01*
X105649057Y-78225744D01*
X105688798Y-78356752D01*
X105753333Y-78477489D01*
X105840183Y-78583317D01*
X105946011Y-78670167D01*
X106066748Y-78734702D01*
X106197756Y-78774443D01*
X106299865Y-78784500D01*
X106299866Y-78784500D01*
X106334000Y-78787862D01*
X106368135Y-78784500D01*
X120299866Y-78784500D01*
X120334000Y-78787862D01*
X120470244Y-78774443D01*
X120601252Y-78734702D01*
X120721989Y-78670167D01*
X120827817Y-78583317D01*
X120914667Y-78477489D01*
X120979202Y-78356752D01*
X121018943Y-78225744D01*
X121029000Y-78123635D01*
X121032362Y-78089500D01*
X121029000Y-78055365D01*
X121029000Y-64123635D01*
X121032362Y-64089500D01*
X124685638Y-64089500D01*
X124689000Y-64123635D01*
X124689001Y-78055355D01*
X124685638Y-78089500D01*
X124699057Y-78225744D01*
X124738798Y-78356752D01*
X124803333Y-78477489D01*
X124890183Y-78583317D01*
X124996011Y-78670167D01*
X125116748Y-78734702D01*
X125247756Y-78774443D01*
X125349865Y-78784500D01*
X125349866Y-78784500D01*
X125384000Y-78787862D01*
X125418135Y-78784500D01*
X139349866Y-78784500D01*
X139384000Y-78787862D01*
X139520244Y-78774443D01*
X139651252Y-78734702D01*
X139771989Y-78670167D01*
X139877817Y-78583317D01*
X139964667Y-78477489D01*
X140029202Y-78356752D01*
X140068943Y-78225744D01*
X140079000Y-78123635D01*
X140082362Y-78089500D01*
X140079000Y-78055365D01*
X140079000Y-64123635D01*
X140082362Y-64089500D01*
X140068943Y-63953256D01*
X140029202Y-63822248D01*
X139964667Y-63701511D01*
X139877817Y-63595683D01*
X139771989Y-63508833D01*
X139651252Y-63444298D01*
X139520244Y-63404557D01*
X139418135Y-63394500D01*
X139418134Y-63394500D01*
X139384000Y-63391138D01*
X139349865Y-63394500D01*
X125418134Y-63394500D01*
X125384000Y-63391138D01*
X125349865Y-63394500D01*
X125247756Y-63404557D01*
X125116748Y-63444298D01*
X124996011Y-63508833D01*
X124890183Y-63595683D01*
X124803333Y-63701511D01*
X124738798Y-63822248D01*
X124699057Y-63953256D01*
X124685638Y-64089500D01*
X121032362Y-64089500D01*
X121018943Y-63953256D01*
X120979202Y-63822248D01*
X120914667Y-63701511D01*
X120827817Y-63595683D01*
X120721989Y-63508833D01*
X120601252Y-63444298D01*
X120470244Y-63404557D01*
X120368135Y-63394500D01*
X120368134Y-63394500D01*
X120334000Y-63391138D01*
X120299865Y-63394500D01*
X106368134Y-63394500D01*
X106334000Y-63391138D01*
X106299865Y-63394500D01*
X106197756Y-63404557D01*
X106066748Y-63444298D01*
X105946011Y-63508833D01*
X105840183Y-63595683D01*
X105753333Y-63701511D01*
X105688798Y-63822248D01*
X105649057Y-63953256D01*
X105635638Y-64089500D01*
X101982362Y-64089500D01*
X101968943Y-63953256D01*
X101929202Y-63822248D01*
X101864667Y-63701511D01*
X101777817Y-63595683D01*
X101671989Y-63508833D01*
X101551252Y-63444298D01*
X101420244Y-63404557D01*
X101318135Y-63394500D01*
X101318134Y-63394500D01*
X101284000Y-63391138D01*
X101249865Y-63394500D01*
X87318134Y-63394500D01*
X87284000Y-63391138D01*
X87249865Y-63394500D01*
X87147756Y-63404557D01*
X87016748Y-63444298D01*
X86896011Y-63508833D01*
X86790183Y-63595683D01*
X86703333Y-63701511D01*
X86638798Y-63822248D01*
X86599057Y-63953256D01*
X86585638Y-64089500D01*
X82932362Y-64089500D01*
X82918943Y-63953256D01*
X82879202Y-63822248D01*
X82814667Y-63701511D01*
X82727817Y-63595683D01*
X82621989Y-63508833D01*
X82501252Y-63444298D01*
X82370244Y-63404557D01*
X82268135Y-63394500D01*
X82268134Y-63394500D01*
X82234000Y-63391138D01*
X82199865Y-63394500D01*
X68268134Y-63394500D01*
X68234000Y-63391138D01*
X68199865Y-63394500D01*
X68097756Y-63404557D01*
X67966748Y-63444298D01*
X67846011Y-63508833D01*
X67740183Y-63595683D01*
X67653333Y-63701511D01*
X67588798Y-63822248D01*
X67549057Y-63953256D01*
X67535638Y-64089500D01*
X42570000Y-64089500D01*
X42570000Y-59137598D01*
X42700000Y-59137598D01*
X42700000Y-59607402D01*
X42791654Y-60068179D01*
X42971440Y-60502221D01*
X43232450Y-60892849D01*
X43564651Y-61225050D01*
X43955279Y-61486060D01*
X44389321Y-61665846D01*
X44850098Y-61757500D01*
X45319902Y-61757500D01*
X45780679Y-61665846D01*
X46214721Y-61486060D01*
X46605349Y-61225050D01*
X46937550Y-60892849D01*
X47198560Y-60502221D01*
X47378346Y-60068179D01*
X47470000Y-59607402D01*
X47470000Y-59137598D01*
X47455260Y-59063490D01*
X66490888Y-59063490D01*
X66491328Y-59126479D01*
X66490888Y-59189468D01*
X66491835Y-59199125D01*
X66515152Y-59420978D01*
X66527820Y-59482692D01*
X66539622Y-59544559D01*
X66542427Y-59553850D01*
X66608392Y-59766947D01*
X66632803Y-59825020D01*
X66656399Y-59883421D01*
X66660955Y-59891990D01*
X66767055Y-60088217D01*
X66802287Y-60140451D01*
X66836770Y-60193146D01*
X66842901Y-60200664D01*
X66842904Y-60200668D01*
X66842908Y-60200672D01*
X66985096Y-60372549D01*
X67029821Y-60416963D01*
X67073864Y-60461938D01*
X67081341Y-60468124D01*
X67254211Y-60609114D01*
X67306682Y-60643976D01*
X67358656Y-60679563D01*
X67367179Y-60684171D01*
X67367188Y-60684177D01*
X67367197Y-60684181D01*
X67564156Y-60788905D01*
X67622364Y-60812897D01*
X67680288Y-60837723D01*
X67689558Y-60840593D01*
X67903111Y-60905069D01*
X67964908Y-60917305D01*
X68026520Y-60930401D01*
X68036165Y-60931414D01*
X68036168Y-60931415D01*
X68036171Y-60931415D01*
X68258181Y-60953183D01*
X68258188Y-60953183D01*
X68291866Y-60956500D01*
X139226135Y-60956498D01*
X139260928Y-60953071D01*
X139275779Y-60953071D01*
X139285430Y-60952057D01*
X139507114Y-60927191D01*
X139568742Y-60914092D01*
X139630519Y-60901859D01*
X139639790Y-60898990D01*
X139852423Y-60831539D01*
X139910340Y-60806716D01*
X139968559Y-60782719D01*
X139977096Y-60778104D01*
X140172577Y-60670637D01*
X140224545Y-60635054D01*
X140277018Y-60600190D01*
X140284490Y-60594008D01*
X140284496Y-60594004D01*
X140284501Y-60593999D01*
X140455380Y-60450614D01*
X140499423Y-60405639D01*
X140544147Y-60361226D01*
X140550280Y-60353706D01*
X140550283Y-60353703D01*
X140550286Y-60353699D01*
X140690061Y-60179855D01*
X140724584Y-60127100D01*
X140759778Y-60074921D01*
X140764335Y-60066353D01*
X140867684Y-59868662D01*
X140891286Y-59810244D01*
X140915689Y-59752191D01*
X140918494Y-59742901D01*
X140981477Y-59528903D01*
X140993280Y-59467033D01*
X141005946Y-59405324D01*
X141006894Y-59395666D01*
X141027112Y-59173509D01*
X141026672Y-59110520D01*
X141027112Y-59047532D01*
X141026165Y-59037874D01*
X141002848Y-58816022D01*
X140990174Y-58754276D01*
X140978378Y-58692439D01*
X140975573Y-58683149D01*
X140909608Y-58470051D01*
X140885203Y-58411994D01*
X140861601Y-58353578D01*
X140857045Y-58345009D01*
X140750945Y-58148782D01*
X140715713Y-58096548D01*
X140681230Y-58043853D01*
X140675097Y-58036333D01*
X140675096Y-58036331D01*
X140675092Y-58036327D01*
X140532904Y-57864451D01*
X140488214Y-57820071D01*
X140444135Y-57775060D01*
X140436658Y-57768874D01*
X140263789Y-57627885D01*
X140211317Y-57593023D01*
X140159344Y-57557436D01*
X140150816Y-57552825D01*
X140150811Y-57552822D01*
X140150806Y-57552820D01*
X139953844Y-57448094D01*
X139895647Y-57424107D01*
X139837712Y-57399276D01*
X139828442Y-57396406D01*
X139614889Y-57331930D01*
X139553063Y-57319688D01*
X139491481Y-57306599D01*
X139481834Y-57305584D01*
X139481830Y-57305584D01*
X139259819Y-57283816D01*
X139259812Y-57283816D01*
X139226134Y-57280499D01*
X68291865Y-57280501D01*
X68257072Y-57283928D01*
X68242220Y-57283928D01*
X68232569Y-57284942D01*
X68010886Y-57309808D01*
X67949252Y-57322909D01*
X67887481Y-57335140D01*
X67878212Y-57338008D01*
X67878206Y-57338010D01*
X67665577Y-57405460D01*
X67607660Y-57430283D01*
X67549441Y-57454280D01*
X67540904Y-57458895D01*
X67345423Y-57566362D01*
X67293471Y-57601935D01*
X67240982Y-57636809D01*
X67233505Y-57642995D01*
X67062620Y-57786385D01*
X67018561Y-57831376D01*
X66973853Y-57875773D01*
X66967720Y-57883293D01*
X66967717Y-57883296D01*
X66967714Y-57883300D01*
X66827940Y-58057143D01*
X66793433Y-58109875D01*
X66758222Y-58162078D01*
X66753673Y-58170633D01*
X66753667Y-58170642D01*
X66753663Y-58170651D01*
X66650316Y-58368336D01*
X66626708Y-58426768D01*
X66602311Y-58484808D01*
X66599506Y-58494098D01*
X66536523Y-58708096D01*
X66524720Y-58769966D01*
X66512054Y-58831675D01*
X66511106Y-58841333D01*
X66490888Y-59063490D01*
X47455260Y-59063490D01*
X47378346Y-58676821D01*
X47198560Y-58242779D01*
X46937550Y-57852151D01*
X46605349Y-57519950D01*
X46214721Y-57258940D01*
X45780679Y-57079154D01*
X45319902Y-56987500D01*
X44850098Y-56987500D01*
X44389321Y-57079154D01*
X43955279Y-57258940D01*
X43564651Y-57519950D01*
X43232450Y-57852151D01*
X42971440Y-58242779D01*
X42791654Y-58676821D01*
X42700000Y-59137598D01*
X42570000Y-59137598D01*
X42570000Y-57499779D01*
X42584722Y-57349631D01*
X42618953Y-57236254D01*
X42674555Y-57131681D01*
X42749407Y-57039904D01*
X42840664Y-56964409D01*
X42944844Y-56908081D01*
X43057976Y-56873060D01*
X43206022Y-56857500D01*
X63151419Y-56857500D01*
X63179865Y-56854698D01*
X63187682Y-56854753D01*
X63196853Y-56853854D01*
X63443357Y-56827946D01*
X63501986Y-56815911D01*
X63560716Y-56804708D01*
X63569532Y-56802046D01*
X63569536Y-56802045D01*
X63569539Y-56802044D01*
X63806314Y-56728749D01*
X63861457Y-56705569D01*
X63916920Y-56683161D01*
X63925054Y-56678835D01*
X63925059Y-56678833D01*
X63925064Y-56678830D01*
X64143086Y-56560947D01*
X64192654Y-56527512D01*
X64242735Y-56494741D01*
X64249876Y-56488916D01*
X64440856Y-56330923D01*
X64482995Y-56288488D01*
X64525745Y-56246625D01*
X64531618Y-56239524D01*
X64688273Y-56047447D01*
X64721374Y-55997625D01*
X64755173Y-55948263D01*
X64759556Y-55940157D01*
X64875919Y-55721309D01*
X64898707Y-55666021D01*
X64922279Y-55611025D01*
X64925003Y-55602222D01*
X64996643Y-55364941D01*
X65008264Y-55306254D01*
X65020700Y-55247748D01*
X65021663Y-55238583D01*
X65045850Y-54991905D01*
X65045850Y-54991902D01*
X65049000Y-54959919D01*
X65049000Y-40279500D01*
X67535638Y-40279500D01*
X67539000Y-40313635D01*
X67539001Y-54245355D01*
X67535638Y-54279500D01*
X67549057Y-54415744D01*
X67588798Y-54546752D01*
X67653333Y-54667489D01*
X67740183Y-54773317D01*
X67846011Y-54860167D01*
X67966748Y-54924702D01*
X68097756Y-54964443D01*
X68199865Y-54974500D01*
X68199866Y-54974500D01*
X68234000Y-54977862D01*
X68268135Y-54974500D01*
X82199866Y-54974500D01*
X82234000Y-54977862D01*
X82370244Y-54964443D01*
X82501252Y-54924702D01*
X82621989Y-54860167D01*
X82727817Y-54773317D01*
X82814667Y-54667489D01*
X82879202Y-54546752D01*
X82918943Y-54415744D01*
X82929000Y-54313635D01*
X82932362Y-54279500D01*
X82929000Y-54245365D01*
X82929000Y-40313635D01*
X82932362Y-40279500D01*
X86585638Y-40279500D01*
X86589000Y-40313635D01*
X86589001Y-54245355D01*
X86585638Y-54279500D01*
X86599057Y-54415744D01*
X86638798Y-54546752D01*
X86703333Y-54667489D01*
X86790183Y-54773317D01*
X86896011Y-54860167D01*
X87016748Y-54924702D01*
X87147756Y-54964443D01*
X87249865Y-54974500D01*
X87249866Y-54974500D01*
X87284000Y-54977862D01*
X87318135Y-54974500D01*
X101249866Y-54974500D01*
X101284000Y-54977862D01*
X101420244Y-54964443D01*
X101551252Y-54924702D01*
X101671989Y-54860167D01*
X101777817Y-54773317D01*
X101864667Y-54667489D01*
X101929202Y-54546752D01*
X101968943Y-54415744D01*
X101979000Y-54313635D01*
X101982362Y-54279500D01*
X101979000Y-54245365D01*
X101979000Y-40313635D01*
X101982362Y-40279500D01*
X105635638Y-40279500D01*
X105639000Y-40313635D01*
X105639001Y-54245355D01*
X105635638Y-54279500D01*
X105649057Y-54415744D01*
X105688798Y-54546752D01*
X105753333Y-54667489D01*
X105840183Y-54773317D01*
X105946011Y-54860167D01*
X106066748Y-54924702D01*
X106197756Y-54964443D01*
X106299865Y-54974500D01*
X106299866Y-54974500D01*
X106334000Y-54977862D01*
X106368135Y-54974500D01*
X120299866Y-54974500D01*
X120334000Y-54977862D01*
X120470244Y-54964443D01*
X120601252Y-54924702D01*
X120721989Y-54860167D01*
X120827817Y-54773317D01*
X120914667Y-54667489D01*
X120979202Y-54546752D01*
X121018943Y-54415744D01*
X121029000Y-54313635D01*
X121032362Y-54279500D01*
X121029000Y-54245365D01*
X121029000Y-40313635D01*
X121032362Y-40279500D01*
X124685638Y-40279500D01*
X124689000Y-40313635D01*
X124689001Y-54245355D01*
X124685638Y-54279500D01*
X124699057Y-54415744D01*
X124738798Y-54546752D01*
X124803333Y-54667489D01*
X124890183Y-54773317D01*
X124996011Y-54860167D01*
X125116748Y-54924702D01*
X125247756Y-54964443D01*
X125349865Y-54974500D01*
X125349866Y-54974500D01*
X125384000Y-54977862D01*
X125418135Y-54974500D01*
X139349866Y-54974500D01*
X139384000Y-54977862D01*
X139520244Y-54964443D01*
X139651252Y-54924702D01*
X139771989Y-54860167D01*
X139877817Y-54773317D01*
X139964667Y-54667489D01*
X140029202Y-54546752D01*
X140068943Y-54415744D01*
X140079000Y-54313635D01*
X140082362Y-54279500D01*
X140079000Y-54245365D01*
X140079000Y-40313635D01*
X140082362Y-40279500D01*
X140068943Y-40143256D01*
X140029202Y-40012248D01*
X139964667Y-39891511D01*
X139877817Y-39785683D01*
X139771989Y-39698833D01*
X139651252Y-39634298D01*
X139520244Y-39594557D01*
X139418135Y-39584500D01*
X139418134Y-39584500D01*
X139384000Y-39581138D01*
X139349865Y-39584500D01*
X125418134Y-39584500D01*
X125384000Y-39581138D01*
X125349865Y-39584500D01*
X125247756Y-39594557D01*
X125116748Y-39634298D01*
X124996011Y-39698833D01*
X124890183Y-39785683D01*
X124803333Y-39891511D01*
X124738798Y-40012248D01*
X124699057Y-40143256D01*
X124685638Y-40279500D01*
X121032362Y-40279500D01*
X121018943Y-40143256D01*
X120979202Y-40012248D01*
X120914667Y-39891511D01*
X120827817Y-39785683D01*
X120721989Y-39698833D01*
X120601252Y-39634298D01*
X120470244Y-39594557D01*
X120368135Y-39584500D01*
X120368134Y-39584500D01*
X120334000Y-39581138D01*
X120299865Y-39584500D01*
X106368134Y-39584500D01*
X106334000Y-39581138D01*
X106299865Y-39584500D01*
X106197756Y-39594557D01*
X106066748Y-39634298D01*
X105946011Y-39698833D01*
X105840183Y-39785683D01*
X105753333Y-39891511D01*
X105688798Y-40012248D01*
X105649057Y-40143256D01*
X105635638Y-40279500D01*
X101982362Y-40279500D01*
X101968943Y-40143256D01*
X101929202Y-40012248D01*
X101864667Y-39891511D01*
X101777817Y-39785683D01*
X101671989Y-39698833D01*
X101551252Y-39634298D01*
X101420244Y-39594557D01*
X101318135Y-39584500D01*
X101318134Y-39584500D01*
X101284000Y-39581138D01*
X101249865Y-39584500D01*
X87318134Y-39584500D01*
X87284000Y-39581138D01*
X87249865Y-39584500D01*
X87147756Y-39594557D01*
X87016748Y-39634298D01*
X86896011Y-39698833D01*
X86790183Y-39785683D01*
X86703333Y-39891511D01*
X86638798Y-40012248D01*
X86599057Y-40143256D01*
X86585638Y-40279500D01*
X82932362Y-40279500D01*
X82918943Y-40143256D01*
X82879202Y-40012248D01*
X82814667Y-39891511D01*
X82727817Y-39785683D01*
X82621989Y-39698833D01*
X82501252Y-39634298D01*
X82370244Y-39594557D01*
X82268135Y-39584500D01*
X82268134Y-39584500D01*
X82234000Y-39581138D01*
X82199865Y-39584500D01*
X68268134Y-39584500D01*
X68234000Y-39581138D01*
X68199865Y-39584500D01*
X68097756Y-39594557D01*
X67966748Y-39634298D01*
X67846011Y-39698833D01*
X67740183Y-39785683D01*
X67653333Y-39891511D01*
X67588798Y-40012248D01*
X67549057Y-40143256D01*
X67535638Y-40279500D01*
X65049000Y-40279500D01*
X65049000Y-35762269D01*
X65196440Y-36118221D01*
X65457450Y-36508849D01*
X65789651Y-36841050D01*
X66180279Y-37102060D01*
X66614321Y-37281846D01*
X67075098Y-37373500D01*
X67544902Y-37373500D01*
X68005679Y-37281846D01*
X68439721Y-37102060D01*
X68830349Y-36841050D01*
X69162550Y-36508849D01*
X69423560Y-36118221D01*
X69603346Y-35684179D01*
X69695000Y-35223402D01*
X69695000Y-35007598D01*
X141633000Y-35007598D01*
X141633000Y-35477402D01*
X141724654Y-35938179D01*
X141904440Y-36372221D01*
X142165450Y-36762849D01*
X142497651Y-37095050D01*
X142888279Y-37356060D01*
X143322321Y-37535846D01*
X143783098Y-37627500D01*
X144252902Y-37627500D01*
X144713679Y-37535846D01*
X145147721Y-37356060D01*
X145538349Y-37095050D01*
X145870550Y-36762849D01*
X146131560Y-36372221D01*
X146311346Y-35938179D01*
X146403000Y-35477402D01*
X146403000Y-35007598D01*
X146311346Y-34546821D01*
X146131560Y-34112779D01*
X145870550Y-33722151D01*
X145538349Y-33389950D01*
X145147721Y-33128940D01*
X144713679Y-32949154D01*
X144252902Y-32857500D01*
X143783098Y-32857500D01*
X143322321Y-32949154D01*
X142888279Y-33128940D01*
X142497651Y-33389950D01*
X142165450Y-33722151D01*
X141904440Y-34112779D01*
X141724654Y-34546821D01*
X141633000Y-35007598D01*
X69695000Y-35007598D01*
X69695000Y-34753598D01*
X69603346Y-34292821D01*
X69423560Y-33858779D01*
X69162550Y-33468151D01*
X68830349Y-33135950D01*
X68439721Y-32874940D01*
X68083769Y-32727500D01*
X145890721Y-32727500D01*
X146040869Y-32742222D01*
G37*
%TD.AperFunction*%
D11*
X66180279Y-32874940D02*
X65789651Y-33135950D01*
X65457450Y-33468151D01*
X65196440Y-33858779D01*
X65049000Y-34214731D01*
X65049000Y-33369779D01*
X65063722Y-33219631D01*
X65097953Y-33106254D01*
X65153555Y-33001681D01*
X65228407Y-32909904D01*
X65319664Y-32834409D01*
X65423844Y-32778081D01*
X65536976Y-32743060D01*
X65685022Y-32727500D01*
X66536231Y-32727500D01*
X66180279Y-32874940D01*
%TA.AperFunction,NonConductor*%
D12*
G36*
X66180279Y-32874940D02*
G01*
X65789651Y-33135950D01*
X65457450Y-33468151D01*
X65196440Y-33858779D01*
X65049000Y-34214731D01*
X65049000Y-33369779D01*
X65063722Y-33219631D01*
X65097953Y-33106254D01*
X65153555Y-33001681D01*
X65228407Y-32909904D01*
X65319664Y-32834409D01*
X65423844Y-32778081D01*
X65536976Y-32743060D01*
X65685022Y-32727500D01*
X66536231Y-32727500D01*
X66180279Y-32874940D01*
G37*
%TD.AperFunction*%
M02*
