<?xml version="1.0" standalone="no"?>
 <!DOCTYPE svg PUBLIC "-//W3C//DTD SVG 1.1//EN" 
 "http://www.w3.org/Graphics/SVG/1.1/DTD/svg11.dtd"> 
<svg
  xmlns:svg="http://www.w3.org/2000/svg"
  xmlns="http://www.w3.org/2000/svg"
  xmlns:xlink="http://www.w3.org/1999/xlink"
  version="1.1"
  width="29.700220cm" height="21.000720cm" viewBox="0 0 116930 82680">
<title>SVG Picture created as contender_plate-brd.svg date 2020/12/01 23:56:07 </title>
  <desc>Picture generated by PCBNEW </desc>
<g style="fill:#000000; fill-opacity:1;stroke:#000000; stroke-opacity:1;
stroke-linecap:round; stroke-linejoin:round;"
 transform="translate(0 0) scale(1 1)">
</g>
<g style="fill:#000000; fill-opacity:0.0; 
stroke:#000000; stroke-width:-0.000393701; stroke-opacity:1; 
stroke-linecap:round; stroke-linejoin:round;">
</g>
<g style="fill:#000000; fill-opacity:0.0; 
stroke:#000000; stroke-width:39.3701; stroke-opacity:1; 
stroke-linecap:round; stroke-linejoin:round;">
</g>
<g style="fill:#000000; fill-opacity:0.0; 
stroke:#000000; stroke-width:59.0551; stroke-opacity:1; 
stroke-linecap:round; stroke-linejoin:round;">
<rect x="69685.9" y="65357.2" width="42519.7" height="12598.4" rx="0" />
</g>
<g style="fill:#000000; fill-opacity:0.0; 
stroke:#000000; stroke-width:39.3701; stroke-opacity:1; 
stroke-linecap:round; stroke-linejoin:round;">
</g>
<g style="fill:#000000; fill-opacity:0.0; 
stroke:#000000; stroke-width:59.0551; stroke-opacity:1; 
stroke-linecap:round; stroke-linejoin:round;">
<rect x="3937.01" y="3937.01" width="109056" height="74806" rx="0" />
</g>
<g style="fill:#000000; fill-opacity:0.0; 
stroke:#000000; stroke-width:39.3701; stroke-opacity:1; 
stroke-linecap:round; stroke-linejoin:round;">
</g>
<g style="fill:#000000; fill-opacity:0.0; 
stroke:#000000; stroke-width:59.0551; stroke-opacity:1; 
stroke-linecap:round; stroke-linejoin:round;">
<rect x="4724.41" y="4724.41" width="107481" height="73231.2" rx="0" />
</g>
<g style="fill:#000000; fill-opacity:0.0; 
stroke:#000000; stroke-width:39.3701; stroke-opacity:1; 
stroke-linecap:round; stroke-linejoin:round;">
</g>
<g style="fill:#000000; fill-opacity:0.0; 
stroke:#000000; stroke-width:59.0551; stroke-opacity:1; 
stroke-linecap:round; stroke-linejoin:round;">
<path d="M23622 4724
L23622 3937
" />
</g>
<g style="fill:#000000; fill-opacity:0.0; 
stroke:#000000; stroke-width:39.3701; stroke-opacity:1; 
stroke-linecap:round; stroke-linejoin:round;">
</g>
<g style="fill:#000000; fill-opacity:0.0; 
stroke:#000000; stroke-width:59.0551; stroke-opacity:1; 
stroke-linecap:round; stroke-linejoin:round;">
<path d="M43307 4724
L43307 3937
" />
</g>
<g style="fill:#000000; fill-opacity:0.0; 
stroke:#000000; stroke-width:39.3701; stroke-opacity:1; 
stroke-linecap:round; stroke-linejoin:round;">
</g>
<g style="fill:#000000; fill-opacity:0.0; 
stroke:#000000; stroke-width:59.0551; stroke-opacity:1; 
stroke-linecap:round; stroke-linejoin:round;">
<path d="M62992 4724
L62992 3937
" />
</g>
<g style="fill:#000000; fill-opacity:0.0; 
stroke:#000000; stroke-width:39.3701; stroke-opacity:1; 
stroke-linecap:round; stroke-linejoin:round;">
</g>
<g style="fill:#000000; fill-opacity:0.0; 
stroke:#000000; stroke-width:59.0551; stroke-opacity:1; 
stroke-linecap:round; stroke-linejoin:round;">
<path d="M82677 4724
L82677 3937
" />
</g>
<g style="fill:#000000; fill-opacity:0.0; 
stroke:#000000; stroke-width:39.3701; stroke-opacity:1; 
stroke-linecap:round; stroke-linejoin:round;">
</g>
<g style="fill:#000000; fill-opacity:0.0; 
stroke:#000000; stroke-width:59.0551; stroke-opacity:1; 
stroke-linecap:round; stroke-linejoin:round;">
<path d="M102362 4724
L102362 3937
" />
</g>
<g style="fill:#000000; fill-opacity:0.0; 
stroke:#000000; stroke-width:39.3701; stroke-opacity:1; 
stroke-linecap:round; stroke-linejoin:round;">
</g>
<g style="fill:#000000; fill-opacity:0.0; 
stroke:#000000; stroke-width:59.0551; stroke-opacity:1; 
stroke-linecap:round; stroke-linejoin:round;">
<text x="13779.5" y="4586.61"
textLength="546.494" font-size="682.415" lengthAdjust="spacingAndGlyphs"
text-anchor="start" opacity="0">1</text>
<path d="M14199 4562
L13906 4562
" />
<path d="M14052 4562
L14052 4050
L14004 4123
L13955 4172
L13906 4196
" />
</g>
<g style="fill:#000000; fill-opacity:0.0; 
stroke:#000000; stroke-width:39.3701; stroke-opacity:1; 
stroke-linecap:round; stroke-linejoin:round;">
</g>
<g style="fill:#000000; fill-opacity:0.0; 
stroke:#000000; stroke-width:59.0551; stroke-opacity:1; 
stroke-linecap:round; stroke-linejoin:round;">
<text x="33464.6" y="4586.61"
textLength="546.494" font-size="682.415" lengthAdjust="spacingAndGlyphs"
text-anchor="start" opacity="0">2</text>
<path d="M33591 4099
L33615 4074
L33664 4050
L33786 4050
L33835 4074
L33859 4099
L33884 4147
L33884 4196
L33859 4269
L33567 4562
L33884 4562
" />
</g>
<g style="fill:#000000; fill-opacity:0.0; 
stroke:#000000; stroke-width:39.3701; stroke-opacity:1; 
stroke-linecap:round; stroke-linejoin:round;">
</g>
<g style="fill:#000000; fill-opacity:0.0; 
stroke:#000000; stroke-width:59.0551; stroke-opacity:1; 
stroke-linecap:round; stroke-linejoin:round;">
<text x="53149.6" y="4586.61"
textLength="546.494" font-size="682.415" lengthAdjust="spacingAndGlyphs"
text-anchor="start" opacity="0">3</text>
<path d="M53252 4050
L53569 4050
L53398 4245
L53471 4245
L53520 4269
L53544 4294
L53569 4342
L53569 4464
L53544 4513
L53520 4537
L53471 4562
L53325 4562
L53276 4537
L53252 4513
" />
</g>
<g style="fill:#000000; fill-opacity:0.0; 
stroke:#000000; stroke-width:39.3701; stroke-opacity:1; 
stroke-linecap:round; stroke-linejoin:round;">
</g>
<g style="fill:#000000; fill-opacity:0.0; 
stroke:#000000; stroke-width:59.0551; stroke-opacity:1; 
stroke-linecap:round; stroke-linejoin:round;">
<text x="72834.6" y="4586.61"
textLength="546.494" font-size="682.415" lengthAdjust="spacingAndGlyphs"
text-anchor="start" opacity="0">4</text>
<path d="M73205 4221
L73205 4562
" />
<path d="M73083 4026
L72961 4391
L73278 4391
" />
</g>
<g style="fill:#000000; fill-opacity:0.0; 
stroke:#000000; stroke-width:39.3701; stroke-opacity:1; 
stroke-linecap:round; stroke-linejoin:round;">
</g>
<g style="fill:#000000; fill-opacity:0.0; 
stroke:#000000; stroke-width:59.0551; stroke-opacity:1; 
stroke-linecap:round; stroke-linejoin:round;">
<text x="92519.7" y="4586.61"
textLength="546.494" font-size="682.415" lengthAdjust="spacingAndGlyphs"
text-anchor="start" opacity="0">5</text>
<path d="M92914 4050
L92671 4050
L92646 4294
L92671 4269
L92719 4245
L92841 4245
L92890 4269
L92914 4294
L92939 4342
L92939 4464
L92914 4513
L92890 4537
L92841 4562
L92719 4562
L92671 4537
L92646 4513
" />
</g>
<g style="fill:#000000; fill-opacity:0.0; 
stroke:#000000; stroke-width:39.3701; stroke-opacity:1; 
stroke-linecap:round; stroke-linejoin:round;">
</g>
<g style="fill:#000000; fill-opacity:0.0; 
stroke:#000000; stroke-width:59.0551; stroke-opacity:1; 
stroke-linecap:round; stroke-linejoin:round;">
<text x="112205" y="4586.61"
textLength="546.494" font-size="682.415" lengthAdjust="spacingAndGlyphs"
text-anchor="start" opacity="0">6</text>
<path d="M112575 4050
L112477 4050
L112429 4074
L112404 4099
L112356 4172
L112331 4269
L112331 4464
L112356 4513
L112380 4537
L112429 4562
L112526 4562
L112575 4537
L112599 4513
L112624 4464
L112624 4342
L112599 4294
L112575 4269
L112526 4245
L112429 4245
L112380 4269
L112356 4294
L112331 4342
" />
</g>
<g style="fill:#000000; fill-opacity:0.0; 
stroke:#000000; stroke-width:39.3701; stroke-opacity:1; 
stroke-linecap:round; stroke-linejoin:round;">
</g>
<g style="fill:#000000; fill-opacity:0.0; 
stroke:#000000; stroke-width:59.0551; stroke-opacity:1; 
stroke-linecap:round; stroke-linejoin:round;">
<path d="M23622 77955
L23622 78742
" />
</g>
<g style="fill:#000000; fill-opacity:0.0; 
stroke:#000000; stroke-width:39.3701; stroke-opacity:1; 
stroke-linecap:round; stroke-linejoin:round;">
</g>
<g style="fill:#000000; fill-opacity:0.0; 
stroke:#000000; stroke-width:59.0551; stroke-opacity:1; 
stroke-linecap:round; stroke-linejoin:round;">
<path d="M43307 77955
L43307 78742
" />
</g>
<g style="fill:#000000; fill-opacity:0.0; 
stroke:#000000; stroke-width:39.3701; stroke-opacity:1; 
stroke-linecap:round; stroke-linejoin:round;">
</g>
<g style="fill:#000000; fill-opacity:0.0; 
stroke:#000000; stroke-width:59.0551; stroke-opacity:1; 
stroke-linecap:round; stroke-linejoin:round;">
<path d="M62992 77955
L62992 78742
" />
</g>
<g style="fill:#000000; fill-opacity:0.0; 
stroke:#000000; stroke-width:39.3701; stroke-opacity:1; 
stroke-linecap:round; stroke-linejoin:round;">
</g>
<g style="fill:#000000; fill-opacity:0.0; 
stroke:#000000; stroke-width:59.0551; stroke-opacity:1; 
stroke-linecap:round; stroke-linejoin:round;">
<path d="M82677 77955
L82677 78742
" />
</g>
<g style="fill:#000000; fill-opacity:0.0; 
stroke:#000000; stroke-width:39.3701; stroke-opacity:1; 
stroke-linecap:round; stroke-linejoin:round;">
</g>
<g style="fill:#000000; fill-opacity:0.0; 
stroke:#000000; stroke-width:59.0551; stroke-opacity:1; 
stroke-linecap:round; stroke-linejoin:round;">
<path d="M102362 77955
L102362 78742
" />
</g>
<g style="fill:#000000; fill-opacity:0.0; 
stroke:#000000; stroke-width:39.3701; stroke-opacity:1; 
stroke-linecap:round; stroke-linejoin:round;">
</g>
<g style="fill:#000000; fill-opacity:0.0; 
stroke:#000000; stroke-width:59.0551; stroke-opacity:1; 
stroke-linecap:round; stroke-linejoin:round;">
<text x="13779.5" y="78605.2"
textLength="546.494" font-size="682.415" lengthAdjust="spacingAndGlyphs"
text-anchor="start" opacity="0">1</text>
<path d="M14199 78580
L13906 78580
" />
<path d="M14052 78580
L14052 78069
L14004 78142
L13955 78190
L13906 78215
" />
</g>
<g style="fill:#000000; fill-opacity:0.0; 
stroke:#000000; stroke-width:39.3701; stroke-opacity:1; 
stroke-linecap:round; stroke-linejoin:round;">
</g>
<g style="fill:#000000; fill-opacity:0.0; 
stroke:#000000; stroke-width:59.0551; stroke-opacity:1; 
stroke-linecap:round; stroke-linejoin:round;">
<text x="33464.6" y="78605.2"
textLength="546.494" font-size="682.415" lengthAdjust="spacingAndGlyphs"
text-anchor="start" opacity="0">2</text>
<path d="M33591 78117
L33615 78093
L33664 78069
L33786 78069
L33835 78093
L33859 78117
L33884 78166
L33884 78215
L33859 78288
L33567 78580
L33884 78580
" />
</g>
<g style="fill:#000000; fill-opacity:0.0; 
stroke:#000000; stroke-width:39.3701; stroke-opacity:1; 
stroke-linecap:round; stroke-linejoin:round;">
</g>
<g style="fill:#000000; fill-opacity:0.0; 
stroke:#000000; stroke-width:59.0551; stroke-opacity:1; 
stroke-linecap:round; stroke-linejoin:round;">
<text x="53149.6" y="78605.2"
textLength="546.494" font-size="682.415" lengthAdjust="spacingAndGlyphs"
text-anchor="start" opacity="0">3</text>
<path d="M53252 78069
L53569 78069
L53398 78263
L53471 78263
L53520 78288
L53544 78312
L53569 78361
L53569 78483
L53544 78532
L53520 78556
L53471 78580
L53325 78580
L53276 78556
L53252 78532
" />
</g>
<g style="fill:#000000; fill-opacity:0.0; 
stroke:#000000; stroke-width:39.3701; stroke-opacity:1; 
stroke-linecap:round; stroke-linejoin:round;">
</g>
<g style="fill:#000000; fill-opacity:0.0; 
stroke:#000000; stroke-width:59.0551; stroke-opacity:1; 
stroke-linecap:round; stroke-linejoin:round;">
<text x="72834.6" y="78605.2"
textLength="546.494" font-size="682.415" lengthAdjust="spacingAndGlyphs"
text-anchor="start" opacity="0">4</text>
<path d="M73205 78239
L73205 78580
" />
<path d="M73083 78044
L72961 78410
L73278 78410
" />
</g>
<g style="fill:#000000; fill-opacity:0.0; 
stroke:#000000; stroke-width:39.3701; stroke-opacity:1; 
stroke-linecap:round; stroke-linejoin:round;">
</g>
<g style="fill:#000000; fill-opacity:0.0; 
stroke:#000000; stroke-width:59.0551; stroke-opacity:1; 
stroke-linecap:round; stroke-linejoin:round;">
<text x="92519.7" y="78605.2"
textLength="546.494" font-size="682.415" lengthAdjust="spacingAndGlyphs"
text-anchor="start" opacity="0">5</text>
<path d="M92914 78069
L92671 78069
L92646 78312
L92671 78288
L92719 78263
L92841 78263
L92890 78288
L92914 78312
L92939 78361
L92939 78483
L92914 78532
L92890 78556
L92841 78580
L92719 78580
L92671 78556
L92646 78532
" />
</g>
<g style="fill:#000000; fill-opacity:0.0; 
stroke:#000000; stroke-width:39.3701; stroke-opacity:1; 
stroke-linecap:round; stroke-linejoin:round;">
</g>
<g style="fill:#000000; fill-opacity:0.0; 
stroke:#000000; stroke-width:59.0551; stroke-opacity:1; 
stroke-linecap:round; stroke-linejoin:round;">
<text x="112205" y="78605.2"
textLength="546.494" font-size="682.415" lengthAdjust="spacingAndGlyphs"
text-anchor="start" opacity="0">6</text>
<path d="M112575 78069
L112477 78069
L112429 78093
L112404 78117
L112356 78190
L112331 78288
L112331 78483
L112356 78532
L112380 78556
L112429 78580
L112526 78580
L112575 78556
L112599 78532
L112624 78483
L112624 78361
L112599 78312
L112575 78288
L112526 78263
L112429 78263
L112380 78288
L112356 78312
L112331 78361
" />
</g>
<g style="fill:#000000; fill-opacity:0.0; 
stroke:#000000; stroke-width:39.3701; stroke-opacity:1; 
stroke-linecap:round; stroke-linejoin:round;">
</g>
<g style="fill:#000000; fill-opacity:0.0; 
stroke:#000000; stroke-width:59.0551; stroke-opacity:1; 
stroke-linecap:round; stroke-linejoin:round;">
<path d="M3937 23622
L4724 23622
" />
</g>
<g style="fill:#000000; fill-opacity:0.0; 
stroke:#000000; stroke-width:39.3701; stroke-opacity:1; 
stroke-linecap:round; stroke-linejoin:round;">
</g>
<g style="fill:#000000; fill-opacity:0.0; 
stroke:#000000; stroke-width:59.0551; stroke-opacity:1; 
stroke-linecap:round; stroke-linejoin:round;">
<path d="M3937 43307
L4724 43307
" />
</g>
<g style="fill:#000000; fill-opacity:0.0; 
stroke:#000000; stroke-width:39.3701; stroke-opacity:1; 
stroke-linecap:round; stroke-linejoin:round;">
</g>
<g style="fill:#000000; fill-opacity:0.0; 
stroke:#000000; stroke-width:59.0551; stroke-opacity:1; 
stroke-linecap:round; stroke-linejoin:round;">
<path d="M3937 62992
L4724 62992
" />
</g>
<g style="fill:#000000; fill-opacity:0.0; 
stroke:#000000; stroke-width:39.3701; stroke-opacity:1; 
stroke-linecap:round; stroke-linejoin:round;">
</g>
<g style="fill:#000000; fill-opacity:0.0; 
stroke:#000000; stroke-width:59.0551; stroke-opacity:1; 
stroke-linecap:round; stroke-linejoin:round;">
<text x="4330.71" y="14035.4"
textLength="497.75" font-size="682.415" lengthAdjust="spacingAndGlyphs"
text-anchor="middle" opacity="0">A</text>
<path d="M4208 13864
L4452 13864
" />
<path d="M4160 14011
L4330 13499
L4501 14011
" />
</g>
<g style="fill:#000000; fill-opacity:0.0; 
stroke:#000000; stroke-width:39.3701; stroke-opacity:1; 
stroke-linecap:round; stroke-linejoin:round;">
</g>
<g style="fill:#000000; fill-opacity:0.0; 
stroke:#000000; stroke-width:59.0551; stroke-opacity:1; 
stroke-linecap:round; stroke-linejoin:round;">
<text x="4330.71" y="33720.5"
textLength="570.866" font-size="682.415" lengthAdjust="spacingAndGlyphs"
text-anchor="middle" opacity="0">B</text>
<path d="M4367 33428
L4440 33452
L4464 33476
L4489 33525
L4489 33598
L4464 33647
L4440 33671
L4391 33696
L4196 33696
L4196 33184
L4367 33184
L4416 33208
L4440 33233
L4464 33281
L4464 33330
L4440 33379
L4416 33403
L4367 33428
L4196 33428
" />
</g>
<g style="fill:#000000; fill-opacity:0.0; 
stroke:#000000; stroke-width:39.3701; stroke-opacity:1; 
stroke-linecap:round; stroke-linejoin:round;">
</g>
<g style="fill:#000000; fill-opacity:0.0; 
stroke:#000000; stroke-width:59.0551; stroke-opacity:1; 
stroke-linecap:round; stroke-linejoin:round;">
<text x="4330.71" y="53405.5"
textLength="570.866" font-size="682.415" lengthAdjust="spacingAndGlyphs"
text-anchor="middle" opacity="0">C</text>
<path d="M4489 53332
L4464 53356
L4391 53381
L4342 53381
L4269 53356
L4221 53308
L4196 53259
L4172 53161
L4172 53088
L4196 52991
L4221 52942
L4269 52893
L4342 52869
L4391 52869
L4464 52893
L4489 52918
" />
</g>
<g style="fill:#000000; fill-opacity:0.0; 
stroke:#000000; stroke-width:39.3701; stroke-opacity:1; 
stroke-linecap:round; stroke-linejoin:round;">
</g>
<g style="fill:#000000; fill-opacity:0.0; 
stroke:#000000; stroke-width:59.0551; stroke-opacity:1; 
stroke-linecap:round; stroke-linejoin:round;">
<text x="4330.71" y="73090.6"
textLength="570.866" font-size="682.415" lengthAdjust="spacingAndGlyphs"
text-anchor="middle" opacity="0">D</text>
<path d="M4196 73066
L4196 72554
L4318 72554
L4391 72578
L4440 72627
L4464 72676
L4489 72773
L4489 72846
L4464 72944
L4440 72993
L4391 73041
L4318 73066
L4196 73066
" />
</g>
<g style="fill:#000000; fill-opacity:0.0; 
stroke:#000000; stroke-width:39.3701; stroke-opacity:1; 
stroke-linecap:round; stroke-linejoin:round;">
</g>
<g style="fill:#000000; fill-opacity:0.0; 
stroke:#000000; stroke-width:59.0551; stroke-opacity:1; 
stroke-linecap:round; stroke-linejoin:round;">
<path d="M112992 23622
L112205 23622
" />
</g>
<g style="fill:#000000; fill-opacity:0.0; 
stroke:#000000; stroke-width:39.3701; stroke-opacity:1; 
stroke-linecap:round; stroke-linejoin:round;">
</g>
<g style="fill:#000000; fill-opacity:0.0; 
stroke:#000000; stroke-width:59.0551; stroke-opacity:1; 
stroke-linecap:round; stroke-linejoin:round;">
<path d="M112992 43307
L112205 43307
" />
</g>
<g style="fill:#000000; fill-opacity:0.0; 
stroke:#000000; stroke-width:39.3701; stroke-opacity:1; 
stroke-linecap:round; stroke-linejoin:round;">
</g>
<g style="fill:#000000; fill-opacity:0.0; 
stroke:#000000; stroke-width:59.0551; stroke-opacity:1; 
stroke-linecap:round; stroke-linejoin:round;">
<path d="M112992 62992
L112205 62992
" />
</g>
<g style="fill:#000000; fill-opacity:0.0; 
stroke:#000000; stroke-width:39.3701; stroke-opacity:1; 
stroke-linecap:round; stroke-linejoin:round;">
</g>
<g style="fill:#000000; fill-opacity:0.0; 
stroke:#000000; stroke-width:59.0551; stroke-opacity:1; 
stroke-linecap:round; stroke-linejoin:round;">
<text x="112599" y="14035.4"
textLength="497.75" font-size="682.415" lengthAdjust="spacingAndGlyphs"
text-anchor="middle" opacity="0">A</text>
<path d="M112477 13864
L112721 13864
" />
<path d="M112428 14011
L112599 13499
L112769 14011
" />
</g>
<g style="fill:#000000; fill-opacity:0.0; 
stroke:#000000; stroke-width:39.3701; stroke-opacity:1; 
stroke-linecap:round; stroke-linejoin:round;">
</g>
<g style="fill:#000000; fill-opacity:0.0; 
stroke:#000000; stroke-width:59.0551; stroke-opacity:1; 
stroke-linecap:round; stroke-linejoin:round;">
<text x="112599" y="33720.5"
textLength="570.866" font-size="682.415" lengthAdjust="spacingAndGlyphs"
text-anchor="middle" opacity="0">B</text>
<path d="M112635 33428
L112708 33452
L112733 33476
L112757 33525
L112757 33598
L112733 33647
L112708 33671
L112660 33696
L112465 33696
L112465 33184
L112635 33184
L112684 33208
L112708 33233
L112733 33281
L112733 33330
L112708 33379
L112684 33403
L112635 33428
L112465 33428
" />
</g>
<g style="fill:#000000; fill-opacity:0.0; 
stroke:#000000; stroke-width:39.3701; stroke-opacity:1; 
stroke-linecap:round; stroke-linejoin:round;">
</g>
<g style="fill:#000000; fill-opacity:0.0; 
stroke:#000000; stroke-width:59.0551; stroke-opacity:1; 
stroke-linecap:round; stroke-linejoin:round;">
<text x="112599" y="53405.5"
textLength="570.866" font-size="682.415" lengthAdjust="spacingAndGlyphs"
text-anchor="middle" opacity="0">C</text>
<path d="M112757 53332
L112733 53356
L112660 53381
L112611 53381
L112538 53356
L112489 53308
L112465 53259
L112440 53161
L112440 53088
L112465 52991
L112489 52942
L112538 52893
L112611 52869
L112660 52869
L112733 52893
L112757 52918
" />
</g>
<g style="fill:#000000; fill-opacity:0.0; 
stroke:#000000; stroke-width:39.3701; stroke-opacity:1; 
stroke-linecap:round; stroke-linejoin:round;">
</g>
<g style="fill:#000000; fill-opacity:0.0; 
stroke:#000000; stroke-width:59.0551; stroke-opacity:1; 
stroke-linecap:round; stroke-linejoin:round;">
<text x="112599" y="73090.6"
textLength="570.866" font-size="682.415" lengthAdjust="spacingAndGlyphs"
text-anchor="middle" opacity="0">D</text>
<path d="M112465 73066
L112465 72554
L112587 72554
L112660 72578
L112708 72627
L112733 72676
L112757 72773
L112757 72846
L112733 72944
L112708 72993
L112660 73041
L112587 73066
L112465 73066
" />
</g>
<g style="fill:#000000; fill-opacity:0.0; 
stroke:#000000; stroke-width:39.3701; stroke-opacity:1; 
stroke-linecap:round; stroke-linejoin:round;">
</g>
<g style="fill:#000000; fill-opacity:0.0; 
stroke:#000000; stroke-width:59.0551; stroke-opacity:1; 
stroke-linecap:round; stroke-linejoin:round;">
<text x="78741" y="76321.7"
textLength="2758.72" font-size="787.402" lengthAdjust="spacingAndGlyphs"
text-anchor="start" opacity="0">Date: </text>
<path d="M78911 76293
L78911 75703
L79051 75703
L79136 75731
L79192 75787
L79220 75843
L79248 75956
L79248 76040
L79220 76153
L79192 76209
L79136 76265
L79051 76293
L78911 76293
" />
<path d="M79754 76293
L79754 75984
L79726 75928
L79670 75899
L79557 75899
L79501 75928
" />
<path d="M79754 76265
L79698 76293
L79557 76293
L79501 76265
L79473 76209
L79473 76153
L79501 76096
L79557 76068
L79698 76068
L79754 76040
" />
<path d="M79951 75899
L80176 75899
" />
<path d="M80036 75703
L80036 76209
L80064 76265
L80120 76293
L80176 76293
" />
<path d="M80598 76265
L80542 76293
L80429 76293
L80373 76265
L80345 76209
L80345 75984
L80373 75928
L80429 75899
L80542 75899
L80598 75928
L80626 75984
L80626 76040
L80345 76096
" />
<path d="M80879 76237
L80907 76265
L80879 76293
L80851 76265
L80879 76237
L80879 76293
" />
<path d="M80879 75928
L80907 75956
L80879 75984
L80851 75956
L80879 75928
L80879 75984
" />
</g>
<g style="fill:#000000; fill-opacity:0.0; 
stroke:#000000; stroke-width:39.3701; stroke-opacity:1; 
stroke-linecap:round; stroke-linejoin:round;">
</g>
<g style="fill:#000000; fill-opacity:0.0; 
stroke:#000000; stroke-width:59.0551; stroke-opacity:1; 
stroke-linecap:round; stroke-linejoin:round;">
<path d="M69685 76577
L112205 76577
" />
</g>
<g style="fill:#000000; fill-opacity:0.0; 
stroke:#000000; stroke-width:39.3701; stroke-opacity:1; 
stroke-linecap:round; stroke-linejoin:round;">
</g>
<g style="fill:#000000; fill-opacity:0.0; 
stroke:#000000; stroke-width:59.0551; stroke-opacity:1; 
stroke-linecap:round; stroke-linejoin:round;">
<text x="70079.6" y="77424.1"
textLength="17860" font-size="787.402" lengthAdjust="spacingAndGlyphs"
text-anchor="start" opacity="0">KiCad E.D.A.  pcbnew (5.1.7-0-10_14)</text>
<path d="M70249 77395
L70249 76805
" />
<path d="M70587 77395
L70334 77058
" />
<path d="M70587 76805
L70249 77142
" />
<path d="M70840 77395
L70840 77002
" />
<path d="M70840 76805
L70812 76833
L70840 76861
L70868 76833
L70840 76805
L70840 76861
" />
<path d="M71458 77339
L71430 77367
L71346 77395
L71290 77395
L71205 77367
L71149 77311
L71121 77255
L71093 77142
L71093 77058
L71121 76946
L71149 76889
L71205 76833
L71290 76805
L71346 76805
L71430 76833
L71458 76861
" />
<path d="M71965 77395
L71965 77086
L71937 77030
L71880 77002
L71768 77002
L71712 77030
" />
<path d="M71965 77367
L71908 77395
L71768 77395
L71712 77367
L71683 77311
L71683 77255
L71712 77199
L71768 77171
L71908 77171
L71965 77142
" />
<path d="M72499 77395
L72499 76805
" />
<path d="M72499 77367
L72443 77395
L72330 77395
L72274 77367
L72246 77339
L72218 77283
L72218 77114
L72246 77058
L72274 77030
L72330 77002
L72443 77002
L72499 77030
" />
<path d="M73230 77086
L73427 77086
" />
<path d="M73511 77395
L73230 77395
L73230 76805
L73511 76805
" />
<path d="M73764 77339
L73793 77367
L73764 77395
L73736 77367
L73764 77339
L73764 77395
" />
<path d="M74046 77395
L74046 76805
L74186 76805
L74271 76833
L74327 76889
L74355 76946
L74383 77058
L74383 77142
L74355 77255
L74327 77311
L74271 77367
L74186 77395
L74046 77395
" />
<path d="M74636 77339
L74664 77367
L74636 77395
L74608 77367
L74636 77339
L74636 77395
" />
<path d="M74889 77227
L75171 77227
" />
<path d="M74833 77395
L75030 76805
L75227 77395
" />
<path d="M75424 77339
L75452 77367
L75424 77395
L75395 77367
L75424 77339
L75424 77395
" />
<path d="M76605 77002
L76605 77592
" />
<path d="M76605 77030
L76661 77002
L76773 77002
L76830 77030
L76858 77058
L76886 77114
L76886 77283
L76858 77339
L76830 77367
L76773 77395
L76661 77395
L76605 77367
" />
<path d="M77392 77367
L77336 77395
L77223 77395
L77167 77367
L77139 77339
L77111 77283
L77111 77114
L77139 77058
L77167 77030
L77223 77002
L77336 77002
L77392 77030
" />
<path d="M77645 77395
L77645 76805
" />
<path d="M77645 77030
L77701 77002
L77814 77002
L77870 77030
L77898 77058
L77926 77114
L77926 77283
L77898 77339
L77870 77367
L77814 77395
L77701 77395
L77645 77367
" />
<path d="M78180 77002
L78180 77395
" />
<path d="M78180 77058
L78208 77030
L78264 77002
L78348 77002
L78404 77030
L78433 77086
L78433 77395
" />
<path d="M78939 77367
L78883 77395
L78770 77395
L78714 77367
L78686 77311
L78686 77086
L78714 77030
L78770 77002
L78883 77002
L78939 77030
L78967 77086
L78967 77142
L78686 77199
" />
<path d="M79164 77002
L79276 77395
L79389 77114
L79501 77395
L79614 77002
" />
<path d="M80457 77620
L80429 77592
L80373 77508
L80345 77452
L80317 77367
L80289 77227
L80289 77114
L80317 76974
L80345 76889
L80373 76833
L80429 76749
L80457 76721
" />
<path d="M80964 76805
L80682 76805
L80654 77086
L80682 77058
L80739 77030
L80879 77030
L80935 77058
L80964 77086
L80992 77142
L80992 77283
L80964 77339
L80935 77367
L80879 77395
L80739 77395
L80682 77367
L80654 77339
" />
<path d="M81245 77339
L81273 77367
L81245 77395
L81217 77367
L81245 77339
L81245 77395
" />
<path d="M81835 77395
L81498 77395
" />
<path d="M81667 77395
L81667 76805
L81610 76889
L81554 76946
L81498 76974
" />
<path d="M82088 77339
L82117 77367
L82088 77395
L82060 77367
L82088 77339
L82088 77395
" />
<path d="M82313 76805
L82707 76805
L82454 77395
" />
<path d="M82932 77171
L83382 77171
" />
<path d="M83776 76805
L83832 76805
L83888 76833
L83916 76861
L83944 76917
L83973 77030
L83973 77171
L83944 77283
L83916 77339
L83888 77367
L83832 77395
L83776 77395
L83719 77367
L83691 77339
L83663 77283
L83635 77171
L83635 77030
L83663 76917
L83691 76861
L83719 76833
L83776 76805
" />
<path d="M84226 77171
L84676 77171
" />
<path d="M85266 77395
L84929 77395
" />
<path d="M85097 77395
L85097 76805
L85041 76889
L84985 76946
L84929 76974
" />
<path d="M85632 76805
L85688 76805
L85744 76833
L85772 76861
L85800 76917
L85829 77030
L85829 77171
L85800 77283
L85772 77339
L85744 77367
L85688 77395
L85632 77395
L85575 77367
L85547 77339
L85519 77283
L85491 77171
L85491 77030
L85519 76917
L85547 76861
L85575 76833
L85632 76805
" />
<path d="M85941 77452
L86391 77452
" />
<path d="M86841 77395
L86503 77395
" />
<path d="M86672 77395
L86672 76805
L86616 76889
L86560 76946
L86503 76974
" />
<path d="M87347 77002
L87347 77395
" />
<path d="M87206 76777
L87066 77199
L87431 77199
" />
<path d="M87600 77620
L87628 77592
L87685 77508
L87713 77452
L87741 77367
L87769 77227
L87769 77114
L87741 76974
L87713 76889
L87685 76833
L87628 76749
L87600 76721
" />
</g>
<g style="fill:#000000; fill-opacity:0.0; 
stroke:#000000; stroke-width:39.3701; stroke-opacity:1; 
stroke-linecap:round; stroke-linejoin:round;">
</g>
<g style="fill:#000000; fill-opacity:0.0; 
stroke:#000000; stroke-width:59.0551; stroke-opacity:1; 
stroke-linecap:round; stroke-linejoin:round;">
<path d="M69685 75396
L112205 75396
" />
</g>
<g style="fill:#000000; fill-opacity:0.0; 
stroke:#000000; stroke-width:39.3701; stroke-opacity:1; 
stroke-linecap:round; stroke-linejoin:round;">
</g>
<g style="fill:#000000; fill-opacity:0.0; 
stroke:#000000; stroke-width:118.11; stroke-opacity:1; 
stroke-linecap:round; stroke-linejoin:round;">
<text x="103544" y="76321.7"
textLength="2336.9" font-size="787.402" lengthAdjust="spacingAndGlyphs"
text-anchor="start" opacity="0">Rev: </text>
<path d="M104099 76293
L103902 76012
" />
<path d="M103761 76293
L103761 75703
L103986 75703
L104042 75731
L104070 75759
L104099 75815
L104099 75899
L104070 75956
L104042 75984
L103986 76012
L103761 76012
" />
<path d="M104577 76265
L104520 76293
L104408 76293
L104352 76265
L104323 76209
L104323 75984
L104352 75928
L104408 75899
L104520 75899
L104577 75928
L104605 75984
L104605 76040
L104323 76096
" />
<path d="M104802 75899
L104942 76293
L105083 75899
" />
<path d="M105308 76237
L105336 76265
L105308 76293
L105280 76265
L105308 76237
L105308 76293
" />
<path d="M105308 75928
L105336 75956
L105308 75984
L105280 75956
L105308 75928
L105308 75984
" />
</g>
<g style="fill:#000000; fill-opacity:0.0; 
stroke:#000000; stroke-width:39.3701; stroke-opacity:1; 
stroke-linecap:round; stroke-linejoin:round;">
</g>
<g style="fill:#000000; fill-opacity:0.0; 
stroke:#000000; stroke-width:59.0551; stroke-opacity:1; 
stroke-linecap:round; stroke-linejoin:round;">
<text x="70079.6" y="76321.7"
textLength="3781.21" font-size="787.402" lengthAdjust="spacingAndGlyphs"
text-anchor="start" opacity="0">Size: A4</text>
<path d="M70221 76265
L70305 76293
L70446 76293
L70502 76265
L70530 76237
L70559 76181
L70559 76124
L70530 76068
L70502 76040
L70446 76012
L70334 75984
L70277 75956
L70249 75928
L70221 75871
L70221 75815
L70249 75759
L70277 75731
L70334 75703
L70474 75703
L70559 75731
" />
<path d="M70812 76293
L70812 75899
" />
<path d="M70812 75703
L70784 75731
L70812 75759
L70840 75731
L70812 75703
L70812 75759
" />
<path d="M71037 75899
L71346 75899
L71037 76293
L71346 76293
" />
<path d="M71796 76265
L71740 76293
L71627 76293
L71571 76265
L71543 76209
L71543 75984
L71571 75928
L71627 75899
L71740 75899
L71796 75928
L71824 75984
L71824 76040
L71543 76096
" />
<path d="M72077 76237
L72105 76265
L72077 76293
L72049 76265
L72077 76237
L72077 76293
" />
<path d="M72077 75928
L72105 75956
L72077 75984
L72049 75956
L72077 75928
L72077 75984
" />
<path d="M72780 76124
L73061 76124
" />
<path d="M72724 76293
L72921 75703
L73118 76293
" />
<path d="M73568 75899
L73568 76293
" />
<path d="M73427 75674
L73286 76096
L73652 76096
" />
</g>
<g style="fill:#000000; fill-opacity:0.0; 
stroke:#000000; stroke-width:39.3701; stroke-opacity:1; 
stroke-linecap:round; stroke-linejoin:round;">
</g>
<g style="fill:#000000; fill-opacity:0.0; 
stroke:#000000; stroke-width:59.0551; stroke-opacity:1; 
stroke-linecap:round; stroke-linejoin:round;">
<text x="103544" y="77424.1"
textLength="3349.27" font-size="787.402" lengthAdjust="spacingAndGlyphs"
text-anchor="start" opacity="0">Id: 1/1</text>
<path d="M103714 77395
L103714 76805
" />
<path d="M104248 77395
L104248 76805
" />
<path d="M104248 77367
L104192 77395
L104079 77395
L104023 77367
L103995 77339
L103967 77283
L103967 77114
L103995 77058
L104023 77030
L104079 77002
L104192 77002
L104248 77030
" />
<path d="M104529 77339
L104557 77367
L104529 77395
L104501 77367
L104529 77339
L104529 77395
" />
<path d="M104529 77030
L104557 77058
L104529 77086
L104501 77058
L104529 77030
L104529 77086
" />
<path d="M105570 77395
L105232 77395
" />
<path d="M105401 77395
L105401 76805
L105345 76889
L105289 76946
L105232 76974
" />
<path d="M106245 76777
L105739 77536
" />
<path d="M106751 77395
L106413 77395
" />
<path d="M106582 77395
L106582 76805
L106526 76889
L106470 76946
L106413 76974
" />
</g>
<g style="fill:#000000; fill-opacity:0.0; 
stroke:#000000; stroke-width:39.3701; stroke-opacity:1; 
stroke-linecap:round; stroke-linejoin:round;">
</g>
<g style="fill:#000000; fill-opacity:0.0; 
stroke:#000000; stroke-width:59.0551; stroke-opacity:1; 
stroke-linecap:round; stroke-linejoin:round;">
<path d="M69685 73821
L112205 73821
" />
</g>
<g style="fill:#000000; fill-opacity:0.0; 
stroke:#000000; stroke-width:39.3701; stroke-opacity:1; 
stroke-linecap:round; stroke-linejoin:round;">
</g>
<g style="fill:#000000; fill-opacity:0.0; 
stroke:#000000; stroke-width:157.48; stroke-opacity:1; 
stroke-linecap:round; stroke-linejoin:round;">
<text x="70079.6" y="74924.1"
textLength="3701.14" font-size="1049.87" lengthAdjust="spacingAndGlyphs"
text-anchor="start" opacity="0">Title: </text>
<path d="M70360 74099
L70810 74099
" />
<path d="M70486 74886
L70585 74099
" />
<path d="M70974 74886
L71039 74361
" />
<path d="M71072 74099
L71030 74136
L71063 74174
L71105 74136
L71072 74099
L71063 74174
" />
<path d="M71302 74361
L71602 74361
" />
<path d="M71447 74099
L71363 74774
L71391 74849
L71461 74886
L71536 74886
" />
<path d="M71911 74886
L71841 74849
L71813 74774
L71897 74099
" />
<path d="M72516 74849
L72436 74886
L72286 74886
L72216 74849
L72187 74774
L72225 74474
L72272 74399
L72352 74361
L72501 74361
L72572 74399
L72600 74474
L72591 74549
L72206 74624
" />
<path d="M72895 74811
L72928 74849
L72886 74886
L72853 74849
L72895 74811
L72886 74886
" />
<path d="M72947 74399
L72980 74436
L72937 74474
L72905 74436
L72947 74399
L72937 74474
" />
</g>
<g style="fill:#000000; fill-opacity:0.0; 
stroke:#000000; stroke-width:39.3701; stroke-opacity:1; 
stroke-linecap:round; stroke-linejoin:round;">
</g>
<g style="fill:#000000; fill-opacity:0.0; 
stroke:#000000; stroke-width:59.0551; stroke-opacity:1; 
stroke-linecap:round; stroke-linejoin:round;">
<text x="70079.6" y="73408.3"
textLength="14209.2" font-size="787.402" lengthAdjust="spacingAndGlyphs"
text-anchor="start" opacity="0">File: contender_plate.kicad_pcb</text>
<path d="M70446 73070
L70249 73070
" />
<path d="M70249 73380
L70249 72789
L70530 72789
" />
<path d="M70755 73380
L70755 72986
" />
<path d="M70755 72789
L70727 72817
L70755 72845
L70784 72817
L70755 72789
L70755 72845
" />
<path d="M71121 73380
L71065 73352
L71037 73295
L71037 72789
" />
<path d="M71571 73352
L71515 73380
L71402 73380
L71346 73352
L71318 73295
L71318 73070
L71346 73014
L71402 72986
L71515 72986
L71571 73014
L71599 73070
L71599 73127
L71318 73183
" />
<path d="M71852 73323
L71880 73352
L71852 73380
L71824 73352
L71852 73323
L71852 73380
" />
<path d="M71852 73014
L71880 73042
L71852 73070
L71824 73042
L71852 73014
L71852 73070
" />
<path d="M72836 73352
L72780 73380
L72668 73380
L72611 73352
L72583 73323
L72555 73267
L72555 73099
L72583 73042
L72611 73014
L72668 72986
L72780 72986
L72836 73014
" />
<path d="M73174 73380
L73118 73352
L73090 73323
L73061 73267
L73061 73099
L73090 73042
L73118 73014
L73174 72986
L73258 72986
L73314 73014
L73343 73042
L73371 73099
L73371 73267
L73343 73323
L73314 73352
L73258 73380
L73174 73380
" />
<path d="M73624 72986
L73624 73380
" />
<path d="M73624 73042
L73652 73014
L73708 72986
L73793 72986
L73849 73014
L73877 73070
L73877 73380
" />
<path d="M74074 72986
L74299 72986
" />
<path d="M74158 72789
L74158 73295
L74186 73352
L74242 73380
L74299 73380
" />
<path d="M74721 73352
L74664 73380
L74552 73380
L74496 73352
L74467 73295
L74467 73070
L74496 73014
L74552 72986
L74664 72986
L74721 73014
L74749 73070
L74749 73127
L74467 73183
" />
<path d="M75002 72986
L75002 73380
" />
<path d="M75002 73042
L75030 73014
L75086 72986
L75171 72986
L75227 73014
L75255 73070
L75255 73380
" />
<path d="M75789 73380
L75789 72789
" />
<path d="M75789 73352
L75733 73380
L75620 73380
L75564 73352
L75536 73323
L75508 73267
L75508 73099
L75536 73042
L75564 73014
L75620 72986
L75733 72986
L75789 73014
" />
<path d="M76295 73352
L76239 73380
L76127 73380
L76070 73352
L76042 73295
L76042 73070
L76070 73014
L76127 72986
L76239 72986
L76295 73014
L76323 73070
L76323 73127
L76042 73183
" />
<path d="M76577 73380
L76577 72986
" />
<path d="M76577 73099
L76605 73042
L76633 73014
L76689 72986
L76745 72986
" />
<path d="M76802 73436
L77251 73436
" />
<path d="M77392 72986
L77392 73577
" />
<path d="M77392 73014
L77448 72986
L77561 72986
L77617 73014
L77645 73042
L77673 73099
L77673 73267
L77645 73323
L77617 73352
L77561 73380
L77448 73380
L77392 73352
" />
<path d="M78011 73380
L77955 73352
L77926 73295
L77926 72789
" />
<path d="M78489 73380
L78489 73070
L78461 73014
L78404 72986
L78292 72986
L78236 73014
" />
<path d="M78489 73352
L78433 73380
L78292 73380
L78236 73352
L78208 73295
L78208 73239
L78236 73183
L78292 73155
L78433 73155
L78489 73127
" />
<path d="M78686 72986
L78911 72986
" />
<path d="M78770 72789
L78770 73295
L78798 73352
L78854 73380
L78911 73380
" />
<path d="M79332 73352
L79276 73380
L79164 73380
L79108 73352
L79079 73295
L79079 73070
L79108 73014
L79164 72986
L79276 72986
L79332 73014
L79361 73070
L79361 73127
L79079 73183
" />
<path d="M79614 73323
L79642 73352
L79614 73380
L79586 73352
L79614 73323
L79614 73380
" />
<path d="M79895 73380
L79895 72789
" />
<path d="M79951 73155
L80120 73380
" />
<path d="M80120 72986
L79895 73211
" />
<path d="M80373 73380
L80373 72986
" />
<path d="M80373 72789
L80345 72817
L80373 72845
L80401 72817
L80373 72789
L80373 72845
" />
<path d="M80907 73352
L80851 73380
L80739 73380
L80682 73352
L80654 73323
L80626 73267
L80626 73099
L80654 73042
L80682 73014
L80739 72986
L80851 72986
L80907 73014
" />
<path d="M81413 73380
L81413 73070
L81385 73014
L81329 72986
L81217 72986
L81160 73014
" />
<path d="M81413 73352
L81357 73380
L81217 73380
L81160 73352
L81132 73295
L81132 73239
L81160 73183
L81217 73155
L81357 73155
L81413 73127
" />
<path d="M81948 73380
L81948 72789
" />
<path d="M81948 73352
L81892 73380
L81779 73380
L81723 73352
L81695 73323
L81667 73267
L81667 73099
L81695 73042
L81723 73014
L81779 72986
L81892 72986
L81948 73014
" />
<path d="M82088 73436
L82538 73436
" />
<path d="M82679 72986
L82679 73577
" />
<path d="M82679 73014
L82735 72986
L82848 72986
L82904 73014
L82932 73042
L82960 73099
L82960 73267
L82932 73323
L82904 73352
L82848 73380
L82735 73380
L82679 73352
" />
<path d="M83466 73352
L83410 73380
L83298 73380
L83241 73352
L83213 73323
L83185 73267
L83185 73099
L83213 73042
L83241 73014
L83298 72986
L83410 72986
L83466 73014
" />
<path d="M83719 73380
L83719 72789
" />
<path d="M83719 73014
L83776 72986
L83888 72986
L83944 73014
L83973 73042
L84001 73099
L84001 73267
L83973 73323
L83944 73352
L83888 73380
L83776 73380
L83719 73352
" />
</g>
<g style="fill:#000000; fill-opacity:0.0; 
stroke:#000000; stroke-width:39.3701; stroke-opacity:1; 
stroke-linecap:round; stroke-linejoin:round;">
</g>
<g style="fill:#000000; fill-opacity:0.0; 
stroke:#000000; stroke-width:59.0551; stroke-opacity:1; 
stroke-linecap:round; stroke-linejoin:round;">
<path d="M69685 71459
L112205 71459
" />
</g>
<g style="fill:#000000; fill-opacity:0.0; 
stroke:#000000; stroke-width:39.3701; stroke-opacity:1; 
stroke-linecap:round; stroke-linejoin:round;">
</g>
<g style="fill:#000000; fill-opacity:0.0; 
stroke:#000000; stroke-width:59.0551; stroke-opacity:1; 
stroke-linecap:round; stroke-linejoin:round;">
<text x="70079.6" y="72345.4"
textLength="3236.78" font-size="787.402" lengthAdjust="spacingAndGlyphs"
text-anchor="start" opacity="0">Sheet: </text>
<path d="M70221 72289
L70305 72317
L70446 72317
L70502 72289
L70530 72260
L70559 72204
L70559 72148
L70530 72092
L70502 72064
L70446 72036
L70334 72007
L70277 71979
L70249 71951
L70221 71895
L70221 71839
L70249 71782
L70277 71754
L70334 71726
L70474 71726
L70559 71754
" />
<path d="M70812 72317
L70812 71726
" />
<path d="M71065 72317
L71065 72007
L71037 71951
L70980 71923
L70896 71923
L70840 71951
L70812 71979
" />
<path d="M71571 72289
L71515 72317
L71402 72317
L71346 72289
L71318 72232
L71318 72007
L71346 71951
L71402 71923
L71515 71923
L71571 71951
L71599 72007
L71599 72064
L71318 72120
" />
<path d="M72077 72289
L72021 72317
L71908 72317
L71852 72289
L71824 72232
L71824 72007
L71852 71951
L71908 71923
L72021 71923
L72077 71951
L72105 72007
L72105 72064
L71824 72120
" />
<path d="M72274 71923
L72499 71923
" />
<path d="M72358 71726
L72358 72232
L72386 72289
L72443 72317
L72499 72317
" />
<path d="M72696 72260
L72724 72289
L72696 72317
L72668 72289
L72696 72260
L72696 72317
" />
<path d="M72696 71951
L72724 71979
L72696 72007
L72668 71979
L72696 71951
L72696 72007
" />
</g>
<g style="fill:#000000; fill-opacity:0.0; 
stroke:#000000; stroke-width:39.3701; stroke-opacity:1; 
stroke-linecap:round; stroke-linejoin:round;">
</g>
<g style="fill:#000000; fill-opacity:0.0; 
stroke:#000000; stroke-width:59.0551; stroke-opacity:1; 
stroke-linecap:round; stroke-linejoin:round;">
<path d="M77559 75396
L77559 76577
" />
</g>
<g style="fill:#000000; fill-opacity:0.0; 
stroke:#000000; stroke-width:39.3701; stroke-opacity:1; 
stroke-linecap:round; stroke-linejoin:round;">
</g>
<g style="fill:#000000; fill-opacity:0.0; 
stroke:#000000; stroke-width:59.0551; stroke-opacity:1; 
stroke-linecap:round; stroke-linejoin:round;">
<path d="M102756 75396
L102756 77955
" />
<g >
</g>
<g style="fill:#848400; fill-opacity:0.0; 
stroke:#848400; stroke-width:59.0551; stroke-opacity:1; 
stroke-linecap:round; stroke-linejoin:round;">
</g>
<g style="fill:#848400; fill-opacity:1.0; 
stroke:#848400; stroke-width:0; stroke-opacity:1; 
stroke-linecap:round; stroke-linejoin:round;">
<circle cx="26500" cy="13775" r="688.976" /> 
</g>
<g style="fill:#848400; fill-opacity:1.0; 
stroke:#848400; stroke-width:39.3701; stroke-opacity:1; 
stroke-linecap:round; stroke-linejoin:round;">
</g>
<g >
</g>
<g style="fill:#848400; fill-opacity:1.0; 
stroke:#848400; stroke-width:39.3701; stroke-opacity:1; 
stroke-linecap:round; stroke-linejoin:round;">
</g>
<g style="fill:#848400; fill-opacity:1.0; 
stroke:#848400; stroke-width:0; stroke-opacity:1; 
stroke-linecap:round; stroke-linejoin:round;">
<circle cx="56700" cy="13875" r="688.976" /> 
</g>
<g style="fill:#848400; fill-opacity:1.0; 
stroke:#848400; stroke-width:39.3701; stroke-opacity:1; 
stroke-linecap:round; stroke-linejoin:round;">
</g>
<g >
</g>
<g style="fill:#848400; fill-opacity:1.0; 
stroke:#848400; stroke-width:39.3701; stroke-opacity:1; 
stroke-linecap:round; stroke-linejoin:round;">
</g>
<g style="fill:#848400; fill-opacity:1.0; 
stroke:#848400; stroke-width:0; stroke-opacity:1; 
stroke-linecap:round; stroke-linejoin:round;">
<circle cx="17750" cy="23375" r="688.976" /> 
</g>
<g style="fill:#848400; fill-opacity:1.0; 
stroke:#848400; stroke-width:39.3701; stroke-opacity:1; 
stroke-linecap:round; stroke-linejoin:round;">
</g>
<g >
</g>
<g style="fill:#848400; fill-opacity:1.0; 
stroke:#848400; stroke-width:39.3701; stroke-opacity:1; 
stroke-linecap:round; stroke-linejoin:round;">
</g>
<g style="fill:#848400; fill-opacity:1.0; 
stroke:#848400; stroke-width:0; stroke-opacity:1; 
stroke-linecap:round; stroke-linejoin:round;">
<circle cx="56700" cy="62975" r="688.976" /> 
</g>
<g style="fill:#848400; fill-opacity:1.0; 
stroke:#848400; stroke-width:39.3701; stroke-opacity:1; 
stroke-linecap:round; stroke-linejoin:round;">
</g>
<g >
</g>
<g style="fill:#848400; fill-opacity:1.0; 
stroke:#848400; stroke-width:39.3701; stroke-opacity:1; 
stroke-linecap:round; stroke-linejoin:round;">
</g>
<g style="fill:#848400; fill-opacity:1.0; 
stroke:#848400; stroke-width:0; stroke-opacity:1; 
stroke-linecap:round; stroke-linejoin:round;">
<circle cx="17700" cy="62975" r="688.976" /> 
</g>
<g style="fill:#848400; fill-opacity:1.0; 
stroke:#848400; stroke-width:39.3701; stroke-opacity:1; 
stroke-linecap:round; stroke-linejoin:round;">
</g>
<g >
</g>
<g >
</g>
<g >
</g>
<g style="fill:#840000; fill-opacity:1.0; 
stroke:#840000; stroke-width:39.3701; stroke-opacity:1; 
stroke-linecap:round; stroke-linejoin:round;">
<g >
</g>
<g style="fill:#840000; fill-opacity:1.0; 
stroke:#840000; stroke-width:100; stroke-opacity:1; 
stroke-linecap:round; stroke-linejoin:round;">
<path style="fill:#840000; fill-opacity:1.0; 
stroke:#840000; stroke-width:100; stroke-opacity:1; 
stroke-linecap:round; stroke-linejoin:round;fill-rule:evenodd;"
d="M 57496.4,12890.6
57541,12904.1
57582.2,12926
57618.3,12955.5
57648.1,12991.4
57670.2,13032.4
57684,13077
57690.2,13135.2
57690.2,63662.3
57684.4,63721.4
57670.9,63766
57649,63807.2
57619.5,63843.3
57583.6,63873.1
57542.6,63895.2
57498,63909
57439.8,63915.2
17012.7,63915.2
16953.6,63909.4
16909,63895.9
16867.8,63874
16831.7,63844.5
16801.9,63808.6
16779.8,63767.6
16766,63723
16759.8,63664.8
16759.8,62882.5
16761,62882.5
16761,63067.5
16797.1,63248.9
16867.9,63419.8
16970.6,63573.6
17101.4,63704.4
17255.2,63807.1
17426.1,63877.9
17607.5,63914
17792.5,63914
17973.9,63877.9
18144.8,63807.1
18298.6,63704.4
18429.4,63573.6
18532.1,63419.8
18602.9,63248.9
18639,63067.5
18639,62882.5
55761,62882.5
55761,63067.5
55797.1,63248.9
55867.9,63419.8
55970.6,63573.6
56101.4,63704.4
56255.2,63807.1
56426.1,63877.9
56607.5,63914
56792.5,63914
56973.9,63877.9
57144.8,63807.1
57298.6,63704.4
57429.4,63573.6
57532.1,63419.8
57602.9,63248.9
57639,63067.5
57639,62882.5
57602.9,62701.1
57532.1,62530.2
57429.4,62376.4
57298.6,62245.6
57144.8,62142.9
56973.9,62072.1
56792.5,62036
56607.5,62036
56426.1,62072.1
56255.2,62142.9
56101.4,62245.6
55970.6,62376.4
55867.9,62530.2
55797.1,62701.1
55761,62882.5
18639,62882.5
18602.9,62701.1
18532.1,62530.2
18429.4,62376.4
18298.6,62245.6
18144.8,62142.9
17973.9,62072.1
17792.5,62036
17607.5,62036
17426.1,62072.1
17255.2,62142.9
17101.4,62245.6
16970.6,62376.4
16867.9,62530.2
16797.1,62701.1
16761,62882.5
16759.8,62882.5
16759.8,55232.1
19088.8,55232.1
19090.2,55245.5
19090.2,60730.5
19088.8,60743.9
19094.1,60797.5
19109.8,60849.1
19135.2,60896.6
19169.4,60938.3
19211,60972.5
19258.6,60997.9
19310.1,61013.6
19350.3,61017.5
19350.3,61017.5
19363.8,61018.8
19377.2,61017.5
24862.2,61017.5
24875.6,61018.8
24929.2,61013.6
24980.8,60997.9
25028.3,60972.5
25070,60938.3
25104.2,60896.6
25129.6,60849.1
25145.3,60797.5
25149.2,60757.3
25150.5,60743.9
25149.2,60730.5
25149.2,55245.5
25150.5,55232.1
26588.8,55232.1
26590.2,55245.5
26590.2,60730.5
26588.8,60743.9
26594.1,60797.5
26609.8,60849.1
26635.2,60896.6
26669.4,60938.3
26711,60972.5
26758.6,60997.9
26810.1,61013.6
26850.3,61017.5
26850.3,61017.5
26863.8,61018.8
26877.2,61017.5
32362.2,61017.5
32375.6,61018.8
32429.2,61013.6
32480.8,60997.9
32528.3,60972.5
32570,60938.3
32604.2,60896.6
32629.6,60849.1
32645.3,60797.5
32649.2,60757.3
32650.5,60743.9
32649.2,60730.5
32649.2,55245.5
32650.5,55232.1
34088.8,55232.1
34090.2,55245.5
34090.2,60730.5
34088.8,60743.9
34094.1,60797.5
34109.8,60849.1
34135.2,60896.6
34169.4,60938.3
34211,60972.5
34258.6,60997.9
34310.1,61013.6
34350.3,61017.5
34350.3,61017.5
34363.8,61018.8
34377.2,61017.5
39862.2,61017.5
39875.6,61018.8
39929.2,61013.6
39980.8,60997.9
40028.3,60972.5
40070,60938.3
40104.2,60896.6
40129.6,60849.1
40145.3,60797.5
40149.2,60757.3
40150.5,60743.9
40149.2,60730.5
40149.2,55245.5
40150.5,55232.1
41588.8,55232.1
41590.2,55245.5
41590.2,60730.5
41588.8,60743.9
41594.1,60797.5
41609.8,60849.1
41635.2,60896.6
41669.4,60938.3
41711,60972.5
41758.6,60997.9
41810.1,61013.6
41850.3,61017.5
41850.3,61017.5
41863.8,61018.8
41877.2,61017.5
47362.2,61017.5
47375.6,61018.8
47429.2,61013.6
47480.8,60997.9
47528.3,60972.5
47570,60938.3
47604.2,60896.6
47629.6,60849.1
47645.3,60797.5
47649.2,60757.3
47650.5,60743.9
47649.2,60730.5
47649.2,55245.5
47650.5,55232.1
47645.3,55178.4
47629.6,55126.9
47604.2,55079.3
47570,55037.7
47528.3,55003.5
47480.8,54978.1
47429.2,54962.4
47389,54958.5
47389,54958.5
47375.6,54957.1
47362.2,54958.5
41877.2,54958.5
41863.8,54957.1
41850.3,54958.5
41810.1,54962.4
41758.6,54978.1
41711,55003.5
41669.4,55037.7
41635.2,55079.3
41609.8,55126.9
41594.1,55178.4
41588.8,55232.1
40150.5,55232.1
40145.3,55178.4
40129.6,55126.9
40104.2,55079.3
40070,55037.7
40028.3,55003.5
39980.8,54978.1
39929.2,54962.4
39889,54958.5
39889,54958.5
39875.6,54957.1
39862.2,54958.5
34377.2,54958.5
34363.8,54957.1
34350.3,54958.5
34310.1,54962.4
34258.6,54978.1
34211,55003.5
34169.4,55037.7
34135.2,55079.3
34109.8,55126.9
34094.1,55178.4
34088.8,55232.1
32650.5,55232.1
32645.3,55178.4
32629.6,55126.9
32604.2,55079.3
32570,55037.7
32528.3,55003.5
32480.8,54978.1
32429.2,54962.4
32389,54958.5
32389,54958.5
32375.6,54957.1
32362.2,54958.5
26877.2,54958.5
26863.8,54957.1
26850.3,54958.5
26810.1,54962.4
26758.6,54978.1
26711,55003.5
26669.4,55037.7
26635.2,55079.3
26609.8,55126.9
26594.1,55178.4
26588.8,55232.1
25150.5,55232.1
25145.3,55178.4
25129.6,55126.9
25104.2,55079.3
25070,55037.7
25028.3,55003.5
24980.8,54978.1
24929.2,54962.4
24889,54958.5
24889,54958.5
24875.6,54957.1
24862.2,54958.5
19377.2,54958.5
19363.8,54957.1
19350.3,54958.5
19310.1,54962.4
19258.6,54978.1
19211,55003.5
19169.4,55037.7
19135.2,55079.3
19109.8,55126.9
19094.1,55178.4
19088.8,55232.1
16759.8,55232.1
16759.8,47732.1
19088.8,47732.1
19090.2,47745.5
19090.2,53230.5
19088.8,53243.9
19094.1,53297.5
19109.8,53349.1
19135.2,53396.6
19169.4,53438.3
19211,53472.5
19258.6,53497.9
19310.1,53513.6
19350.3,53517.5
19350.3,53517.5
19363.8,53518.8
19377.2,53517.5
24862.2,53517.5
24875.6,53518.8
24929.2,53513.6
24980.8,53497.9
25028.3,53472.5
25070,53438.3
25104.2,53396.6
25129.6,53349.1
25145.3,53297.5
25149.2,53257.3
25150.5,53243.9
25149.2,53230.5
25149.2,47745.5
25150.5,47732.1
26588.8,47732.1
26590.2,47745.5
26590.2,53230.5
26588.8,53243.9
26594.1,53297.5
26609.8,53349.1
26635.2,53396.6
26669.4,53438.3
26711,53472.5
26758.6,53497.9
26810.1,53513.6
26850.3,53517.5
26850.3,53517.5
26863.8,53518.8
26877.2,53517.5
32362.2,53517.5
32375.6,53518.8
32429.2,53513.6
32480.8,53497.9
32528.3,53472.5
32570,53438.3
32604.2,53396.6
32629.6,53349.1
32645.3,53297.5
32649.2,53257.3
32650.5,53243.9
32649.2,53230.5
32649.2,47745.5
32650.5,47732.1
34088.8,47732.1
34090.2,47745.5
34090.2,53230.5
34088.8,53243.9
34094.1,53297.5
34109.8,53349.1
34135.2,53396.6
34169.4,53438.3
34211,53472.5
34258.6,53497.9
34310.1,53513.6
34350.3,53517.5
34350.3,53517.5
34363.8,53518.8
34377.2,53517.5
39862.2,53517.5
39875.6,53518.8
39929.2,53513.6
39980.8,53497.9
40028.3,53472.5
40070,53438.3
40104.2,53396.6
40129.6,53349.1
40145.3,53297.5
40149.2,53257.3
40150.5,53243.9
40149.2,53230.5
40149.2,47745.5
40150.5,47732.1
41588.8,47732.1
41590.2,47745.5
41590.2,53230.5
41588.8,53243.9
41594.1,53297.5
41609.8,53349.1
41635.2,53396.6
41669.4,53438.3
41711,53472.5
41758.6,53497.9
41810.1,53513.6
41850.3,53517.5
41850.3,53517.5
41863.8,53518.8
41877.2,53517.5
47362.2,53517.5
47375.6,53518.8
47429.2,53513.6
47480.8,53497.9
47528.3,53472.5
47570,53438.3
47604.2,53396.6
47629.6,53349.1
47645.3,53297.5
47649.2,53257.3
47650.5,53243.9
47649.2,53230.5
47649.2,48900
48759.2,48900
48760.6,48914.2
48760.6,50184.6
48759.2,50198.8
48764.8,50255.5
48781.4,50310.1
48808.2,50360.4
48844.4,50404.4
48888.5,50440.6
48938.7,50467.5
48993.3,50484
49035.8,50488.2
49050,50489.6
49064.2,50488.2
49146.3,50488.2
49146.3,50863.9
49144.9,50878.1
49150.5,50934.8
49167,50989.3
49193.9,51039.6
49230.1,51083.7
49274.1,51119.8
49324.4,51146.7
49378.9,51163.3
49421.5,51167.4
49435.7,51168.8
49449.9,51167.4
50906.3,51167.4
50906.3,51189.3
49359.3,51189.3
49345.1,51187.9
49330.9,51189.3
49288.4,51193.5
49233.8,51210
49183.6,51236.9
49139.5,51273.1
49103.4,51317.1
49076.5,51367.4
49059.9,51421.9
49054.3,51478.7
49055.7,51492.9
49055.7,56976.1
49054.3,56990.3
49059.9,57047
49076.5,57101.5
49103.4,57151.8
49139.5,57195.9
49183.6,57232
49233.8,57258.9
49288.4,57275.5
49330.9,57279.6
49345.1,57281
49359.3,57279.6
50906.3,57279.6
50906.3,57301.5
49449.9,57301.5
49435.7,57300.1
49421.5,57301.5
49378.9,57305.7
49324.4,57322.2
49274.1,57349.1
49230.1,57385.3
49193.9,57429.3
49167,57479.6
49150.5,57534.1
49144.9,57590.9
49146.3,57605.1
49146.3,57980.7
49064.2,57980.7
49050,57979.3
49035.8,57980.7
48993.3,57984.9
48938.7,58001.5
48888.5,58028.3
48844.4,58064.5
48808.2,58108.6
48781.4,58158.8
48764.8,58213.4
48759.2,58270.1
48760.6,58284.3
48760.6,59554.7
48759.2,59568.9
48764.8,59625.7
48781.4,59680.2
48808.2,59730.5
48844.4,59774.5
48888.5,59810.7
48938.7,59837.6
48993.3,59854.1
49035.8,59858.3
49050,59859.7
49064.2,59858.3
49146.3,59858.3
49146.3,60234
49144.9,60248.2
49150.5,60304.9
49167,60359.5
49193.9,60409.7
49230.1,60453.8
49274.1,60489.9
49324.4,60516.8
49378.9,60533.4
49421.5,60537.6
49435.7,60539
49449.9,60537.6
51614.9,60537.6
51614.9,60558.9
51613.5,60573.2
51619.1,60629.9
51635.7,60684.4
51662.5,60734.7
51698.7,60778.8
51742.7,60814.9
51793,60841.8
51847.6,60858.3
51890.1,60862.5
51904.3,60863.9
51918.5,60862.5
52992.4,60862.5
53006.7,60863.9
53020.9,60862.5
53063.4,60858.3
53117.9,60841.8
53168.2,60814.9
53212.3,60778.8
53248.4,60734.7
53275.3,60684.4
53291.8,60629.9
53297.4,60573.2
53296,60558.9
53296,60537.6
54264.1,60537.6
54278.3,60539
54292.5,60537.6
54335,60533.4
54389.6,60516.8
54439.9,60489.9
54483.9,60453.8
54520.1,60409.7
54546.9,60359.5
54563.5,60304.9
54569.1,60248.2
54567.7,60234
54567.7,59858.3
54626.1,59858.3
54640.3,59859.7
54654.5,59858.3
54697,59854.1
54751.5,59837.6
54801.8,59810.7
54845.9,59774.5
54882,59730.5
54908.9,59680.2
54925.5,59625.7
54931,59568.9
54929.6,59554.7
54929.6,58284.3
54931,58270.1
54925.5,58213.4
54908.9,58158.8
54882,58108.6
54845.9,58064.5
54801.8,58028.3
54751.5,58001.5
54697,57984.9
54654.5,57980.7
54640.3,57979.3
54626.1,57980.7
54567.7,57980.7
54567.7,57605.1
54569.1,57590.9
54563.5,57534.1
54546.9,57479.6
54520.1,57429.3
54483.9,57385.3
54439.9,57349.1
54389.6,57322.2
54335,57305.7
54292.5,57301.5
54278.3,57300.1
54264.1,57301.5
53296,57301.5
53296,57279.6
54842.4,57279.6
54856.7,57281
54870.9,57279.6
54913.4,57275.5
54967.9,57258.9
55018.2,57232
55062.3,57195.9
55098.4,57151.8
55125.3,57101.5
55141.8,57047
55147.4,56990.3
55146,56976.1
55146,51492.9
55147.4,51478.7
55141.8,51421.9
55125.3,51367.4
55098.4,51317.1
55062.3,51273.1
55018.2,51236.9
54967.9,51210
54913.4,51193.5
54870.9,51189.3
54856.7,51187.9
54842.4,51189.3
53296,51189.3
53296,51167.4
54264.1,51167.4
54278.3,51168.8
54292.5,51167.4
54335,51163.3
54389.6,51146.7
54439.9,51119.8
54483.9,51083.7
54520.1,51039.6
54546.9,50989.3
54563.5,50934.8
54569.1,50878.1
54567.7,50863.9
54567.7,50488.2
54626.1,50488.2
54640.3,50489.6
54654.5,50488.2
54697,50484
54751.5,50467.5
54801.8,50440.6
54845.9,50404.4
54882,50360.4
54908.9,50310.1
54925.5,50255.5
54931,50198.8
54929.6,50184.6
54929.6,48914.2
54931,48900
54925.5,48843.3
54908.9,48788.7
54882,48738.5
54845.9,48694.4
54801.8,48658.2
54751.5,48631.4
54697,48614.8
54654.5,48610.6
54640.3,48609.2
54626.1,48610.6
54567.7,48610.6
54567.7,48234.9
54569.1,48220.7
54563.5,48164
54546.9,48109.4
54520.1,48059.2
54483.9,48015.1
54439.9,47978.9
54389.6,47952.1
54335,47935.5
54292.5,47931.3
54278.3,47929.9
54264.1,47931.3
53296,47931.3
53296,47910
53297.4,47895.7
53291.8,47839
53275.3,47784.5
53248.4,47734.2
53212.3,47690.1
53168.2,47654
53117.9,47627.1
53063.4,47610.6
53020.9,47606.4
53006.7,47605
52992.4,47606.4
51918.5,47606.4
51904.3,47605
51890.1,47606.4
51847.6,47610.6
51793,47627.1
51742.7,47654
51698.7,47690.1
51662.5,47734.2
51635.7,47784.5
51619.1,47839
51613.5,47895.7
51614.9,47910
51614.9,47931.3
49449.9,47931.3
49435.7,47929.9
49421.5,47931.3
49378.9,47935.5
49324.4,47952.1
49274.1,47978.9
49230.1,48015.1
49193.9,48059.2
49167,48109.4
49150.5,48164
49144.9,48220.7
49146.3,48234.9
49146.3,48610.6
49064.2,48610.6
49050,48609.2
49035.8,48610.6
48993.3,48614.8
48938.7,48631.4
48888.5,48658.2
48844.4,48694.4
48808.2,48738.5
48781.4,48788.7
48764.8,48843.3
48759.2,48900
47649.2,48900
47649.2,47745.5
47650.5,47732.1
47645.3,47678.4
47629.6,47626.9
47604.2,47579.3
47570,47537.7
47528.3,47503.5
47480.8,47478.1
47429.2,47462.4
47389,47458.5
47389,47458.5
47375.6,47457.1
47362.2,47458.5
41877.2,47458.5
41863.8,47457.1
41850.3,47458.5
41810.1,47462.4
41758.6,47478.1
41711,47503.5
41669.4,47537.7
41635.2,47579.3
41609.8,47626.9
41594.1,47678.4
41588.8,47732.1
40150.5,47732.1
40145.3,47678.4
40129.6,47626.9
40104.2,47579.3
40070,47537.7
40028.3,47503.5
39980.8,47478.1
39929.2,47462.4
39889,47458.5
39889,47458.5
39875.6,47457.1
39862.2,47458.5
34377.2,47458.5
34363.8,47457.1
34350.3,47458.5
34310.1,47462.4
34258.6,47478.1
34211,47503.5
34169.4,47537.7
34135.2,47579.3
34109.8,47626.9
34094.1,47678.4
34088.8,47732.1
32650.5,47732.1
32645.3,47678.4
32629.6,47626.9
32604.2,47579.3
32570,47537.7
32528.3,47503.5
32480.8,47478.1
32429.2,47462.4
32389,47458.5
32389,47458.5
32375.6,47457.1
32362.2,47458.5
26877.2,47458.5
26863.8,47457.1
26850.3,47458.5
26810.1,47462.4
26758.6,47478.1
26711,47503.5
26669.4,47537.7
26635.2,47579.3
26609.8,47626.9
26594.1,47678.4
26588.8,47732.1
25150.5,47732.1
25145.3,47678.4
25129.6,47626.9
25104.2,47579.3
25070,47537.7
25028.3,47503.5
24980.8,47478.1
24929.2,47462.4
24889,47458.5
24889,47458.5
24875.6,47457.1
24862.2,47458.5
19377.2,47458.5
19363.8,47457.1
19350.3,47458.5
19310.1,47462.4
19258.6,47478.1
19211,47503.5
19169.4,47537.7
19135.2,47579.3
19109.8,47626.9
19094.1,47678.4
19088.8,47732.1
16759.8,47732.1
16759.8,40232.1
19088.8,40232.1
19090.2,40245.5
19090.2,45730.5
19088.8,45743.9
19094.1,45797.5
19109.8,45849.1
19135.2,45896.6
19169.4,45938.3
19211,45972.5
19258.6,45997.9
19310.1,46013.6
19350.3,46017.5
19350.3,46017.5
19363.8,46018.8
19377.2,46017.5
24862.2,46017.5
24875.6,46018.8
24929.2,46013.6
24980.8,45997.9
25028.3,45972.5
25070,45938.3
25104.2,45896.6
25129.6,45849.1
25145.3,45797.5
25149.2,45757.3
25150.5,45743.9
25149.2,45730.5
25149.2,40245.5
25150.5,40232.1
26588.8,40232.1
26590.2,40245.5
26590.2,45730.5
26588.8,45743.9
26594.1,45797.5
26609.8,45849.1
26635.2,45896.6
26669.4,45938.3
26711,45972.5
26758.6,45997.9
26810.1,46013.6
26850.3,46017.5
26850.3,46017.5
26863.8,46018.8
26877.2,46017.5
32362.2,46017.5
32375.6,46018.8
32429.2,46013.6
32480.8,45997.9
32528.3,45972.5
32570,45938.3
32604.2,45896.6
32629.6,45849.1
32645.3,45797.5
32649.2,45757.3
32650.5,45743.9
32649.2,45730.5
32649.2,40245.5
32650.5,40232.1
34088.8,40232.1
34090.2,40245.5
34090.2,45730.5
34088.8,45743.9
34094.1,45797.5
34109.8,45849.1
34135.2,45896.6
34169.4,45938.3
34211,45972.5
34258.6,45997.9
34310.1,46013.6
34350.3,46017.5
34350.3,46017.5
34363.8,46018.8
34377.2,46017.5
39862.2,46017.5
39875.6,46018.8
39929.2,46013.6
39980.8,45997.9
40028.3,45972.5
40070,45938.3
40104.2,45896.6
40129.6,45849.1
40145.3,45797.5
40149.2,45757.3
40150.5,45743.9
40149.2,45730.5
40149.2,40245.5
40150.5,40232.1
41588.8,40232.1
41590.2,40245.5
41590.2,45730.5
41588.8,45743.9
41594.1,45797.5
41609.8,45849.1
41635.2,45896.6
41669.4,45938.3
41711,45972.5
41758.6,45997.9
41810.1,46013.6
41850.3,46017.5
41850.3,46017.5
41863.8,46018.8
41877.2,46017.5
47362.2,46017.5
47375.6,46018.8
47429.2,46013.6
47480.8,45997.9
47528.3,45972.5
47570,45938.3
47604.2,45896.6
47629.6,45849.1
47645.3,45797.5
47649.2,45757.3
47650.5,45743.9
47649.2,45730.5
47649.2,40245.5
47650.5,40232.1
49088.8,40232.1
49090.2,40245.5
49090.2,45730.5
49088.8,45743.9
49094.1,45797.5
49109.8,45849.1
49135.2,45896.6
49169.4,45938.3
49211,45972.5
49258.6,45997.9
49310.1,46013.6
49350.3,46017.5
49350.3,46017.5
49363.8,46018.8
49377.2,46017.5
54862.2,46017.5
54875.6,46018.8
54929.2,46013.6
54980.8,45997.9
55028.3,45972.5
55070,45938.3
55104.2,45896.6
55129.6,45849.1
55145.3,45797.5
55149.2,45757.3
55150.5,45743.9
55149.2,45730.5
55149.2,40245.5
55150.5,40232.1
55145.3,40178.4
55129.6,40126.9
55104.2,40079.3
55070,40037.7
55028.3,40003.5
54980.8,39978.1
54929.2,39962.4
54889,39958.5
54889,39958.5
54875.6,39957.1
54862.2,39958.5
49377.2,39958.5
49363.8,39957.1
49350.3,39958.5
49310.1,39962.4
49258.6,39978.1
49211,40003.5
49169.4,40037.7
49135.2,40079.3
49109.8,40126.9
49094.1,40178.4
49088.8,40232.1
47650.5,40232.1
47645.3,40178.4
47629.6,40126.9
47604.2,40079.3
47570,40037.7
47528.3,40003.5
47480.8,39978.1
47429.2,39962.4
47389,39958.5
47389,39958.5
47375.6,39957.1
47362.2,39958.5
41877.2,39958.5
41863.8,39957.1
41850.3,39958.5
41810.1,39962.4
41758.6,39978.1
41711,40003.5
41669.4,40037.7
41635.2,40079.3
41609.8,40126.9
41594.1,40178.4
41588.8,40232.1
40150.5,40232.1
40145.3,40178.4
40129.6,40126.9
40104.2,40079.3
40070,40037.7
40028.3,40003.5
39980.8,39978.1
39929.2,39962.4
39889,39958.5
39889,39958.5
39875.6,39957.1
39862.2,39958.5
34377.2,39958.5
34363.8,39957.1
34350.3,39958.5
34310.1,39962.4
34258.6,39978.1
34211,40003.5
34169.4,40037.7
34135.2,40079.3
34109.8,40126.9
34094.1,40178.4
34088.8,40232.1
32650.5,40232.1
32645.3,40178.4
32629.6,40126.9
32604.2,40079.3
32570,40037.7
32528.3,40003.5
32480.8,39978.1
32429.2,39962.4
32389,39958.5
32389,39958.5
32375.6,39957.1
32362.2,39958.5
26877.2,39958.5
26863.8,39957.1
26850.3,39958.5
26810.1,39962.4
26758.6,39978.1
26711,40003.5
26669.4,40037.7
26635.2,40079.3
26609.8,40126.9
26594.1,40178.4
26588.8,40232.1
25150.5,40232.1
25145.3,40178.4
25129.6,40126.9
25104.2,40079.3
25070,40037.7
25028.3,40003.5
24980.8,39978.1
24929.2,39962.4
24889,39958.5
24889,39958.5
24875.6,39957.1
24862.2,39958.5
19377.2,39958.5
19363.8,39957.1
19350.3,39958.5
19310.1,39962.4
19258.6,39978.1
19211,40003.5
19169.4,40037.7
19135.2,40079.3
19109.8,40126.9
19094.1,40178.4
19088.8,40232.1
16759.8,40232.1
16759.8,38613.4
19526.4,38613.4
19527.7,38626.9
19527.7,38630.2
19528.1,38634
19533.5,38682.5
19538.7,38706.7
19543.5,38731.1
19544.6,38734.7
19559.4,38781.2
19569.2,38804
19578.6,38826.9
19580.4,38830.3
19580.4,38830.3
19580.4,38830.3
19603.9,38873.1
19618,38893.5
19631.7,38914.2
19634.1,38917.1
19634.1,38917.1
19634.1,38917.1
19665.5,38954.5
19683.2,38971.8
19700.7,38989.4
19703.6,38991.9
19741.7,39022.4
19762.4,39036
19783,39049.9
19786.3,39051.7
19829.6,39074.3
19852.6,39083.6
19875.4,39093.2
19879.1,39094.3
19879.1,39094.3
19879.1,39094.3
19925.9,39108.1
19950.3,39112.7
19974.6,39117.7
19978.4,39118.1
19978.4,39118.1
19978.4,39118.1
20026.9,39122.5
20051.7,39122.3
20076.5,39122.5
20080.3,39122.1
20128.9,39117
20153.2,39112
20177.5,39107.4
20181.2,39106.3
20227.8,39091.9
20250.7,39082.2
20273.6,39073
20277,39071.2
20277,39071.2
20277,39071.2
20319.9,39048
20340.5,39034.1
20361.3,39020.5
20364.2,39018.1
20401.8,38987
20419.3,38969.4
20437,38952
20439.4,38949.1
20470.3,38911.3
20483.1,38892
20484.1,38893.5
20497.8,38914.2
20500.3,38917.1
20500.3,38917.1
20500.3,38917.1
20531.6,38954.5
20549.3,38971.8
20566.8,38989.4
20569.8,38991.9
20607.8,39022.4
20628.5,39036
20649.1,39049.9
20652.5,39051.7
20695.7,39074.3
20718.7,39083.6
20741.6,39093.2
20745.2,39094.3
20745.2,39094.3
20745.2,39094.3
20792,39108.1
20816.4,39112.7
20840.7,39117.7
20844.5,39118.1
20844.5,39118.1
20844.5,39118.1
20893.1,39122.5
20917.9,39122.3
20942.7,39122.5
20946.5,39122.1
20995,39117
21019.3,39112
21043.7,39107.4
21047.3,39106.3
21093.9,39091.9
21116.8,39082.2
21139.8,39073
21143.2,39071.2
21143.2,39071.2
21143.2,39071.2
21186.1,39048
21206.6,39034.1
21227.4,39020.5
21230.4,39018.1
21267.9,38987
21285.4,38969.4
21303.1,38952
21305.6,38949.1
21336.4,38911.3
21349.2,38892
21350.2,38893.5
21364,38914.2
21366.4,38917.1
21366.4,38917.1
21366.4,38917.1
21397.8,38954.5
21415.5,38971.8
21433,38989.4
21435.9,38991.9
21473.9,39022.4
21494.7,39036
21515.3,39049.9
21518.6,39051.7
21561.9,39074.3
21584.9,39083.6
21607.7,39093.2
21611.4,39094.3
21611.4,39094.3
21611.4,39094.3
21658.2,39108.1
21682.5,39112.7
21706.8,39117.7
21710.6,39118.1
21710.6,39118.1
21710.6,39118.1
21759.2,39122.5
21784,39122.3
21808.8,39122.5
21812.6,39122.1
21861.2,39117
21885.5,39112
21909.8,39107.4
21913.5,39106.3
21960.1,39091.9
21982.9,39082.2
22005.9,39073
22009.3,39071.2
22009.3,39071.2
22009.3,39071.2
22052.2,39048
22072.8,39034.1
22093.5,39020.5
22096.5,39018.1
22134.1,38987
22151.6,38969.4
22169.3,38952
22171.7,38949.1
22202.6,38911.3
22215.4,38892
22216.4,38893.5
22230.1,38914.2
22232.5,38917.1
22232.5,38917.1
22232.5,38917.1
22263.9,38954.5
22281.6,38971.8
22299.1,38989.4
22302.1,38991.9
22340.1,39022.4
22360.8,39036
22381.4,39049.9
22384.8,39051.7
22428,39074.3
22451,39083.6
22473.9,39093.2
22477.5,39094.3
22477.5,39094.3
22477.5,39094.3
22524.3,39108.1
22548.7,39112.7
22573,39117.7
22576.8,39118.1
22576.8,39118.1
22576.8,39118.1
22625.4,39122.5
22650.2,39122.3
22675,39122.5
22678.8,39122.1
22727.3,39117
22751.6,39112
22775.9,39107.4
22779.6,39106.3
22826.2,39091.9
22849.1,39082.2
22872.1,39073
22875.4,39071.2
22875.4,39071.2
22875.4,39071.2
22918.4,39048
22938.9,39034.1
22959.7,39020.5
22962.6,39018.1
23000.2,38987
23017.7,38969.4
23035.4,38952
23037.9,38949.1
23068.7,38911.3
23081.5,38892
23082.5,38893.5
23096.2,38914.2
23098.7,38917.1
23098.7,38917.1
23098.7,38917.1
23130,38954.5
23147.7,38971.8
23165.2,38989.4
23168.2,38991.9
23206.2,39022.4
23227,39036
23247.5,39049.9
23250.9,39051.7
23294.1,39074.3
23317.1,39083.6
23340,39093.2
23343.7,39094.3
23343.7,39094.3
23343.7,39094.3
23390.5,39108.1
23414.8,39112.7
23439.1,39117.7
23442.9,39118.1
23442.9,39118.1
23442.9,39118.1
23491.5,39122.5
23516.3,39122.3
23541.1,39122.5
23544.9,39122.1
23593.4,39117
23617.7,39112
23642.1,39107.4
23645.7,39106.3
23692.4,39091.9
23715.2,39082.2
23738.2,39073
23741.6,39071.2
23741.6,39071.2
23741.6,39071.2
23784.5,39048
23805.1,39034.1
23825.8,39020.5
23828.8,39018.1
23866.4,38987
23883.8,38969.4
23901.6,38952
23904,38949.1
23934.8,38911.3
23947.6,38892
23948.7,38893.5
23962.4,38914.2
23964.8,38917.1
23964.8,38917.1
23964.8,38917.1
23996.2,38954.5
24013.9,38971.8
24031.4,38989.4
24034.3,38991.9
24072.4,39022.4
24093.1,39036
24113.7,39049.9
24117,39051.7
24160.3,39074.3
24183.3,39083.6
24206.1,39093.2
24209.8,39094.3
24209.8,39094.3
24209.8,39094.3
24256.6,39108.1
24281,39112.7
24305.3,39117.7
24309.1,39118.1
24309.1,39118.1
24309.1,39118.1
24357.7,39122.5
24382.4,39122.3
24407.3,39122.5
24411.1,39122.1
24459.6,39117
24483.9,39112
24508.2,39107.4
24511.9,39106.3
24558.5,39091.9
24581.4,39082.2
24604.4,39073
24607.7,39071.2
24607.7,39071.2
24607.7,39071.2
24650.6,39048
24671.2,39034.1
24692,39020.5
24694.9,39018.1
24732.5,38987
24750,38969.4
24767.7,38952
24770.1,38949.1
24801,38911.3
24814.7,38890.6
24828.7,38870.2
24830.5,38866.8
24853.4,38823.7
24862.9,38800.8
24872.7,38778
24873.8,38774.4
24887.9,38727.6
24892.7,38703.3
24897.9,38679.1
24898.3,38675.3
24898.3,38675.3
24898.3,38675.3
24903,38626.7
24903,38626.7
24904.3,38613.4
24904.3,32732.1
26588.8,32732.1
26590.2,32745.5
26590.2,38230.5
26588.8,38243.9
26594.1,38297.5
26609.8,38349.1
26635.2,38396.6
26669.4,38438.3
26711,38472.5
26758.6,38497.9
26810.1,38513.6
26850.3,38517.5
26850.3,38517.5
26863.8,38518.8
26877.2,38517.5
32362.2,38517.5
32375.6,38518.8
32391.6,38517.3
32429.2,38513.6
32480.8,38497.9
32528.3,38472.5
32570,38438.3
32604.2,38396.6
32629.6,38349.1
32645.3,38297.5
32650.5,38243.9
32649.2,38230.5
32649.2,32745.5
32650.5,32732.1
34088.8,32732.1
34090.2,32745.5
34090.2,38230.5
34088.8,38243.9
34094.1,38297.5
34109.8,38349.1
34135.2,38396.6
34169.4,38438.3
34211,38472.5
34258.6,38497.9
34310.1,38513.6
34350.3,38517.5
34350.3,38517.5
34363.8,38518.8
34377.2,38517.5
39862.2,38517.5
39875.6,38518.8
39891.6,38517.3
39929.2,38513.6
39980.8,38497.9
40028.3,38472.5
40070,38438.3
40104.2,38396.6
40129.6,38349.1
40145.3,38297.5
40150.5,38243.9
40149.2,38230.5
40149.2,32745.5
40150.5,32732.1
41588.8,32732.1
41590.2,32745.5
41590.2,38230.5
41588.8,38243.9
41594.1,38297.5
41609.8,38349.1
41635.2,38396.6
41669.4,38438.3
41711,38472.5
41758.6,38497.9
41810.1,38513.6
41850.3,38517.5
41850.3,38517.5
41863.8,38518.8
41877.2,38517.5
47362.2,38517.5
47375.6,38518.8
47391.6,38517.3
47429.2,38513.6
47480.8,38497.9
47528.3,38472.5
47570,38438.3
47604.2,38396.6
47629.6,38349.1
47645.3,38297.5
47650.5,38243.9
47649.2,38230.5
47649.2,32745.5
47650.5,32732.1
49088.8,32732.1
49090.2,32745.5
49090.2,38230.5
49088.8,38243.9
49094.1,38297.5
49109.8,38349.1
49135.2,38396.6
49169.4,38438.3
49211,38472.5
49258.6,38497.9
49310.1,38513.6
49350.3,38517.5
49350.3,38517.5
49363.8,38518.8
49377.2,38517.5
54862.2,38517.5
54875.6,38518.8
54891.6,38517.3
54929.2,38513.6
54980.8,38497.9
55028.3,38472.5
55070,38438.3
55104.2,38396.6
55129.6,38349.1
55145.3,38297.5
55150.5,38243.9
55149.2,38230.5
55149.2,32745.5
55150.5,32732.1
55145.3,32678.4
55129.6,32626.9
55104.2,32579.3
55070,32537.7
55028.3,32503.5
54980.8,32478.1
54929.2,32462.4
54889,32458.5
54889,32458.5
54875.6,32457.1
54862.2,32458.5
49377.2,32458.5
49363.8,32457.1
49350.3,32458.5
49310.1,32462.4
49258.6,32478.1
49211,32503.5
49169.4,32537.7
49135.2,32579.3
49109.8,32626.9
49094.1,32678.4
49088.8,32732.1
47650.5,32732.1
47645.3,32678.4
47629.6,32626.9
47604.2,32579.3
47570,32537.7
47528.3,32503.5
47480.8,32478.1
47429.2,32462.4
47389,32458.5
47389,32458.5
47375.6,32457.1
47362.2,32458.5
41877.2,32458.5
41863.8,32457.1
41850.3,32458.5
41810.1,32462.4
41758.6,32478.1
41711,32503.5
41669.4,32537.7
41635.2,32579.3
41609.8,32626.9
41594.1,32678.4
41588.8,32732.1
40150.5,32732.1
40145.3,32678.4
40129.6,32626.9
40104.2,32579.3
40070,32537.7
40028.3,32503.5
39980.8,32478.1
39929.2,32462.4
39889,32458.5
39889,32458.5
39875.6,32457.1
39862.2,32458.5
34377.2,32458.5
34363.8,32457.1
34350.3,32458.5
34310.1,32462.4
34258.6,32478.1
34211,32503.5
34169.4,32537.7
34135.2,32579.3
34109.8,32626.9
34094.1,32678.4
34088.8,32732.1
32650.5,32732.1
32645.3,32678.4
32629.6,32626.9
32604.2,32579.3
32570,32537.7
32528.3,32503.5
32480.8,32478.1
32429.2,32462.4
32389,32458.5
32389,32458.5
32375.6,32457.1
32362.2,32458.5
26877.2,32458.5
26863.8,32457.1
26850.3,32458.5
26810.1,32462.4
26758.6,32478.1
26711,32503.5
26669.4,32537.7
26635.2,32579.3
26609.8,32626.9
26594.1,32678.4
26588.8,32732.1
24904.3,32732.1
24904.3,28261.6
24903,28248.1
24903,28244.8
24902.6,28241
24897.2,28192.5
24892,28168.3
24887.2,28143.9
24886.1,28140.3
24871.3,28093.8
24861.5,28071
24852.1,28048.1
24850.3,28044.7
24826.8,28001.9
24812.8,27981.5
24799,27960.8
24796.6,27957.9
24796.6,27957.9
24796.6,27957.9
24765.2,27920.5
24747.5,27903.1
24730,27885.6
24727.1,27883.1
24689.1,27852.6
24668.3,27839
24647.7,27825.1
24644.4,27823.3
24601.1,27800.7
24578.1,27791.4
24555.3,27781.8
24551.6,27780.7
24551.6,27780.7
24551.6,27780.7
24504.8,27766.9
24480.4,27762.3
24456.2,27757.3
24452.4,27756.9
24452.4,27756.9
24452.4,27756.9
24403.8,27752.5
24379,27752.7
24354.2,27752.5
24350.4,27752.9
24301.8,27758
24277.5,27763
24253.2,27767.6
24249.5,27768.7
24202.9,27783.1
24180.1,27792.8
24157.1,27802
24153.7,27803.8
24110.8,27827
24090.2,27840.9
24069.5,27854.5
24066.5,27856.9
24028.9,27888
24011.4,27905.6
23993.7,27923
23991.3,27925.9
23960.4,27963.7
23947.6,27983
23946.6,27981.5
23932.9,27960.8
23930.5,27957.9
23930.5,27957.9
23930.4,27957.9
23899.1,27920.5
23881.4,27903.1
23863.9,27885.6
23860.9,27883.1
23822.9,27852.6
23802.2,27839
23781.6,27825.1
23778.2,27823.3
23735,27800.7
23712,27791.4
23689.1,27781.8
23685.5,27780.7
23685.5,27780.7
23685.5,27780.7
23638.7,27766.9
23614.3,27762.3
23590,27757.3
23586.2,27756.9
23586.2,27756.9
23586.2,27756.9
23537.6,27752.5
23512.8,27752.7
23488,27752.5
23484.2,27752.9
23435.7,27758
23411.4,27763
23387,27767.6
23383.4,27768.7
23336.8,27783.1
23313.9,27792.8
23290.9,27802
23287.5,27803.8
23244.6,27827
23224.1,27840.9
23203.3,27854.5
23200.4,27856.9
23162.8,27888
23145.3,27905.6
23127.6,27923
23125.1,27925.9
23094.3,27963.7
23081.5,27983
23080.5,27981.5
23066.7,27960.8
23064.3,27957.9
23064.3,27957.9
23064.3,27957.9
23032.9,27920.5
23015.2,27903.1
22997.8,27885.6
22994.8,27883.1
22956.8,27852.6
22936,27839
22915.5,27825.1
22912.1,27823.3
22868.8,27800.7
22845.8,27791.4
22823,27781.8
22819.3,27780.7
22819.3,27780.7
22819.3,27780.7
22772.5,27766.9
22748.2,27762.3
22723.9,27757.3
22720.1,27756.9
22720.1,27756.9
22720.1,27756.9
22671.5,27752.5
22646.7,27752.7
22621.9,27752.5
22618.1,27752.9
22569.6,27758
22545.3,27763
22520.9,27767.6
22517.2,27768.7
22470.6,27783.1
22447.8,27792.8
22424.8,27802
22421.4,27803.8
22378.5,27827
22357.9,27840.9
22337.2,27854.5
22334.2,27856.9
22296.6,27888
22279.1,27905.6
22261.4,27923
22259,27925.9
22228.2,27963.7
22215.4,27983
22214.3,27981.5
22200.6,27960.8
22198.2,27957.9
22198.2,27957.9
22198.2,27957.9
22166.8,27920.5
22149.1,27903.1
22131.6,27885.6
22128.7,27883.1
22090.6,27852.6
22069.9,27839
22049.3,27825.1
22045.9,27823.3
22002.7,27800.7
21979.7,27791.4
21956.8,27781.8
21953.2,27780.7
21953.2,27780.7
21953.2,27780.7
21906.4,27766.9
21882,27762.3
21857.7,27757.3
21853.9,27756.9
21853.9,27756.9
21853.9,27756.9
21805.3,27752.5
21780.6,27752.7
21755.7,27752.5
21751.9,27752.9
21703.4,27758
21679.1,27763
21654.8,27767.6
21651.1,27768.7
21604.5,27783.1
21581.6,27792.8
21558.6,27802
21555.3,27803.8
21512.3,27827
21491.8,27840.9
21471,27854.5
21468.1,27856.9
21430.5,27888
21413,27905.6
21395.3,27923
21392.8,27925.9
21362,27963.7
21349.2,27983
21348.2,27981.5
21334.5,27960.8
21332,27957.9
21332,27957.9
21332,27957.9
21300.7,27920.5
21282.9,27903.1
21265.5,27885.6
21262.5,27883.1
21224.5,27852.6
21203.7,27839
21183.2,27825.1
21179.8,27823.3
21136.6,27800.7
21113.6,27791.4
21090.7,27781.8
21087.1,27780.7
21087,27780.7
21087,27780.7
21040.2,27766.9
21015.9,27762.3
20991.6,27757.3
20987.8,27756.9
20987.8,27756.9
20987.8,27756.9
20939.2,27752.5
20914.4,27752.7
20889.6,27752.5
20885.8,27752.9
20837.3,27758
20813,27763
20788.6,27767.6
20785,27768.7
20738.4,27783.1
20715.5,27792.8
20692.5,27802
20689.1,27803.8
20646.2,27827
20625.6,27840.9
20604.9,27854.5
20601.9,27856.9
20564.3,27888
20546.9,27905.6
20529.1,27923
20526.7,27925.9
20495.9,27963.7
20483.1,27983
20482,27981.5
20468.3,27960.8
20465.9,27957.9
20465.9,27957.9
20465.9,27957.9
20434.5,27920.5
20416.8,27903.1
20399.3,27885.6
20396.4,27883.1
20358.3,27852.6
20337.6,27839
20317,27825.1
20313.7,27823.3
20270.4,27800.7
20247.4,27791.4
20224.6,27781.8
20220.9,27780.7
20220.9,27780.7
20220.9,27780.7
20174.1,27766.9
20149.7,27762.3
20125.4,27757.3
20121.6,27756.9
20121.6,27756.9
20121.6,27756.9
20073.1,27752.5
20048.3,27752.7
20023.5,27752.5
20019.7,27752.9
19971.1,27758
19946.8,27763
19922.5,27767.6
19918.8,27768.7
19872.2,27783.1
19849.4,27792.8
19826.4,27802
19823,27803.8
19780.1,27827
19759.5,27840.9
19738.7,27854.5
19735.8,27856.9
19698.2,27888
19680.7,27905.6
19663,27923
19660.6,27925.9
19629.7,27963.7
19616,27984.4
19602,28004.8
19600.2,28008.2
19600.2,28008.2
19600.2,28008.2
19577.3,28051.3
19567.8,28074.2
19558,28097
19556.9,28100.6
19542.8,28147.4
19538,28171.7
19532.8,28195.9
19532.4,28199.7
19532.4,28199.7
19532.4,28199.7
19527.7,28248.3
19527.7,28248.3
19526.4,28261.6
19526.4,38613.4
16759.8,38613.4
16759.8,25232.1
26588.8,25232.1
26590.2,25245.5
26590.2,30730.5
26588.8,30743.9
26594.1,30797.5
26609.8,30849.1
26635.2,30896.6
26669.4,30938.3
26711,30972.5
26758.6,30997.9
26810.1,31013.6
26850.3,31017.5
26850.3,31017.5
26863.8,31018.8
26877.2,31017.5
32362.2,31017.5
32375.6,31018.8
32429.2,31013.6
32480.8,30997.9
32528.3,30972.5
32570,30938.3
32604.2,30896.6
32629.6,30849.1
32645.3,30797.5
32649.2,30757.3
32650.5,30743.9
32649.2,30730.5
32649.2,25245.5
32650.5,25232.1
34088.8,25232.1
34090.2,25245.5
34090.2,30730.5
34088.8,30743.9
34094.1,30797.5
34109.8,30849.1
34135.2,30896.6
34169.4,30938.3
34211,30972.5
34258.6,30997.9
34310.1,31013.6
34350.3,31017.5
34350.3,31017.5
34363.8,31018.8
34377.2,31017.5
39862.2,31017.5
39875.6,31018.8
39929.2,31013.6
39980.8,30997.9
40028.3,30972.5
40070,30938.3
40104.2,30896.6
40129.6,30849.1
40145.3,30797.5
40149.2,30757.3
40150.5,30743.9
40149.2,30730.5
40149.2,25245.5
40150.5,25232.1
41588.8,25232.1
41590.2,25245.5
41590.2,30730.5
41588.8,30743.9
41594.1,30797.5
41609.8,30849.1
41635.2,30896.6
41669.4,30938.3
41711,30972.5
41758.6,30997.9
41810.1,31013.6
41850.3,31017.5
41850.3,31017.5
41863.8,31018.8
41877.2,31017.5
47362.2,31017.5
47375.6,31018.8
47429.2,31013.6
47480.8,30997.9
47528.3,30972.5
47570,30938.3
47604.2,30896.6
47629.6,30849.1
47645.3,30797.5
47649.2,30757.3
47650.5,30743.9
47649.2,30730.5
47649.2,25245.5
47650.5,25232.1
49088.8,25232.1
49090.2,25245.5
49090.2,30730.5
49088.8,30743.9
49094.1,30797.5
49109.8,30849.1
49135.2,30896.6
49169.4,30938.3
49211,30972.5
49258.6,30997.9
49310.1,31013.6
49350.3,31017.5
49350.3,31017.5
49363.8,31018.8
49377.2,31017.5
54862.2,31017.5
54875.6,31018.8
54929.2,31013.6
54980.8,30997.9
55028.3,30972.5
55070,30938.3
55104.2,30896.6
55129.6,30849.1
55145.3,30797.5
55149.2,30757.3
55150.5,30743.9
55149.2,30730.5
55149.2,25245.5
55150.5,25232.1
55145.3,25178.4
55129.6,25126.9
55104.2,25079.3
55070,25037.7
55028.3,25003.5
54980.8,24978.1
54929.2,24962.4
54889,24958.5
54889,24958.5
54875.6,24957.1
54862.2,24958.5
49377.2,24958.5
49363.8,24957.1
49350.3,24958.5
49310.1,24962.4
49258.6,24978.1
49211,25003.5
49169.4,25037.7
49135.2,25079.3
49109.8,25126.9
49094.1,25178.4
49088.8,25232.1
47650.5,25232.1
47645.3,25178.4
47629.6,25126.9
47604.2,25079.3
47570,25037.7
47528.3,25003.5
47480.8,24978.1
47429.2,24962.4
47389,24958.5
47389,24958.5
47375.6,24957.1
47362.2,24958.5
41877.2,24958.5
41863.8,24957.1
41850.3,24958.5
41810.1,24962.4
41758.6,24978.1
41711,25003.5
41669.4,25037.7
41635.2,25079.3
41609.8,25126.9
41594.1,25178.4
41588.8,25232.1
40150.5,25232.1
40145.3,25178.4
40129.6,25126.9
40104.2,25079.3
40070,25037.7
40028.3,25003.5
39980.8,24978.1
39929.2,24962.4
39889,24958.5
39889,24958.5
39875.6,24957.1
39862.2,24958.5
34377.2,24958.5
34363.8,24957.1
34350.3,24958.5
34310.1,24962.4
34258.6,24978.1
34211,25003.5
34169.4,25037.7
34135.2,25079.3
34109.8,25126.9
34094.1,25178.4
34088.8,25232.1
32650.5,25232.1
32645.3,25178.4
32629.6,25126.9
32604.2,25079.3
32570,25037.7
32528.3,25003.5
32480.8,24978.1
32429.2,24962.4
32389,24958.5
32389,24958.5
32375.6,24957.1
32362.2,24958.5
26877.2,24958.5
26863.8,24957.1
26850.3,24958.5
26810.1,24962.4
26758.6,24978.1
26711,25003.5
26669.4,25037.7
26635.2,25079.3
26609.8,25126.9
26594.1,25178.4
26588.8,25232.1
16759.8,25232.1
16759.8,23282.5
16811,23282.5
16811,23467.5
16847.1,23648.9
16917.9,23819.8
17020.6,23973.6
17151.4,24104.4
17305.2,24207.1
17476.1,24277.9
17657.5,24314
17842.5,24314
18023.9,24277.9
18194.8,24207.1
18348.6,24104.4
18479.4,23973.6
18582.1,23819.8
18652.9,23648.9
18689,23467.5
18689,23282.5
18683.2,23253.3
26177.5,23253.3
26177.7,23278.1
26177.5,23302.9
26177.9,23306.7
26187.1,23394.1
26192.1,23418.4
26196.7,23442.7
26197.8,23446.4
26223.8,23530.3
26233.4,23553.2
26242.7,23576.2
26244.5,23579.5
26286.2,23656.8
26300.1,23677.3
26313.7,23698.1
26316.1,23701
26316.1,23701.1
26316.1,23701.1
26372.1,23768.7
26389.7,23786.2
26407,23803.9
26410,23806.3
26478,23861.9
26498.7,23875.6
26519.2,23889.6
26522.5,23891.4
26522.5,23891.4
26522.5,23891.4
26600.1,23932.6
26623,23942.1
26645.8,23951.9
26649.4,23953
26733.5,23978.4
26757.8,23983.2
26782.1,23988.3
26785.9,23988.7
26785.9,23988.7
26785.9,23988.7
26873.3,23997.3
26873.3,23997.3
26886.6,23998.6
54813.4,23998.6
54827.1,23997.3
54833,23997.3
54836.8,23996.9
54924.1,23987.1
54948.3,23981.9
54972.6,23977.1
54976.3,23976
55060,23949.4
55082.8,23939.7
55105.7,23930.2
55109.1,23928.4
55186.1,23886.1
55206.5,23872.1
55227.2,23858.3
55230.1,23855.9
55230.1,23855.9
55230.1,23855.9
55297.4,23799.5
55314.7,23781.7
55332.3,23764.3
55334.8,23761.3
55334.8,23761.3
55334.8,23761.3
55389.8,23692.9
55403.4,23672.1
55417.2,23651.5
55419,23648.2
55459.7,23570.3
55469,23547.3
55478.6,23524.5
55479.7,23520.8
55504.5,23436.6
55509.2,23412.2
55514.2,23387.9
55514.5,23384.1
55522.5,23296.7
55522.3,23271.9
55522.5,23247.1
55522.1,23243.3
55512.9,23155.9
55507.9,23131.6
55503.3,23107.3
55502.2,23103.6
55476.2,23019.7
55466.6,22996.8
55457.3,22973.8
55455.5,22970.5
55413.8,22893.2
55399.9,22872.7
55386.3,22851.9
55383.9,22849
55383.9,22848.9
55383.9,22848.9
55327.9,22781.3
55310.3,22763.8
55293,22746.1
55290,22743.7
55222,22688.1
55201.3,22674.4
55180.8,22660.4
55177.5,22658.6
55177.5,22658.6
55177.5,22658.6
55099.9,22617.4
55077,22607.9
55054.2,22598.1
55050.6,22597
54966.5,22571.6
54942.2,22566.8
54917.9,22561.7
54914.1,22561.3
54914.1,22561.3
54826.7,22552.7
54826.7,22552.7
54813.4,22551.4
26886.6,22551.4
26872.9,22552.7
26867,22552.7
26863.2,22553.1
26775.9,22562.9
26751.7,22568.1
26727.4,22572.9
26723.7,22574
26723.7,22574
26640,22600.6
26617.2,22610.3
26594.3,22619.8
26590.9,22621.6
26513.9,22663.9
26493.5,22677.9
26472.8,22691.7
26469.9,22694.1
26402.6,22750.5
26385.3,22768.3
26367.7,22785.7
26365.2,22788.7
26365.2,22788.7
26365.2,22788.7
26310.2,22857.1
26296.6,22877.9
26282.8,22898.5
26281,22901.8
26281,22901.8
26281,22901.8
26240.3,22979.7
26231,23002.7
26221.4,23025.5
26220.3,23029.2
26195.5,23113.4
26190.8,23137.8
26185.8,23162.1
26185.5,23165.9
26177.5,23253.3
18683.2,23253.3
18652.9,23101.1
18582.1,22930.2
18479.4,22776.4
18348.6,22645.6
18194.8,22542.9
18023.9,22472.1
17842.5,22436
17657.5,22436
17476.1,22472.1
17305.2,22542.9
17151.4,22645.6
17020.6,22776.4
16917.9,22930.2
16847.1,23101.1
16811,23282.5
16759.8,23282.5
16759.8,22637.7
16765.6,22578.6
16779.1,22534
16801,22492.8
16830.5,22456.7
16866.4,22426.9
16907.4,22404.8
16952,22391
17010.2,22384.8
24862.8,22384.8
24874,22383.7
24877,22383.8
24880.7,22383.4
24977.7,22373.2
25000.8,22368.5
25023.9,22364.1
25027.4,22363
25027.4,22363
25027.4,22363
25120.6,22334.2
25142.3,22325
25164.1,22316.2
25167.3,22314.5
25167.3,22314.5
25167.3,22314.5
25253.2,22268.1
25272.7,22254.9
25292.4,22242
25295.2,22239.7
25370.4,22177.5
25387,22160.8
25403.8,22144.3
25406.1,22141.5
25467.8,22065.9
25480.9,22046.3
25494.2,22026.9
25495.9,22023.7
25541.7,21937.5
25550.7,21915.8
25560,21894.1
25561,21890.6
25589.2,21797.2
25593.8,21774.1
25598.7,21751.1
25599.1,21747.5
25608.6,21650.4
25608.6,21650.4
25609.8,21637.8
25609.8,15858.1
26588.8,15858.1
26590.2,15871.5
26590.2,21356.4
26588.8,21369.9
26594.1,21423.5
26609.8,21475.1
26635.2,21522.6
26669.4,21564.3
26711,21598.5
26758.6,21623.9
26810.1,21639.5
26850.3,21643.5
26850.3,21643.5
26863.8,21644.8
26877.2,21643.5
32362.2,21643.5
32375.6,21644.8
32429.2,21639.5
32480.8,21623.9
32528.3,21598.5
32570,21564.3
32604.2,21522.6
32629.6,21475.1
32645.3,21423.5
32649.2,21383.3
32650.5,21369.9
32649.2,21356.4
32649.2,15871.5
32650.5,15858.1
34088.8,15858.1
34090.2,15871.5
34090.2,21356.4
34088.8,21369.9
34094.1,21423.5
34109.8,21475.1
34135.2,21522.6
34169.4,21564.3
34211,21598.5
34258.6,21623.9
34310.1,21639.5
34350.3,21643.5
34350.3,21643.5
34363.8,21644.8
34377.2,21643.5
39862.2,21643.5
39875.6,21644.8
39929.2,21639.5
39980.8,21623.9
40028.3,21598.5
40070,21564.3
40104.2,21522.6
40129.6,21475.1
40145.3,21423.5
40149.2,21383.3
40150.5,21369.9
40149.2,21356.4
40149.2,15871.5
40150.5,15858.1
41588.8,15858.1
41590.2,15871.5
41590.2,21356.4
41588.8,21369.9
41594.1,21423.5
41609.8,21475.1
41635.2,21522.6
41669.4,21564.3
41711,21598.5
41758.6,21623.9
41810.1,21639.5
41850.3,21643.5
41850.3,21643.5
41863.8,21644.8
41877.2,21643.5
47362.2,21643.5
47375.6,21644.8
47429.2,21639.5
47480.8,21623.9
47528.3,21598.5
47570,21564.3
47604.2,21522.6
47629.6,21475.1
47645.3,21423.5
47649.2,21383.3
47650.5,21369.9
47649.2,21356.4
47649.2,15871.5
47650.5,15858.1
49088.8,15858.1
49090.2,15871.5
49090.2,21356.4
49088.8,21369.9
49094.1,21423.5
49109.8,21475.1
49135.2,21522.6
49169.4,21564.3
49211,21598.5
49258.6,21623.9
49310.1,21639.5
49350.3,21643.5
49350.3,21643.5
49363.8,21644.8
49377.2,21643.5
54862.2,21643.5
54875.6,21644.8
54929.2,21639.5
54980.8,21623.9
55028.3,21598.5
55070,21564.3
55104.2,21522.6
55129.6,21475.1
55145.3,21423.5
55149.2,21383.3
55150.5,21369.9
55149.2,21356.4
55149.2,15871.5
55150.5,15858.1
55145.3,15804.4
55129.6,15752.9
55104.2,15705.3
55070,15663.7
55028.3,15629.5
54980.8,15604.1
54929.2,15588.4
54889,15584.4
54889,15584.4
54875.6,15583.1
54862.2,15584.4
49377.2,15584.4
49363.8,15583.1
49350.3,15584.4
49310.1,15588.4
49258.6,15604.1
49211,15629.5
49169.4,15663.7
49135.2,15705.3
49109.8,15752.9
49094.1,15804.4
49088.8,15858.1
47650.5,15858.1
47645.3,15804.4
47629.6,15752.9
47604.2,15705.3
47570,15663.7
47528.3,15629.5
47480.8,15604.1
47429.2,15588.4
47389,15584.4
47389,15584.4
47375.6,15583.1
47362.2,15584.4
41877.2,15584.4
41863.8,15583.1
41850.3,15584.4
41810.1,15588.4
41758.6,15604.1
41711,15629.5
41669.4,15663.7
41635.2,15705.3
41609.8,15752.9
41594.1,15804.4
41588.8,15858.1
40150.5,15858.1
40145.3,15804.4
40129.6,15752.9
40104.2,15705.3
40070,15663.7
40028.3,15629.5
39980.8,15604.1
39929.2,15588.4
39889,15584.4
39889,15584.4
39875.6,15583.1
39862.2,15584.4
34377.2,15584.4
34363.8,15583.1
34350.3,15584.4
34310.1,15588.4
34258.6,15604.1
34211,15629.5
34169.4,15663.7
34135.2,15705.3
34109.8,15752.9
34094.1,15804.4
34088.8,15858.1
32650.5,15858.1
32645.3,15804.4
32629.6,15752.9
32604.2,15705.3
32570,15663.7
32528.3,15629.5
32480.8,15604.1
32429.2,15588.4
32389,15584.4
32389,15584.4
32375.6,15583.1
32362.2,15584.4
26877.2,15584.4
26863.8,15583.1
26850.3,15584.4
26810.1,15588.4
26758.6,15604.1
26711,15629.5
26669.4,15663.7
26635.2,15705.3
26609.8,15752.9
26594.1,15804.4
26588.8,15858.1
25609.8,15858.1
25609.8,14079.6
25667.9,14219.8
25770.6,14373.6
25901.4,14504.4
26055.2,14607.1
26226.1,14677.9
26407.5,14714
26592.5,14714
26773.9,14677.9
26944.8,14607.1
27098.6,14504.4
27229.4,14373.6
27332.1,14219.8
27402.9,14048.9
27439,13867.5
27439,13782.5
55761,13782.5
55761,13967.5
55797.1,14148.9
55867.9,14319.8
55970.6,14473.6
56101.4,14604.4
56255.2,14707.1
56426.1,14777.9
56607.5,14814
56792.5,14814
56973.9,14777.9
57144.8,14707.1
57298.6,14604.4
57429.4,14473.6
57532.1,14319.8
57602.9,14148.9
57639,13967.5
57639,13782.5
57602.9,13601.1
57532.1,13430.2
57429.4,13276.4
57298.6,13145.6
57144.8,13042.9
56973.9,12972.1
56792.5,12936
56607.5,12936
56426.1,12972.1
56255.2,13042.9
56101.4,13145.6
55970.6,13276.4
55867.9,13430.2
55797.1,13601.1
55761,13782.5
27439,13782.5
27439,13682.5
27402.9,13501.1
27332.1,13330.2
27229.4,13176.4
27098.6,13045.6
26944.8,12942.9
26804.6,12884.8
57437.3,12884.8
Z" /> 
<path style="fill:#840000; fill-opacity:1.0; 
stroke:#840000; stroke-width:100; stroke-opacity:1; 
stroke-linecap:round; stroke-linejoin:round;fill-rule:evenodd;"
d="M 26055.2,12942.9
25901.4,13045.6
25770.6,13176.4
25667.9,13330.2
25609.8,13470.4
25609.8,13137.7
25615.6,13078.6
25629.1,13034
25651,12992.8
25680.5,12956.7
25716.4,12926.9
25757.4,12904.8
25802,12891
25860.2,12884.8
26195.4,12884.8
Z" /> 
</g>
</g>
</g>
<g style="fill:#FFFFFF; fill-opacity:1.0; 
stroke:#FFFFFF; stroke-width:100; stroke-opacity:1; 
stroke-linecap:round; stroke-linejoin:round;">
</g>
<g style="fill:#FFFFFF; fill-opacity:1.0; 
stroke:#FFFFFF; stroke-width:0; stroke-opacity:1; 
stroke-linecap:round; stroke-linejoin:round;">
<circle cx="26500" cy="13775" r="433.071" /> 
</g>
<g style="fill:#FFFFFF; fill-opacity:1.0; 
stroke:#FFFFFF; stroke-width:39.3701; stroke-opacity:1; 
stroke-linecap:round; stroke-linejoin:round;">
</g>
<g style="fill:#FFFFFF; fill-opacity:1.0; 
stroke:#FFFFFF; stroke-width:0; stroke-opacity:1; 
stroke-linecap:round; stroke-linejoin:round;">
<circle cx="56700" cy="13875" r="433.071" /> 
</g>
<g style="fill:#FFFFFF; fill-opacity:1.0; 
stroke:#FFFFFF; stroke-width:39.3701; stroke-opacity:1; 
stroke-linecap:round; stroke-linejoin:round;">
</g>
<g style="fill:#FFFFFF; fill-opacity:1.0; 
stroke:#FFFFFF; stroke-width:0; stroke-opacity:1; 
stroke-linecap:round; stroke-linejoin:round;">
<circle cx="17750" cy="23375" r="433.071" /> 
</g>
<g style="fill:#FFFFFF; fill-opacity:1.0; 
stroke:#FFFFFF; stroke-width:39.3701; stroke-opacity:1; 
stroke-linecap:round; stroke-linejoin:round;">
</g>
<g style="fill:#FFFFFF; fill-opacity:1.0; 
stroke:#FFFFFF; stroke-width:0; stroke-opacity:1; 
stroke-linecap:round; stroke-linejoin:round;">
<circle cx="56700" cy="62975" r="433.071" /> 
</g>
<g style="fill:#FFFFFF; fill-opacity:1.0; 
stroke:#FFFFFF; stroke-width:39.3701; stroke-opacity:1; 
stroke-linecap:round; stroke-linejoin:round;">
</g>
<g style="fill:#FFFFFF; fill-opacity:1.0; 
stroke:#FFFFFF; stroke-width:0; stroke-opacity:1; 
stroke-linecap:round; stroke-linejoin:round;">
<circle cx="17700" cy="62975" r="433.071" /> 
</g>
<g style="fill:#FFFFFF; fill-opacity:1.0; 
stroke:#FFFFFF; stroke-width:39.3701; stroke-opacity:1; 
stroke-linecap:round; stroke-linejoin:round;">
</g>
<g style="fill:#000000; fill-opacity:1.0; 
stroke:#000000; stroke-width:39.3701; stroke-opacity:1; 
stroke-linecap:round; stroke-linejoin:round;">
</g>
<g style="fill:#C2C200; fill-opacity:1.0; 
stroke:#C2C200; stroke-width:39.3701; stroke-opacity:1; 
stroke-linecap:round; stroke-linejoin:round;">
</g>
<g style="fill:#C2C200; fill-opacity:1.0; 
stroke:#C2C200; stroke-width:78.7402; stroke-opacity:1; 
stroke-linecap:round; stroke-linejoin:round;">
</g>
<g style="fill:#C2C200; fill-opacity:0.0; 
stroke:#C2C200; stroke-width:78.7402; stroke-opacity:1; 
stroke-linecap:round; stroke-linejoin:round;">
<path d="M49345 51478
L49345 56990
" />
<path d="M53006 47895
L51904 47895
" />
<path d="M53006 48220
L53006 47895
" />
<path d="M54278 48220
L53006 48220
" />
<path d="M54278 48900
L54278 48220
" />
<path d="M54640 48900
L54278 48900
" />
<path d="M54640 50198
L54640 48900
" />
<path d="M54278 50198
L54640 50198
" />
<path d="M54278 50878
L54278 50198
" />
<path d="M53006 50878
L54278 50878
" />
<path d="M53006 51478
L53006 50878
" />
<path d="M54856 51478
L53006 51478
" />
<path d="M54856 56990
L54856 51478
" />
<path d="M53006 56990
L54856 56990
" />
<path d="M53006 57590
L53006 56990
" />
<path d="M54278 57590
L53006 57590
" />
<path d="M54278 58270
L54278 57590
" />
<path d="M54640 58270
L54278 58270
" />
<path d="M54640 59568
L54640 58270
" />
<path d="M49435 60248
L51904 60248
" />
<path d="M49435 59568
L49435 60248
" />
<path d="M49050 59568
L49435 59568
" />
<path d="M49050 58270
L49050 59568
" />
<path d="M49435 58270
L49050 58270
" />
<path d="M49435 57590
L49435 58270
" />
<path d="M51195 57590
L49435 57590
" />
<path d="M51195 56990
L51195 57590
" />
<path d="M49345 56990
L51195 56990
" />
<path d="M51195 51478
L49345 51478
" />
<path d="M51195 50878
L51195 51478
" />
<path d="M49435 50878
L51195 50878
" />
<path d="M54278 59568
L54640 59568
" />
<path d="M54278 60248
L54278 59568
" />
<path d="M53006 60248
L54278 60248
" />
<path d="M53006 60573
L53006 60248
" />
<path d="M51904 60573
L53006 60573
" />
<path d="M51904 60248
L51904 60573
" />
<path d="M49435 48900
L49050 48900
" />
<path d="M49435 48220
L49435 48900
" />
<path d="M51904 48220
L49435 48220
" />
<path d="M51904 47895
L51904 48220
" />
<path d="M49435 50198
L49435 50878
" />
<path d="M49050 50198
L49435 50198
" />
<path d="M49050 48900
L49050 50198
" />
</g>
<g style="fill:#C2C200; fill-opacity:0.0; 
stroke:#C2C200; stroke-width:47.2441; stroke-opacity:1; 
stroke-linecap:round; stroke-linejoin:round;">
<path d="M24130 38600
L24130 28275
" />
<path d="M23264 38600
L23264 28275
" />
<path d="M22398 38600
L22398 28275
" />
<path d="M21532 38600
L21532 28275
" />
<path d="M20666 38600
L20666 28275
" />
<path d="M24630.7 28275 A250 250 0.0 0 0 24130.7 28275" />
<path d="M23764.6 28275 A250 250 0.0 0 0 23264.6 28275" />
<path d="M22898.4 28275 A250 250 0.0 0 0 22398.4 28275" />
<path d="M22032.3 28275 A250 250 0.0 0 0 21532.3 28275" />
<path d="M21166.1 28275 A250 250 0.0 0 0 20666.1 28275" />
<path d="M24130.7 38600 A250 250 0.0 0 0 24630.7 38600" />
<path d="M23264.6 38600 A250 250 0.0 0 0 23764.6 38600" />
<path d="M22398.4 38600 A250 250 0.0 0 0 22898.4 38600" />
<path d="M21532.3 38600 A250 250 0.0 0 0 22032.3 38600" />
<path d="M20666.1 38600 A250 250 0.0 0 0 21166.1 38600" />
<path d="M24630 38600
L24630 28275
" />
<path d="M23764 38600
L23764 28275
" />
<path d="M22898 38600
L22898 28275
" />
<path d="M22032 38600
L22032 28275
" />
<path d="M21166 38600
L21166 28275
" />
<path d="M20300 28275 A250 250 0.0 0 0 19800 28275" />
<path d="M19800 38600
L19800 28275
" />
</g>
<g style="fill:#C2C200; fill-opacity:0.0; 
stroke:#C2C200; stroke-width:19.685; stroke-opacity:1; 
stroke-linecap:round; stroke-linejoin:round;">
<path d="M57950 63675
L57950 13125
" />
<path d="M16500 22625
L16500 63675
" />
<path d="M17000 64175
L57450 64175
" />
<path d="M25850 12625
L57450 12625
" />
<path d="M25350 13125
L25350 21625
" />
<path d="M24850 22125
L17000 22125
" />
<path d="M57950 13125 A500 500 0.0 0 0 57450 12625" />
<path d="M57450 64175 A500 500 0.0 0 0 57950 63675" />
<path d="M16500 63675 A500 500 0.0 0 0 17000 64175" />
<path d="M17000 22125 A500 500 0.0 0 0 16500 22625" />
<path d="M25850 12625 A500 500 0.0 0 0 25350 13125" />
<path d="M24850 22125 A500 500 0.0 0 0 25350 21625" />
</g>
<g style="fill:#C2C200; fill-opacity:0.0; 
stroke:#C2C200; stroke-width:47.2441; stroke-opacity:1; 
stroke-linecap:round; stroke-linejoin:round;">
<path d="M34363 15858
L39875 15858
" />
<path d="M39875 15858
L39875 21369
" />
<path d="M34363 21369
L39875 21369
" />
<path d="M34363 15858
L34363 21369
" />
<path d="M47375 15858
L47375 21369
" />
<path d="M54875 15858
L54875 21369
" />
<path d="M41863 15858
L47375 15858
" />
<path d="M49363 15858
L54875 15858
" />
<path d="M41863 15858
L41863 21369
" />
<path d="M49363 15858
L49363 21369
" />
<path d="M41863 21369
L47375 21369
" />
<path d="M49363 21369
L54875 21369
" />
<path d="M32375 15858
L32375 21369
" />
<path d="M26863 15858
L32375 15858
" />
<path d="M26863 15858
L26863 21369
" />
<path d="M26863 21369
L32375 21369
" />
<path d="M26863 25232
L26863 30743
" />
<path d="M26863 25232
L32375 25232
" />
<path d="M32375 25232
L32375 30743
" />
<path d="M26863 30743
L32375 30743
" />
<path d="M34363 30743
L39875 30743
" />
<path d="M41863 30743
L47375 30743
" />
<path d="M49363 30743
L54875 30743
" />
<path d="M26863 38243
L32375 38243
" />
<path d="M34363 38243
L39875 38243
" />
<path d="M41863 38243
L47375 38243
" />
<path d="M49363 38243
L54875 38243
" />
<path d="M26863 45743
L32375 45743
" />
<path d="M34363 45743
L39875 45743
" />
<path d="M41863 45743
L47375 45743
" />
<path d="M49363 45743
L54875 45743
" />
<path d="M39875 25232
L39875 30743
" />
<path d="M47375 25232
L47375 30743
" />
<path d="M54875 25232
L54875 30743
" />
<path d="M32375 32732
L32375 38243
" />
<path d="M39875 32732
L39875 38243
" />
<path d="M47375 32732
L47375 38243
" />
<path d="M54875 32732
L54875 38243
" />
<path d="M32375 40232
L32375 45743
" />
<path d="M39875 40232
L39875 45743
" />
<path d="M47375 40232
L47375 45743
" />
<path d="M54875 40232
L54875 45743
" />
<path d="M34363 25232
L34363 30743
" />
<path d="M41863 25232
L41863 30743
" />
<path d="M49363 25232
L49363 30743
" />
<path d="M26863 32732
L26863 38243
" />
<path d="M34363 32732
L34363 38243
" />
<path d="M41863 32732
L41863 38243
" />
<path d="M49363 32732
L49363 38243
" />
<path d="M26863 40232
L26863 45743
" />
<path d="M34363 40232
L34363 45743
" />
<path d="M41863 40232
L41863 45743
" />
<path d="M49363 40232
L49363 45743
" />
<path d="M34363 25232
L39875 25232
" />
<path d="M41863 25232
L47375 25232
" />
<path d="M49363 25232
L54875 25232
" />
<path d="M26863 32732
L32375 32732
" />
<path d="M34363 32732
L39875 32732
" />
<path d="M41863 32732
L47375 32732
" />
<path d="M49363 32732
L54875 32732
" />
<path d="M26863 40232
L32375 40232
" />
<path d="M34363 40232
L39875 40232
" />
<path d="M41863 40232
L47375 40232
" />
<path d="M49363 40232
L54875 40232
" />
<path d="M19363 45743
L24875 45743
" />
<path d="M26863 53243
L32375 53243
" />
<path d="M19363 53243
L24875 53243
" />
<path d="M19363 60743
L24875 60743
" />
<path d="M24875 40232
L24875 45743
" />
<path d="M32375 47732
L32375 53243
" />
<path d="M24875 47732
L24875 53243
" />
<path d="M32375 55232
L32375 60743
" />
<path d="M24875 55232
L24875 60743
" />
<path d="M19363 40232
L19363 45743
" />
<path d="M26863 47732
L26863 53243
" />
<path d="M19363 47732
L19363 53243
" />
<path d="M19363 55232
L19363 60743
" />
<path d="M19363 40232
L24875 40232
" />
<path d="M26863 47732
L32375 47732
" />
<path d="M19363 47732
L24875 47732
" />
<path d="M19363 55232
L24875 55232
" />
<path d="M39875 47732
L39875 53243
" />
<path d="M47375 47732
L47375 53243
" />
<path d="M39875 55232
L39875 60743
" />
<path d="M47375 55232
L47375 60743
" />
<path d="M34363 53243
L39875 53243
" />
<path d="M41863 53243
L47375 53243
" />
<path d="M26863 60743
L32375 60743
" />
<path d="M34363 60743
L39875 60743
" />
<path d="M41863 60743
L47375 60743
" />
<path d="M34363 47732
L34363 53243
" />
<path d="M41863 47732
L41863 53243
" />
<path d="M26863 55232
L26863 60743
" />
<path d="M34363 55232
L34363 60743
" />
<path d="M41863 55232
L41863 60743
" />
<path d="M34363 47732
L39875 47732
" />
<path d="M41863 47732
L47375 47732
" />
<path d="M26863 55232
L32375 55232
" />
<path d="M34363 55232
L39875 55232
" />
<path d="M41863 55232
L47375 55232
" />
<path d="M20300 38600
L20300 28275
" />
<path d="M19800 38600 A250 250 0.0 0 0 20300 38600" />
<path d="M26900 22825 A450 450 0.0 0 0 26900 23725" />
<path d="M26900 22825
L54800 22824
" />
<path d="M26900 23725
L54800 23724
" />
<path d="M54800 23725 A450 450 0.0 0 0 54800 22825" />
<g >
</g>
<g >
</g>
<g >
</g>
<g >
</g>
<g >
</g>
<g >
</g>
</g> 
</svg>
